<?xml version="1.0" encoding="UTF-8" standalone="no"?>
<svg width="1199px" height="352px" viewBox="0 0 1199 352" version="1.1" xmlns="http://www.w3.org/2000/svg" xmlns:xlink="http://www.w3.org/1999/xlink">
    <!-- Generator: Sketch 3.7 (28169) - http://www.bohemiancoding.com/sketch -->
    <title>Slice 1</title>
    <desc>Created with Sketch.</desc>
    <defs>
        <polygon id="path-1" points="187.873175 174.781822 187.873175 0.645910837 0.1338021 0.645910837 0.1338021 174.781822 187.873175 174.781822"></polygon>
    </defs>
    <g id="Page-1" stroke="none" stroke-width="1" fill="none" fill-rule="evenodd">
        <g id="Group-4" transform="translate(0.000000, 131.000000)">
            <polygon id="Fill-81" fill="#DC8049" points="10.7031173 218.623811 335.410079 218.623811 335.410079 92.3005753 10.7031173 92.3005753"></polygon>
            <polygon id="Fill-82" fill="#005768" points="110.904662 178.321039 321.722338 178.321039 321.722338 130.176828 110.904662 130.176828"></polygon>
            <polygon id="Stroke-83" stroke="#E5A74B" stroke-width="0.711" points="110.904662 178.321039 321.722338 178.321039 321.722338 130.176828 110.904662 130.176828"></polygon>
            <polygon id="Fill-84" fill="#00687F" points="4.84615241 220.47022 339.709816 220.47022 339.709816 215.696738 4.84615241 215.696738"></polygon>
            <path d="M38.7183544,179.043691 L62.0420683,179.043691 L62.0420683,153.411088 L38.7183544,153.411088 L38.7183544,179.043691 Z M68.6660757,179.043691 L91.9831772,179.043691 L91.9831772,153.411088 L68.6660757,153.411088 L68.6660757,179.043691 Z M68.6660757,110.081795 L68.6660757,147.712744 L91.9831772,147.712744 L91.9831772,132.838707 C91.9831772,118.428759 80.4560486,111.225442 68.6660757,110.081795 L68.6660757,110.081795 Z M38.7183544,132.838707 L38.7183544,147.712744 L62.0420683,147.712744 L62.0420683,110.081795 C50.2636671,111.218812 38.7183544,118.428759 38.7183544,132.838707 L38.7183544,132.838707 Z" id="Fill-85"></path>
            <polygon id="Fill-87" points="118.837932 170.403357 153.525116 170.403357 153.525116 138.092852 118.837932 138.092852"></polygon>
            <polygon id="Stroke-89" stroke="#DC8049" stroke-width="0.459" points="118.837932 170.403357 153.525116 170.403357 153.525116 138.092852 118.837932 138.092852"></polygon>
            <polygon id="Fill-90" points="159.211811 170.403357 193.894036 170.403357 193.894036 138.092852 159.211811 138.092852"></polygon>
            <polygon id="Stroke-92" stroke="#DC8049" stroke-width="0.459" points="159.211811 170.403357 193.894036 170.403357 193.894036 138.092852 159.211811 138.092852"></polygon>
            <polygon id="Fill-93" points="199.577425 170.403357 234.26461 170.403357 234.26461 138.092852 199.577425 138.092852"></polygon>
            <polygon id="Stroke-95" stroke="#DC8049" stroke-width="0.459" points="199.577425 170.403357 234.26461 170.403357 234.26461 138.092852 199.577425 138.092852"></polygon>
            <polygon id="Fill-96" points="239.947998 170.403357 274.63353 170.403357 274.63353 138.092852 239.947998 138.092852"></polygon>
            <polygon id="Stroke-98" stroke="#DC8049" stroke-width="0.459" points="239.947998 170.403357 274.63353 170.403357 274.63353 138.092852 239.947998 138.092852"></polygon>
            <polygon id="Fill-99" points="280.318571 170.403357 315.00245 170.403357 315.00245 138.092852 280.318571 138.092852"></polygon>
            <polygon id="Stroke-101" stroke="#DC8049" stroke-width="0.459" points="280.318571 170.403357 315.00245 170.403357 315.00245 138.092852 280.318571 138.092852"></polygon>
            <polygon id="Fill-102" fill="#9C703D" points="10.7031173 99.951406 335.410079 99.951406 335.410079 92.3005753 10.7031173 92.3005753"></polygon>
            <polygon id="Fill-104" fill="#005768" points="290.182672 84.3845513 328.068623 84.3845513 328.068623 28.5298413 290.182672 28.5298413"></polygon>
            <polygon id="Fill-105" fill="#005768" points="249.570745 84.3845513 282.742029 84.3845513 282.742029 53.915483 249.570745 53.915483"></polygon>
            <polygon id="Fill-106" fill="#005768" points="202.599308 84.3845513 240.486912 84.3845513 240.486912 45.8635473 202.599308 45.8635473"></polygon>
            <polyline id="Fill-107" fill="#005768" points="195.160318 84.3845513 153.928475 84.3845513 153.928475 33.8088481 195.160318 16.0226559 195.160318 84.3845513"></polyline>
            <polygon id="Fill-108" fill="#005768" points="4.84615241 95.2293053 339.709816 95.2293053 339.709816 73.5431121 4.84615241 73.5431121"></polygon>
            <polyline id="Fill-109" fill="#005768" points="71.4118897 0.0298342615 0.116607761 67.587862 142.707172 67.587862 71.4118897 0.0298342615 0.116607761 67.587862 142.707172 67.587862 71.4118897 0.0298342615"></polyline>
            <path d="M85.9212267,41.5127175 C85.9212267,45.7624423 82.8150351,49.2116144 78.9831286,49.2116144 L63.8423039,49.2116144 C60.0103974,49.2116144 56.9025526,45.7624423 56.9025526,41.5127175 C56.9025526,37.2563628 60.0103974,33.8088481 63.8423039,33.8088481 L78.9831286,33.8088481 C82.8150351,33.8088481 85.9212267,37.2563628 85.9212267,41.5127175" id="Fill-110"></path>
            <path d="M85.9212267,41.5127175 C85.9212267,45.7624423 82.8150351,49.2116144 78.9831286,49.2116144 L63.8423039,49.2116144 C60.0103974,49.2116144 56.9025526,45.7624423 56.9025526,41.5127175 C56.9025526,37.2563628 60.0103974,33.8088481 63.8423039,33.8088481 L78.9831286,33.8088481 C82.8150351,33.8088481 85.9212267,37.2563628 85.9212267,41.5127175 L85.9212267,41.5127175 Z" id="Stroke-112" stroke="#DC8049" stroke-width="0.459"></path>
        </g>
        <g id="Group-5" transform="translate(660.000000, 0.000000)">
            <polygon id="Fill-505" fill="#DCC8BE" points="10.552451 351.58315 198.291824 351.58315 198.291824 29.9030445 10.552451 29.9030445"></polygon>
            <polygon id="Fill-506" fill="#3E4645" points="28.2286601 94.8862146 58.5295621 94.8862146 58.5295621 71.6850148 28.2286601 71.6850148"></polygon>
            <polygon id="Fill-507" fill="#3E4645" points="68.9235556 94.8862146 99.2271895 94.8862146 99.2271895 71.6850148 68.9235556 71.6850148"></polygon>
            <polygon id="Fill-508" fill="#3E4645" points="109.621183 94.8862146 139.922085 94.8862146 139.922085 71.6850148 109.621183 71.6850148"></polygon>
            <polygon id="Fill-509" fill="#3E4645" points="150.31881 94.8862146 180.619712 94.8862146 180.619712 71.6850148 150.31881 71.6850148"></polygon>
            <polygon id="Fill-510" fill="#3E4645" points="28.2286601 164.479496 58.5295621 164.479496 58.5295621 141.282423 28.2286601 141.282423"></polygon>
            <polygon id="Fill-511" fill="#3E4645" points="68.9235556 164.479496 99.2271895 164.479496 99.2271895 141.282423 68.9235556 141.282423"></polygon>
            <polygon id="Fill-512" fill="#3E4645" points="109.621183 164.479496 139.922085 164.479496 139.922085 141.282423 109.621183 141.282423"></polygon>
            <polygon id="Fill-513" fill="#3E4645" points="150.31881 164.479496 180.619712 164.479496 180.619712 141.282423 150.31881 141.282423"></polygon>
            <polygon id="Fill-514" fill="#3E4645" points="28.2286601 234.072777 58.5295621 234.072777 58.5295621 210.873641 28.2286601 210.873641"></polygon>
            <polygon id="Fill-515" fill="#3E4645" points="68.9235556 234.072777 99.2271895 234.072777 99.2271895 210.873641 68.9235556 210.873641"></polygon>
            <polygon id="Fill-516" fill="#3E4645" points="109.621183 234.072777 139.922085 234.072777 139.922085 210.873641 109.621183 210.873641"></polygon>
            <polygon id="Fill-517" fill="#3E4645" points="150.31881 234.072777 180.619712 234.072777 180.619712 210.873641 150.31881 210.873641"></polygon>
            <polygon id="Fill-518" fill="#DCC8BE" points="45.8584248 37.8954172 162.98585 37.8954172 162.98585 0.0735200595 45.8584248 0.0735200595"></polygon>
            <polygon id="Fill-519" fill="#3E4645" points="28.2286601 351.58315 71.9041961 351.58315 71.9041961 278.08345 28.2286601 278.08345"></polygon>
            <polygon id="Fill-520" fill="#3E4645" points="82.5836863 351.58315 126.261954 351.58315 126.261954 278.08345 82.5836863 278.08345"></polygon>
            <polygon id="Fill-521" fill="#3E4645" points="136.944176 351.58315 180.619712 351.58315 180.619712 278.08345 136.944176 278.08345"></polygon>
            <g id="Group-524" transform="translate(10.418649, 32.140001)">
                <mask id="mask-2" fill="white">
                    <use xlink:href="#path-1"></use>
                </mask>
                <g id="Clip-523"></g>
                <path d="M-10.3612763,174.781822 L198.375083,174.781822 L198.375083,137.849342 L-10.3612763,137.849342 L-10.3612763,174.781822 Z M-10.3612763,106.181138 L198.375083,106.181138 L198.375083,69.2507216 L-10.3612763,69.2507216 L-10.3612763,106.181138 Z M-10.3612763,37.5783909 L198.375083,37.5783909 L198.375083,0.645910837 L-10.3612763,0.645910837 L-10.3612763,37.5783909 Z" id="Fill-522" fill="#BA9B91" mask="url(#mask-2)"></path>
            </g>
            <polygon id="Fill-525" fill="#DCC8BE" points="0.057372549 66.8355245 208.793732 66.8355245 208.793732 29.9030445 0.057372549 29.9030445"></polygon>
            <polygon id="Fill-526" fill="#DCC8BE" points="0.057372549 135.440335 208.793732 135.440335 208.793732 98.503728 0.057372549 98.503728"></polygon>
            <polygon id="Fill-527" fill="#DCC8BE" points="0.057372549 204.041019 208.793732 204.041019 208.793732 167.104412 0.057372549 167.104412"></polygon>
            <polygon id="Fill-528" fill="#BA9B91" points="28.2286601 250.569299 180.619712 250.569299 180.619712 248.660457 28.2286601 248.660457"></polygon>
            <polygon id="Fill-529" fill="#BA9B91" points="28.2286601 258.05815 180.619712 258.05815 180.619712 256.149308 28.2286601 256.149308"></polygon>
            <polygon id="Fill-530" fill="#BA9B91" points="28.2286601 265.547001 180.619712 265.547001 180.619712 263.638159 28.2286601 263.638159"></polygon>
        </g>
        <g id="Group-3" transform="translate(346.000000, 98.000000)">
            <polygon id="Fill-537" fill="#AFB4B6" points="192.856879 112.695652 302.196054 112.695652 302.196054 66.1053913 192.856879 66.1053913"></polygon>
            <polyline id="Stroke-538" stroke="#838A8B" stroke-width="3.008" points="116.122618 62.0264348 116.122618 52.8871304 177.547597 52.8871304 177.547597 114.00887"></polyline>
            <polygon id="Fill-539" fill="#989EA0" points="16.1255013 251.892 302.196054 251.892 302.196054 111.919304 16.1255013 111.919304"></polygon>
            <polygon id="Fill-540" fill="#C7C9CA" points="0.121976901 138.229043 318.193045 138.229043 318.193045 111.919304 0.121976901 111.919304"></polygon>
            <polygon id="Fill-541" fill="#C7C9CA" points="0.121976901 165.764348 318.193045 165.764348 318.193045 152.611826 0.121976901 152.611826"></polygon>
            <polygon id="Fill-542" fill="#C7C9CA" points="0.121976901 205.682087 318.193045 205.682087 318.193045 192.528 0.121976901 192.528"></polygon>
            <polygon id="Fill-543" points="31.527893 111.640696 79.525398 111.640696 79.525398 0.871826087 31.527893 0.871826087"></polygon>
            <polygon id="Fill-545" fill="#D84933" points="31.527893 20.5669565 79.525398 20.5669565 79.525398 8.47095652 31.527893 8.47095652"></polygon>
            <polygon id="Fill-546" fill="#D84933" points="31.527893 43.3377391 79.525398 43.3377391 79.525398 31.248 31.527893 31.248"></polygon>
            <polygon id="Fill-547" fill="#D84933" points="31.527893 66.1053913 79.525398 66.1053913 79.525398 54.014087 31.527893 54.014087"></polygon>
            <polygon id="Fill-548" fill="#D84933" points="31.527893 88.8746087 79.525398 88.8746087 79.525398 76.7786087 31.527893 76.7786087"></polygon>
            <polygon id="Fill-549" fill="#D84933" points="31.527893 111.640696 79.525398 111.640696 79.525398 99.5431304 31.527893 99.5431304"></polygon>
            <polygon id="Fill-550" points="90.0893249 111.640696 138.103165 111.640696 138.103165 61.9231304 90.0893249 61.9231304"></polygon>
            <polygon id="Fill-552" fill="#D84933" points="90.0893249 77.5252174 138.103165 77.5252174 138.103165 68.4673043 90.0893249 68.4673043"></polygon>
            <polygon id="Fill-553" fill="#D84933" points="90.0893249 94.5876522 138.103165 94.5876522 138.103165 85.5250435 90.0893249 85.5250435"></polygon>
            <polygon id="Fill-554" fill="#D84933" points="90.0893249 111.640696 138.103165 111.640696 138.103165 102.576522 90.0893249 102.576522"></polygon>
            <polygon id="Fill-555" points="29.2099384 187.370609 65.5702986 187.370609 65.5702986 171.621391 29.2099384 171.621391"></polygon>
            <polygon id="Stroke-557" stroke="#838A8B" stroke-width="0.892" points="29.2099384 187.370609 65.5702986 187.370609 65.5702986 171.621391 29.2099384 171.621391"></polygon>
            <polygon id="Fill-558" points="73.9159152 187.370609 110.284443 187.370609 110.284443 171.621391 73.9159152 171.621391"></polygon>
            <polygon id="Stroke-560" stroke="#838A8B" stroke-width="0.892" points="73.9159152 187.370609 110.284443 187.370609 110.284443 171.621391 73.9159152 171.621391"></polygon>
            <polygon id="Fill-561" points="118.631693 187.370609 154.992053 187.370609 154.992053 171.621391 118.631693 171.621391"></polygon>
            <polygon id="Stroke-563" stroke="#838A8B" stroke-width="0.892" points="118.631693 187.370609 154.992053 187.370609 154.992053 171.621391 118.631693 171.621391"></polygon>
            <polygon id="Fill-564" points="163.336036 187.370609 199.699664 187.370609 199.699664 171.621391 163.336036 171.621391"></polygon>
            <polygon id="Stroke-566" stroke="#838A8B" stroke-width="0.892" points="163.336036 187.370609 199.699664 187.370609 199.699664 171.621391 163.336036 171.621391"></polygon>
            <polygon id="Fill-567" points="208.042013 187.370609 244.404007 187.370609 244.404007 171.621391 208.042013 171.621391"></polygon>
            <polygon id="Stroke-569" stroke="#838A8B" stroke-width="0.892" points="208.042013 187.370609 244.404007 187.370609 244.404007 171.621391 208.042013 171.621391"></polygon>
            <polygon id="Fill-570" points="252.74799 187.370609 289.109984 187.370609 289.109984 171.621391 252.74799 171.621391"></polygon>
            <polygon id="Stroke-572" stroke="#838A8B" stroke-width="0.892" points="252.74799 187.370609 289.109984 187.370609 289.109984 171.621391 252.74799 171.621391"></polygon>
            <polygon id="Fill-573" points="203.002626 85.4154783 228.741887 85.4154783 228.741887 74.268 203.002626 74.268"></polygon>
            <polygon id="Stroke-575" stroke="#838A8B" stroke-width="0.632" points="203.002626 85.4154783 228.741887 85.4154783 228.741887 74.268 203.002626 74.268"></polygon>
            <polygon id="Fill-576" points="234.651936 85.4154783 260.402631 85.4154783 260.402631 74.268 234.651936 74.268"></polygon>
            <polygon id="Stroke-578" stroke="#838A8B" stroke-width="0.632" points="234.651936 85.4154783 260.402631 85.4154783 260.402631 74.268 234.651936 74.268"></polygon>
            <polygon id="Fill-579" points="266.311046 85.4154783 292.050307 85.4154783 292.050307 74.268 266.311046 74.268"></polygon>
            <polygon id="Stroke-581" stroke="#838A8B" stroke-width="0.632" points="266.311046 85.4154783 292.050307 85.4154783 292.050307 74.268 266.311046 74.268"></polygon>
            <polygon id="Fill-582" points="203.002626 103.919478 228.741887 103.919478 228.741887 92.772 203.002626 92.772"></polygon>
            <polygon id="Stroke-584" stroke="#838A8B" stroke-width="0.632" points="203.002626 103.919478 228.741887 103.919478 228.741887 92.772 203.002626 92.772"></polygon>
            <polygon id="Fill-585" points="234.651936 103.919478 260.402631 103.919478 260.402631 92.772 234.651936 92.772"></polygon>
            <polygon id="Stroke-587" stroke="#838A8B" stroke-width="0.632" points="234.651936 103.919478 260.402631 103.919478 260.402631 92.772 234.651936 92.772"></polygon>
            <polygon id="Fill-588" points="266.311046 103.919478 292.050307 103.919478 292.050307 92.772 266.311046 92.772"></polygon>
            <polygon id="Stroke-590" stroke="#838A8B" stroke-width="0.632" points="266.311046 103.919478 292.050307 103.919478 292.050307 92.772 266.311046 92.772"></polygon>
        </g>
        <g id="Group-2" transform="translate(1034.000000, 176.000000)">
            <polygon id="Fill-32" fill="#005768" points="46.57379 37.744 51.45979 37.744 51.45979 19 46.57379 19"></polygon>
            <polygon id="Fill-33" fill="#005768" points="113.57379 37.744 118.45879 37.744 118.45879 19 113.57379 19"></polygon>
            <polygon id="Fill-34" fill="#D84933" points="12.57379 166.45 151.83479 166.45 151.83479 63 12.57379 63"></polygon>
            <path d="M7.5285,60.233 L7.5285,68.283 C7.5285,71.994 10.5355,75 14.2445,75 C17.9555,75 20.9645,71.994 20.9645,68.283 L20.9645,60.233 L7.5285,60.233" id="Fill-35" fill="#92312D"></path>
            <path d="M21.5285,60.233 L21.5285,68.283 C21.5285,71.994 24.5335,75 28.2445,75 C31.9525,75 34.9615,71.994 34.9615,68.283 L34.9615,60.233 L21.5285,60.233" id="Fill-36" fill="#B4BEC3"></path>
            <path d="M35.57379,60 L35.57379,68.05 C35.57379,71.761 38.57979,74.767 42.29079,74.767 C45.99879,74.767 49.00679,71.761 49.00679,68.05 L49.00679,60 L35.57379,60" id="Fill-37" fill="#92312D"></path>
            <path d="M48.57379,60 L48.57379,68.05 C48.57379,71.761 51.58079,74.767 55.29079,74.767 C59.00079,74.767 62.00779,71.761 62.00779,68.05 L62.00779,60 L48.57379,60" id="Fill-38" fill="#B4BEC3"></path>
            <path d="M61.57379,60 L61.57379,68.05 C61.57379,71.761 64.58079,74.767 68.28979,74.767 C71.99979,74.767 75.00779,71.761 75.00779,68.05 L75.00779,60 L61.57379,60" id="Fill-39" fill="#92312D"></path>
            <path d="M75.57379,60 L75.57379,68.05 C75.57379,71.761 78.58079,74.767 82.29079,74.767 C85.99979,74.767 89.00779,71.761 89.00779,68.05 L89.00779,60 L75.57379,60" id="Fill-40" fill="#B4BEC3"></path>
            <path d="M88.57379,60 L88.57379,68.05 C88.57379,71.761 91.57979,74.767 95.28979,74.767 C98.99879,74.767 102.00679,71.761 102.00679,68.05 L102.00679,60 L88.57379,60" id="Fill-41" fill="#92312D"></path>
            <path d="M102.57379,60 L102.57379,68.05 C102.57379,71.761 105.58079,74.767 109.29079,74.767 C112.99979,74.767 116.00879,71.761 116.00879,68.05 L116.00879,60 L102.57379,60" id="Fill-42" fill="#B4BEC3"></path>
            <path d="M115.57379,60 L115.57379,68.05 C115.57379,71.761 118.58079,74.767 122.29079,74.767 C125.99979,74.767 129.00579,71.761 129.00579,68.05 L129.00579,60 L115.57379,60" id="Fill-43" fill="#92312D"></path>
            <path d="M129.57379,60 L129.57379,68.05 C129.57379,71.761 132.58179,74.767 136.29079,74.767 C140.00079,74.767 143.00979,71.761 143.00979,68.05 L143.00979,60 L129.57379,60" id="Fill-44" fill="#B4BEC3"></path>
            <path d="M142.57379,60 L142.57379,68.05 C142.57379,71.761 145.57979,74.767 149.29079,74.767 C152.99879,74.767 156.00579,71.761 156.00579,68.05 L156.00579,60 L142.57379,60" id="Fill-45" fill="#92312D"></path>
            <polyline id="Fill-46" fill="#D84933" points="24.4495 35.233 7.5285 60.239 20.9645 60.239 35.5595 35.233 24.4495 35.233"></polyline>
            <polyline id="Fill-47" fill="#E6E7E8" points="36.16879 35 21.57379 60.006 35.00679 60.006 46.69679 35 36.16879 35"></polyline>
            <polyline id="Fill-48" fill="#D84933" points="46.68279 35 35.57379 60.006 49.00679 60.006 58.37079 35 46.68279 35"></polyline>
            <polyline id="Fill-49" fill="#E6E7E8" points="57.93779 35 48.57379 60.006 62.00779 60.006 66.74479 35 57.93779 35"></polyline>
            <polyline id="Fill-50" fill="#D84933" points="66.31079 35 61.57379 60.006 75.00779 60.006 76.22879 35 66.31079 35"></polyline>
            <polyline id="Fill-51" fill="#E6E7E8" points="76.79479 35 75.57379 60.006 89.00779 60.006 87.09879 35 76.79479 35"></polyline>
            <polyline id="Fill-52" fill="#D84933" points="86.57379 35 88.46279 60.006 101.89579 60.006 96.76779 35 86.57379 35"></polyline>
            <polyline id="Fill-53" fill="#E6E7E8" points="97.57379 35 102.70179 60.006 116.13679 60.006 107.82979 35 97.57379 35"></polyline>
            <polyline id="Fill-54" fill="#D84933" points="106.57379 35 115.85479 60.006 129.28679 60.006 117.93079 35 106.57379 35"></polyline>
            <polyline id="Fill-55" fill="#E6E7E8" points="117.57379 35 128.92979 60.006 142.36579 60.006 129.48679 35 117.57379 35"></polyline>
            <polyline id="Fill-56" fill="#D84933" points="129.57379 35 142.45279 60.006 155.88479 60.006 141.97979 35 129.57379 35"></polyline>
            <polygon id="Fill-57" points="24.57379 140.573 94.37179 140.573 94.37179 82 24.57379 82"></polygon>
            <polygon id="Stroke-59" stroke="#92312D" stroke-width="1.451" points="24.57379 140.573 94.37179 140.573 94.37179 82 24.57379 82"></polygon>
            <polygon id="Fill-60" fill="#B23130" points="105.57379 166.573 142.59879 166.573 142.59879 108 105.57379 108"></polygon>
            <polygon id="Stroke-61" stroke="#92312D" stroke-width="2.177" points="105.57379 166.573 142.59879 166.573 142.59879 108 105.57379 108"></polygon>
            <polygon id="Fill-62" fill="#92312D" points="0.573789983 173.315 164.31779 173.315 164.31779 165 0.573789983 165"></polygon>
            <polygon id="Fill-63" fill="#92312D" points="12.57379 163.158 104.96279 163.158 104.96279 159 12.57379 159"></polygon>
            <polygon id="Fill-64" fill="#92312D" points="12.57379 156.157 104.96279 156.157 104.96279 152 12.57379 152"></polygon>
            <path d="M121.69379,93.265 L121.69379,80 C113.03979,80.401 104.57379,82.944 104.57379,88.022 L104.57379,93.265 L121.69379,93.265" id="Fill-65"></path>
            <path d="M121.69379,93.265 L121.69379,80 C113.03979,80.401 104.57379,82.944 104.57379,88.022 L104.57379,93.265 L121.69379,93.265 L121.69379,93.265 Z" id="Stroke-67" stroke="#92312D" stroke-width="0.574"></path>
            <path d="M126.57379,93.265 L143.69479,93.265 L143.69479,88.022 C143.69479,82.944 135.22279,80.403 126.57379,80 L126.57379,93.265" id="Fill-68"></path>
            <path d="M126.57379,93.265 L143.69479,93.265 L143.69479,88.022 C143.69479,82.944 135.22279,80.403 126.57379,80 L126.57379,93.265 L126.57379,93.265 Z" id="Stroke-70" stroke="#92312D" stroke-width="0.574"></path>
            <polygon id="Fill-71" points="126.57379 105.036 143.69479 105.036 143.69479 96 126.57379 96"></polygon>
            <polygon id="Stroke-73" stroke="#92312D" stroke-width="0.574" points="126.57379 105.036 143.69479 105.036 143.69479 96 126.57379 96"></polygon>
            <polygon id="Fill-74" points="104.57379 105.036 121.69379 105.036 121.69379 96 104.57379 96"></polygon>
            <polygon id="Stroke-76" stroke="#92312D" stroke-width="0.574" points="104.57379 105.036 121.69379 105.036 121.69379 96 104.57379 96"></polygon>
            <path d="M113.36879,135.897 C113.36879,136.944 112.51879,137.795 111.47179,137.795 C110.42279,137.795 109.57379,136.944 109.57379,135.897 C109.57379,134.848 110.42279,134 111.47179,134 C112.51879,134 113.36879,134.848 113.36879,135.897" id="Fill-77" fill="#B4BEC3"></path>
            <polygon id="Fill-78" fill="#EEBA3B" points="35.57379 23.165 129.60879 23.165 129.60879 0 35.57379 0"></polygon>
        </g>
        <g id="Group-2" transform="translate(869.000000, 176.000000)">
            <polygon id="Fill-32" fill="#005768" points="46.57379 37.744 51.45979 37.744 51.45979 19 46.57379 19"></polygon>
            <polygon id="Fill-33" fill="#005768" points="113.57379 37.744 118.45879 37.744 118.45879 19 113.57379 19"></polygon>
            <polygon id="Fill-34" fill="#D84933" points="12.57379 166.45 151.83479 166.45 151.83479 63 12.57379 63"></polygon>
            <path d="M7.5285,60.233 L7.5285,68.283 C7.5285,71.994 10.5355,75 14.2445,75 C17.9555,75 20.9645,71.994 20.9645,68.283 L20.9645,60.233 L7.5285,60.233" id="Fill-35" fill="#92312D"></path>
            <path d="M21.5285,60.233 L21.5285,68.283 C21.5285,71.994 24.5335,75 28.2445,75 C31.9525,75 34.9615,71.994 34.9615,68.283 L34.9615,60.233 L21.5285,60.233" id="Fill-36" fill="#B4BEC3"></path>
            <path d="M35.57379,60 L35.57379,68.05 C35.57379,71.761 38.57979,74.767 42.29079,74.767 C45.99879,74.767 49.00679,71.761 49.00679,68.05 L49.00679,60 L35.57379,60" id="Fill-37" fill="#92312D"></path>
            <path d="M48.57379,60 L48.57379,68.05 C48.57379,71.761 51.58079,74.767 55.29079,74.767 C59.00079,74.767 62.00779,71.761 62.00779,68.05 L62.00779,60 L48.57379,60" id="Fill-38" fill="#B4BEC3"></path>
            <path d="M61.57379,60 L61.57379,68.05 C61.57379,71.761 64.58079,74.767 68.28979,74.767 C71.99979,74.767 75.00779,71.761 75.00779,68.05 L75.00779,60 L61.57379,60" id="Fill-39" fill="#92312D"></path>
            <path d="M75.57379,60 L75.57379,68.05 C75.57379,71.761 78.58079,74.767 82.29079,74.767 C85.99979,74.767 89.00779,71.761 89.00779,68.05 L89.00779,60 L75.57379,60" id="Fill-40" fill="#B4BEC3"></path>
            <path d="M88.57379,60 L88.57379,68.05 C88.57379,71.761 91.57979,74.767 95.28979,74.767 C98.99879,74.767 102.00679,71.761 102.00679,68.05 L102.00679,60 L88.57379,60" id="Fill-41" fill="#92312D"></path>
            <path d="M102.57379,60 L102.57379,68.05 C102.57379,71.761 105.58079,74.767 109.29079,74.767 C112.99979,74.767 116.00879,71.761 116.00879,68.05 L116.00879,60 L102.57379,60" id="Fill-42" fill="#B4BEC3"></path>
            <path d="M115.57379,60 L115.57379,68.05 C115.57379,71.761 118.58079,74.767 122.29079,74.767 C125.99979,74.767 129.00579,71.761 129.00579,68.05 L129.00579,60 L115.57379,60" id="Fill-43" fill="#92312D"></path>
            <path d="M129.57379,60 L129.57379,68.05 C129.57379,71.761 132.58179,74.767 136.29079,74.767 C140.00079,74.767 143.00979,71.761 143.00979,68.05 L143.00979,60 L129.57379,60" id="Fill-44" fill="#B4BEC3"></path>
            <path d="M142.57379,60 L142.57379,68.05 C142.57379,71.761 145.57979,74.767 149.29079,74.767 C152.99879,74.767 156.00579,71.761 156.00579,68.05 L156.00579,60 L142.57379,60" id="Fill-45" fill="#92312D"></path>
            <polyline id="Fill-46" fill="#D84933" points="24.4495 35.233 7.5285 60.239 20.9645 60.239 35.5595 35.233 24.4495 35.233"></polyline>
            <polyline id="Fill-47" fill="#E6E7E8" points="36.16879 35 21.57379 60.006 35.00679 60.006 46.69679 35 36.16879 35"></polyline>
            <polyline id="Fill-48" fill="#D84933" points="46.68279 35 35.57379 60.006 49.00679 60.006 58.37079 35 46.68279 35"></polyline>
            <polyline id="Fill-49" fill="#E6E7E8" points="57.93779 35 48.57379 60.006 62.00779 60.006 66.74479 35 57.93779 35"></polyline>
            <polyline id="Fill-50" fill="#D84933" points="66.31079 35 61.57379 60.006 75.00779 60.006 76.22879 35 66.31079 35"></polyline>
            <polyline id="Fill-51" fill="#E6E7E8" points="76.79479 35 75.57379 60.006 89.00779 60.006 87.09879 35 76.79479 35"></polyline>
            <polyline id="Fill-52" fill="#D84933" points="86.57379 35 88.46279 60.006 101.89579 60.006 96.76779 35 86.57379 35"></polyline>
            <polyline id="Fill-53" fill="#E6E7E8" points="97.57379 35 102.70179 60.006 116.13679 60.006 107.82979 35 97.57379 35"></polyline>
            <polyline id="Fill-54" fill="#D84933" points="106.57379 35 115.85479 60.006 129.28679 60.006 117.93079 35 106.57379 35"></polyline>
            <polyline id="Fill-55" fill="#E6E7E8" points="117.57379 35 128.92979 60.006 142.36579 60.006 129.48679 35 117.57379 35"></polyline>
            <polyline id="Fill-56" fill="#D84933" points="129.57379 35 142.45279 60.006 155.88479 60.006 141.97979 35 129.57379 35"></polyline>
            <polygon id="Fill-57" points="24.57379 140.573 94.37179 140.573 94.37179 82 24.57379 82"></polygon>
            <polygon id="Stroke-59" stroke="#92312D" stroke-width="1.451" points="24.57379 140.573 94.37179 140.573 94.37179 82 24.57379 82"></polygon>
            <polygon id="Fill-60" fill="#B23130" points="105.57379 166.573 142.59879 166.573 142.59879 108 105.57379 108"></polygon>
            <polygon id="Stroke-61" stroke="#92312D" stroke-width="2.177" points="105.57379 166.573 142.59879 166.573 142.59879 108 105.57379 108"></polygon>
            <polygon id="Fill-62" fill="#92312D" points="0.573789983 173.315 164.31779 173.315 164.31779 165 0.573789983 165"></polygon>
            <polygon id="Fill-63" fill="#92312D" points="12.57379 163.158 104.96279 163.158 104.96279 159 12.57379 159"></polygon>
            <polygon id="Fill-64" fill="#92312D" points="12.57379 156.157 104.96279 156.157 104.96279 152 12.57379 152"></polygon>
            <path d="M121.69379,93.265 L121.69379,80 C113.03979,80.401 104.57379,82.944 104.57379,88.022 L104.57379,93.265 L121.69379,93.265" id="Fill-65"></path>
            <path d="M121.69379,93.265 L121.69379,80 C113.03979,80.401 104.57379,82.944 104.57379,88.022 L104.57379,93.265 L121.69379,93.265 L121.69379,93.265 Z" id="Stroke-67" stroke="#92312D" stroke-width="0.574"></path>
            <path d="M126.57379,93.265 L143.69479,93.265 L143.69479,88.022 C143.69479,82.944 135.22279,80.403 126.57379,80 L126.57379,93.265" id="Fill-68"></path>
            <path d="M126.57379,93.265 L143.69479,93.265 L143.69479,88.022 C143.69479,82.944 135.22279,80.403 126.57379,80 L126.57379,93.265 L126.57379,93.265 Z" id="Stroke-70" stroke="#92312D" stroke-width="0.574"></path>
            <polygon id="Fill-71" points="126.57379 105.036 143.69479 105.036 143.69479 96 126.57379 96"></polygon>
            <polygon id="Stroke-73" stroke="#92312D" stroke-width="0.574" points="126.57379 105.036 143.69479 105.036 143.69479 96 126.57379 96"></polygon>
            <polygon id="Fill-74" points="104.57379 105.036 121.69379 105.036 121.69379 96 104.57379 96"></polygon>
            <polygon id="Stroke-76" stroke="#92312D" stroke-width="0.574" points="104.57379 105.036 121.69379 105.036 121.69379 96 104.57379 96"></polygon>
            <path d="M113.36879,135.897 C113.36879,136.944 112.51879,137.795 111.47179,137.795 C110.42279,137.795 109.57379,136.944 109.57379,135.897 C109.57379,134.848 110.42279,134 111.47179,134 C112.51879,134 113.36879,134.848 113.36879,135.897" id="Fill-77" fill="#B4BEC3"></path>
            <polygon id="Fill-78" fill="#EEBA3B" points="35.57379 23.165 129.60879 23.165 129.60879 0 35.57379 0"></polygon>
        </g>
    </g>
</svg>