<?xml version="1.0" encoding="UTF-8" standalone="no"?>
<svg width="704px" height="266px" viewBox="0 0 704 266" version="1.1" xmlns="http://www.w3.org/2000/svg" xmlns:xlink="http://www.w3.org/1999/xlink">
    <!-- Generator: Sketch 3.7 (28169) - http://www.bohemiancoding.com/sketch -->
    <title>Slice 1</title>
    <desc>Created with Sketch.</desc>
    <defs>
        <polygon id="path-1" points="127.122 4.569 127.122 0.247 0.966 0.247 0.966 4.569 127.122 4.569"></polygon>
        <polygon id="path-3" points="140.651 9.21 140.651 0.935 0.517 0.935 0.517 9.21 140.651 9.21"></polygon>
        <path d="M38.941,35.367 L0.686,35.367 L0.686,16.484 C0.686,5.921 9.248,0.07 19.813,0.07 C30.379,0.07 38.941,5.921 38.941,16.484 L38.941,35.367 L38.941,35.367 Z M0.686,0.07 L38.941,0.07 L38.941,35.367 L0.686,35.367 L0.686,0.07 L0.686,0.07 Z" id="path-5"></path>
        <path d="M38.482,35.367 L0.227,35.367 L0.227,16.484 C0.227,5.921 8.787,0.07 19.354,0.07 C29.919,0.07 38.482,5.921 38.482,16.484 L38.482,35.367 L38.482,35.367 Z M0.227,0.07 L38.482,0.07 L38.482,35.367 L0.227,35.367 L0.227,0.07 L0.227,0.07 Z" id="path-7"></path>
    </defs>
    <g id="Page-1" stroke="none" stroke-width="1" fill="none" fill-rule="evenodd">
        <g id="Group-6" transform="translate(288.668000, 108.257000)">
            <polyline id="Fill-3" fill="#BA9454" points="138.415 156.071 14.685 156.071 14.685 61.236 76.551 28.679 138.415 61.236 138.415 156.071"></polyline>
            <polygon id="Fill-4" fill="#9C703D" points="14.685 156.071 138.415 156.071 138.415 150.145 14.685 150.145"></polygon>
            <polygon id="Fill-5" fill="#69767B" points="33.33 156.071 119.77 156.071 119.77 73.09 33.33 73.09"></polygon>
            <polygon id="Fill-6" fill="#8898A0" points="33.33 84.944 119.77 84.944 119.77 79.017 33.33 79.017"></polygon>
            <polygon id="Fill-7" fill="#8898A0" points="33.33 96.8 119.77 96.8 119.77 90.872 33.33 90.872"></polygon>
            <polygon id="Fill-8" fill="#8898A0" points="33.33 108.653 119.77 108.653 119.77 102.726 33.33 102.726"></polygon>
            <polygon id="Fill-9" fill="#8898A0" points="33.33 120.508 119.77 120.508 119.77 114.581 33.33 114.581"></polygon>
            <polygon id="Fill-10" fill="#8898A0" points="33.33 132.363 119.77 132.363 119.77 126.434 33.33 126.434"></polygon>
            <polygon id="Fill-11" fill="#8898A0" points="33.33 144.216 119.77 144.216 119.77 138.29 33.33 138.29"></polygon>
            <polygon id="Fill-12" fill="#8898A0" points="33.33 156.071 119.77 156.071 119.77 150.145 33.33 150.145"></polygon>
            <polygon id="Fill-13" fill="#D6C4AA" points="14.685 84.944 27.188 84.944 27.188 79.017 14.685 79.017"></polygon>
            <polygon id="Fill-14" fill="#D6C4AA" points="14.685 96.8 27.188 96.8 27.188 90.872 14.685 90.872"></polygon>
            <polygon id="Fill-15" fill="#D6C4AA" points="14.685 108.653 27.188 108.653 27.188 102.726 14.685 102.726"></polygon>
            <polygon id="Fill-16" fill="#D6C4AA" points="14.685 120.508 27.188 120.508 27.188 114.581 14.685 114.581"></polygon>
            <polygon id="Fill-17" fill="#D6C4AA" points="14.685 132.363 27.188 132.363 27.188 126.434 14.685 126.434"></polygon>
            <polygon id="Fill-18" fill="#D6C4AA" points="14.685 144.216 27.188 144.216 27.188 138.29 14.685 138.29"></polygon>
            <polygon id="Fill-19" fill="#D6C4AA" points="125.914 84.944 138.415 84.944 138.415 79.017 125.914 79.017"></polygon>
            <polygon id="Fill-20" fill="#D6C4AA" points="125.914 96.8 138.415 96.8 138.415 90.872 125.914 90.872"></polygon>
            <polygon id="Fill-21" fill="#D6C4AA" points="125.914 108.653 138.415 108.653 138.415 102.726 125.914 102.726"></polygon>
            <polygon id="Fill-22" fill="#D6C4AA" points="125.914 120.508 138.415 120.508 138.415 114.581 125.914 114.581"></polygon>
            <polygon id="Fill-23" fill="#D6C4AA" points="125.914 132.363 138.415 132.363 138.415 126.434 125.914 126.434"></polygon>
            <polygon id="Fill-24" fill="#D6C4AA" points="125.914 144.216 138.415 144.216 138.415 138.29 125.914 138.29"></polygon>
            <polyline id="Fill-25" fill="#D6C4AA" points="153.049 50.042 76.551 10.1 0.052 50.042 0.052 69.495 76.551 29.553 153.049 69.495 153.049 50.042"></polyline>
            <polyline id="Fill-26" fill="#434B4C" points="153.049 40.543 76.551 0.601 0.052 40.543 0.052 59.996 76.551 20.055 153.049 59.996 153.049 40.543"></polyline>
            <path d="M90.02,56.578 C90.02,59.814 87.396,62.436 84.161,62.436 L71.233,62.436 C67.997,62.436 65.374,59.814 65.374,56.578 C65.374,53.344 67.997,50.719 71.233,50.719 L84.161,50.719 C87.396,50.719 90.02,53.344 90.02,56.578" id="Fill-27" fill="#9C703D"></path>
            <polyline id="Fill-28" fill="#9C703D" points="14.685 61.236 14.685 66.005 76.551 33.702 138.415 66.005 138.415 61.236 76.551 28.679 14.685 61.236"></polyline>
            <path d="M88.874,55.575 C88.874,58.811 86.25,61.434 83.015,61.434 L70.086,61.434 C66.852,61.434 64.227,58.811 64.227,55.575 C64.227,52.34 66.852,49.716 70.086,49.716 L83.015,49.716 C86.25,49.716 88.874,52.34 88.874,55.575" id="Fill-29" fill="#D6C4AA"></path>
        </g>
        <g id="Group-8" transform="translate(152.000000, 113.000000)">
            <polyline id="Fill-115" fill="#989EA0" points="92.654 68.695 92.654 20.889 3.671 20.889 3.671 152.017 142.19 152.017 142.19 89.988 92.654 68.695"></polyline>
            <path d="M128.267,101.82 C128.268,101.732 128.285,101.65 128.285,101.56 C128.285,95.772 122.004,91.079 114.263,91.079 C106.52,91.079 100.241,95.772 100.241,101.56 C100.241,101.65 100.257,101.732 100.257,101.82 L100.233,101.82 L100.233,140.805 L128.294,140.805 L128.294,101.82 L128.267,101.82" id="Fill-116" fill="#3E4645"></path>
            <path d="M71.604,100.008 L81.061,100.008 L81.061,91.611 L71.604,91.611 L71.604,100.008 Z M43.436,100.008 L52.892,100.008 L52.892,91.611 L43.436,91.611 L43.436,100.008 Z M15.265,100.008 L24.72,100.008 L24.72,91.611 L15.265,91.611 L15.265,100.008 Z M71.604,86.447 L81.061,86.447 L81.061,78.05 L71.604,78.05 L71.604,86.447 Z M43.436,86.447 L52.892,86.447 L52.892,78.05 L43.436,78.05 L43.436,86.447 Z M15.265,86.447 L24.72,86.447 L24.72,78.05 L15.265,78.05 L15.265,86.447 Z M71.604,72.886 L81.061,72.886 L81.061,64.489 L71.604,64.489 L71.604,72.886 Z M43.436,72.886 L52.892,72.886 L52.892,64.489 L43.436,64.489 L43.436,72.886 Z M15.265,72.886 L24.72,72.886 L24.72,64.489 L15.265,64.489 L15.265,72.886 Z" id="Fill-117" fill="#FFFFFF"></path>
            <polyline id="Fill-118" fill="#6C7474" points="44.371 78.986 52.892 78.986 52.892 78.05 43.436 78.05 43.436 86.447 44.371 86.447 44.371 78.986"></polyline>
            <polyline id="Fill-119" fill="#6C7474" points="44.371 65.426 52.892 65.426 52.892 64.489 43.436 64.489 43.436 72.886 44.371 72.886 44.371 65.426"></polyline>
            <polyline id="Fill-120" fill="#6C7474" points="72.539 65.426 81.061 65.426 81.061 64.489 71.604 64.489 71.604 72.886 72.539 72.886 72.539 65.426"></polyline>
            <polyline id="Fill-121" fill="#6C7474" points="72.539 78.986 81.061 78.986 81.061 78.05 71.604 78.05 71.604 86.447 72.539 86.447 72.539 78.986"></polyline>
            <polyline id="Fill-122" fill="#6C7474" points="16.2 65.426 24.72 65.426 24.72 64.489 15.265 64.489 15.265 72.886 16.2 72.886 16.2 65.426"></polyline>
            <polyline id="Fill-123" fill="#6C7474" points="72.539 92.548 81.061 92.548 81.061 91.611 71.604 91.611 71.604 100.008 72.539 100.008 72.539 92.548"></polyline>
            <polyline id="Fill-124" fill="#6C7474" points="44.371 92.548 52.892 92.548 52.892 91.611 43.436 91.611 43.436 100.008 44.371 100.008 44.371 92.548"></polyline>
            <polyline id="Fill-125" fill="#6C7474" points="16.2 78.986 24.72 78.986 24.72 78.05 15.265 78.05 15.265 86.447 16.2 86.447 16.2 78.986"></polyline>
            <polyline id="Fill-126" fill="#6C7474" points="16.2 92.548 24.72 92.548 24.72 91.611 15.265 91.611 15.265 100.008 16.2 100.008 16.2 92.548"></polyline>
            <polygon id="Fill-127" fill="#3E4645" points="14.06 114.561 27.619 114.561 27.619 107.688 14.06 107.688"></polygon>
            <polygon id="Fill-128" fill="#3E4645" points="32.273 114.561 45.836 114.561 45.836 107.688 32.273 107.688"></polygon>
            <polygon id="Fill-129" fill="#3E4645" points="50.488 114.561 64.051 114.561 64.051 107.688 50.488 107.688"></polygon>
            <polygon id="Fill-130" fill="#3E4645" points="68.705 114.561 82.266 114.561 82.266 107.688 68.705 107.688"></polygon>
            <polygon id="Fill-131" fill="#3E4645" points="14.06 127.681 27.619 127.681 27.619 120.808 14.06 120.808"></polygon>
            <polygon id="Fill-132" fill="#3E4645" points="32.273 127.681 45.836 127.681 45.836 120.808 32.273 120.808"></polygon>
            <polygon id="Fill-133" fill="#3E4645" points="50.488 127.681 64.051 127.681 64.051 120.808 50.488 120.808"></polygon>
            <polygon id="Fill-134" fill="#3E4645" points="68.705 127.681 82.266 127.681 82.266 120.808 68.705 120.808"></polygon>
            <polygon id="Fill-135" fill="#3E4645" points="14.06 140.8 27.619 140.8 27.619 133.927 14.06 133.927"></polygon>
            <polygon id="Fill-136" fill="#3E4645" points="32.273 140.8 45.836 140.8 45.836 133.927 32.273 133.927"></polygon>
            <polygon id="Fill-137" fill="#3E4645" points="50.488 140.8 64.051 140.8 64.051 133.927 50.488 133.927"></polygon>
            <polygon id="Fill-138" fill="#3E4645" points="68.705 140.8 82.266 140.8 82.266 133.927 68.705 133.927"></polygon>
            <polygon id="Fill-139" fill="#9C703D" points="3.671 56.546 96.3 56.546 96.3 20.893 3.671 20.893"></polygon>
            <polygon id="Fill-141" fill="#6C7474" points="9.605 26.152 32.273 26.152 32.273 0.142 9.605 0.142"></polygon>
            <polygon id="Fill-142" fill="#6C7474" points="0.024 54.972 96.3 54.972 96.3 19.318 0.024 19.318"></polygon>
            <path d="M87.86,33.322 C87.86,33.291 87.866,33.262 87.866,33.229 C87.866,31.16 85.623,29.483 82.854,29.483 C80.084,29.483 77.839,31.16 77.839,33.229 C77.839,33.262 77.845,33.291 77.846,33.322 L77.836,33.322 L77.836,45.235 L87.869,45.235 L87.869,33.322 L87.86,33.322 L87.86,33.322 Z M64.739,33.229 C64.739,31.16 62.493,29.483 59.725,29.483 C56.957,29.483 54.712,31.16 54.712,33.229 C54.712,33.262 54.717,33.291 54.717,33.322 L54.71,33.322 L54.71,45.235 L64.742,45.235 L64.742,33.322 L64.732,33.322 C64.734,33.291 64.739,33.262 64.739,33.229 L64.739,33.229 Z M41.612,33.229 C41.612,31.16 39.366,29.483 36.599,29.483 C33.831,29.483 31.585,31.16 31.585,33.229 C31.585,33.262 31.59,33.291 31.591,33.322 L31.58,33.322 L31.58,45.235 L41.616,45.235 L41.616,33.322 L41.607,33.322 C41.607,33.291 41.612,33.262 41.612,33.229 L41.612,33.229 Z M18.484,33.229 C18.484,31.16 16.241,29.483 13.47,29.483 C10.702,29.483 8.457,31.16 8.457,33.229 C8.457,33.262 8.464,33.291 8.465,33.322 L8.455,33.322 L8.455,45.235 L18.487,45.235 L18.487,33.322 L18.478,33.322 C18.48,33.291 18.484,33.262 18.484,33.229 L18.484,33.229 Z" id="Fill-143" fill="#D4A068"></path>
            <path d="M9.298,34.165 L9.308,34.165 C9.308,34.135 9.301,34.104 9.301,34.072 C9.301,32.003 11.546,30.326 14.313,30.326 C15.705,30.326 16.963,30.749 17.872,31.435 C17.021,30.272 15.368,29.483 13.47,29.483 C10.702,29.483 8.457,31.16 8.457,33.229 C8.457,33.262 8.464,33.291 8.465,33.322 L8.455,33.322 L8.455,45.235 L9.298,45.235 L9.298,34.165" id="Fill-144" fill="#9C703D"></path>
            <path d="M32.423,34.165 L32.434,34.165 C32.434,34.135 32.429,34.104 32.429,34.072 C32.429,32.003 34.674,30.326 37.441,30.326 C38.832,30.326 40.091,30.75 40.999,31.435 C40.148,30.272 38.496,29.483 36.599,29.483 C33.831,29.483 31.585,31.16 31.585,33.229 C31.585,33.262 31.59,33.291 31.591,33.322 L31.58,33.322 L31.58,45.235 L32.423,45.235 L32.423,34.165" id="Fill-145" fill="#9C703D"></path>
            <path d="M78.68,34.165 L78.688,34.165 C78.688,34.135 78.682,34.104 78.682,34.072 C78.682,32.003 80.928,30.326 83.695,30.326 C85.087,30.326 86.345,30.749 87.253,31.434 C86.402,30.272 84.75,29.483 82.854,29.483 C80.084,29.483 77.839,31.16 77.839,33.229 C77.839,33.262 77.845,33.291 77.846,33.322 L77.836,33.322 L77.836,45.235 L78.68,45.235 L78.68,34.165" id="Fill-146" fill="#9C703D"></path>
            <path d="M55.553,34.165 L55.561,34.165 C55.561,34.135 55.556,34.104 55.556,34.072 C55.556,32.003 57.801,30.326 60.567,30.326 C61.958,30.326 63.218,30.75 64.125,31.435 C63.274,30.272 61.623,29.483 59.725,29.483 C56.957,29.483 54.712,31.16 54.712,33.229 C54.712,33.262 54.717,33.291 54.717,33.322 L54.71,33.322 L54.71,45.235 L55.553,45.235 L55.553,34.165" id="Fill-147" fill="#9C703D"></path>
            <path d="M115.787,92.869 L115.787,108.775 L126.51,108.775 L126.51,102.486 C126.51,96.397 121.21,93.353 115.787,92.869 L115.787,92.869 Z M102.018,102.486 L102.018,108.775 L112.742,108.775 L112.742,92.869 C107.326,93.351 102.018,96.397 102.018,102.486 L102.018,102.486 Z" id="Fill-148"></path>
        </g>
        <g id="Group-9" transform="translate(539.000000, 0.000000)">
            <polygon id="Fill-154" points="66.7843 55.3377615 101.9623 55.3377615 101.9623 37.8256881 66.7843 37.8256881"></polygon>
            <polyline id="Fill-156" points="83.8233 0 83.8233 0 78.8843 45.0247706 88.7678 45.0247706 83.8233 0"></polyline>
            <polygon id="Fill-158" fill="#AFB4B6" points="40.3843 75.457367 126.2943 75.457367 126.2943 51.2477064 40.3843 51.2477064"></polygon>
            <path d="M35.4222,259.112064 L132.4004,259.112064 L132.4004,73.8076789 L35.4222,73.8076789 L35.4222,259.112064 Z M31.5843,263.370505 L136.2405,263.370505 L136.2405,69.5504587 L31.5843,69.5504587 L31.5843,263.370505 Z" id="Fill-159" fill="#989EA0"></path>
            <polygon id="Fill-160" fill="#C7C9CA" points="33.7843 261.553651 134.6015 261.553651 134.6015 71.9908257 33.7843 71.9908257"></polygon>
            <polygon id="Fill-161" points="49.1843 67.9410367 55.2761 67.9410367 55.2761 56.1284404 49.1843 56.1284404"></polygon>
            <polygon id="Stroke-163" stroke="#AFB4B6" stroke-width="0.533" points="49.1843 67.9410367 55.2761 67.9410367 55.2761 56.1284404 49.1843 56.1284404"></polygon>
            <polygon id="Fill-164" points="60.1843 67.9410367 66.275 67.9410367 66.275 56.1284404 60.1843 56.1284404"></polygon>
            <polygon id="Stroke-166" stroke="#AFB4B6" stroke-width="0.533" points="60.1843 67.9410367 66.275 67.9410367 66.275 56.1284404 60.1843 56.1284404"></polygon>
            <polygon id="Fill-167" points="71.1843 67.9410367 77.275 67.9410367 77.275 56.1284404 71.1843 56.1284404"></polygon>
            <polygon id="Stroke-169" stroke="#AFB4B6" stroke-width="0.533" points="71.1843 67.9410367 77.275 67.9410367 77.275 56.1284404 71.1843 56.1284404"></polygon>
            <polygon id="Fill-170" points="81.0843 67.9410367 87.1761 67.9410367 87.1761 56.1284404 81.0843 56.1284404"></polygon>
            <polygon id="Stroke-172" stroke="#AFB4B6" stroke-width="0.533" points="81.0843 67.9410367 87.1761 67.9410367 87.1761 56.1284404 81.0843 56.1284404"></polygon>
            <polygon id="Fill-173" points="92.0843 67.9410367 98.1728 67.9410367 98.1728 56.1284404 92.0843 56.1284404"></polygon>
            <polygon id="Stroke-175" stroke="#AFB4B6" stroke-width="0.533" points="92.0843 67.9410367 98.1728 67.9410367 98.1728 56.1284404 92.0843 56.1284404"></polygon>
            <polygon id="Fill-176" points="103.0843 67.9410367 109.1805 67.9410367 109.1805 56.1284404 103.0843 56.1284404"></polygon>
            <polygon id="Stroke-178" stroke="#AFB4B6" stroke-width="0.533" points="103.0843 67.9410367 109.1805 67.9410367 109.1805 56.1284404 103.0843 56.1284404"></polygon>
            <polygon id="Fill-179" points="112.9843 67.9410367 119.0794 67.9410367 119.0794 56.1284404 112.9843 56.1284404"></polygon>
            <polygon id="Stroke-181" stroke="#AFB4B6" stroke-width="0.533" points="112.9843 67.9410367 119.0794 67.9410367 119.0794 56.1284404 112.9843 56.1284404"></polygon>
            <polygon id="Fill-182" points="39.2843 89.7030092 45.3772 89.7030092 45.3772 75.6513761 39.2843 75.6513761"></polygon>
            <polygon id="Stroke-184" stroke="#C7C9CA" stroke-width="0.582" points="39.2843 89.7030092 45.3772 89.7030092 45.3772 75.6513761 39.2843 75.6513761"></polygon>
            <polygon id="Fill-185" points="49.1843 89.7030092 55.2761 89.7030092 55.2761 75.6513761 49.1843 75.6513761"></polygon>
            <polygon id="Stroke-187" stroke="#C7C9CA" stroke-width="0.582" points="49.1843 89.7030092 55.2761 89.7030092 55.2761 75.6513761 49.1843 75.6513761"></polygon>
            <polygon id="Fill-188" points="60.1843 89.7030092 66.275 89.7030092 66.275 75.6513761 60.1843 75.6513761"></polygon>
            <polygon id="Stroke-190" stroke="#C7C9CA" stroke-width="0.582" points="60.1843 89.7030092 66.275 89.7030092 66.275 75.6513761 60.1843 75.6513761"></polygon>
            <polygon id="Fill-191" points="71.1843 89.7030092 77.275 89.7030092 77.275 75.6513761 71.1843 75.6513761"></polygon>
            <polygon id="Stroke-193" stroke="#C7C9CA" stroke-width="0.582" points="71.1843 89.7030092 77.275 89.7030092 77.275 75.6513761 71.1843 75.6513761"></polygon>
            <polygon id="Fill-194" points="81.0843 89.7030092 87.1761 89.7030092 87.1761 75.6513761 81.0843 75.6513761"></polygon>
            <polygon id="Stroke-196" stroke="#C7C9CA" stroke-width="0.582" points="81.0843 89.7030092 87.1761 89.7030092 87.1761 75.6513761 81.0843 75.6513761"></polygon>
            <polygon id="Fill-197" points="92.0843 89.7030092 98.1728 89.7030092 98.1728 75.6513761 92.0843 75.6513761"></polygon>
            <polygon id="Stroke-199" stroke="#C7C9CA" stroke-width="0.582" points="92.0843 89.7030092 98.1728 89.7030092 98.1728 75.6513761 92.0843 75.6513761"></polygon>
            <polygon id="Fill-200" points="103.0843 89.7030092 109.1805 89.7030092 109.1805 75.6513761 103.0843 75.6513761"></polygon>
            <polygon id="Stroke-202" stroke="#C7C9CA" stroke-width="0.582" points="103.0843 89.7030092 109.1805 89.7030092 109.1805 75.6513761 103.0843 75.6513761"></polygon>
            <polygon id="Fill-203" points="112.9843 89.7030092 119.0794 89.7030092 119.0794 75.6513761 112.9843 75.6513761"></polygon>
            <polygon id="Stroke-205" stroke="#C7C9CA" stroke-width="0.582" points="112.9843 89.7030092 119.0794 89.7030092 119.0794 75.6513761 112.9843 75.6513761"></polygon>
            <polygon id="Fill-206" points="123.9843 89.7030092 130.0761 89.7030092 130.0761 75.6513761 123.9843 75.6513761"></polygon>
            <polygon id="Stroke-208" stroke="#C7C9CA" stroke-width="0.582" points="123.9843 89.7030092 130.0761 89.7030092 130.0761 75.6513761 123.9843 75.6513761"></polygon>
            <polygon id="Fill-209" points="39.2843 109.225945 45.3772 109.225945 45.3772 95.1743119 39.2843 95.1743119"></polygon>
            <polygon id="Stroke-211" stroke="#C7C9CA" stroke-width="0.582" points="39.2843 109.225945 45.3772 109.225945 45.3772 95.1743119 39.2843 95.1743119"></polygon>
            <polygon id="Fill-212" points="49.1843 109.225945 55.2761 109.225945 55.2761 95.1743119 49.1843 95.1743119"></polygon>
            <polygon id="Stroke-214" stroke="#C7C9CA" stroke-width="0.582" points="49.1843 109.225945 55.2761 109.225945 55.2761 95.1743119 49.1843 95.1743119"></polygon>
            <polygon id="Fill-215" points="60.1843 109.225945 66.275 109.225945 66.275 95.1743119 60.1843 95.1743119"></polygon>
            <polygon id="Stroke-217" stroke="#C7C9CA" stroke-width="0.582" points="60.1843 109.225945 66.275 109.225945 66.275 95.1743119 60.1843 95.1743119"></polygon>
            <polygon id="Fill-218" points="71.1843 109.225945 77.275 109.225945 77.275 95.1743119 71.1843 95.1743119"></polygon>
            <polygon id="Stroke-220" stroke="#C7C9CA" stroke-width="0.582" points="71.1843 109.225945 77.275 109.225945 77.275 95.1743119 71.1843 95.1743119"></polygon>
            <polygon id="Fill-221" points="81.0843 109.225945 87.1761 109.225945 87.1761 95.1743119 81.0843 95.1743119"></polygon>
            <polygon id="Stroke-223" stroke="#C7C9CA" stroke-width="0.582" points="81.0843 109.225945 87.1761 109.225945 87.1761 95.1743119 81.0843 95.1743119"></polygon>
            <polygon id="Fill-224" points="92.0843 109.225945 98.1728 109.225945 98.1728 95.1743119 92.0843 95.1743119"></polygon>
            <polygon id="Stroke-226" stroke="#C7C9CA" stroke-width="0.582" points="92.0843 109.225945 98.1728 109.225945 98.1728 95.1743119 92.0843 95.1743119"></polygon>
            <polygon id="Fill-227" points="103.0843 109.225945 109.1805 109.225945 109.1805 95.1743119 103.0843 95.1743119"></polygon>
            <polygon id="Stroke-229" stroke="#C7C9CA" stroke-width="0.582" points="103.0843 109.225945 109.1805 109.225945 109.1805 95.1743119 103.0843 95.1743119"></polygon>
            <polygon id="Fill-230" points="112.9843 109.225945 119.0794 109.225945 119.0794 95.1743119 112.9843 95.1743119"></polygon>
            <polygon id="Stroke-232" stroke="#C7C9CA" stroke-width="0.582" points="112.9843 109.225945 119.0794 109.225945 119.0794 95.1743119 112.9843 95.1743119"></polygon>
            <polygon id="Fill-233" points="123.9843 109.225945 130.0761 109.225945 130.0761 95.1743119 123.9843 95.1743119"></polygon>
            <polygon id="Stroke-235" stroke="#C7C9CA" stroke-width="0.582" points="123.9843 109.225945 130.0761 109.225945 130.0761 95.1743119 123.9843 95.1743119"></polygon>
            <polygon id="Fill-236" points="39.2843 127.527477 45.3772 127.527477 45.3772 113.477064 39.2843 113.477064"></polygon>
            <polygon id="Stroke-238" stroke="#C7C9CA" stroke-width="0.582" points="39.2843 127.527477 45.3772 127.527477 45.3772 113.477064 39.2843 113.477064"></polygon>
            <polygon id="Fill-239" points="49.1843 127.527477 55.2761 127.527477 55.2761 113.477064 49.1843 113.477064"></polygon>
            <polygon id="Stroke-241" stroke="#C7C9CA" stroke-width="0.582" points="49.1843 127.527477 55.2761 127.527477 55.2761 113.477064 49.1843 113.477064"></polygon>
            <polygon id="Fill-242" points="60.1843 127.527477 66.275 127.527477 66.275 113.477064 60.1843 113.477064"></polygon>
            <polygon id="Stroke-244" stroke="#C7C9CA" stroke-width="0.582" points="60.1843 127.527477 66.275 127.527477 66.275 113.477064 60.1843 113.477064"></polygon>
            <polygon id="Fill-245" points="71.1843 127.527477 77.275 127.527477 77.275 113.477064 71.1843 113.477064"></polygon>
            <polygon id="Stroke-247" stroke="#C7C9CA" stroke-width="0.582" points="71.1843 127.527477 77.275 127.527477 77.275 113.477064 71.1843 113.477064"></polygon>
            <polygon id="Fill-248" points="81.0843 127.527477 87.1761 127.527477 87.1761 113.477064 81.0843 113.477064"></polygon>
            <polygon id="Stroke-250" stroke="#C7C9CA" stroke-width="0.582" points="81.0843 127.527477 87.1761 127.527477 87.1761 113.477064 81.0843 113.477064"></polygon>
            <polygon id="Fill-251" points="92.0843 127.527477 98.1728 127.527477 98.1728 113.477064 92.0843 113.477064"></polygon>
            <polygon id="Stroke-253" stroke="#C7C9CA" stroke-width="0.582" points="92.0843 127.527477 98.1728 127.527477 98.1728 113.477064 92.0843 113.477064"></polygon>
            <polygon id="Fill-254" points="103.0843 127.527477 109.1805 127.527477 109.1805 113.477064 103.0843 113.477064"></polygon>
            <polygon id="Stroke-256" stroke="#C7C9CA" stroke-width="0.582" points="103.0843 127.527477 109.1805 127.527477 109.1805 113.477064 103.0843 113.477064"></polygon>
            <polygon id="Fill-257" points="112.9843 127.527477 119.0794 127.527477 119.0794 113.477064 112.9843 113.477064"></polygon>
            <polygon id="Stroke-259" stroke="#C7C9CA" stroke-width="0.582" points="112.9843 127.527477 119.0794 127.527477 119.0794 113.477064 112.9843 113.477064"></polygon>
            <polygon id="Fill-260" points="123.9843 127.527477 130.0761 127.527477 130.0761 113.477064 123.9843 113.477064"></polygon>
            <polygon id="Stroke-262" stroke="#C7C9CA" stroke-width="0.582" points="123.9843 127.527477 130.0761 127.527477 130.0761 113.477064 123.9843 113.477064"></polygon>
            <polygon id="Fill-263" points="39.2843 145.83145 45.3772 145.83145 45.3772 131.779817 39.2843 131.779817"></polygon>
            <polygon id="Stroke-265" stroke="#C7C9CA" stroke-width="0.582" points="39.2843 145.83145 45.3772 145.83145 45.3772 131.779817 39.2843 131.779817"></polygon>
            <polygon id="Fill-266" points="49.1843 145.83145 55.2761 145.83145 55.2761 131.779817 49.1843 131.779817"></polygon>
            <polygon id="Stroke-268" stroke="#C7C9CA" stroke-width="0.582" points="49.1843 145.83145 55.2761 145.83145 55.2761 131.779817 49.1843 131.779817"></polygon>
            <polygon id="Fill-269" points="60.1843 145.83145 66.275 145.83145 66.275 131.779817 60.1843 131.779817"></polygon>
            <polygon id="Stroke-271" stroke="#C7C9CA" stroke-width="0.582" points="60.1843 145.83145 66.275 145.83145 66.275 131.779817 60.1843 131.779817"></polygon>
            <polygon id="Fill-272" points="71.1843 145.83145 77.275 145.83145 77.275 131.779817 71.1843 131.779817"></polygon>
            <polygon id="Stroke-274" stroke="#C7C9CA" stroke-width="0.582" points="71.1843 145.83145 77.275 145.83145 77.275 131.779817 71.1843 131.779817"></polygon>
            <polygon id="Fill-275" points="81.0843 145.83145 87.1761 145.83145 87.1761 131.779817 81.0843 131.779817"></polygon>
            <polygon id="Stroke-277" stroke="#C7C9CA" stroke-width="0.582" points="81.0843 145.83145 87.1761 145.83145 87.1761 131.779817 81.0843 131.779817"></polygon>
            <polygon id="Fill-278" points="92.0843 145.83145 98.1728 145.83145 98.1728 131.779817 92.0843 131.779817"></polygon>
            <polygon id="Stroke-280" stroke="#C7C9CA" stroke-width="0.582" points="92.0843 145.83145 98.1728 145.83145 98.1728 131.779817 92.0843 131.779817"></polygon>
            <polygon id="Fill-281" points="103.0843 145.83145 109.1805 145.83145 109.1805 131.779817 103.0843 131.779817"></polygon>
            <polygon id="Stroke-283" stroke="#C7C9CA" stroke-width="0.582" points="103.0843 145.83145 109.1805 145.83145 109.1805 131.779817 103.0843 131.779817"></polygon>
            <polygon id="Fill-284" points="112.9843 145.83145 119.0794 145.83145 119.0794 131.779817 112.9843 131.779817"></polygon>
            <polygon id="Stroke-286" stroke="#C7C9CA" stroke-width="0.582" points="112.9843 145.83145 119.0794 145.83145 119.0794 131.779817 112.9843 131.779817"></polygon>
            <polygon id="Fill-287" points="123.9843 145.83145 130.0761 145.83145 130.0761 131.779817 123.9843 131.779817"></polygon>
            <polygon id="Stroke-289" stroke="#C7C9CA" stroke-width="0.582" points="123.9843 145.83145 130.0761 145.83145 130.0761 131.779817 123.9843 131.779817"></polygon>
            <polygon id="Fill-290" points="39.2843 164.130541 45.3772 164.130541 45.3772 150.082569 39.2843 150.082569"></polygon>
            <polygon id="Stroke-292" stroke="#C7C9CA" stroke-width="0.582" points="39.2843 164.130541 45.3772 164.130541 45.3772 150.082569 39.2843 150.082569"></polygon>
            <polygon id="Fill-293" points="49.1843 164.130541 55.2761 164.130541 55.2761 150.082569 49.1843 150.082569"></polygon>
            <polygon id="Stroke-295" stroke="#C7C9CA" stroke-width="0.582" points="49.1843 164.130541 55.2761 164.130541 55.2761 150.082569 49.1843 150.082569"></polygon>
            <polygon id="Fill-296" points="60.1843 164.130541 66.275 164.130541 66.275 150.082569 60.1843 150.082569"></polygon>
            <polygon id="Stroke-298" stroke="#C7C9CA" stroke-width="0.582" points="60.1843 164.130541 66.275 164.130541 66.275 150.082569 60.1843 150.082569"></polygon>
            <polygon id="Fill-299" points="71.1843 164.130541 77.275 164.130541 77.275 150.082569 71.1843 150.082569"></polygon>
            <polygon id="Stroke-301" stroke="#C7C9CA" stroke-width="0.582" points="71.1843 164.130541 77.275 164.130541 77.275 150.082569 71.1843 150.082569"></polygon>
            <polygon id="Fill-302" points="81.0843 164.130541 87.1761 164.130541 87.1761 150.082569 81.0843 150.082569"></polygon>
            <polygon id="Stroke-304" stroke="#C7C9CA" stroke-width="0.582" points="81.0843 164.130541 87.1761 164.130541 87.1761 150.082569 81.0843 150.082569"></polygon>
            <polygon id="Fill-305" points="92.0843 164.130541 98.1728 164.130541 98.1728 150.082569 92.0843 150.082569"></polygon>
            <polygon id="Stroke-307" stroke="#C7C9CA" stroke-width="0.582" points="92.0843 164.130541 98.1728 164.130541 98.1728 150.082569 92.0843 150.082569"></polygon>
            <polygon id="Fill-308" points="103.0843 164.130541 109.1805 164.130541 109.1805 150.082569 103.0843 150.082569"></polygon>
            <polygon id="Stroke-310" stroke="#C7C9CA" stroke-width="0.582" points="103.0843 164.130541 109.1805 164.130541 109.1805 150.082569 103.0843 150.082569"></polygon>
            <polygon id="Fill-311" points="112.9843 164.130541 119.0794 164.130541 119.0794 150.082569 112.9843 150.082569"></polygon>
            <polygon id="Stroke-313" stroke="#C7C9CA" stroke-width="0.582" points="112.9843 164.130541 119.0794 164.130541 119.0794 150.082569 112.9843 150.082569"></polygon>
            <polygon id="Fill-314" points="123.9843 164.130541 130.0761 164.130541 130.0761 150.082569 123.9843 150.082569"></polygon>
            <polygon id="Stroke-316" stroke="#C7C9CA" stroke-width="0.582" points="123.9843 164.130541 130.0761 164.130541 130.0761 150.082569 123.9843 150.082569"></polygon>
            <polygon id="Fill-317" points="39.2843 183.654697 45.3772 183.654697 45.3772 169.605505 39.2843 169.605505"></polygon>
            <polygon id="Stroke-319" stroke="#C7C9CA" stroke-width="0.582" points="39.2843 183.654697 45.3772 183.654697 45.3772 169.605505 39.2843 169.605505"></polygon>
            <polygon id="Fill-320" points="49.1843 183.654697 55.2761 183.654697 55.2761 169.605505 49.1843 169.605505"></polygon>
            <polygon id="Stroke-322" stroke="#C7C9CA" stroke-width="0.582" points="49.1843 183.654697 55.2761 183.654697 55.2761 169.605505 49.1843 169.605505"></polygon>
            <polygon id="Fill-323" points="60.1843 183.654697 66.275 183.654697 66.275 169.605505 60.1843 169.605505"></polygon>
            <polygon id="Stroke-325" stroke="#C7C9CA" stroke-width="0.582" points="60.1843 183.654697 66.275 183.654697 66.275 169.605505 60.1843 169.605505"></polygon>
            <polygon id="Fill-326" points="71.1843 183.654697 77.275 183.654697 77.275 169.605505 71.1843 169.605505"></polygon>
            <polygon id="Stroke-328" stroke="#C7C9CA" stroke-width="0.582" points="71.1843 183.654697 77.275 183.654697 77.275 169.605505 71.1843 169.605505"></polygon>
            <polygon id="Fill-329" points="81.0843 183.654697 87.1761 183.654697 87.1761 169.605505 81.0843 169.605505"></polygon>
            <polygon id="Stroke-331" stroke="#C7C9CA" stroke-width="0.582" points="81.0843 183.654697 87.1761 183.654697 87.1761 169.605505 81.0843 169.605505"></polygon>
            <polygon id="Fill-332" points="92.0843 183.654697 98.1728 183.654697 98.1728 169.605505 92.0843 169.605505"></polygon>
            <polygon id="Stroke-334" stroke="#C7C9CA" stroke-width="0.582" points="92.0843 183.654697 98.1728 183.654697 98.1728 169.605505 92.0843 169.605505"></polygon>
            <polygon id="Fill-335" points="103.0843 183.654697 109.1805 183.654697 109.1805 169.605505 103.0843 169.605505"></polygon>
            <polygon id="Stroke-337" stroke="#C7C9CA" stroke-width="0.582" points="103.0843 183.654697 109.1805 183.654697 109.1805 169.605505 103.0843 169.605505"></polygon>
            <polygon id="Fill-338" points="112.9843 183.654697 119.0794 183.654697 119.0794 169.605505 112.9843 169.605505"></polygon>
            <polygon id="Stroke-340" stroke="#C7C9CA" stroke-width="0.582" points="112.9843 183.654697 119.0794 183.654697 119.0794 169.605505 112.9843 169.605505"></polygon>
            <polygon id="Fill-341" points="123.9843 183.654697 130.0761 183.654697 130.0761 169.605505 123.9843 169.605505"></polygon>
            <polygon id="Stroke-343" stroke="#C7C9CA" stroke-width="0.582" points="123.9843 183.654697 130.0761 183.654697 130.0761 169.605505 123.9843 169.605505"></polygon>
            <polygon id="Fill-344" points="39.2843 201.95989 45.3772 201.95989 45.3772 187.908257 39.2843 187.908257"></polygon>
            <polygon id="Stroke-346" stroke="#C7C9CA" stroke-width="0.582" points="39.2843 201.95989 45.3772 201.95989 45.3772 187.908257 39.2843 187.908257"></polygon>
            <polygon id="Fill-347" points="49.1843 201.95989 55.2761 201.95989 55.2761 187.908257 49.1843 187.908257"></polygon>
            <polygon id="Stroke-349" stroke="#C7C9CA" stroke-width="0.582" points="49.1843 201.95989 55.2761 201.95989 55.2761 187.908257 49.1843 187.908257"></polygon>
            <polygon id="Fill-350" points="60.1843 201.95989 66.275 201.95989 66.275 187.908257 60.1843 187.908257"></polygon>
            <polygon id="Stroke-352" stroke="#C7C9CA" stroke-width="0.582" points="60.1843 201.95989 66.275 201.95989 66.275 187.908257 60.1843 187.908257"></polygon>
            <polygon id="Fill-353" points="71.1843 201.95989 77.275 201.95989 77.275 187.908257 71.1843 187.908257"></polygon>
            <polygon id="Stroke-355" stroke="#C7C9CA" stroke-width="0.582" points="71.1843 201.95989 77.275 201.95989 77.275 187.908257 71.1843 187.908257"></polygon>
            <polygon id="Fill-356" points="81.0843 201.95989 87.1761 201.95989 87.1761 187.908257 81.0843 187.908257"></polygon>
            <polygon id="Stroke-358" stroke="#C7C9CA" stroke-width="0.582" points="81.0843 201.95989 87.1761 201.95989 87.1761 187.908257 81.0843 187.908257"></polygon>
            <polygon id="Fill-359" points="92.0843 201.95989 98.1728 201.95989 98.1728 187.908257 92.0843 187.908257"></polygon>
            <polygon id="Stroke-361" stroke="#C7C9CA" stroke-width="0.582" points="92.0843 201.95989 98.1728 201.95989 98.1728 187.908257 92.0843 187.908257"></polygon>
            <polygon id="Fill-362" points="103.0843 201.95989 109.1805 201.95989 109.1805 187.908257 103.0843 187.908257"></polygon>
            <polygon id="Stroke-364" stroke="#C7C9CA" stroke-width="0.582" points="103.0843 201.95989 109.1805 201.95989 109.1805 187.908257 103.0843 187.908257"></polygon>
            <polygon id="Fill-365" points="112.9843 201.95989 119.0794 201.95989 119.0794 187.908257 112.9843 187.908257"></polygon>
            <polygon id="Stroke-367" stroke="#C7C9CA" stroke-width="0.582" points="112.9843 201.95989 119.0794 201.95989 119.0794 187.908257 112.9843 187.908257"></polygon>
            <polygon id="Fill-368" points="123.9843 201.95989 130.0761 201.95989 130.0761 187.908257 123.9843 187.908257"></polygon>
            <polygon id="Stroke-370" stroke="#C7C9CA" stroke-width="0.582" points="123.9843 201.95989 130.0761 201.95989 130.0761 187.908257 123.9843 187.908257"></polygon>
            <polygon id="Fill-371" points="39.2843 220.262642 45.3772 220.262642 45.3772 206.211009 39.2843 206.211009"></polygon>
            <polygon id="Stroke-373" stroke="#C7C9CA" stroke-width="0.582" points="39.2843 220.262642 45.3772 220.262642 45.3772 206.211009 39.2843 206.211009"></polygon>
            <polygon id="Fill-374" points="49.1843 220.262642 55.2761 220.262642 55.2761 206.211009 49.1843 206.211009"></polygon>
            <polygon id="Stroke-376" stroke="#C7C9CA" stroke-width="0.582" points="49.1843 220.262642 55.2761 220.262642 55.2761 206.211009 49.1843 206.211009"></polygon>
            <polygon id="Fill-377" points="60.1843 220.262642 66.275 220.262642 66.275 206.211009 60.1843 206.211009"></polygon>
            <polygon id="Stroke-379" stroke="#C7C9CA" stroke-width="0.582" points="60.1843 220.262642 66.275 220.262642 66.275 206.211009 60.1843 206.211009"></polygon>
            <polygon id="Fill-380" points="71.1843 220.262642 77.275 220.262642 77.275 206.211009 71.1843 206.211009"></polygon>
            <polygon id="Stroke-382" stroke="#C7C9CA" stroke-width="0.582" points="71.1843 220.262642 77.275 220.262642 77.275 206.211009 71.1843 206.211009"></polygon>
            <polygon id="Fill-383" points="81.0843 220.262642 87.1761 220.262642 87.1761 206.211009 81.0843 206.211009"></polygon>
            <polygon id="Stroke-385" stroke="#C7C9CA" stroke-width="0.582" points="81.0843 220.262642 87.1761 220.262642 87.1761 206.211009 81.0843 206.211009"></polygon>
            <polygon id="Fill-386" points="92.0843 220.262642 98.1728 220.262642 98.1728 206.211009 92.0843 206.211009"></polygon>
            <polygon id="Stroke-388" stroke="#C7C9CA" stroke-width="0.582" points="92.0843 220.262642 98.1728 220.262642 98.1728 206.211009 92.0843 206.211009"></polygon>
            <polygon id="Fill-389" points="103.0843 220.262642 109.1805 220.262642 109.1805 206.211009 103.0843 206.211009"></polygon>
            <polygon id="Stroke-391" stroke="#C7C9CA" stroke-width="0.582" points="103.0843 220.262642 109.1805 220.262642 109.1805 206.211009 103.0843 206.211009"></polygon>
            <polygon id="Fill-392" points="112.9843 220.262642 119.0794 220.262642 119.0794 206.211009 112.9843 206.211009"></polygon>
            <polygon id="Stroke-394" stroke="#C7C9CA" stroke-width="0.582" points="112.9843 220.262642 119.0794 220.262642 119.0794 206.211009 112.9843 206.211009"></polygon>
            <polygon id="Fill-395" points="123.9843 220.262642 130.0761 220.262642 130.0761 206.211009 123.9843 206.211009"></polygon>
            <polygon id="Stroke-397" stroke="#C7C9CA" stroke-width="0.582" points="123.9843 220.262642 130.0761 220.262642 130.0761 206.211009 123.9843 206.211009"></polygon>
            <polygon id="Fill-398" points="39.2843 238.562954 45.3772 238.562954 45.3772 224.513761 39.2843 224.513761"></polygon>
            <polygon id="Stroke-400" stroke="#C7C9CA" stroke-width="0.582" points="39.2843 238.562954 45.3772 238.562954 45.3772 224.513761 39.2843 224.513761"></polygon>
            <polygon id="Fill-401" points="49.1843 238.562954 55.2761 238.562954 55.2761 224.513761 49.1843 224.513761"></polygon>
            <polygon id="Stroke-403" stroke="#C7C9CA" stroke-width="0.582" points="49.1843 238.562954 55.2761 238.562954 55.2761 224.513761 49.1843 224.513761"></polygon>
            <polygon id="Fill-404" points="60.1843 238.562954 66.275 238.562954 66.275 224.513761 60.1843 224.513761"></polygon>
            <polygon id="Stroke-406" stroke="#C7C9CA" stroke-width="0.582" points="60.1843 238.562954 66.275 238.562954 66.275 224.513761 60.1843 224.513761"></polygon>
            <polygon id="Fill-407" points="71.1843 238.562954 77.275 238.562954 77.275 224.513761 71.1843 224.513761"></polygon>
            <polygon id="Stroke-409" stroke="#C7C9CA" stroke-width="0.582" points="71.1843 238.562954 77.275 238.562954 77.275 224.513761 71.1843 224.513761"></polygon>
            <polygon id="Fill-410" points="81.0843 238.562954 87.1761 238.562954 87.1761 224.513761 81.0843 224.513761"></polygon>
            <polygon id="Stroke-412" stroke="#C7C9CA" stroke-width="0.582" points="81.0843 238.562954 87.1761 238.562954 87.1761 224.513761 81.0843 224.513761"></polygon>
            <polygon id="Fill-413" points="92.0843 238.562954 98.1728 238.562954 98.1728 224.513761 92.0843 224.513761"></polygon>
            <polygon id="Stroke-415" stroke="#C7C9CA" stroke-width="0.582" points="92.0843 238.562954 98.1728 238.562954 98.1728 224.513761 92.0843 224.513761"></polygon>
            <polygon id="Fill-416" points="103.0843 238.562954 109.1805 238.562954 109.1805 224.513761 103.0843 224.513761"></polygon>
            <polygon id="Stroke-418" stroke="#C7C9CA" stroke-width="0.582" points="103.0843 238.562954 109.1805 238.562954 109.1805 224.513761 103.0843 224.513761"></polygon>
            <polygon id="Fill-419" points="112.9843 238.562954 119.0794 238.562954 119.0794 224.513761 112.9843 224.513761"></polygon>
            <polygon id="Stroke-421" stroke="#C7C9CA" stroke-width="0.582" points="112.9843 238.562954 119.0794 238.562954 119.0794 224.513761 112.9843 224.513761"></polygon>
            <polygon id="Fill-422" points="123.9843 238.562954 130.0761 238.562954 130.0761 224.513761 123.9843 224.513761"></polygon>
            <polygon id="Stroke-424" stroke="#C7C9CA" stroke-width="0.582" points="123.9843 238.562954 130.0761 238.562954 130.0761 224.513761 123.9843 224.513761"></polygon>
            <polygon id="Fill-425" points="39.2843 256.870587 45.3772 256.870587 45.3772 242.816514 39.2843 242.816514"></polygon>
            <polygon id="Stroke-427" stroke="#C7C9CA" stroke-width="0.582" points="39.2843 256.870587 45.3772 256.870587 45.3772 242.816514 39.2843 242.816514"></polygon>
            <polygon id="Fill-428" points="49.1843 256.870587 55.2761 256.870587 55.2761 242.816514 49.1843 242.816514"></polygon>
            <polygon id="Stroke-430" stroke="#C7C9CA" stroke-width="0.582" points="49.1843 256.870587 55.2761 256.870587 55.2761 242.816514 49.1843 242.816514"></polygon>
            <polygon id="Fill-431" points="60.1843 256.870587 66.275 256.870587 66.275 242.816514 60.1843 242.816514"></polygon>
            <polygon id="Stroke-433" stroke="#C7C9CA" stroke-width="0.582" points="60.1843 256.870587 66.275 256.870587 66.275 242.816514 60.1843 242.816514"></polygon>
            <polygon id="Fill-434" points="71.1843 256.870587 77.275 256.870587 77.275 242.816514 71.1843 242.816514"></polygon>
            <polygon id="Stroke-436" stroke="#C7C9CA" stroke-width="0.582" points="71.1843 256.870587 77.275 256.870587 77.275 242.816514 71.1843 242.816514"></polygon>
            <polygon id="Fill-437" points="81.0843 256.870587 87.1761 256.870587 87.1761 242.816514 81.0843 242.816514"></polygon>
            <polygon id="Stroke-439" stroke="#C7C9CA" stroke-width="0.582" points="81.0843 256.870587 87.1761 256.870587 87.1761 242.816514 81.0843 242.816514"></polygon>
            <polygon id="Fill-440" points="92.0843 256.870587 98.1728 256.870587 98.1728 242.816514 92.0843 242.816514"></polygon>
            <polygon id="Stroke-442" stroke="#C7C9CA" stroke-width="0.582" points="92.0843 256.870587 98.1728 256.870587 98.1728 242.816514 92.0843 242.816514"></polygon>
            <polygon id="Fill-443" points="103.0843 256.870587 109.1805 256.870587 109.1805 242.816514 103.0843 242.816514"></polygon>
            <polygon id="Stroke-445" stroke="#C7C9CA" stroke-width="0.582" points="103.0843 256.870587 109.1805 256.870587 109.1805 242.816514 103.0843 242.816514"></polygon>
            <polygon id="Fill-446" points="112.9843 261.266908 129.6636 261.266908 129.6636 242.816514 112.9843 242.816514"></polygon>
            <polygon id="Stroke-448" stroke="#C7C9CA" stroke-width="0.582" points="112.9843 261.266908 129.6636 261.266908 129.6636 242.816514 112.9843 242.816514"></polygon>
            <path d="M0.7843,263.247266 C0.7843,263.247266 3.5068,262.534679 20.6041,262.029523 C24.8776,261.897743 29.5064,261.756202 34.4069,261.663468 C39.3019,261.560972 44.4675,261.430413 49.8113,261.377945 C55.1551,261.321817 60.6738,261.203459 66.2849,261.193697 C71.896,261.170514 77.594,261.14733 83.2931,261.119266 C88.99,261.14367 94.6913,261.168073 100.3013,261.192477 C105.9102,261.193697 111.4322,261.318156 116.7727,261.371844 C127.4603,261.521927 137.434,261.750101 145.9821,262.024642 C163.0816,262.531018 164.8394,263.247266 164.8394,263.247266 C164.8394,263.247266 163.0816,263.964734 145.9821,264.46989 C137.434,264.744431 127.4603,264.972606 116.7727,265.122688 C111.4322,265.176376 105.9102,265.302055 100.3013,265.303275 C94.6913,265.326459 88.99,265.352083 83.2931,265.374046 C77.594,265.350862 71.896,265.325239 66.2849,265.302055 C60.6738,265.292294 55.1551,265.171495 49.8113,265.117807 C44.4675,265.06656 39.3019,264.936 34.4069,264.829844 C29.5064,264.740771 24.8776,264.598009 20.6041,264.463789 C3.5068,263.958633 0.7843,263.247266 0.7843,263.247266" id="Fill-449" fill="#AFB4B6"></path>
            <path d="M24.8130493,242.994987 C24.6425493,240.101932 23.1652493,237.976372 21.4052493,237.920244 C20.6814493,235.494519 19.0578493,233.977831 17.2780493,234.324363 C15.5059493,234.668455 14.1067493,236.748868 13.6700493,239.369822 C13.6480493,239.373482 13.6238493,239.373482 13.6007493,239.377143 C11.8319493,239.721235 10.5306493,242.303143 10.6989493,245.14373 C10.8133493,247.086262 11.5855493,248.646877 12.6283493,249.327739 C12.8824493,251.779088 14.2816493,253.482464 15.8513493,253.177418 C16.5344493,253.041978 17.1372493,252.549024 17.6025493,251.831556 C18.3362493,253.049299 19.4054493,253.719179 20.5505493,253.495886 C22.4139493,253.133491 23.8065493,250.560124 23.8065493,247.614601 C24.5160493,246.412721 24.9175493,244.74839 24.8130493,242.994987" id="Fill-450" fill="#73AE4B"></path>
            <polyline id="Fill-451" fill="#351E16" points="20.1795 246.068303 17.732 250.360908 17.1226 242.816514 17.1226 250.101009 13.9843 247.04445 16.7134 251.177211 16.7134 262.429743 18.1214 262.429743 18.1214 252.219248 20.1795 246.068303"></polyline>
            <path d="M156.815068,242.994987 C156.644568,240.101932 155.166168,237.976372 153.406168,237.920244 C152.683468,235.494519 151.057668,233.977831 149.278968,234.324363 C147.509068,234.668455 146.107668,236.748868 145.672068,239.369822 C145.648968,239.373482 145.625868,239.373482 145.601668,239.377143 C143.832868,239.721235 142.531568,242.303143 142.698768,245.14373 C142.814268,247.086262 143.586468,248.646877 144.630368,249.327739 C144.884468,251.779088 146.282568,253.482464 147.852268,253.177418 C148.534268,253.041978 149.138168,252.549024 149.601268,251.831556 C150.337168,253.049299 151.406368,253.719179 152.553668,253.495886 C154.413768,253.133491 155.808568,250.560124 155.808568,247.614601 C156.516968,246.412721 156.918468,244.74839 156.815068,242.994987" id="Fill-452" fill="#73AE4B"></path>
            <polyline id="Fill-453" fill="#351E16" points="152.1784 246.068303 149.732 250.360908 149.1237 242.816514 149.1237 250.101009 145.9843 247.04445 148.7134 251.177211 148.7134 262.429743 150.1225 262.429743 150.1225 252.219248 152.1784 246.068303"></polyline>
        </g>
        <g id="Group-7" transform="translate(443.000000, 135.000000)">
            <polygon id="Fill-456" fill="#EEBA3B" points="6.966 124.46 133.122 124.46 133.122 47.247 6.966 47.247"></polygon>
            <polygon id="Fill-457" fill="#7A5942" points="0.668 130.017 138.773 130.017 138.773 120.89 0.668 120.89"></polygon>
            <polyline id="Fill-458" fill="#BA9454" points="116.543 6.676 22.896 6.676 0.668 47.247 138.773 47.247 116.543 6.676"></polyline>
            <polygon id="Fill-459" fill="#7A5942" points="32.217 25.017 46.934 25.017 46.934 0.324 32.217 0.324"></polygon>
            <polygon id="Fill-460" fill="#7A5942" points="17.275 128.763 54.666 128.763 54.666 60.647 17.275 60.647"></polygon>
            <polygon id="Fill-461" points="23.44 80.063 48.501 80.063 48.501 64.751 23.44 64.751"></polygon>
            <path d="M27.455,94.705 C27.455,96.011 26.396,97.071 25.087,97.071 C23.781,97.071 22.722,96.011 22.722,94.705 C22.722,93.397 23.781,92.338 25.087,92.338 C26.396,92.338 27.455,93.397 27.455,94.705" id="Fill-463" fill="#EEBA3B"></path>
            <polygon id="Fill-464" fill="#69767B" points="67.268 120.838 124.385 120.838 124.385 66.005 67.268 66.005"></polygon>
            <polygon id="Fill-465" fill="#8898A0" points="67.268 73.84 124.385 73.84 124.385 69.922 67.268 69.922"></polygon>
            <polygon id="Fill-466" fill="#8898A0" points="67.268 81.673 124.385 81.673 124.385 77.756 67.268 77.756"></polygon>
            <polygon id="Fill-467" fill="#8898A0" points="67.268 89.505 124.385 89.505 124.385 85.589 67.268 85.589"></polygon>
            <polygon id="Fill-468" fill="#8898A0" points="67.268 97.339 124.385 97.339 124.385 93.423 67.268 93.423"></polygon>
            <polygon id="Fill-469" fill="#8898A0" points="67.268 105.174 124.385 105.174 124.385 101.255 67.268 101.255"></polygon>
            <polygon id="Fill-470" fill="#8898A0" points="67.268 113.005 124.385 113.005 124.385 109.089 67.268 109.089"></polygon>
            <polygon id="Fill-471" fill="#8898A0" points="67.268 120.838 124.385 120.838 124.385 116.923 67.268 116.923"></polygon>
            <g id="Group-474" transform="translate(6.000000, 47.000000)">
                <mask id="mask-2" fill="white">
                    <use xlink:href="#path-1"></use>
                </mask>
                <g id="Clip-473"></g>
                <polyline id="Fill-472" fill="#9C703D" mask="url(#mask-2)" points="110.543 -36.001 16.896 -36.001 -5.332 4.569 132.773 4.569 110.543 -36.001"></polyline>
            </g>
        </g>
        <g id="Group-10" transform="translate(0.000000, 128.000000)">
            <polygon id="Fill-477" fill="#7A624B" points="5.517 137.8 145.651 137.8 145.651 38.935 5.517 38.935"></polygon>
            <polygon id="Fill-478" fill="#492A25" points="5.501 137.931 145.636 137.931 145.636 128.089 5.501 128.089"></polygon>
            <polygon id="Fill-479" fill="#492A25" points="58.831 137.931 92.335 137.931 92.335 52.565 58.831 52.565"></polygon>
            <path d="M67.69,91.49 C67.69,92.914 66.537,94.067 65.113,94.067 C63.691,94.067 62.536,92.914 62.536,91.49 C62.536,90.066 63.691,88.912 65.113,88.912 C66.537,88.912 67.69,90.066 67.69,91.49" id="Fill-480" fill="#7A624B"></path>
            <polygon id="Fill-481" points="64.355 76.897 86.811 76.897 86.811 57.709 64.355 57.709"></polygon>
            <g id="Group-485" transform="translate(5.000000, 38.000000)">
                <mask id="mask-4" fill="white">
                    <use xlink:href="#path-3"></use>
                </mask>
                <g id="Clip-484"></g>
                <polyline id="Fill-483" fill="#9C703D" mask="url(#mask-4)" points="146.067 -0.227 122.067 -26.394 19.099 -26.394 -4.9 0.03 -4.9 9.21 146.067 9.21 146.067 -0.227"></polyline>
            </g>
            <polyline id="Fill-486" fill="#492A25" points="151.067 34.432 127.067 8.265 24.099 8.265 0.1 34.688 0.1 43.867 151.067 43.867 151.067 34.432"></polyline>
            <polygon id="Fill-487" fill="#7A624B" points="54.587 47.21 96.582 47.21 96.582 0.024 54.587 0.024"></polygon>
            <path d="M139.119,107.454 L98.509,107.454 L98.509,87.409 C98.509,76.194 107.597,69.984 118.813,69.984 C130.029,69.984 139.119,76.194 139.119,87.409 L139.119,107.454" id="Fill-488" fill="#492A25"></path>
            <g id="Group-491" transform="translate(99.000000, 71.000000)">
                <mask id="mask-6" fill="white">
                    <use xlink:href="#path-5"></use>
                </mask>
                <g id="Clip-490"></g>
                <path d="M38.941,35.367 L0.686,35.367 L0.686,16.484 C0.686,5.921 9.248,0.07 19.813,0.07 C30.379,0.07 38.941,5.921 38.941,16.484 L38.941,35.367" id="Fill-489" mask="url(#mask-6)"></path>
            </g>
            <polygon id="Fill-492" fill="#492A25" points="118.006 107.454 119.512 107.454 119.512 70.961 118.006 70.961"></polygon>
            <polygon id="Fill-493" fill="#492A25" points="99.294 95.858 138.333 95.858 138.333 95.093 99.294 95.093"></polygon>
            <polygon id="Fill-494" fill="#492A25" points="99.294 83.852 138.333 83.852 138.333 83.087 99.294 83.087"></polygon>
            <path d="M52.658,107.454 L12.049,107.454 L12.049,87.409 C12.049,76.194 21.137,69.984 32.354,69.984 C43.569,69.984 52.658,76.194 52.658,87.409 L52.658,107.454" id="Fill-495" fill="#492A25"></path>
            <g id="Group-498" transform="translate(13.000000, 71.000000)">
                <mask id="mask-8" fill="white">
                    <use xlink:href="#path-7"></use>
                </mask>
                <g id="Clip-497"></g>
                <path d="M38.482,35.367 L0.227,35.367 L0.227,16.484 C0.227,5.921 8.787,0.07 19.354,0.07 C29.919,0.07 38.482,5.921 38.482,16.484 L38.482,35.367" id="Fill-496" mask="url(#mask-8)"></path>
            </g>
            <polygon id="Fill-499" fill="#492A25" points="31.546 107.454 33.053 107.454 33.053 70.961 31.546 70.961"></polygon>
            <polygon id="Fill-500" fill="#492A25" points="12.835 95.858 51.873 95.858 51.873 95.093 12.835 95.093"></polygon>
            <polygon id="Fill-501" fill="#492A25" points="12.835 83.852 51.873 83.852 51.873 83.087 12.835 83.087"></polygon>
        </g>
    </g>
</svg>