<?xml version="1.0" encoding="UTF-8" standalone="no"?>
<svg width="331px" height="264px" viewBox="0 0 331 264" version="1.1" xmlns="http://www.w3.org/2000/svg" xmlns:xlink="http://www.w3.org/1999/xlink" xmlns:sketch="http://www.bohemiancoding.com/sketch/ns">
    <!-- Generator: Sketch 3.3.2 (12043) - http://www.bohemiancoding.com/sketch -->
    <title>Group</title>
    <desc>Created with Sketch.</desc>
    <defs></defs>
    <g id="Page-1" stroke="none" stroke-width="1" fill="none" fill-rule="evenodd" sketch:type="MSPage">
        <g id="Group" sketch:type="MSLayerGroup">
            <path d="M317.050671,220.003913 C316.709671,215.064913 318.106671,209.953913 320.731671,206.532913 C323.357671,203.111913 327.156671,201.452913 330.745671,202.160913 C325.738671,207.862913 321.269671,214.445913 317.482671,221.697913" id="Fill-162" fill="#E1C665" sketch:type="MSShapeGroup"></path>
            <path d="M316.153,223.144977 C315.643,215.635977 311.362,208.886977 306,207.141977 C308.812,204.913977 312.636,206.116977 314.926,209.270977 C317.216,212.424977 318.11,217.112977 317.922,221.551977" id="Fill-163" fill="#E1C665" sketch:type="MSShapeGroup"></path>
            <path d="M319.943,231.241 C319.965,231.128 319.986,231.013 319.986,230.881 L319.386,220.128 L319.904,220.128 C320.13,220.128 320.316,219.874 320.316,219.564 C320.316,219.254 320.13,219 319.904,219 L315.342,219 C315.115,219 314.93,219.254 314.93,219.564 C314.93,219.874 315.115,220.128 315.342,220.128 L315.974,220.128 L315.315,230.806 L315.337,230.967 C312.833,232.091 311,235.289 311,239.078 L311,246.523 C311,248.411 311.556,257.503 312.842,257.614 C314.573,257.765 315.2,257.878 317.266,257.878 C317.266,257.878 321.085,257.727 321.992,257.614 C323.265,257.456 323.696,248.395 323.696,246.523 L323.696,239.078 C323.696,235.586 322.145,232.574 319.943,231.241" id="Fill-164" fill="#D7565A" sketch:type="MSShapeGroup"></path>
            <path d="M35.4622089,210.903 C35.4622089,209.972 34.7822089,209.21 33.9512089,209.21 L34.3892089,209.272 L34.5412089,209.554 L34.5412089,209.667 C34.5052089,209.246 33.3522089,201.395 31.6412089,199.797 C31.6412089,199.797 31.5262089,199.639 31.3842089,199.381 L31.3842089,195.796 C31.7212089,195.21 32.2112089,194.554 32.8502089,193.702 C32.8502089,193.702 33.2532089,193.095 33.5812089,192.249 C34.4022089,190.123 34.5892089,185.821 30.4912089,183 C26.3552089,185.848 26.9332089,190.228 27.6022089,192.397 C27.8612089,193.237 28.1692089,193.66 28.1692089,193.66 C28.9412089,194.691 29.4952089,195.435 29.8232089,196.114 L29.8232089,198.953 C29.6102089,199.433 29.3772089,199.755 29.3772089,199.755 C27.5652089,201.448 26.0322089,209.385 26.0322089,209.385 L26.1832089,209.159 C25.4232089,209.245 24.7482089,210.703 25.0922089,210.89 C25.6752089,211.208 25.3342089,211.047 25.3572089,211.047 C26.2322089,211.047 34.6762089,210.98 35.4602089,210.98 L35.4622089,210.903" id="Fill-165" fill="#D7565A" sketch:type="MSShapeGroup"></path>
            <path d="M5,211 L57.464,211 L57.464,240.314 L5,240.314 L5,211 Z" id="Fill-166" fill="#D5D0BB" sketch:type="MSShapeGroup"></path>
            <path d="M7,214 L55.06,214 L55.06,239.163 L7,239.163 L7,214 Z" id="Fill-167" fill="#E1C665" sketch:type="MSShapeGroup"></path>
            <path d="M7,238 L54.683,238 L54.683,238.88 L7,238.88 L7,238 Z" id="Fill-168" fill="#D7565A" sketch:type="MSShapeGroup"></path>
            <path d="M54.683,213 L7,213 L7,213.881 L54.274,213.881 L54.274,224.984 L7.377,224.984 L7.377,225.865 L54.274,225.865 L54.274,238.414 L55.155,238.414 L55.155,213 L54.683,213" id="Fill-169" fill="#D7565A" sketch:type="MSShapeGroup"></path>
            <path d="M7,213 L9.08,213 L9.08,238.598 L7,238.598 L7,213 Z" id="Fill-170" fill="#D7565A" sketch:type="MSShapeGroup"></path>
            <path d="M34.932,220.465 C34.932,221.827 33.828,222.931 32.466,222.931 C31.104,222.931 30,221.827 30,220.465 C30,219.104 31.104,218 32.466,218 C33.828,218 34.932,219.104 34.932,220.465" id="Fill-171" fill="#4D5E66" sketch:type="MSShapeGroup"></path>
            <path d="M8.14438,240.408 L6.00038,256.037 C6.00038,256.037 5.96238,256.343 6.64638,256.269 C6.64638,256.269 7.14938,256.282 7.27338,255.889 L11.03738,240 L8.16838,240.245 L8.14438,240.408" id="Fill-172" fill="#D5D0BB" sketch:type="MSShapeGroup"></path>
            <path d="M34.932,231.466 C34.932,232.828 33.828,233.932 32.466,233.932 C31.104,233.932 30,232.828 30,231.466 C30,230.104 31.104,229 32.466,229 C33.828,229 34.932,230.104 34.932,231.466" id="Fill-173" fill="#4D5E66" sketch:type="MSShapeGroup"></path>
            <path d="M53.893,240.408 L56.038,256.036 C56.038,256.036 56.075,256.343 55.391,256.269 C55.391,256.269 54.889,256.282 54.764,255.889 L51,240 L53.87,240.245 L53.893,240.408" id="Fill-174" fill="#D5D0BB" sketch:type="MSShapeGroup"></path>
            <path d="M7,213 L54.625,213 L54.625,215.125 L7,215.125 L7,213 Z" id="Fill-175" fill="#D7565A" sketch:type="MSShapeGroup"></path>
            <path d="M7,225 L54.625,225 L54.625,227.125 L7,227.125 L7,225 Z" id="Fill-176" fill="#D7565A" sketch:type="MSShapeGroup"></path>
            <path d="M7,236 L54.625,236 L54.625,238.963 L7,238.963 L7,236 Z" id="Fill-177" fill="#D7565A" sketch:type="MSShapeGroup"></path>
            <path d="M53,213 L55.08,213 L55.08,238.597 L53,238.597 L53,213 Z" id="Fill-178" fill="#D7565A" sketch:type="MSShapeGroup"></path>
            <path d="M5,210 L59,210 L59,212 L5,212 L5,210 Z" id="Fill-179" fill="#D5D0BB" sketch:type="MSShapeGroup"></path>
            <path d="M36.75,179.208 C36.75,181.532 33.896,183.416 30.375,183.416 C26.855,183.416 24,181.532 24,179.208 C24,176.884 26.855,175 30.375,175 C33.896,175 36.75,176.884 36.75,179.208" id="Fill-180" fill="#E1C665" sketch:type="MSShapeGroup"></path>
            <path d="M30.485,166 C19.247,166 5.312,172.407 0,179.875 L60.313,179.875 C56.182,172.177 42.389,166 30.485,166" id="Fill-181" fill="#D5D0BB" sketch:type="MSShapeGroup"></path>
            <path d="M30.583,168.5 L30.25,168.5 C29.012,168.5 28,167.487 28,166.25 C28,165.012 29.012,164 30.25,164 L30.583,164 C31.82,164 32.833,165.012 32.833,166.25 C32.833,167.487 31.82,168.5 30.583,168.5" id="Fill-182" fill="#D5D0BB" sketch:type="MSShapeGroup"></path>
            <path d="M31.833,165 L28.5,165 C28.225,165 28,164.775 28,164.5 C28,164.225 28.225,164 28.5,164 L31.833,164 C32.108,164 32.333,164.225 32.333,164.5 C32.333,164.775 32.108,165 31.833,165" id="Fill-183" fill="#D5D0BB" sketch:type="MSShapeGroup"></path>
            <path d="M220.635,234 L225.705,250.064 C225.705,250.064 224.424,252.169 222.812,250.083 L213,235.321 L220.635,234" id="Fill-184" fill="#B3B39F" sketch:type="MSShapeGroup"></path>
            <path d="M73.918,234 L69,250.106 C69,250.106 70.281,252.211 71.893,250.125 L81.705,235.363 L73.918,234" id="Fill-185" fill="#B3B39F" sketch:type="MSShapeGroup"></path>
            <path d="M221.138,196.509 C221.138,183.729 188.45,173.341 147.754,173.026 L147.754,173 C106.886,173.254 74,183.669 74,196.488 L74,233.155 C74,235.515 76.519,237.489 78.982,237.489 L147.385,237.489 L147.385,237.509 L216.156,237.509 C218.62,237.509 221.138,235.536 221.138,233.176 L221.138,196.509" id="Fill-186" fill="#E1C665" sketch:type="MSShapeGroup"></path>
            <path d="M217.797,224.657 L218.225,201.492 L218.198,201.342 L217.715,201.426 L218.202,201.49 C218.249,201.128 218.286,200.754 218.286,200.367 C218.283,196.914 216.23,193.695 212.665,190.829 C207.308,186.523 198.472,182.905 187.344,180.306 C176.218,177.711 162.804,176.15 148.322,176.03 L148.318,176.52 L148.808,176.52 L148.808,176 L148.315,176.003 C128.924,176.134 111.427,178.844 98.736,183.171 C92.391,185.336 87.245,187.902 83.653,190.781 C80.069,193.654 78.003,196.882 78,200.346 C78,200.733 78.037,201.106 78.085,201.469 L78.571,201.405 L78.088,201.32 L78.07,201.425 L78.062,201.469 L78.334,229.32 L79.314,229.31 L79.043,201.55 L79.054,201.49 L79.067,201.416 L79.057,201.342 C79.012,201.001 78.981,200.67 78.981,200.346 C78.978,197.3 80.805,194.325 84.267,191.546 C89.45,187.383 98.234,183.769 109.331,181.199 C120.43,178.625 133.845,177.08 148.321,176.984 L148.318,176.494 L147.828,176.494 L147.828,177.006 L148.314,177.01 C167.534,177.169 184.863,179.884 197.346,184.16 C203.587,186.297 208.615,188.826 212.05,191.592 C215.493,194.364 217.308,197.331 217.305,200.367 C217.305,200.691 217.274,201.022 217.229,201.363 L217.22,201.437 L217.243,201.569 L216.817,224.639 L217.797,224.657" id="Fill-187" fill="#D7565A" sketch:type="MSShapeGroup"></path>
            <path d="M222.264,262.015 C222.264,262.015 222.264,263.752 220.27,263.69 C220.27,263.69 218.9,264.249 217.778,260.773 L212.254,246.915 L81.515,246.915 L76.486,259.532 C75.596,262.648 73.994,262.449 73.994,262.449 C72,262.511 72,260.773 72,260.773 L72.346,243.62 C72.285,243.338 72.249,239.167 72.249,239.167 C72.249,236.875 74.132,235 76.432,235 L217.998,235 C220.298,235 222.181,236.875 222.181,239.167 L222.181,242.748 L222.264,262.015" id="Fill-188" fill="#D5D0BB" sketch:type="MSShapeGroup"></path>
            <path d="M214.726,236.458 L81.481,236.458 C79.017,236.458 77,234.441 77,231.976 L77,213.482 C77,211.017 79.017,209 81.481,209 L214.726,209 C217.19,209 219.207,211.017 219.207,213.482 L219.207,231.976 C219.207,234.441 217.19,236.458 214.726,236.458" id="Fill-189" fill="#4D5E66" sketch:type="MSShapeGroup"></path>
            <path d="M79.035,225 L216.115,225 C216.684,225 217.15,225.466 217.15,226.035 L217.15,236.877 C217.15,237.446 216.684,237.912 216.115,237.912 L79.035,237.912 C78.466,237.912 78,237.446 78,236.877 L78,226.035 C78,225.466 78.466,225 79.035,225" id="Fill-190" fill="#D7565A" sketch:type="MSShapeGroup"></path>
            <path d="M269.462203,210.902 C269.462203,209.971 268.782203,209.209 267.951203,209.209 L268.389203,209.271 L268.540203,209.554 L268.540203,209.666 C268.505203,209.245 267.352203,201.395 265.641203,199.796 C265.641203,199.796 265.526203,199.638 265.384203,199.38 L265.384203,195.795 C265.721203,195.209 266.211203,194.553 266.850203,193.701 C266.850203,193.701 267.253203,193.095 267.581203,192.248 C268.402203,190.122 268.589203,185.821 264.491203,183 C260.354203,185.847 260.933203,190.228 261.602203,192.396 C261.861203,193.237 262.169203,193.659 262.169203,193.659 C262.941203,194.69 263.495203,195.434 263.823203,196.113 L263.823203,198.952 C263.609203,199.432 263.377203,199.754 263.377203,199.754 C261.564203,201.447 260.032203,209.384 260.032203,209.384 L260.184203,209.159 C259.423203,209.244 258.748203,210.702 259.092203,210.89 C259.675203,211.208 259.334203,211.046 259.357203,211.046 C260.232203,211.046 268.676203,210.98 269.460203,210.98 L269.462203,210.902" id="Fill-191" fill="#D7565A" sketch:type="MSShapeGroup"></path>
            <path d="M239,212 L291.464,212 L291.464,241.314 L239,241.314 L239,212 Z" id="Fill-192" fill="#D5D0BB" sketch:type="MSShapeGroup"></path>
            <path d="M241,214 L289.06,214 L289.06,239.162 L241,239.162 L241,214 Z" id="Fill-193" fill="#E1C665" sketch:type="MSShapeGroup"></path>
            <path d="M241,238 L288.682,238 L288.682,238.881 L241,238.881 L241,238 Z" id="Fill-194" fill="#D7565A" sketch:type="MSShapeGroup"></path>
            <path d="M288.683,213 L241,213 L241,213.88 L288.274,213.88 L288.274,224.983 L241.377,224.983 L241.377,225.864 L288.274,225.864 L288.274,238.414 L289.154,238.414 L289.154,213 L288.683,213" id="Fill-195" fill="#D7565A" sketch:type="MSShapeGroup"></path>
            <path d="M241,213 L243.08,213 L243.08,238.597 L241,238.597 L241,213 Z" id="Fill-196" fill="#D7565A" sketch:type="MSShapeGroup"></path>
            <path d="M268.932,220.466 C268.932,221.827 267.828,222.931 266.466,222.931 C265.104,222.931 264,221.827 264,220.466 C264,219.104 265.104,218 266.466,218 C267.828,218 268.932,219.104 268.932,220.466" id="Fill-197" fill="#4D5E66" sketch:type="MSShapeGroup"></path>
            <path d="M242.14438,240.407 L240.00038,256.036 C240.00038,256.036 239.96238,256.343 240.64638,256.268 C240.64638,256.268 241.14938,256.282 241.27338,255.889 L245.03738,240 L242.16838,240.244 L242.14438,240.407" id="Fill-198" fill="#D5D0BB" sketch:type="MSShapeGroup"></path>
            <path d="M268.932,231.465 C268.932,232.827 267.828,233.931 266.466,233.931 C265.104,233.931 264,232.827 264,231.465 C264,230.104 265.104,229 266.466,229 C267.828,229 268.932,230.104 268.932,231.465" id="Fill-199" fill="#4D5E66" sketch:type="MSShapeGroup"></path>
            <path d="M287.893,240.408 L290.038,256.037 C290.038,256.037 290.075,256.343 289.391,256.269 C289.391,256.269 288.889,256.282 288.764,255.889 L285,240 L287.87,240.245 L287.893,240.408" id="Fill-200" fill="#D5D0BB" sketch:type="MSShapeGroup"></path>
            <path d="M241,213 L288.625,213 L288.625,215.125 L241,215.125 L241,213 Z" id="Fill-201" fill="#D7565A" sketch:type="MSShapeGroup"></path>
            <path d="M241,225 L288.625,225 L288.625,227.125 L241,227.125 L241,225 Z" id="Fill-202" fill="#D7565A" sketch:type="MSShapeGroup"></path>
            <path d="M241,236 L288.625,236 L288.625,238.962 L241,238.962 L241,236 Z" id="Fill-203" fill="#D7565A" sketch:type="MSShapeGroup"></path>
            <path d="M287,213 L289.08,213 L289.08,238.597 L287,238.597 L287,213 Z" id="Fill-204" fill="#D7565A" sketch:type="MSShapeGroup"></path>
            <path d="M239,210 L293,210 L293,212 L239,212 L239,210 Z" id="Fill-205" fill="#D5D0BB" sketch:type="MSShapeGroup"></path>
            <path d="M270.75,179.208 C270.75,181.532 267.896,183.416 264.375,183.416 C260.855,183.416 258,181.532 258,179.208 C258,176.884 260.855,175 264.375,175 C267.896,175 270.75,176.884 270.75,179.208" id="Fill-206" fill="#E1C665" sketch:type="MSShapeGroup"></path>
            <path d="M264.485,166 C253.247,166 239.312,172.407 234,179.875 L294.313,179.875 C290.182,172.177 276.389,166 264.485,166" id="Fill-207" fill="#D5D0BB" sketch:type="MSShapeGroup"></path>
            <path d="M264.583,168.5 L264.25,168.5 C263.012,168.5 262,167.487 262,166.25 C262,165.012 263.012,164 264.25,164 L264.583,164 C265.82,164 266.833,165.012 266.833,166.25 C266.833,167.487 265.82,168.5 264.583,168.5" id="Fill-208" fill="#D5D0BB" sketch:type="MSShapeGroup"></path>
            <path d="M266.833,165 L263.5,165 C263.225,165 263,164.775 263,164.5 C263,164.225 263.225,164 263.5,164 L266.833,164 C267.108,164 267.333,164.225 267.333,164.5 C267.333,164.775 267.108,165 266.833,165" id="Fill-209" fill="#D5D0BB" sketch:type="MSShapeGroup"></path>
            <path d="M86.795,212.746 C86.795,212.746 84.377,212.782 82.197,211.242 C81.519,210.763 81.073,209.87 81,209 C81.048,209.898 81.495,210.838 82.197,211.333 C84.377,212.873 86.795,212.837 86.795,212.837 L113.586,212.911 L113.586,212.819 L86.795,212.746" id="Fill-210" fill="#D7565A" sketch:type="MSShapeGroup"></path>
            <path d="M81.3916209,208 L81.3156209,208.036 C81.0576209,208.447 80.9666209,208.962 81.0106209,209.485 C80.9846209,208.994 81.0726209,208.514 81.3156209,208.127 L81.3916209,208" id="Fill-211" fill="#C65257" sketch:type="MSShapeGroup"></path>
            <path d="M145.311,207.803 C144.712,206.82 140.185,200 129.739,200 L96.571,200 C86.126,200 81.599,206.82 81,207.803 C81.68,207.487 87.16,205.104 97.669,205.104 L113.106,205.229 L113.106,205.23 L113.205,205.23 L113.205,205.229 L128.641,205.104 C139.151,205.104 144.63,207.487 145.311,207.803" id="Fill-212" fill="#D7565A" sketch:type="MSShapeGroup"></path>
            <path d="M139.79,212.746 C139.79,212.746 142.208,212.782 144.389,211.242 C145.066,210.763 145.513,209.87 145.586,209 C145.538,209.898 145.09,210.838 144.389,211.333 C142.208,212.873 139.79,212.837 139.79,212.837 L113,212.911 L113,212.819 L139.79,212.746" id="Fill-213" fill="#D7565A" sketch:type="MSShapeGroup"></path>
            <path d="M145,208 L145.076,208.036 C145.334,208.447 145.425,208.962 145.381,209.485 C145.407,208.994 145.318,208.514 145.076,208.127 L145,208" id="Fill-214" fill="#C65257" sketch:type="MSShapeGroup"></path>
            <path d="M145.772388,207.826 L145.696388,207.699 C145.015388,207.383 139.536388,205 129.026388,205 L113.540388,205.126 L98.0543884,205 C87.5453884,205 82.0653884,207.383 81.3853884,207.699 L81.3093884,207.826 C81.0663884,208.213 80.9783884,208.693 81.0043884,209.184 C81.0773884,210.054 81.5233884,210.947 82.2013884,211.426 C84.3813884,212.966 86.7993884,212.93 86.7993884,212.93 L113.491388,213.003 L113.590388,213.003 L140.281388,212.93 C140.281388,212.93 142.699388,212.966 144.880388,211.426 C145.557388,210.947 146.004388,210.054 146.077388,209.184 C146.103388,208.693 146.014388,208.213 145.772388,207.826" id="Fill-215" fill="#C65257" sketch:type="MSShapeGroup"></path>
            <path d="M155.795,211.746 C155.795,211.746 153.377,211.781 151.197,210.242 C150.519,209.763 150.073,208.869 150,208 C150.047,208.898 150.495,209.837 151.197,210.333 C153.377,211.873 155.795,211.837 155.795,211.837 L182.586,211.91 L182.586,211.819 L155.795,211.746" id="Fill-216" fill="#D7565A" sketch:type="MSShapeGroup"></path>
            <path d="M150.391961,207 L150.315961,207.036 C150.057961,207.447 149.965961,207.962 150.010961,208.486 C149.983961,207.994 150.072961,207.514 150.315961,207.127 L150.391961,207" id="Fill-217" fill="#C65257" sketch:type="MSShapeGroup"></path>
            <path d="M214.31,206.802 C213.712,205.819 209.184,199 198.739,199 L165.571,199 C155.126,199 150.598,205.819 150,206.802 C150.68,206.486 156.16,204.104 166.669,204.104 L182.105,204.229 L182.105,204.23 L182.155,204.229 L182.205,204.23 L182.205,204.229 L197.641,204.104 C208.15,204.104 213.63,206.486 214.31,206.802" id="Fill-218" fill="#D7565A" sketch:type="MSShapeGroup"></path>
            <path d="M208.791,211.746 C208.791,211.746 211.209,211.781 213.389,210.242 C214.067,209.763 214.513,208.869 214.586,208 C214.538,208.898 214.091,209.837 213.389,210.333 C211.209,211.873 208.791,211.837 208.791,211.837 L182,211.91 L182,211.819 L208.791,211.746" id="Fill-219" fill="#D7565A" sketch:type="MSShapeGroup"></path>
            <path d="M214,207 L214.076,207.036 C214.334,207.447 214.425,207.962 214.381,208.486 C214.408,207.994 214.319,207.514 214.076,207.127 L214,207" id="Fill-220" fill="#C65257" sketch:type="MSShapeGroup"></path>
            <path d="M214.771655,206.825 L214.695655,206.698 C214.015655,206.382 208.535655,204 198.026655,204 L182.540655,204.125 L167.054655,204 C156.545655,204 151.065655,206.382 150.385655,206.698 L150.309655,206.825 C150.066655,207.212 149.977655,207.692 150.004655,208.184 C150.077655,209.053 150.523655,209.947 151.201655,210.426 C153.381655,211.965 155.799655,211.93 155.799655,211.93 L182.490655,212.002 L182.490655,212.003 L182.590655,212.003 L182.590655,212.002 L209.281655,211.93 C209.281655,211.93 211.699655,211.965 213.879655,210.426 C214.557655,209.947 215.003655,209.053 215.076655,208.184 C215.103655,207.692 215.014655,207.212 214.771655,206.825" id="Fill-221" fill="#C65257" sketch:type="MSShapeGroup"></path>
            <path d="M67.181,9 L68.194,9.229 L61.013,40.911 L60,40.681 L67.181,9" id="Fill-307" fill="#3E4951" sketch:type="MSShapeGroup"></path>
            <path d="M69.3230574,8.23077042 C69.0940574,9.23677042 68.1770574,9.88677042 67.2740574,9.68277042 C66.3710574,9.47777042 65.8230574,8.49577042 66.0520574,7.48977042 C66.2800574,6.48277042 67.1970574,5.83277042 68.1000574,6.03777042 C69.0030574,6.24277042 69.5510574,7.22377042 69.3230574,8.23077042" id="Fill-308" fill="#3E4951" sketch:type="MSShapeGroup"></path>
            <path d="M86.199,20 L86.957,20.71 L64.758,44.426 L64,43.717 L86.199,20" id="Fill-309" fill="#3E4951" sketch:type="MSShapeGroup"></path>
            <path d="M88.9927774,20.9278185 C88.2877774,21.6808185 87.1677774,21.7788185 86.4917774,21.1458185 C85.8157774,20.5128185 85.8397774,19.3888185 86.5447774,18.6358185 C87.2497774,17.8818185 88.3697774,17.7848185 89.0457774,18.4178185 C89.7217774,19.0498185 89.6987774,20.1738185 88.9927774,20.9278185" id="Fill-310" fill="#3E4951" sketch:type="MSShapeGroup"></path>
            <path d="M97.478,40 L97.735,41.006 L66.257,49.032 L66,48.026 L97.478,40" id="Fill-311" fill="#3E4951" sketch:type="MSShapeGroup"></path>
            <path d="M99.2722797,41.3138173 C98.2722797,41.5688173 97.2752797,41.0488173 97.0472797,40.1508173 C96.8182797,39.2538173 97.4432797,38.3198173 98.4432797,38.0648173 C99.4432797,37.8098173 100.43928,38.3298173 100.66828,39.2278173 C100.89728,40.1248173 100.27228,41.0588173 99.2722797,41.3138173" id="Fill-312" fill="#3E4951" sketch:type="MSShapeGroup"></path>
            <path d="M97.397,60.394 L97.097,61.388 L66,51.993 L66.3,51 L97.397,60.394" id="Fill-313" fill="#3E4951" sketch:type="MSShapeGroup"></path>
            <path d="M98.3690863,63.2992192 C97.3810863,63.0012192 96.7970863,62.0402192 97.0650863,61.1542192 C97.3330863,60.2672192 98.3510863,59.7902192 99.3390863,60.0892192 C100.326086,60.3872192 100.910086,61.3482192 100.642086,62.2342192 C100.374086,63.1212192 99.3560863,63.5982192 98.3690863,63.2992192" id="Fill-314" fill="#3E4951" sketch:type="MSShapeGroup"></path>
            <path d="M87.381,78.249 L86.67,79.005 L63,56.757 L63.711,56 L87.381,78.249" id="Fill-315" fill="#3E4951" sketch:type="MSShapeGroup"></path>
            <path d="M86.6326544,80.9907286 C85.8806544,80.2847286 85.7856544,79.1647286 86.4196544,78.4897286 C87.0536544,77.8147286 88.1776544,77.8407286 88.9296544,78.5477286 C89.6816544,79.2537286 89.7766544,80.3737286 89.1426544,81.0487286 C88.5086544,81.7237286 87.3846544,81.6977286 86.6326544,80.9907286" id="Fill-316" fill="#3E4951" sketch:type="MSShapeGroup"></path>
            <path d="M68.335,90.399 L67.331,90.665 L59,59.266 L60.004,59 L68.335,90.399" id="Fill-317" fill="#3E4951" sketch:type="MSShapeGroup"></path>
            <path d="M66.0695161,92.2877312 C65.8055161,91.2897312 66.3165161,90.2887312 67.2115161,90.0507312 C68.1065161,89.8137312 69.0465161,90.4297312 69.3115161,91.4267312 C69.5765161,92.4247312 69.0655161,93.4257312 68.1695161,93.6637312 C67.2745161,93.9007312 66.3345161,93.2847312 66.0695161,92.2877312" id="Fill-318" fill="#3E4951" sketch:type="MSShapeGroup"></path>
            <path d="M47.013,9 L46,9.229 L53.181,40.911 L54.194,40.681 L47.013,9" id="Fill-319" fill="#3E4951" sketch:type="MSShapeGroup"></path>
            <path d="M44.0520574,8.23077042 C44.2800574,9.23677042 45.1970574,9.88677042 46.1000574,9.68277042 C47.0030574,9.47777042 47.5500574,8.49577042 47.3220574,7.48977042 C47.0940574,6.48277042 46.1770574,5.83277042 45.2740574,6.03777042 C44.3710574,6.24277042 43.8230574,7.22377042 44.0520574,8.23077042" id="Fill-320" fill="#3E4951" sketch:type="MSShapeGroup"></path>
            <path d="M26.758,20 L26,20.71 L48.199,44.426 L48.957,43.717 L26.758,20" id="Fill-321" fill="#3E4951" sketch:type="MSShapeGroup"></path>
            <path d="M23.5451418,20.9278185 C24.2501418,21.6808185 25.3701418,21.7788185 26.0461418,21.1458185 C26.7221418,20.5128185 26.6981418,19.3888185 25.9931418,18.6358185 C25.2881418,17.8818185 24.1681418,17.7848185 23.4921418,18.4178185 C22.8161418,19.0498185 22.8391418,20.1738185 23.5451418,20.9278185" id="Fill-322" fill="#3E4951" sketch:type="MSShapeGroup"></path>
            <path d="M16.257,40 L16,41.006 L47.478,49.032 L47.735,48.026 L16.257,40" id="Fill-323" fill="#3E4951" sketch:type="MSShapeGroup"></path>
            <path d="M14.4432797,41.3138173 C15.4432797,41.5688173 16.4402797,41.0488173 16.6682797,40.1508173 C16.8972797,39.2538173 16.2722797,38.3198173 15.2722797,38.0648173 C14.2722797,37.8098173 13.2762797,38.3298173 13.0472797,39.2278173 C12.8182797,40.1248173 13.4432797,41.0588173 14.4432797,41.3138173" id="Fill-324" fill="#3E4951" sketch:type="MSShapeGroup"></path>
            <path d="M16,60.394 L16.3,61.388 L47.397,51.993 L47.097,51 L16,60.394" id="Fill-325" fill="#3E4951" sketch:type="MSShapeGroup"></path>
            <path d="M15.3380863,63.2992192 C16.3260863,63.0012192 16.9100863,62.0402192 16.6420863,61.1542192 C16.3740863,60.2672192 15.3570863,59.7902192 14.3690863,60.0892192 C13.3810863,60.3872192 12.7970863,61.3482192 13.0650863,62.2342192 C13.3330863,63.1212192 14.3510863,63.5982192 15.3380863,63.2992192" id="Fill-326" fill="#3E4951" sketch:type="MSShapeGroup"></path>
            <path d="M26,78.249 L26.711,79.005 L50.381,56.757 L49.67,56 L26,78.249" id="Fill-327" fill="#3E4951" sketch:type="MSShapeGroup"></path>
            <path d="M26.9296544,80.9907286 C27.6816544,80.2847286 27.7766544,79.1647286 27.1426544,78.4897286 C26.5086544,77.8147286 25.3846544,77.8407286 24.6326544,78.5477286 C23.8806544,79.2537286 23.7856544,80.3737286 24.4196544,81.0487286 C25.0536544,81.7237286 26.1776544,81.6977286 26.9296544,80.9907286" id="Fill-328" fill="#3E4951" sketch:type="MSShapeGroup"></path>
            <path d="M45,90.399 L46.004,90.665 L54.335,59.266 L53.331,59 L45,90.399" id="Fill-329" fill="#3E4951" sketch:type="MSShapeGroup"></path>
            <path d="M47.3119619,92.2877312 C47.5759619,91.2897312 47.0649619,90.2887312 46.1699619,90.0507312 C45.2749619,89.8137312 44.3349619,90.4297312 44.0699619,91.4267312 C43.8049619,92.4247312 44.3159619,93.4257312 45.2109619,93.6637312 C46.1069619,93.9007312 47.0469619,93.2847312 47.3119619,92.2877312" id="Fill-330" fill="#3E4951" sketch:type="MSShapeGroup"></path>
            <path d="M57.068,1.596 C57.068,0.718 56.871,0 55.993,0 C55.115,0 54.861,0.624 54.861,1.502 L54,30.421 L58.335,30.444 L57.068,1.596" id="Fill-331" fill="#D7565A" sketch:type="MSShapeGroup"></path>
            <path d="M55,30 L56.408,30 L56.408,39.718 L55,39.718 L55,30 Z" id="Fill-332" fill="#D7565A" sketch:type="MSShapeGroup"></path>
            <path d="M81.913,9.09349987 C82.347,8.33049987 82.531,7.60949987 81.768,7.17549987 C81.005,6.74149987 80.475,7.15849987 80.041,7.92149987 L65,32.6354999 L68.757,34.7984999 L81.913,9.09349987" id="Fill-333" fill="#D7565A" sketch:type="MSShapeGroup"></path>
            <path d="M66.803,33 L68.027,33.696 L63.224,42.144 L62,41.448 L66.803,33" id="Fill-334" fill="#D7565A" sketch:type="MSShapeGroup"></path>
            <path d="M100.85,29.2947302 C101.624,28.8797302 102.164,28.3667302 101.749,27.5927302 C101.334,26.8197302 100.663,26.8907302 99.89,27.3057302 L74,40.2177302 L76.028,44.0487302 L100.85,29.2947302" id="Fill-335" fill="#D7565A" sketch:type="MSShapeGroup"></path>
            <path d="M75.563,41 L76.229,42.241 L67.666,46.834 L67,45.593 L75.563,41" id="Fill-336" fill="#D7565A" sketch:type="MSShapeGroup"></path>
            <path d="M101.067,76.24 C101.842,76.652 102.568,76.816 102.98,76.041 C103.393,75.265 102.961,74.748 102.186,74.336 L77.055,60 L75,63.816 L101.067,76.24" id="Fill-337" fill="#D7565A" sketch:type="MSShapeGroup"></path>
            <path d="M77.241,61.562 L76.58,62.806 L68,58.244 L68.661,57 L77.241,61.562" id="Fill-338" fill="#D7565A" sketch:type="MSShapeGroup"></path>
            <path d="M82.536,95.977 C83.006,96.718 83.557,97.219 84.298,96.748 C85.039,96.278 84.919,95.614 84.448,94.873 L69.672,70 L66,72.304 L82.536,95.977" id="Fill-339" fill="#D7565A" sketch:type="MSShapeGroup"></path>
            <path d="M68.398,71.203 L67.209,71.958 L62,63.755 L63.189,63 L68.398,71.203" id="Fill-340" fill="#D7565A" sketch:type="MSShapeGroup"></path>
            <path d="M55.411,103.841 C55.415,104.719 55.615,105.437 56.493,105.432 C57.371,105.428 57.622,104.802 57.618,103.924 L58.334,75.002 L54,75 L55.411,103.841" id="Fill-341" fill="#D7565A" sketch:type="MSShapeGroup"></path>
            <path d="M56.457,74.717 L55.048,74.724 L55,65.007 L56.408,65 L56.457,74.717" id="Fill-342" fill="#D7565A" sketch:type="MSShapeGroup"></path>
            <path d="M106.89,52.372 C107.768,52.351 108.481,52.138 108.46,51.26 C108.439,50.382 107.809,50.143 106.931,50.164 L78,50 L78.081,54.334 L106.89,52.372" id="Fill-343" fill="#D7565A" sketch:type="MSShapeGroup"></path>
            <path d="M78.715,51 L78.749,52.408 L69.034,52.642 L69,51.235 L78.715,51" id="Fill-344" fill="#D7565A" sketch:type="MSShapeGroup"></path>
            <path d="M29.3764938,9.09349987 C28.9424938,8.33049987 28.7584938,7.60949987 29.5214938,7.17549987 C30.2844938,6.74149987 30.8144938,7.15849987 31.2484938,7.92149987 L46.2894938,32.6354999 L42.5324938,34.7984999 L29.3764938,9.09349987" id="Fill-345" fill="#D7565A" sketch:type="MSShapeGroup"></path>
            <path d="M44.224,33 L43,33.696 L47.803,42.144 L49.027,41.448 L44.224,33" id="Fill-346" fill="#D7565A" sketch:type="MSShapeGroup"></path>
            <path d="M10.0427465,29.2946369 C9.26874646,28.8796369 8.72874646,28.3666369 9.14374646,27.5936369 C9.55874646,26.8196369 10.2287465,26.8906369 11.0027465,27.3056369 L36.8927465,40.2176369 L34.8647465,44.0486369 L10.0427465,29.2946369" id="Fill-347" fill="#D7565A" sketch:type="MSShapeGroup"></path>
            <path d="M36.666,41 L36,42.241 L44.563,46.835 L45.229,45.594 L36.666,41" id="Fill-348" fill="#D7565A" sketch:type="MSShapeGroup"></path>
            <path d="M10.0722086,77.24 C9.2972086,77.652 8.5712086,77.816 8.1592086,77.041 C7.7472086,76.266 8.1782086,75.748 8.9542086,75.336 L34.0832086,61 L36.1392086,64.817 L10.0722086,77.24" id="Fill-349" fill="#D7565A" sketch:type="MSShapeGroup"></path>
            <path d="M35,61.562 L35.661,62.806 L44.241,58.244 L43.58,57 L35,61.562" id="Fill-350" fill="#D7565A" sketch:type="MSShapeGroup"></path>
            <path d="M28.2925697,95.977 C27.8215697,96.718 27.2705697,97.219 26.5295697,96.748 C25.7885697,96.278 25.9085697,95.614 26.3795697,94.873 L41.1555697,70 L44.8275697,72.304 L28.2925697,95.977" id="Fill-351" fill="#D7565A" sketch:type="MSShapeGroup"></path>
            <path d="M42,71.203 L43.189,71.958 L48.398,63.755 L47.209,63 L42,71.203" id="Fill-352" fill="#D7565A" sketch:type="MSShapeGroup"></path>
            <path d="M4.57045229,52.372 C3.69245229,52.351 2.97945229,52.137 3.00045229,51.259 C3.02145229,50.382 3.65145229,50.143 4.52945229,50.164 L33.4604523,50 L33.3794523,54.334 L4.57045229,52.372" id="Fill-353" fill="#D7565A" sketch:type="MSShapeGroup"></path>
            <path d="M33.034,51 L33,52.408 L42.715,52.642 L42.749,51.234 L33.034,51" id="Fill-354" fill="#D7565A" sketch:type="MSShapeGroup"></path>
            <path d="M56,36 L57.007,36 L57.007,38.544 L56,38.544 L56,36 Z" id="Fill-355" fill="#3E4951" sketch:type="MSShapeGroup"></path>
            <path d="M56,36 L57.007,36 L57.007,38.544 L56,38.544 L56,36 Z" id="Fill-356" fill="#3E4951" sketch:type="MSShapeGroup"></path>
            <path d="M74.524,52.263 C74.524,62.349 66.348,70.525 56.262,70.525 C46.176,70.525 38,62.349 38,52.263 C38,42.176 46.176,34 56.262,34 C66.348,34 74.524,42.176 74.524,52.263" id="Fill-357" fill="#D5D0BB" sketch:type="MSShapeGroup"></path>
            <path d="M74.024,52.763 L72.524,52.763 C72.524,57.396 70.651,61.577 67.615,64.615 C64.577,67.651 60.396,69.524 55.762,69.525 C51.129,69.524 46.947,67.651 43.909,64.615 C40.873,61.577 39,57.396 39,52.763 C39.001,48.129 40.873,43.948 43.909,40.91 C46.947,37.874 51.129,36.001 55.762,36 C60.396,36.001 64.577,37.874 67.615,40.91 C70.651,43.948 72.524,48.129 72.524,52.763 L75.524,52.763 C75.523,41.847 66.677,33.001 55.762,33 C44.847,33.001 36.001,41.847 36,52.763 C36.001,63.678 44.847,72.524 55.762,72.525 C66.677,72.524 75.523,63.678 75.524,52.763 L74.024,52.763" id="Fill-358" fill="#D6565A" sketch:type="MSShapeGroup"></path>
            <path d="M58.8892409,53.6600724 L47.9482409,46.1810724 C47.9482409,46.1810724 47.3432409,45.7670724 47.0412409,46.1910724 C47.0412409,46.1910724 46.7972409,46.7180724 47.4962409,47.1850724 L58.2872409,54.8140724 L58.8892409,53.6600724" id="Fill-359" fill="#2A323B" sketch:type="MSShapeGroup"></path>
            <path d="M57.2414571,48 L53.0004571,65.198 C53.0004571,65.198 52.9814571,65.453 53.1884571,65.528 C53.1884571,65.528 53.4334571,65.566 53.4954571,65.296 L57.8434571,48.151 L57.2414571,48" id="Fill-360" fill="#D6565A" sketch:type="MSShapeGroup"></path>
            <path d="M69.357,47.2507755 C69.357,47.2507755 69.138,46.8187755 68.46,47.0887755 L57.204,51.2897755 C56.915,50.9427755 56.502,50.7217755 56.04,50.7217755 C55.212,50.7217755 54.541,51.4207755 54.473,52.3087755 L52,53.2317755 L52.251,54.1847755 L54.657,53.2757755 C54.925,53.8147755 55.441,54.1847755 56.04,54.1847755 C56.913,54.1847755 57.621,53.4097755 57.621,52.4537755 C57.621,52.3547755 57.609,52.2597755 57.595,52.1667755 L68.884,47.9017755 C68.884,47.9017755 69.477,47.6727755 69.357,47.2507755" id="Fill-361" fill="#3E4951" sketch:type="MSShapeGroup"></path>
            <path d="M56,66 L57.007,66 L57.007,68.544 L56,68.544 L56,66 Z" id="Fill-362" fill="#3E4951" sketch:type="MSShapeGroup"></path>
            <path d="M56,36 L57.007,36 L57.007,38.544 L56,38.544 L56,36 Z" id="Fill-363" fill="#3E4951" sketch:type="MSShapeGroup"></path>
            <path d="M70,52 L72.544,52 L72.544,53.007 L70,53.007 L70,52 Z" id="Fill-364" fill="#3E4951" sketch:type="MSShapeGroup"></path>
            <path d="M40,52 L42.544,52 L42.544,53.007 L40,53.007 L40,52 Z" id="Fill-365" fill="#3E4951" sketch:type="MSShapeGroup"></path>
            <path d="M62.872,40.706 L62,40.202 L63.273,38 L64.145,38.504 L62.872,40.706" id="Fill-366" fill="#3E4951" sketch:type="MSShapeGroup"></path>
            <path d="M48.872,66.707 L48,66.203 L49.273,64 L50.145,64.504 L48.872,66.707" id="Fill-367" fill="#3E4951" sketch:type="MSShapeGroup"></path>
            <path d="M62,64.507 L62.87,64 L64.151,66.198 L63.281,66.705 L62,64.507" id="Fill-368" fill="#3E4951" sketch:type="MSShapeGroup"></path>
            <path d="M48,38.507 L48.87,38 L50.151,40.199 L49.281,40.706 L48,38.507" id="Fill-369" fill="#3E4951" sketch:type="MSShapeGroup"></path>
            <path d="M68.505,46.148 L68,45.277 L70.2,44 L70.705,44.871 L68.505,46.148" id="Fill-370" fill="#3E4951" sketch:type="MSShapeGroup"></path>
            <path d="M42.506,61.148 L42,60.277 L44.201,59 L44.706,59.871 L42.506,61.148" id="Fill-371" fill="#3E4951" sketch:type="MSShapeGroup"></path>
            <path d="M68,59.88 L68.488,59 L70.713,60.234 L70.224,61.114 L68,59.88" id="Fill-372" fill="#3E4951" sketch:type="MSShapeGroup"></path>
            <path d="M42,44.881 L42.489,44 L44.713,45.234 L44.225,46.114 L42,44.881" id="Fill-373" fill="#3E4951" sketch:type="MSShapeGroup"></path>
            <path d="M317.050671,220.003913 C316.709671,215.064913 318.106671,209.953913 320.731671,206.532913 C323.357671,203.111913 327.156671,201.452913 330.745671,202.160913 C325.738671,207.862913 321.269671,214.445913 317.482671,221.697913" id="Fill-162" fill="#E1C665" sketch:type="MSShapeGroup"></path>
            <path d="M316.153,223.144977 C315.643,215.635977 311.362,208.886977 306,207.141977 C308.812,204.913977 312.636,206.116977 314.926,209.270977 C317.216,212.424977 318.11,217.112977 317.922,221.551977" id="Fill-163" fill="#E1C665" sketch:type="MSShapeGroup"></path>
            <path d="M319.943,231.241 C319.965,231.128 319.986,231.013 319.986,230.881 L319.386,220.128 L319.904,220.128 C320.13,220.128 320.316,219.874 320.316,219.564 C320.316,219.254 320.13,219 319.904,219 L315.342,219 C315.115,219 314.93,219.254 314.93,219.564 C314.93,219.874 315.115,220.128 315.342,220.128 L315.974,220.128 L315.315,230.806 L315.337,230.967 C312.833,232.091 311,235.289 311,239.078 L311,246.523 C311,248.411 311.556,257.503 312.842,257.614 C314.573,257.765 315.2,257.878 317.266,257.878 C317.266,257.878 321.085,257.727 321.992,257.614 C323.265,257.456 323.696,248.395 323.696,246.523 L323.696,239.078 C323.696,235.586 322.145,232.574 319.943,231.241" id="Fill-164" fill="#D7565A" sketch:type="MSShapeGroup"></path>
            <path d="M35.4622089,210.903 C35.4622089,209.972 34.7822089,209.21 33.9512089,209.21 L34.3892089,209.272 L34.5412089,209.554 L34.5412089,209.667 C34.5052089,209.246 33.3522089,201.395 31.6412089,199.797 C31.6412089,199.797 31.5262089,199.639 31.3842089,199.381 L31.3842089,195.796 C31.7212089,195.21 32.2112089,194.554 32.8502089,193.702 C32.8502089,193.702 33.2532089,193.095 33.5812089,192.249 C34.4022089,190.123 34.5892089,185.821 30.4912089,183 C26.3552089,185.848 26.9332089,190.228 27.6022089,192.397 C27.8612089,193.237 28.1692089,193.66 28.1692089,193.66 C28.9412089,194.691 29.4952089,195.435 29.8232089,196.114 L29.8232089,198.953 C29.6102089,199.433 29.3772089,199.755 29.3772089,199.755 C27.5652089,201.448 26.0322089,209.385 26.0322089,209.385 L26.1832089,209.159 C25.4232089,209.245 24.7482089,210.703 25.0922089,210.89 C25.6752089,211.208 25.3342089,211.047 25.3572089,211.047 C26.2322089,211.047 34.6762089,210.98 35.4602089,210.98 L35.4622089,210.903" id="Fill-165" fill="#D7565A" sketch:type="MSShapeGroup"></path>
            <path d="M5,211 L57.464,211 L57.464,240.314 L5,240.314 L5,211 Z" id="Fill-166" fill="#D5D0BB" sketch:type="MSShapeGroup"></path>
            <path d="M7,214 L55.06,214 L55.06,239.163 L7,239.163 L7,214 Z" id="Fill-167" fill="#E1C665" sketch:type="MSShapeGroup"></path>
            <path d="M7,238 L54.683,238 L54.683,238.88 L7,238.88 L7,238 Z" id="Fill-168" fill="#D7565A" sketch:type="MSShapeGroup"></path>
            <path d="M54.683,213 L7,213 L7,213.881 L54.274,213.881 L54.274,224.984 L7.377,224.984 L7.377,225.865 L54.274,225.865 L54.274,238.414 L55.155,238.414 L55.155,213 L54.683,213" id="Fill-169" fill="#D7565A" sketch:type="MSShapeGroup"></path>
            <path d="M7,213 L9.08,213 L9.08,238.598 L7,238.598 L7,213 Z" id="Fill-170" fill="#D7565A" sketch:type="MSShapeGroup"></path>
            <path d="M34.932,220.465 C34.932,221.827 33.828,222.931 32.466,222.931 C31.104,222.931 30,221.827 30,220.465 C30,219.104 31.104,218 32.466,218 C33.828,218 34.932,219.104 34.932,220.465" id="Fill-171" fill="#4D5E66" sketch:type="MSShapeGroup"></path>
            <path d="M8.14438,240.408 L6.00038,256.037 C6.00038,256.037 5.96238,256.343 6.64638,256.269 C6.64638,256.269 7.14938,256.282 7.27338,255.889 L11.03738,240 L8.16838,240.245 L8.14438,240.408" id="Fill-172" fill="#D5D0BB" sketch:type="MSShapeGroup"></path>
            <path d="M34.932,231.466 C34.932,232.828 33.828,233.932 32.466,233.932 C31.104,233.932 30,232.828 30,231.466 C30,230.104 31.104,229 32.466,229 C33.828,229 34.932,230.104 34.932,231.466" id="Fill-173" fill="#4D5E66" sketch:type="MSShapeGroup"></path>
            <path d="M53.893,240.408 L56.038,256.036 C56.038,256.036 56.075,256.343 55.391,256.269 C55.391,256.269 54.889,256.282 54.764,255.889 L51,240 L53.87,240.245 L53.893,240.408" id="Fill-174" fill="#D5D0BB" sketch:type="MSShapeGroup"></path>
            <path d="M7,213 L54.625,213 L54.625,215.125 L7,215.125 L7,213 Z" id="Fill-175" fill="#D7565A" sketch:type="MSShapeGroup"></path>
            <path d="M7,225 L54.625,225 L54.625,227.125 L7,227.125 L7,225 Z" id="Fill-176" fill="#D7565A" sketch:type="MSShapeGroup"></path>
            <path d="M7,236 L54.625,236 L54.625,238.963 L7,238.963 L7,236 Z" id="Fill-177" fill="#D7565A" sketch:type="MSShapeGroup"></path>
            <path d="M53,213 L55.08,213 L55.08,238.597 L53,238.597 L53,213 Z" id="Fill-178" fill="#D7565A" sketch:type="MSShapeGroup"></path>
            <path d="M5,210 L59,210 L59,212 L5,212 L5,210 Z" id="Fill-179" fill="#D5D0BB" sketch:type="MSShapeGroup"></path>
            <path d="M36.75,179.208 C36.75,181.532 33.896,183.416 30.375,183.416 C26.855,183.416 24,181.532 24,179.208 C24,176.884 26.855,175 30.375,175 C33.896,175 36.75,176.884 36.75,179.208" id="Fill-180" fill="#E1C665" sketch:type="MSShapeGroup"></path>
            <path d="M30.485,166 C19.247,166 5.312,172.407 0,179.875 L60.313,179.875 C56.182,172.177 42.389,166 30.485,166" id="Fill-181" fill="#D5D0BB" sketch:type="MSShapeGroup"></path>
            <path d="M30.583,168.5 L30.25,168.5 C29.012,168.5 28,167.487 28,166.25 C28,165.012 29.012,164 30.25,164 L30.583,164 C31.82,164 32.833,165.012 32.833,166.25 C32.833,167.487 31.82,168.5 30.583,168.5" id="Fill-182" fill="#D5D0BB" sketch:type="MSShapeGroup"></path>
            <path d="M31.833,165 L28.5,165 C28.225,165 28,164.775 28,164.5 C28,164.225 28.225,164 28.5,164 L31.833,164 C32.108,164 32.333,164.225 32.333,164.5 C32.333,164.775 32.108,165 31.833,165" id="Fill-183" fill="#D5D0BB" sketch:type="MSShapeGroup"></path>
            <path d="M220.635,234 L225.705,250.064 C225.705,250.064 224.424,252.169 222.812,250.083 L213,235.321 L220.635,234" id="Fill-184" fill="#B3B39F" sketch:type="MSShapeGroup"></path>
            <path d="M73.918,234 L69,250.106 C69,250.106 70.281,252.211 71.893,250.125 L81.705,235.363 L73.918,234" id="Fill-185" fill="#B3B39F" sketch:type="MSShapeGroup"></path>
            <path d="M221.138,196.509 C221.138,183.729 188.45,173.341 147.754,173.026 L147.754,173 C106.886,173.254 74,183.669 74,196.488 L74,233.155 C74,235.515 76.519,237.489 78.982,237.489 L147.385,237.489 L147.385,237.509 L216.156,237.509 C218.62,237.509 221.138,235.536 221.138,233.176 L221.138,196.509" id="Fill-186" fill="#E1C665" sketch:type="MSShapeGroup"></path>
            <path d="M217.797,224.657 L218.225,201.492 L218.198,201.342 L217.715,201.426 L218.202,201.49 C218.249,201.128 218.286,200.754 218.286,200.367 C218.283,196.914 216.23,193.695 212.665,190.829 C207.308,186.523 198.472,182.905 187.344,180.306 C176.218,177.711 162.804,176.15 148.322,176.03 L148.318,176.52 L148.808,176.52 L148.808,176 L148.315,176.003 C128.924,176.134 111.427,178.844 98.736,183.171 C92.391,185.336 87.245,187.902 83.653,190.781 C80.069,193.654 78.003,196.882 78,200.346 C78,200.733 78.037,201.106 78.085,201.469 L78.571,201.405 L78.088,201.32 L78.07,201.425 L78.062,201.469 L78.334,229.32 L79.314,229.31 L79.043,201.55 L79.054,201.49 L79.067,201.416 L79.057,201.342 C79.012,201.001 78.981,200.67 78.981,200.346 C78.978,197.3 80.805,194.325 84.267,191.546 C89.45,187.383 98.234,183.769 109.331,181.199 C120.43,178.625 133.845,177.08 148.321,176.984 L148.318,176.494 L147.828,176.494 L147.828,177.006 L148.314,177.01 C167.534,177.169 184.863,179.884 197.346,184.16 C203.587,186.297 208.615,188.826 212.05,191.592 C215.493,194.364 217.308,197.331 217.305,200.367 C217.305,200.691 217.274,201.022 217.229,201.363 L217.22,201.437 L217.243,201.569 L216.817,224.639 L217.797,224.657" id="Fill-187" fill="#D7565A" sketch:type="MSShapeGroup"></path>
            <path d="M222.264,262.015 C222.264,262.015 222.264,263.752 220.27,263.69 C220.27,263.69 218.9,264.249 217.778,260.773 L212.254,246.915 L81.515,246.915 L76.486,259.532 C75.596,262.648 73.994,262.449 73.994,262.449 C72,262.511 72,260.773 72,260.773 L72.346,243.62 C72.285,243.338 72.249,239.167 72.249,239.167 C72.249,236.875 74.132,235 76.432,235 L217.998,235 C220.298,235 222.181,236.875 222.181,239.167 L222.181,242.748 L222.264,262.015" id="Fill-188" fill="#D5D0BB" sketch:type="MSShapeGroup"></path>
            <path d="M214.726,236.458 L81.481,236.458 C79.017,236.458 77,234.441 77,231.976 L77,213.482 C77,211.017 79.017,209 81.481,209 L214.726,209 C217.19,209 219.207,211.017 219.207,213.482 L219.207,231.976 C219.207,234.441 217.19,236.458 214.726,236.458" id="Fill-189" fill="#4D5E66" sketch:type="MSShapeGroup"></path>
            <path d="M79.035,225 L216.115,225 C216.684,225 217.15,225.466 217.15,226.035 L217.15,236.877 C217.15,237.446 216.684,237.912 216.115,237.912 L79.035,237.912 C78.466,237.912 78,237.446 78,236.877 L78,226.035 C78,225.466 78.466,225 79.035,225" id="Fill-190" fill="#D7565A" sketch:type="MSShapeGroup"></path>
            <path d="M269.462203,210.902 C269.462203,209.971 268.782203,209.209 267.951203,209.209 L268.389203,209.271 L268.540203,209.554 L268.540203,209.666 C268.505203,209.245 267.352203,201.395 265.641203,199.796 C265.641203,199.796 265.526203,199.638 265.384203,199.38 L265.384203,195.795 C265.721203,195.209 266.211203,194.553 266.850203,193.701 C266.850203,193.701 267.253203,193.095 267.581203,192.248 C268.402203,190.122 268.589203,185.821 264.491203,183 C260.354203,185.847 260.933203,190.228 261.602203,192.396 C261.861203,193.237 262.169203,193.659 262.169203,193.659 C262.941203,194.69 263.495203,195.434 263.823203,196.113 L263.823203,198.952 C263.609203,199.432 263.377203,199.754 263.377203,199.754 C261.564203,201.447 260.032203,209.384 260.032203,209.384 L260.184203,209.159 C259.423203,209.244 258.748203,210.702 259.092203,210.89 C259.675203,211.208 259.334203,211.046 259.357203,211.046 C260.232203,211.046 268.676203,210.98 269.460203,210.98 L269.462203,210.902" id="Fill-191" fill="#D7565A" sketch:type="MSShapeGroup"></path>
            <path d="M239,212 L291.464,212 L291.464,241.314 L239,241.314 L239,212 Z" id="Fill-192" fill="#D5D0BB" sketch:type="MSShapeGroup"></path>
            <path d="M241,214 L289.06,214 L289.06,239.162 L241,239.162 L241,214 Z" id="Fill-193" fill="#E1C665" sketch:type="MSShapeGroup"></path>
            <path d="M241,238 L288.682,238 L288.682,238.881 L241,238.881 L241,238 Z" id="Fill-194" fill="#D7565A" sketch:type="MSShapeGroup"></path>
            <path d="M288.683,213 L241,213 L241,213.88 L288.274,213.88 L288.274,224.983 L241.377,224.983 L241.377,225.864 L288.274,225.864 L288.274,238.414 L289.154,238.414 L289.154,213 L288.683,213" id="Fill-195" fill="#D7565A" sketch:type="MSShapeGroup"></path>
            <path d="M241,213 L243.08,213 L243.08,238.597 L241,238.597 L241,213 Z" id="Fill-196" fill="#D7565A" sketch:type="MSShapeGroup"></path>
            <path d="M268.932,220.466 C268.932,221.827 267.828,222.931 266.466,222.931 C265.104,222.931 264,221.827 264,220.466 C264,219.104 265.104,218 266.466,218 C267.828,218 268.932,219.104 268.932,220.466" id="Fill-197" fill="#4D5E66" sketch:type="MSShapeGroup"></path>
            <path d="M242.14438,240.407 L240.00038,256.036 C240.00038,256.036 239.96238,256.343 240.64638,256.268 C240.64638,256.268 241.14938,256.282 241.27338,255.889 L245.03738,240 L242.16838,240.244 L242.14438,240.407" id="Fill-198" fill="#D5D0BB" sketch:type="MSShapeGroup"></path>
            <path d="M268.932,231.465 C268.932,232.827 267.828,233.931 266.466,233.931 C265.104,233.931 264,232.827 264,231.465 C264,230.104 265.104,229 266.466,229 C267.828,229 268.932,230.104 268.932,231.465" id="Fill-199" fill="#4D5E66" sketch:type="MSShapeGroup"></path>
            <path d="M287.893,240.408 L290.038,256.037 C290.038,256.037 290.075,256.343 289.391,256.269 C289.391,256.269 288.889,256.282 288.764,255.889 L285,240 L287.87,240.245 L287.893,240.408" id="Fill-200" fill="#D5D0BB" sketch:type="MSShapeGroup"></path>
            <path d="M241,213 L288.625,213 L288.625,215.125 L241,215.125 L241,213 Z" id="Fill-201" fill="#D7565A" sketch:type="MSShapeGroup"></path>
            <path d="M241,225 L288.625,225 L288.625,227.125 L241,227.125 L241,225 Z" id="Fill-202" fill="#D7565A" sketch:type="MSShapeGroup"></path>
            <path d="M241,236 L288.625,236 L288.625,238.962 L241,238.962 L241,236 Z" id="Fill-203" fill="#D7565A" sketch:type="MSShapeGroup"></path>
            <path d="M287,213 L289.08,213 L289.08,238.597 L287,238.597 L287,213 Z" id="Fill-204" fill="#D7565A" sketch:type="MSShapeGroup"></path>
            <path d="M239,210 L293,210 L293,212 L239,212 L239,210 Z" id="Fill-205" fill="#D5D0BB" sketch:type="MSShapeGroup"></path>
            <path d="M270.75,179.208 C270.75,181.532 267.896,183.416 264.375,183.416 C260.855,183.416 258,181.532 258,179.208 C258,176.884 260.855,175 264.375,175 C267.896,175 270.75,176.884 270.75,179.208" id="Fill-206" fill="#E1C665" sketch:type="MSShapeGroup"></path>
            <path d="M264.485,166 C253.247,166 239.312,172.407 234,179.875 L294.313,179.875 C290.182,172.177 276.389,166 264.485,166" id="Fill-207" fill="#D5D0BB" sketch:type="MSShapeGroup"></path>
            <path d="M264.583,168.5 L264.25,168.5 C263.012,168.5 262,167.487 262,166.25 C262,165.012 263.012,164 264.25,164 L264.583,164 C265.82,164 266.833,165.012 266.833,166.25 C266.833,167.487 265.82,168.5 264.583,168.5" id="Fill-208" fill="#D5D0BB" sketch:type="MSShapeGroup"></path>
            <path d="M266.833,165 L263.5,165 C263.225,165 263,164.775 263,164.5 C263,164.225 263.225,164 263.5,164 L266.833,164 C267.108,164 267.333,164.225 267.333,164.5 C267.333,164.775 267.108,165 266.833,165" id="Fill-209" fill="#D5D0BB" sketch:type="MSShapeGroup"></path>
            <path d="M86.795,212.746 C86.795,212.746 84.377,212.782 82.197,211.242 C81.519,210.763 81.073,209.87 81,209 C81.048,209.898 81.495,210.838 82.197,211.333 C84.377,212.873 86.795,212.837 86.795,212.837 L113.586,212.911 L113.586,212.819 L86.795,212.746" id="Fill-210" fill="#D7565A" sketch:type="MSShapeGroup"></path>
            <path d="M81.3916209,208 L81.3156209,208.036 C81.0576209,208.447 80.9666209,208.962 81.0106209,209.485 C80.9846209,208.994 81.0726209,208.514 81.3156209,208.127 L81.3916209,208" id="Fill-211" fill="#C65257" sketch:type="MSShapeGroup"></path>
            <path d="M145.311,207.803 C144.712,206.82 140.185,200 129.739,200 L96.571,200 C86.126,200 81.599,206.82 81,207.803 C81.68,207.487 87.16,205.104 97.669,205.104 L113.106,205.229 L113.106,205.23 L113.205,205.23 L113.205,205.229 L128.641,205.104 C139.151,205.104 144.63,207.487 145.311,207.803" id="Fill-212" fill="#D7565A" sketch:type="MSShapeGroup"></path>
            <path d="M139.79,212.746 C139.79,212.746 142.208,212.782 144.389,211.242 C145.066,210.763 145.513,209.87 145.586,209 C145.538,209.898 145.09,210.838 144.389,211.333 C142.208,212.873 139.79,212.837 139.79,212.837 L113,212.911 L113,212.819 L139.79,212.746" id="Fill-213" fill="#D7565A" sketch:type="MSShapeGroup"></path>
            <path d="M145,208 L145.076,208.036 C145.334,208.447 145.425,208.962 145.381,209.485 C145.407,208.994 145.318,208.514 145.076,208.127 L145,208" id="Fill-214" fill="#C65257" sketch:type="MSShapeGroup"></path>
            <path d="M145.772388,207.826 L145.696388,207.699 C145.015388,207.383 139.536388,205 129.026388,205 L113.540388,205.126 L98.0543884,205 C87.5453884,205 82.0653884,207.383 81.3853884,207.699 L81.3093884,207.826 C81.0663884,208.213 80.9783884,208.693 81.0043884,209.184 C81.0773884,210.054 81.5233884,210.947 82.2013884,211.426 C84.3813884,212.966 86.7993884,212.93 86.7993884,212.93 L113.491388,213.003 L113.590388,213.003 L140.281388,212.93 C140.281388,212.93 142.699388,212.966 144.880388,211.426 C145.557388,210.947 146.004388,210.054 146.077388,209.184 C146.103388,208.693 146.014388,208.213 145.772388,207.826" id="Fill-215" fill="#C65257" sketch:type="MSShapeGroup"></path>
            <path d="M155.795,211.746 C155.795,211.746 153.377,211.781 151.197,210.242 C150.519,209.763 150.073,208.869 150,208 C150.047,208.898 150.495,209.837 151.197,210.333 C153.377,211.873 155.795,211.837 155.795,211.837 L182.586,211.91 L182.586,211.819 L155.795,211.746" id="Fill-216" fill="#D7565A" sketch:type="MSShapeGroup"></path>
            <path d="M150.391961,207 L150.315961,207.036 C150.057961,207.447 149.965961,207.962 150.010961,208.486 C149.983961,207.994 150.072961,207.514 150.315961,207.127 L150.391961,207" id="Fill-217" fill="#C65257" sketch:type="MSShapeGroup"></path>
            <path d="M214.31,206.802 C213.712,205.819 209.184,199 198.739,199 L165.571,199 C155.126,199 150.598,205.819 150,206.802 C150.68,206.486 156.16,204.104 166.669,204.104 L182.105,204.229 L182.105,204.23 L182.155,204.229 L182.205,204.23 L182.205,204.229 L197.641,204.104 C208.15,204.104 213.63,206.486 214.31,206.802" id="Fill-218" fill="#D7565A" sketch:type="MSShapeGroup"></path>
            <path d="M208.791,211.746 C208.791,211.746 211.209,211.781 213.389,210.242 C214.067,209.763 214.513,208.869 214.586,208 C214.538,208.898 214.091,209.837 213.389,210.333 C211.209,211.873 208.791,211.837 208.791,211.837 L182,211.91 L182,211.819 L208.791,211.746" id="Fill-219" fill="#D7565A" sketch:type="MSShapeGroup"></path>
            <path d="M214,207 L214.076,207.036 C214.334,207.447 214.425,207.962 214.381,208.486 C214.408,207.994 214.319,207.514 214.076,207.127 L214,207" id="Fill-220" fill="#C65257" sketch:type="MSShapeGroup"></path>
            <path d="M214.771655,206.825 L214.695655,206.698 C214.015655,206.382 208.535655,204 198.026655,204 L182.540655,204.125 L167.054655,204 C156.545655,204 151.065655,206.382 150.385655,206.698 L150.309655,206.825 C150.066655,207.212 149.977655,207.692 150.004655,208.184 C150.077655,209.053 150.523655,209.947 151.201655,210.426 C153.381655,211.965 155.799655,211.93 155.799655,211.93 L182.490655,212.002 L182.490655,212.003 L182.590655,212.003 L182.590655,212.002 L209.281655,211.93 C209.281655,211.93 211.699655,211.965 213.879655,210.426 C214.557655,209.947 215.003655,209.053 215.076655,208.184 C215.103655,207.692 215.014655,207.212 214.771655,206.825" id="Fill-221" fill="#C65257" sketch:type="MSShapeGroup"></path>
            <path d="M67.181,9 L68.194,9.229 L61.013,40.911 L60,40.681 L67.181,9" id="Fill-307" fill="#3E4951" sketch:type="MSShapeGroup"></path>
            <path d="M69.3230574,8.23077042 C69.0940574,9.23677042 68.1770574,9.88677042 67.2740574,9.68277042 C66.3710574,9.47777042 65.8230574,8.49577042 66.0520574,7.48977042 C66.2800574,6.48277042 67.1970574,5.83277042 68.1000574,6.03777042 C69.0030574,6.24277042 69.5510574,7.22377042 69.3230574,8.23077042" id="Fill-308" fill="#3E4951" sketch:type="MSShapeGroup"></path>
            <path d="M86.199,20 L86.957,20.71 L64.758,44.426 L64,43.717 L86.199,20" id="Fill-309" fill="#3E4951" sketch:type="MSShapeGroup"></path>
            <path d="M88.9927774,20.9278185 C88.2877774,21.6808185 87.1677774,21.7788185 86.4917774,21.1458185 C85.8157774,20.5128185 85.8397774,19.3888185 86.5447774,18.6358185 C87.2497774,17.8818185 88.3697774,17.7848185 89.0457774,18.4178185 C89.7217774,19.0498185 89.6987774,20.1738185 88.9927774,20.9278185" id="Fill-310" fill="#3E4951" sketch:type="MSShapeGroup"></path>
            <path d="M97.478,40 L97.735,41.006 L66.257,49.032 L66,48.026 L97.478,40" id="Fill-311" fill="#3E4951" sketch:type="MSShapeGroup"></path>
            <path d="M99.2722797,41.3138173 C98.2722797,41.5688173 97.2752797,41.0488173 97.0472797,40.1508173 C96.8182797,39.2538173 97.4432797,38.3198173 98.4432797,38.0648173 C99.4432797,37.8098173 100.43928,38.3298173 100.66828,39.2278173 C100.89728,40.1248173 100.27228,41.0588173 99.2722797,41.3138173" id="Fill-312" fill="#3E4951" sketch:type="MSShapeGroup"></path>
            <path d="M97.397,60.394 L97.097,61.388 L66,51.993 L66.3,51 L97.397,60.394" id="Fill-313" fill="#3E4951" sketch:type="MSShapeGroup"></path>
            <path d="M98.3690863,63.2992192 C97.3810863,63.0012192 96.7970863,62.0402192 97.0650863,61.1542192 C97.3330863,60.2672192 98.3510863,59.7902192 99.3390863,60.0892192 C100.326086,60.3872192 100.910086,61.3482192 100.642086,62.2342192 C100.374086,63.1212192 99.3560863,63.5982192 98.3690863,63.2992192" id="Fill-314" fill="#3E4951" sketch:type="MSShapeGroup"></path>
            <path d="M87.381,78.249 L86.67,79.005 L63,56.757 L63.711,56 L87.381,78.249" id="Fill-315" fill="#3E4951" sketch:type="MSShapeGroup"></path>
            <path d="M86.6326544,80.9907286 C85.8806544,80.2847286 85.7856544,79.1647286 86.4196544,78.4897286 C87.0536544,77.8147286 88.1776544,77.8407286 88.9296544,78.5477286 C89.6816544,79.2537286 89.7766544,80.3737286 89.1426544,81.0487286 C88.5086544,81.7237286 87.3846544,81.6977286 86.6326544,80.9907286" id="Fill-316" fill="#3E4951" sketch:type="MSShapeGroup"></path>
            <path d="M68.335,90.399 L67.331,90.665 L59,59.266 L60.004,59 L68.335,90.399" id="Fill-317" fill="#3E4951" sketch:type="MSShapeGroup"></path>
            <path d="M66.0695161,92.2877312 C65.8055161,91.2897312 66.3165161,90.2887312 67.2115161,90.0507312 C68.1065161,89.8137312 69.0465161,90.4297312 69.3115161,91.4267312 C69.5765161,92.4247312 69.0655161,93.4257312 68.1695161,93.6637312 C67.2745161,93.9007312 66.3345161,93.2847312 66.0695161,92.2877312" id="Fill-318" fill="#3E4951" sketch:type="MSShapeGroup"></path>
            <path d="M47.013,9 L46,9.229 L53.181,40.911 L54.194,40.681 L47.013,9" id="Fill-319" fill="#3E4951" sketch:type="MSShapeGroup"></path>
            <path d="M44.0520574,8.23077042 C44.2800574,9.23677042 45.1970574,9.88677042 46.1000574,9.68277042 C47.0030574,9.47777042 47.5500574,8.49577042 47.3220574,7.48977042 C47.0940574,6.48277042 46.1770574,5.83277042 45.2740574,6.03777042 C44.3710574,6.24277042 43.8230574,7.22377042 44.0520574,8.23077042" id="Fill-320" fill="#3E4951" sketch:type="MSShapeGroup"></path>
            <path d="M26.758,20 L26,20.71 L48.199,44.426 L48.957,43.717 L26.758,20" id="Fill-321" fill="#3E4951" sketch:type="MSShapeGroup"></path>
            <path d="M23.5451418,20.9278185 C24.2501418,21.6808185 25.3701418,21.7788185 26.0461418,21.1458185 C26.7221418,20.5128185 26.6981418,19.3888185 25.9931418,18.6358185 C25.2881418,17.8818185 24.1681418,17.7848185 23.4921418,18.4178185 C22.8161418,19.0498185 22.8391418,20.1738185 23.5451418,20.9278185" id="Fill-322" fill="#3E4951" sketch:type="MSShapeGroup"></path>
            <path d="M16.257,40 L16,41.006 L47.478,49.032 L47.735,48.026 L16.257,40" id="Fill-323" fill="#3E4951" sketch:type="MSShapeGroup"></path>
            <path d="M14.4432797,41.3138173 C15.4432797,41.5688173 16.4402797,41.0488173 16.6682797,40.1508173 C16.8972797,39.2538173 16.2722797,38.3198173 15.2722797,38.0648173 C14.2722797,37.8098173 13.2762797,38.3298173 13.0472797,39.2278173 C12.8182797,40.1248173 13.4432797,41.0588173 14.4432797,41.3138173" id="Fill-324" fill="#3E4951" sketch:type="MSShapeGroup"></path>
            <path d="M16,60.394 L16.3,61.388 L47.397,51.993 L47.097,51 L16,60.394" id="Fill-325" fill="#3E4951" sketch:type="MSShapeGroup"></path>
            <path d="M15.3380863,63.2992192 C16.3260863,63.0012192 16.9100863,62.0402192 16.6420863,61.1542192 C16.3740863,60.2672192 15.3570863,59.7902192 14.3690863,60.0892192 C13.3810863,60.3872192 12.7970863,61.3482192 13.0650863,62.2342192 C13.3330863,63.1212192 14.3510863,63.5982192 15.3380863,63.2992192" id="Fill-326" fill="#3E4951" sketch:type="MSShapeGroup"></path>
            <path d="M26,78.249 L26.711,79.005 L50.381,56.757 L49.67,56 L26,78.249" id="Fill-327" fill="#3E4951" sketch:type="MSShapeGroup"></path>
            <path d="M26.9296544,80.9907286 C27.6816544,80.2847286 27.7766544,79.1647286 27.1426544,78.4897286 C26.5086544,77.8147286 25.3846544,77.8407286 24.6326544,78.5477286 C23.8806544,79.2537286 23.7856544,80.3737286 24.4196544,81.0487286 C25.0536544,81.7237286 26.1776544,81.6977286 26.9296544,80.9907286" id="Fill-328" fill="#3E4951" sketch:type="MSShapeGroup"></path>
            <path d="M45,90.399 L46.004,90.665 L54.335,59.266 L53.331,59 L45,90.399" id="Fill-329" fill="#3E4951" sketch:type="MSShapeGroup"></path>
            <path d="M47.3119619,92.2877312 C47.5759619,91.2897312 47.0649619,90.2887312 46.1699619,90.0507312 C45.2749619,89.8137312 44.3349619,90.4297312 44.0699619,91.4267312 C43.8049619,92.4247312 44.3159619,93.4257312 45.2109619,93.6637312 C46.1069619,93.9007312 47.0469619,93.2847312 47.3119619,92.2877312" id="Fill-330" fill="#3E4951" sketch:type="MSShapeGroup"></path>
            <path d="M57.068,1.596 C57.068,0.718 56.871,0 55.993,0 C55.115,0 54.861,0.624 54.861,1.502 L54,30.421 L58.335,30.444 L57.068,1.596" id="Fill-331" fill="#D7565A" sketch:type="MSShapeGroup"></path>
            <path d="M55,30 L56.408,30 L56.408,39.718 L55,39.718 L55,30 Z" id="Fill-332" fill="#D7565A" sketch:type="MSShapeGroup"></path>
            <path d="M81.913,9.09349987 C82.347,8.33049987 82.531,7.60949987 81.768,7.17549987 C81.005,6.74149987 80.475,7.15849987 80.041,7.92149987 L65,32.6354999 L68.757,34.7984999 L81.913,9.09349987" id="Fill-333" fill="#D7565A" sketch:type="MSShapeGroup"></path>
            <path d="M66.803,33 L68.027,33.696 L63.224,42.144 L62,41.448 L66.803,33" id="Fill-334" fill="#D7565A" sketch:type="MSShapeGroup"></path>
            <path d="M100.85,29.2947302 C101.624,28.8797302 102.164,28.3667302 101.749,27.5927302 C101.334,26.8197302 100.663,26.8907302 99.89,27.3057302 L74,40.2177302 L76.028,44.0487302 L100.85,29.2947302" id="Fill-335" fill="#D7565A" sketch:type="MSShapeGroup"></path>
            <path d="M75.563,41 L76.229,42.241 L67.666,46.834 L67,45.593 L75.563,41" id="Fill-336" fill="#D7565A" sketch:type="MSShapeGroup"></path>
            <path d="M101.067,76.24 C101.842,76.652 102.568,76.816 102.98,76.041 C103.393,75.265 102.961,74.748 102.186,74.336 L77.055,60 L75,63.816 L101.067,76.24" id="Fill-337" fill="#D7565A" sketch:type="MSShapeGroup"></path>
            <path d="M77.241,61.562 L76.58,62.806 L68,58.244 L68.661,57 L77.241,61.562" id="Fill-338" fill="#D7565A" sketch:type="MSShapeGroup"></path>
            <path d="M82.536,95.977 C83.006,96.718 83.557,97.219 84.298,96.748 C85.039,96.278 84.919,95.614 84.448,94.873 L69.672,70 L66,72.304 L82.536,95.977" id="Fill-339" fill="#D7565A" sketch:type="MSShapeGroup"></path>
            <path d="M68.398,71.203 L67.209,71.958 L62,63.755 L63.189,63 L68.398,71.203" id="Fill-340" fill="#D7565A" sketch:type="MSShapeGroup"></path>
            <path d="M55.411,103.841 C55.415,104.719 55.615,105.437 56.493,105.432 C57.371,105.428 57.622,104.802 57.618,103.924 L58.334,75.002 L54,75 L55.411,103.841" id="Fill-341" fill="#D7565A" sketch:type="MSShapeGroup"></path>
            <path d="M56.457,74.717 L55.048,74.724 L55,65.007 L56.408,65 L56.457,74.717" id="Fill-342" fill="#D7565A" sketch:type="MSShapeGroup"></path>
            <path d="M106.89,52.372 C107.768,52.351 108.481,52.138 108.46,51.26 C108.439,50.382 107.809,50.143 106.931,50.164 L78,50 L78.081,54.334 L106.89,52.372" id="Fill-343" fill="#D7565A" sketch:type="MSShapeGroup"></path>
            <path d="M78.715,51 L78.749,52.408 L69.034,52.642 L69,51.235 L78.715,51" id="Fill-344" fill="#D7565A" sketch:type="MSShapeGroup"></path>
            <path d="M29.3764938,9.09349987 C28.9424938,8.33049987 28.7584938,7.60949987 29.5214938,7.17549987 C30.2844938,6.74149987 30.8144938,7.15849987 31.2484938,7.92149987 L46.2894938,32.6354999 L42.5324938,34.7984999 L29.3764938,9.09349987" id="Fill-345" fill="#D7565A" sketch:type="MSShapeGroup"></path>
            <path d="M44.224,33 L43,33.696 L47.803,42.144 L49.027,41.448 L44.224,33" id="Fill-346" fill="#D7565A" sketch:type="MSShapeGroup"></path>
            <path d="M10.0427465,29.2946369 C9.26874646,28.8796369 8.72874646,28.3666369 9.14374646,27.5936369 C9.55874646,26.8196369 10.2287465,26.8906369 11.0027465,27.3056369 L36.8927465,40.2176369 L34.8647465,44.0486369 L10.0427465,29.2946369" id="Fill-347" fill="#D7565A" sketch:type="MSShapeGroup"></path>
            <path d="M36.666,41 L36,42.241 L44.563,46.835 L45.229,45.594 L36.666,41" id="Fill-348" fill="#D7565A" sketch:type="MSShapeGroup"></path>
            <path d="M10.0722086,77.24 C9.2972086,77.652 8.5712086,77.816 8.1592086,77.041 C7.7472086,76.266 8.1782086,75.748 8.9542086,75.336 L34.0832086,61 L36.1392086,64.817 L10.0722086,77.24" id="Fill-349" fill="#D7565A" sketch:type="MSShapeGroup"></path>
            <path d="M35,61.562 L35.661,62.806 L44.241,58.244 L43.58,57 L35,61.562" id="Fill-350" fill="#D7565A" sketch:type="MSShapeGroup"></path>
            <path d="M28.2925697,95.977 C27.8215697,96.718 27.2705697,97.219 26.5295697,96.748 C25.7885697,96.278 25.9085697,95.614 26.3795697,94.873 L41.1555697,70 L44.8275697,72.304 L28.2925697,95.977" id="Fill-351" fill="#D7565A" sketch:type="MSShapeGroup"></path>
            <path d="M42,71.203 L43.189,71.958 L48.398,63.755 L47.209,63 L42,71.203" id="Fill-352" fill="#D7565A" sketch:type="MSShapeGroup"></path>
            <path d="M4.57045229,52.372 C3.69245229,52.351 2.97945229,52.137 3.00045229,51.259 C3.02145229,50.382 3.65145229,50.143 4.52945229,50.164 L33.4604523,50 L33.3794523,54.334 L4.57045229,52.372" id="Fill-353" fill="#D7565A" sketch:type="MSShapeGroup"></path>
            <path d="M33.034,51 L33,52.408 L42.715,52.642 L42.749,51.234 L33.034,51" id="Fill-354" fill="#D7565A" sketch:type="MSShapeGroup"></path>
            <path d="M56,36 L57.007,36 L57.007,38.544 L56,38.544 L56,36 Z" id="Fill-355" fill="#3E4951" sketch:type="MSShapeGroup"></path>
            <path d="M56,36 L57.007,36 L57.007,38.544 L56,38.544 L56,36 Z" id="Fill-356" fill="#3E4951" sketch:type="MSShapeGroup"></path>
            <path d="M74.524,52.263 C74.524,62.349 66.348,70.525 56.262,70.525 C46.176,70.525 38,62.349 38,52.263 C38,42.176 46.176,34 56.262,34 C66.348,34 74.524,42.176 74.524,52.263" id="Fill-357" fill="#D5D0BB" sketch:type="MSShapeGroup"></path>
            <path d="M74.024,52.763 L72.524,52.763 C72.524,57.396 70.651,61.577 67.615,64.615 C64.577,67.651 60.396,69.524 55.762,69.525 C51.129,69.524 46.947,67.651 43.909,64.615 C40.873,61.577 39,57.396 39,52.763 C39.001,48.129 40.873,43.948 43.909,40.91 C46.947,37.874 51.129,36.001 55.762,36 C60.396,36.001 64.577,37.874 67.615,40.91 C70.651,43.948 72.524,48.129 72.524,52.763 L75.524,52.763 C75.523,41.847 66.677,33.001 55.762,33 C44.847,33.001 36.001,41.847 36,52.763 C36.001,63.678 44.847,72.524 55.762,72.525 C66.677,72.524 75.523,63.678 75.524,52.763 L74.024,52.763" id="Fill-358" fill="#D6565A" sketch:type="MSShapeGroup"></path>
            <path d="M58.8892409,53.6600724 L47.9482409,46.1810724 C47.9482409,46.1810724 47.3432409,45.7670724 47.0412409,46.1910724 C47.0412409,46.1910724 46.7972409,46.7180724 47.4962409,47.1850724 L58.2872409,54.8140724 L58.8892409,53.6600724" id="Fill-359" fill="#2A323B" sketch:type="MSShapeGroup"></path>
            <path d="M57.2414571,48 L53.0004571,65.198 C53.0004571,65.198 52.9814571,65.453 53.1884571,65.528 C53.1884571,65.528 53.4334571,65.566 53.4954571,65.296 L57.8434571,48.151 L57.2414571,48" id="Fill-360" fill="#D6565A" sketch:type="MSShapeGroup"></path>
            <path d="M69.357,47.2507755 C69.357,47.2507755 69.138,46.8187755 68.46,47.0887755 L57.204,51.2897755 C56.915,50.9427755 56.502,50.7217755 56.04,50.7217755 C55.212,50.7217755 54.541,51.4207755 54.473,52.3087755 L52,53.2317755 L52.251,54.1847755 L54.657,53.2757755 C54.925,53.8147755 55.441,54.1847755 56.04,54.1847755 C56.913,54.1847755 57.621,53.4097755 57.621,52.4537755 C57.621,52.3547755 57.609,52.2597755 57.595,52.1667755 L68.884,47.9017755 C68.884,47.9017755 69.477,47.6727755 69.357,47.2507755" id="Fill-361" fill="#3E4951" sketch:type="MSShapeGroup"></path>
            <path d="M56,66 L57.007,66 L57.007,68.544 L56,68.544 L56,66 Z" id="Fill-362" fill="#3E4951" sketch:type="MSShapeGroup"></path>
            <path d="M56,36 L57.007,36 L57.007,38.544 L56,38.544 L56,36 Z" id="Fill-363" fill="#3E4951" sketch:type="MSShapeGroup"></path>
            <path d="M70,52 L72.544,52 L72.544,53.007 L70,53.007 L70,52 Z" id="Fill-364" fill="#3E4951" sketch:type="MSShapeGroup"></path>
            <path d="M40,52 L42.544,52 L42.544,53.007 L40,53.007 L40,52 Z" id="Fill-365" fill="#3E4951" sketch:type="MSShapeGroup"></path>
            <path d="M62.872,40.706 L62,40.202 L63.273,38 L64.145,38.504 L62.872,40.706" id="Fill-366" fill="#3E4951" sketch:type="MSShapeGroup"></path>
            <path d="M48.872,66.707 L48,66.203 L49.273,64 L50.145,64.504 L48.872,66.707" id="Fill-367" fill="#3E4951" sketch:type="MSShapeGroup"></path>
            <path d="M62,64.507 L62.87,64 L64.151,66.198 L63.281,66.705 L62,64.507" id="Fill-368" fill="#3E4951" sketch:type="MSShapeGroup"></path>
            <path d="M48,38.507 L48.87,38 L50.151,40.199 L49.281,40.706 L48,38.507" id="Fill-369" fill="#3E4951" sketch:type="MSShapeGroup"></path>
            <path d="M68.505,46.148 L68,45.277 L70.2,44 L70.705,44.871 L68.505,46.148" id="Fill-370" fill="#3E4951" sketch:type="MSShapeGroup"></path>
            <path d="M42.506,61.148 L42,60.277 L44.201,59 L44.706,59.871 L42.506,61.148" id="Fill-371" fill="#3E4951" sketch:type="MSShapeGroup"></path>
            <path d="M68,59.88 L68.488,59 L70.713,60.234 L70.224,61.114 L68,59.88" id="Fill-372" fill="#3E4951" sketch:type="MSShapeGroup"></path>
            <path d="M42,44.881 L42.489,44 L44.713,45.234 L44.225,46.114 L42,44.881" id="Fill-373" fill="#3E4951" sketch:type="MSShapeGroup"></path>
        </g>
    </g>
</svg>