<?xml version="1.0" encoding="UTF-8" standalone="no"?>
<svg width="98px" height="294px" viewBox="0 0 98 294" version="1.1" xmlns="http://www.w3.org/2000/svg" xmlns:xlink="http://www.w3.org/1999/xlink" xmlns:sketch="http://www.bohemiancoding.com/sketch/ns">
    <!-- Generator: Sketch 3.3.2 (12043) - http://www.bohemiancoding.com/sketch -->
    <title>Slice 1</title>
    <desc>Created with Sketch.</desc>
    <defs></defs>
    <g id="Page-1" stroke="none" stroke-width="1" fill="none" fill-rule="evenodd" sketch:type="MSPage">
        <g id="Group" sketch:type="MSLayerGroup">
            <path d="M88.237413,25.9854619 C88.4230294,23.8720304 85.9571087,19.5441264 85.9571087,19.5441264 C85.9571087,19.5441264 83.1762694,11.9013044 79.8884597,8.90141837 C77.6445585,6.85402247 69.3619762,4.40228049 69.3619762,4.40228049 C69.3619762,4.40228049 66.262656,1.5552601 65.2153545,1.5552601 C62.4323695,1.55526011 57.871117,4.40228051 57.871117,4.40228051 L52.7668434,14.9739093 L56.3553955,31.8869784 L84.6930469,33.9367563 C84.6930469,33.9367563 88.0016755,28.6695737 88.237413,25.9854619 Z" id="Path-233" fill="#A53434" sketch:type="MSShapeGroup"></path>
            <path d="M72.577586,154.666606 C74.4637359,167.150161 75.1320803,205.157255 75.1320803,205.157255 L91.6089178,205.157255 C91.6089178,205.157255 93.4461156,177.821796 87.833621,154.320092 C85.9186377,146.305105 83.4505052,134.919724 78.6101088,127.31368 C77.6577718,125.817209 76.6136054,124.467034 75.4637549,123.317608 C70.778351,118.633137 64,117 64,117 C64,117 71.1190168,145.013421 72.577586,154.666606 Z" id="Fill-41-Copy-2" fill="#D0011B" sketch:type="MSShapeGroup"></path>
            <path d="M73.6500046,155.231207 C75.5361544,167.714761 76.2044988,205.721856 76.2044988,205.721856 L92.6813363,205.721856 C92.6813363,205.721856 94.5185341,178.386397 88.9060396,154.884693 C88.5143918,153.245487 88.0996072,151.465306 87.6461242,149.605313 C87.5917909,149.38246 87.0791149,151.032305 86.4805587,151.072761 C85.8395266,151.116087 85.6838103,150.405337 85.0967239,149.968509 C84.6213827,149.614826 83.648787,149.549504 83.5986427,149.351214 C83.5486353,149.153467 83.9501855,148.241106 84.6030677,147.917081 C84.7552231,147.841566 84.4765149,146.728245 84.6030677,146.614123 C84.8072708,146.429979 84.7391195,145.588046 84.9462589,145.402247 C85.109561,145.25577 84.4548447,145.191899 84.6030677,145.052661 L85.0967239,144.624646 C85.6249305,144.624646 85.4833502,145.605615 85.4297565,145.402247 L85.5934261,145.657138 L85.7373489,146.235333 C85.8547596,146.235333 86.5578598,144.911286 86.4805587,144.624646 C84.8577398,138.607083 82.7395615,132.682007 79.6825273,127.878281 C78.7301904,126.38181 77.6860239,125.031635 76.5361735,123.882209 C71.8507695,119.197738 65.0724185,117.564601 65.0724185,117.564601 C65.0724185,117.564601 72.1914353,145.578022 73.6500046,155.231207 Z" id="Fill-41" fill="#EEBF97" sketch:type="MSShapeGroup"></path>
            <path d="M74.6500046,155.666606 C76.5361544,168.150161 77.2044988,206.157255 77.2044988,206.157255 L93.6813363,206.157255 C93.6813363,206.157255 95.1038432,179.551547 89.4913486,156.049843 C89.2949698,155.227917 89.3268541,153.251364 88.6515392,152.181473 C88.2938228,151.614748 86.5393453,152.535568 86.0680373,152.181473 C85.7300576,151.927548 83.4358764,151.039106 83.5544303,150.390919 C83.6059565,150.109202 82.201523,151.960477 82.92219,151.791485 C83.3646198,151.687737 81.4531637,150.486158 81.4297527,150.390919 C81.3833167,150.202012 82.7108855,149.478107 82.1416858,149.121672 C81.49666,148.717753 83.5855345,147.738449 83.5544303,147.526245 C83.1747464,144.935906 85.8089521,143.122853 85.3701366,140.411686 C84.6812529,136.155504 82.8495516,131.718873 80.6825273,128.31368 C79.7301904,126.817209 78.6860239,125.467034 77.5361735,124.317608 C72.8507695,119.633137 66.0724185,118 66.0724185,118 C66.0724185,118 73.1914353,146.013421 74.6500046,155.666606 Z" id="Fill-41-Copy" fill="#4990E2" sketch:type="MSShapeGroup"></path>
            <path d="M92.6813363,205.721856 C92.6813363,205.721856 90.7762051,220.515505 83.4543872,222.715118 L76.5361735,222.715118 L76.2044988,205.721856" id="Fill-42" fill="#EFBF97" sketch:type="MSShapeGroup"></path>
            <path d="M28.151635,117.564601 C28.151635,117.564601 21.0316192,145.578022 19.5730499,155.231207 C17.6878991,167.714761 17.0195547,205.721856 17.0195547,205.721856 L0.541718226,205.721856 C0.541718226,205.721856 -1.2944806,178.386397 4.31801397,154.884693 C6.60876691,145.292775 9.69374079,130.873763 16.6868811,123.882209 C21.372285,119.197738 28.151635,117.564601 28.151635,117.564601" id="Fill-43" fill="#4990E2" sketch:type="MSShapeGroup"></path>
            <path d="M0.541718226,205.721856 C0.541718226,205.721856 2.44784846,220.515505 9.76966631,222.715118 L16.6868811,222.715118 L17.0195547,205.721856" id="Fill-44" fill="#EFBF97" sketch:type="MSShapeGroup"></path>
            <path d="M90.1907793,54.1243617 C90.1907793,77.9143259 70.7108876,89.8665581 46.6794606,89.8665581 C22.6470346,89.8665581 3.5967215,76.6377471 3.5967215,52.8467785 L3.16614386,43.6335158 C3.16614386,19.8425472 15.9815729,0.555260105 46.6794606,0.555260105 C63.0028561,0.555260105 66.5697629,17.3871351 73.4735703,25.7222466 C79.8615529,33.4345919 90.1907793,32.1996688 90.1907793,43.6335158 L90.1907793,54.1243617 L77.273436,36.6569561" id="Fill-45" fill="#3C2218" sketch:type="MSShapeGroup"></path>
            <path d="M16.8697017,183.20144 L17.2603186,257.125494 L16.8697017,277.45835 L38.0908854,277.45835 L37.6333342,212.208202 C37.6333342,212.208202 41.1968387,214.412836 48.493681,214.137633 C57.6397094,213.793128 59.2860945,212.208202 59.2860945,212.208202 L59.4689151,277.45835 L80.6910978,277.45835 L80.2994819,190.56763" id="Fill-47" fill="#937A56" sketch:type="MSShapeGroup"></path>
            <path d="M65.7727316,117.564601 C76.2794253,134.353972 80.2994819,190.56763 80.2994819,190.56763 C55.1431584,206.188897 17.0525224,192.698944 17.0525224,192.698944 C14.2812408,144.272316 28.151635,117.564601 28.151635,117.564601 L65.7727316,117.564601" id="Fill-48" fill="#004E7E" sketch:type="MSShapeGroup"></path>
            <path d="M83.9548963,76.9029059 C78.4722743,98.2301076 67.7128285,109.819755 47.2269236,109.819755 C26.7420177,109.819755 14.8846489,100.211768 9.76966631,76.9029059 L9.76966631,59.8212576 C9.76966631,39.872078 17.4431392,21.5670836 42.7503148,24.5912997 L46.8632803,23.7014108 C67.3481862,23.7014108 83.9548963,39.872078 83.9548963,59.8212576 L83.9548963,76.9029059" id="Fill-49" fill="#EFBF97" sketch:type="MSShapeGroup"></path>
            <path d="M17.4431392,72.2003553 C17.4431392,76.461979 14.0075093,79.9150693 9.76966631,79.9150693 C5.53182331,79.9150693 2.09519438,76.461979 2.09519438,72.2003553 L2.09519438,71.4651424 C2.09519438,67.2035187 5.53182331,63.749424 9.76966631,63.749424 C14.0075093,63.749424 17.4431392,67.2035187 17.4431392,71.4651424 L17.4431392,72.2003553" id="Fill-50" fill="#EFBF97" sketch:type="MSShapeGroup"></path>
            <path d="M91.6283692,72.2003553 C91.6283692,76.461979 88.1917402,79.9150693 83.9548963,79.9150693 C79.7160542,79.9150693 76.2794253,76.461979 76.2794253,72.2003553 L76.2794253,71.4651424 C76.2794253,67.2035187 79.7160542,63.749424 83.9548963,63.749424 C88.1917402,63.749424 91.6283692,67.2035187 91.6283692,71.4651424 L91.6283692,72.2003553" id="Fill-51" fill="#EFBF97" sketch:type="MSShapeGroup"></path>
            <path d="M78.2904526,69.8119176 L82.099716,73.7019173 L87.6083125,45.2104069 L67.016865,21.6438232 L44.7593441,14.0281377 L23.2804133,18.5478894 L5.65769984,40.0518636 L11.2202434,73.2258368 L15.5250207,68.1576885 C15.5250207,68.1576885 11.8116633,46.923895 16.48408,38.6738416 C18.3702298,35.3432868 73.4482025,54.9831145 73.3782711,39.2383083 C79.503263,45.1019329 77.1935286,51.8514288 78.2904526,69.8119176 Z" id="Fill-52" fill="#3C2218" sketch:type="MSShapeGroup"></path>
            <path d="M7.51787515,69.8119176 C7.51787515,69.8119176 7.51288005,70.2166865 7.50488789,70.8253464 C7.50988299,71.3697254 7.55284085,71.8789507 7.63875657,72.2997899 C7.64674873,72.4112771 7.69669973,72.5167379 7.70069581,72.6362603 C7.74764976,72.7467431 7.76063702,72.8712873 7.79360468,72.996836 C7.8395596,73.1193715 7.87352628,73.2489377 7.90349688,73.3835259 C7.95244886,73.5100789 7.99240967,73.6446671 8.02937341,73.7752377 C8.09630775,74.0403965 8.19720877,74.2673884 8.2381686,74.4592268 C8.28512254,74.6460432 8.30710098,74.7725962 8.30710098,74.7725962 C8.30710098,74.7725962 8.18921661,74.7856533 7.99240967,74.7725962 C7.80259586,74.7484909 7.50388887,74.7414602 7.21816914,74.5908018 C7.06831613,74.5245121 6.9024788,74.4491829 6.74163658,74.3447264 C6.59178357,74.2262085 6.43593645,74.0886071 6.28608344,73.9329268 C6.1442226,73.768207 6.01734705,73.5673291 5.90146073,73.3614293 C5.80755284,73.1394593 5.71664202,72.9044322 5.67368416,72.6583568 C5.6407165,72.4082639 5.6107459,72.1571666 5.64970768,71.9131 C5.66169592,71.6670246 5.7406185,71.4420414 5.81254794,71.2301153 C5.98937449,70.8183157 6.2291393,70.4898804 6.49887471,70.2819718 C7.00837493,69.8380318 7.51787515,69.8119176 7.51787515,69.8119176" id="Fill-53" fill="#D1A181" sketch:type="MSShapeGroup"></path>
            <path d="M86.6992043,72.6593612 C86.6992043,72.6593612 86.7041994,72.2545923 86.7121916,71.6469368 C86.7071965,71.1015535 86.6642386,70.5933325 86.5783229,70.1724934 C86.5703307,70.0610062 86.5203797,69.9555453 86.5163836,69.8350186 C86.4684307,69.7245358 86.4574415,69.5999915 86.4234748,69.4744428 C86.3775198,69.3529117 86.3435532,69.2223411 86.3135826,69.087753 C86.2646306,68.9611999 86.2246698,68.8276162 86.187706,68.6960412 C86.1197727,68.4308824 86.0198707,68.2038904 85.9789109,68.0130565 C85.9309579,67.8252357 85.9089794,67.6986826 85.9089794,67.6986826 C85.9089794,67.6986826 86.0268638,67.6856256 86.2246698,67.6986826 C86.4144836,67.722788 86.7121916,67.7308231 86.9989103,67.8804771 C87.1487633,67.9467668 87.3146006,68.0231004 87.4754429,68.1265524 C87.6242969,68.2450704 87.781143,68.3826717 87.930996,68.538352 C88.0728569,68.7030719 88.1987334,68.9039497 88.3146197,69.1098495 C88.4085276,69.3318196 88.4994384,69.5668467 88.5433953,69.812922 C88.5763629,70.063015 88.6063336,70.3141123 88.5673718,70.5581789 C88.5553835,70.8042542 88.4764609,71.0292374 88.4045315,71.242168 C88.227705,71.6539676 87.9879401,71.9813985 87.7182047,72.1903114 C87.2087045,72.6332471 86.6992043,72.6593612 86.6992043,72.6593612" id="Fill-54" fill="#D1A181" sketch:type="MSShapeGroup"></path>
            <path d="M38.0908854,277.45835 L16.8697017,277.45835 C16.8697017,277.45835 0.448809363,280.324877 0.541718226,291.787972 L38.0908854,291.787972 L38.0908854,277.45835" id="Fill-55" fill="#3C2218" sketch:type="MSShapeGroup"></path>
            <path d="M0.541718226,291.787972 L25.8488938,291.787972 L25.8488938,293.625 L0.541718226,293.625 L0.541718226,291.787972 Z" id="Fill-56" fill="#2E1A14" sketch:type="MSShapeGroup"></path>
            <path d="M30.6002331,291.787972 L38.0908854,291.787972 L38.0908854,293.625 L30.6002331,293.625 L30.6002331,291.787972 Z" id="Fill-57" fill="#2E1A14" sketch:type="MSShapeGroup"></path>
            <path d="M59.4689151,277.45835 L80.6910978,277.45835 C80.6910978,277.45835 97.1119902,280.324877 97.0200803,291.787972 L59.4689151,291.787972 L59.4689151,277.45835" id="Fill-58" fill="#3C2218" sketch:type="MSShapeGroup"></path>
            <path d="M71.7109067,291.787972 L97.0180823,291.787972 L97.0180823,293.625 L71.7109067,293.625 L71.7109067,291.787972 Z" id="Fill-59" fill="#2E1A14" sketch:type="MSShapeGroup"></path>
            <path d="M59.4689151,291.787972 L66.9605664,291.787972 L66.9605664,293.625 L59.4689151,293.625 L59.4689151,291.787972 Z" id="Fill-60" fill="#2E1A14" sketch:type="MSShapeGroup"></path>
            <path d="M39,107.695733 L39,111.654844 C39,112.236069 39.6616254,111.749359 39.9341252,112.504501 C40.1028526,112.972072 39.9341252,114.714471 39.9341252,115.074356 C39.9341252,115.34463 40.1347328,116.905787 39.9341252,117.048028 C39.6751938,117.231623 39,115.986698 39,116.33555 L39,119.564601 L42.7453261,124.964198 L46.4906522,119.564601 L46.4906522,107.695733 L39,107.695733" id="Fill-61-Copy" fill="#D0011B" sketch:type="MSShapeGroup" transform="translate(42.745326, 116.329965) scale(-1, 1) translate(-42.745326, -116.329965) "></path>
            <path d="M38.0908854,105.695733 L38.0908854,109.654844 C38.0908854,110.236069 39.7370954,109.749359 40.4151105,110.504501 C40.8349262,110.972072 40.4151105,112.714471 40.4151105,113.074356 C40.4151105,113.34463 40.9142484,114.905787 40.4151105,115.048028 C39.7708553,115.231623 38.0908854,113.986698 38.0908854,114.33555 L38.0908854,117.564601 L47.4097443,122.964198 L56.7286032,117.564601 L56.7286032,105.695733 L38.0908854,105.695733" id="Fill-61" fill="#EFBF97" sketch:type="MSShapeGroup"></path>
            <path d="M33.5233657,66.1217915 C33.5233657,66.7696225 32.787088,67.291905 31.8779797,67.291905 C30.9698705,67.291905 30.2335928,66.7696225 30.2335928,66.1217915 L30.2335928,62.4778672 C30.2335928,61.8300361 30.9698705,61.3067493 31.8779797,61.3067493 C32.787088,61.3067493 33.5233657,61.8300361 33.5233657,62.4778672 L33.5233657,66.1217915" id="Fill-62" fill="#1B1B1E" sketch:type="MSShapeGroup"></path>
            <path d="M62.7586881,66.1217915 C62.7586881,66.7696225 62.0214113,67.291905 61.1133021,67.291905 C60.2061919,67.291905 59.4689151,66.7696225 59.4689151,66.1217915 L59.4689151,62.4778672 C59.4689151,61.8300361 60.2061919,61.3067493 61.1133021,61.3067493 C62.0214113,61.3067493 62.7586881,61.8300361 62.7586881,62.4778672 L62.7586881,66.1217915" id="Fill-63" fill="#1B1B1E" sketch:type="MSShapeGroup"></path>
            <path d="M42.7503148,76.8546952 C42.7503148,76.8546952 43.3906867,77.1469725 44.1958968,77.5236184 C44.4076891,77.6009564 44.6184823,77.7094304 44.8472579,77.7877728 C45.0690403,77.8831898 45.302811,77.9625365 45.5365817,78.0348526 C45.7673553,78.12123 46.0081192,78.1523661 46.2368947,78.2176514 C46.4696664,78.234726 46.698442,78.3050333 46.9232215,78.2829367 C47.1499991,78.3190947 47.3697835,78.2638533 47.594563,78.252805 C47.8193425,78.2357304 48.0351308,78.1413178 48.2659044,78.1121905 C48.4846898,78.0318394 48.7024762,77.9384312 48.9272557,77.8681239 C49.143044,77.7797377 49.3438471,77.6602154 49.5476471,77.5738379 C49.9622405,77.4051005 50.2759328,77.1680646 50.5446691,77.0525599 C50.8044144,76.9229936 50.9732487,76.8546952 50.9732487,76.8546952 C50.9732487,76.8546952 50.9412801,77.0224282 50.8503693,77.3066703 C50.7424751,77.5788598 50.6435721,78.0197867 50.3218877,78.4265644 C50.1690376,78.6354773 50.0191846,78.8855703 49.8003992,79.1005096 C49.5676275,79.3023918 49.3188716,79.5253662 49.0301548,79.7202178 C48.7124664,79.8698718 48.3907819,80.0737628 48.0161494,80.1551183 C47.6415169,80.2455133 47.2518991,80.3208425 46.8582852,80.2897065 C46.4596762,80.2947284 46.0890398,80.1922807 45.7253965,80.0938506 C45.3817336,79.96328 45.0400687,79.8246742 44.7633402,79.6308271 C44.4736244,79.4530502 44.2228703,79.2501636 44.0100791,79.0372331 C43.7823025,78.8393684 43.6234583,78.6003237 43.4616171,78.4034634 C42.8562109,77.5658028 42.7503148,76.8546952 42.7503148,76.8546952" id="Fill-64" fill="#D1A181" sketch:type="MSShapeGroup"></path>
            <path d="M36.4474974,88.7546992 C36.4474974,88.7546992 36.8001515,88.9264498 37.4175459,89.2267622 C37.7132558,89.3814381 38.1028736,89.5250658 38.5084757,89.7309656 C38.9400524,89.9007074 39.4006006,90.1176555 39.9230881,90.3044719 C40.4345864,90.5103717 40.9890425,90.7122539 41.5804623,90.893044 C42.1529008,91.1180272 42.7952707,91.2204749 43.4186592,91.4193439 C44.0690213,91.5067258 44.7113911,91.7196563 45.3877277,91.7517968 C45.7223994,91.7899636 46.0590692,91.8200953 46.3947399,91.8693103 L47.4107433,91.8743323 C48.0910759,91.9486571 48.7584213,91.7829329 49.4307618,91.7658582 C50.0971082,91.6975598 50.7394781,91.5107434 51.386843,91.4193439 C52.0172247,91.259646 52.6186347,91.0406892 53.2150497,90.8850089 C53.8154607,90.7333461 54.3309551,90.4400644 54.8554406,90.2612831 C55.3689369,90.0594009 55.872443,89.9067337 56.270053,89.6817505 C56.6756551,89.4718332 57.0532847,89.3111309 57.3629809,89.1705164 C57.9853704,88.8943093 58.3729902,88.7546992 58.3729902,88.7546992 C58.3729902,88.7546992 58.1621969,89.0881565 57.7366144,89.6375574 C57.5238231,89.9107513 57.2650769,90.2512392 56.9413944,90.6158325 C56.6406894,91.0105575 56.2240981,91.3661113 55.7585547,91.7528012 C55.2820222,92.1194033 54.8034916,92.5964882 54.1880952,92.9329586 C53.5726989,93.2674202 52.928331,93.6581276 52.2120336,93.9594444 C51.8463923,94.0920238 51.4677637,94.2115461 51.0831409,94.3360904 C50.6965202,94.448582 50.3148945,94.616315 49.9003012,94.6514686 C49.0821038,94.7599426 48.2469231,94.9447503 47.4017521,94.8875001 L46.1399898,94.8443113 C45.7253965,94.7860568 45.3157983,94.7016881 44.9101961,94.6303764 C44.5005979,94.5691087 44.103987,94.4746961 43.7263574,94.3340816 C43.3437327,94.2105417 42.9671022,94.0870018 42.6034589,93.9544225 C41.9041448,93.6189564 41.2098259,93.3397362 40.6283963,92.9399893 C40.3346844,92.7481509 40.0439695,92.5733872 39.7762322,92.384562 C39.519484,92.1816754 39.271727,91.9838107 39.0329613,91.7949855 C38.5584267,91.4233615 38.1837942,91.0025224 37.8401313,90.66103 C37.5114537,90.2974411 37.2397203,89.9730234 37.0369192,89.6837593 C36.6173308,89.1233101 36.4474974,88.7546992 36.4474974,88.7546992" id="Fill-65" fill="#1B1B1E" sketch:type="MSShapeGroup" transform="translate(47.410244, 91.826477) rotate(178.000000) translate(-47.410244, -91.826477) "></path>
            <path d="M38.0918844,127.874657 C38.0918844,127.874657 47.2269236,135.615485 56.6596708,127.69688 L47.3927609,122.822579 L38.0918844,127.874657" id="Fill-66" fill="#FFFFFF" sketch:type="MSShapeGroup"></path>
            <path d="M38.054839,123.911349 C39.6505734,124.153047 37.3231821,120.086806 40.6623166,119.522028 C42.2106602,119.260143 42.0557906,118.455355 43.7003329,118.031331 C43.8725502,117.986927 44.623147,115.596279 44.8251669,115.618868 C46.9222978,115.853361 44.4285272,113.190304 45.4276564,112.351554 C45.4276564,112.351554 45.7768016,111.318546 43.5426652,110.143413 L43.5426652,111.192124 C44.5397042,111.192124 44.3346636,111.503972 44.3346636,111.503972 C44.3346636,111.503972 44.3485951,111.76569 44.3346636,112.036097 C44.323731,112.248297 44.3068112,112.511366 44.1774418,112.351554 C43.8419345,111.937099 43.8266342,112.413286 43.7003329,112.691547 C43.6506917,112.800914 43.724193,113.030494 43.5426652,112.935862 C42.706052,112.49973 42.220576,114.622437 41.7474649,114.583114 C41.4045091,114.554609 41.1522614,113.789313 40.9715617,113.815331 C40.7187633,113.851729 40.4222346,112.934923 40.3130047,113.203026 C40.169288,113.555776 40.2273078,115.124867 39.91491,115.294556 C38.0616914,116.301193 36.5664216,120.346634 36.5664216,120.346634 C36.5664216,120.346634 33.6783151,123.248457 38.054839,123.911349 Z" id="Fill-66-Copy" fill-opacity="0.5877774" fill="#67010D" sketch:type="MSShapeGroup" transform="translate(40.662317, 117.032556) rotate(-38.000000) translate(-40.662317, -117.032556) "></path>
            <path d="M35.5543735,116.087144 L35.5543735,129.558013 L47.4097443,122.957167 L35.5543735,116.087144" id="Fill-67" fill="#EDEDE9" sketch:type="MSShapeGroup"></path>
            <path d="M59.3760063,116.015833 L59.3760063,129.630329 L47.395758,122.957167 L59.3760063,116.015833" id="Fill-68" fill="#EDEDE9" sketch:type="MSShapeGroup"></path>
            <path d="M35.5543735,116.087144 L38.0908854,116.087144 L38.0908854,117.55757 L35.5543735,116.087144" id="Fill-69" fill="#BFBFB9" sketch:type="MSShapeGroup"></path>
            <path d="M59.1971817,116.087144 L56.6596708,116.087144 L56.6596708,117.55757 L59.1971817,116.087144" id="Fill-70" fill="#BFBFB9" sketch:type="MSShapeGroup"></path>
            <path d="M93.1166951,44.1562561 C93.8587701,42.654679 88.7790945,37.3751223 88.8818661,36.2049634 C89.0674825,34.0915319 82.4000052,32.7635145 79.1121956,29.7636284 C76.8682944,27.7162325 70.0064293,14.621782 70.0064293,14.621782 C70.0064293,14.621782 66.9071091,11.7747616 65.8598076,11.7747616 C63.0768227,11.7747616 61.0524203,4.47231904 61.0524203,4.47231904 C61.0524203,4.47231904 55.321882,5.89072932 54.3878824,7.31312266 C53.1003694,9.27388364 54.3878824,14.621782 54.3878824,14.621782 C54.3878824,14.621782 58.2118581,18.9377089 61.0524203,20.8603825 C63.4180404,22.461585 75.3534085,29.7636284 75.3534085,29.7636284 C75.3534085,29.7636284 77.0178988,37.1958223 79.1121956,40.2148689 C80.3459293,41.9933654 85.3375001,44.1562578 85.3375001,44.1562578 C85.3375001,44.1562578 92.1565976,46.098998 93.1166951,44.1562561 Z" id="Path-233-Copy" fill-opacity="0.687669837" fill="#6F1616" sketch:type="MSShapeGroup"></path>
            <path d="M67.3341404,21.4556156 C67.3341404,21.4556156 64.5920558,14.1777024 61.3583112,11.9781962 C59.151309,10.4770525 55.362156,8.99681169 55.362156,8.99681169 C55.362156,8.99681169 52.3138013,6.90938606 51.2837218,6.90938606 C48.5465005,6.90938606 46.5553876,1.5552601 46.5553876,1.5552601 C46.5553876,1.5552601 40.9190829,2.59523369 40.0004421,3.63812762 C38.734101,5.07575088 40.0004421,8.99681169 40.0004421,8.99681169 C40.0004421,8.99681169 39.0137959,16.9598038 41.8076476,18.3695015 C44.1343672,19.5434977 49.6155552,24.8215271 49.6155552,24.8215271 C49.6155552,24.8215271 56.741584,20.846079 58.801442,23.0596337 C60.014888,24.3636213 64.3181855,24.8215271 64.3181855,24.8215271 L67.3341404,21.4556156 Z" id="Path-233-Copy-2" fill-opacity="0.687669837" fill="#6F1616" sketch:type="MSShapeGroup"></path>
            <path d="M91.230657,48.6463637 C91.230657,48.6463637 88.4885724,41.3684506 85.2548278,39.1689443 C83.0478256,37.6678006 79.2586726,36.1875598 79.2586726,36.1875598 C79.2586726,36.1875598 76.2103179,34.1001342 75.1802384,34.1001342 C72.4430171,34.1001342 70.4519042,28.7460082 70.4519042,28.7460082 C70.4519042,28.7460082 64.8155995,29.7859818 63.8969587,30.8288757 C62.6306176,32.266499 63.8969587,36.1875598 63.8969587,36.1875598 C63.8969587,36.1875598 62.9103125,44.1505519 65.7041642,45.5602496 C68.0308839,46.7342458 73.5120718,52.0122752 73.5120718,52.0122752 C73.5120718,52.0122752 80.6381006,48.0368271 82.6979586,50.2503818 C83.9114046,51.5543694 88.2147021,52.0122752 88.2147021,52.0122752 L91.230657,48.6463637 Z" id="Path-233-Copy-3" fill-opacity="0.687669837" fill="#6F1616" sketch:type="MSShapeGroup"></path>
            <path d="M82.766003,64.3021819 C82.766003,64.3021819 82.0297102,58.9865254 81.1613991,57.3800457 C80.5687844,56.2836374 79.5513374,55.2024962 79.5513374,55.2024962 C79.5513374,55.2024962 78.7328063,53.6778781 78.4562138,53.6778781 C77.721227,53.6778781 77.1865819,49.767321 77.1865819,49.767321 C77.1865819,49.767321 75.6731457,50.526899 75.4264762,51.2886099 C75.0864438,52.338624 75.4264762,55.2024962 75.4264762,55.2024962 C75.4264762,55.2024962 75.1615463,61.018522 75.9117393,62.0481398 C76.5365,62.9056055 78.0082849,66.760583 78.0082849,66.760583 C78.0082849,66.760583 79.9217354,63.8569874 80.4748396,65.4737279 C80.8006689,66.4261369 81.9561718,66.760583 81.9561718,66.760583 L82.766003,64.3021819 Z" id="Path-233-Copy-4" fill-opacity="0.687669837" fill="#6F1616" sketch:type="MSShapeGroup"></path>
            <path d="M80.766003,60.3021819 C80.766003,60.3021819 80.0297102,54.9865254 79.1613991,53.3800457 C78.5687844,52.2836374 77.5513374,51.2024962 77.5513374,51.2024962 C77.5513374,51.2024962 76.7328063,49.6778781 76.4562138,49.6778781 C75.721227,49.6778781 75.1865819,45.767321 75.1865819,45.767321 C75.1865819,45.767321 73.6731457,46.526899 73.4264762,47.2886099 C73.0864438,48.338624 73.4264762,51.2024962 73.4264762,51.2024962 C73.4264762,51.2024962 73.1615463,57.018522 73.9117393,58.0481398 C74.5365,58.9056055 76.0082849,62.760583 76.0082849,62.760583 C76.0082849,62.760583 77.9217354,59.8569874 78.4748396,61.4737279 C78.8006689,62.4261369 79.9561718,62.760583 79.9561718,62.760583 L80.766003,60.3021819 Z" id="Path-233-Copy-5" fill-opacity="0.687669837" fill="#6F1616" sketch:type="MSShapeGroup"></path>
            <path d="M73.0206768,88.3467785 C73.0206768,88.3467785 72.2843841,83.031122 71.416073,81.4246423 C70.8234582,80.328234 69.8060112,79.2470928 69.8060112,79.2470928 C69.8060112,79.2470928 68.9874802,77.7224747 68.7108877,77.7224747 C67.9759008,77.7224747 67.4412558,73.8119176 67.4412558,73.8119176 C67.4412558,73.8119176 65.9278196,74.5714956 65.6811501,75.3332065 C65.3411177,76.3832206 65.6811501,79.2470928 65.6811501,79.2470928 C65.6811501,79.2470928 65.4162202,85.0631186 66.1664131,86.0927364 C66.7911739,86.9502021 68.2629588,90.8051796 68.2629588,90.8051796 C68.2629588,90.8051796 70.1764093,87.901584 70.7295135,89.5183245 C71.0553428,90.4707335 72.2108456,90.8051796 72.2108456,90.8051796 L73.0206768,88.3467785 Z" id="Path-233-Copy-8" fill-opacity="0.687669837" fill="#6F1616" sketch:type="MSShapeGroup"></path>
            <path d="M75.766003,52.3021819 C75.766003,52.3021819 75.0297102,46.9865254 74.1613991,45.3800457 C73.5687844,44.2836374 72.5513374,43.2024962 72.5513374,43.2024962 C72.5513374,43.2024962 71.7328063,41.6778781 71.4562138,41.6778781 C70.721227,41.6778781 70.1865819,37.767321 70.1865819,37.767321 C70.1865819,37.767321 68.6731457,38.526899 68.4264762,39.2886099 C68.0864438,40.338624 68.4264762,43.2024962 68.4264762,43.2024962 C68.4264762,43.2024962 68.1615463,49.018522 68.9117393,50.0481398 C69.5365,50.9056055 71.0082849,54.760583 71.0082849,54.760583 C71.0082849,54.760583 72.9217354,51.8569874 73.4748396,53.4737279 C73.8006689,54.4261369 74.9561718,54.760583 74.9561718,54.760583 L75.766003,52.3021819 Z" id="Path-233-Copy-7" fill-opacity="0.687669837" fill="#6F1616" sketch:type="MSShapeGroup"></path>
            <path d="M15.2708825,76.9227951 C15.0756616,76.5797492 18.9683899,78.6245792 18.9683899,78.6245792 C18.9683899,78.6245792 22.8929971,81.0241935 25.8290596,81.7884499 C29.5702004,82.7622681 39,83.8388031 39,83.8388031 L32.5333573,84.1575297 C32.5333573,84.1575297 30.0822175,84.4375877 28.9841947,84.1575299 C28.1603545,83.9474041 24.2472603,83.1144531 24.2472603,83.1144531 L20.0704437,80.5611289 C20.0704437,80.5611289 15.4430129,77.2252657 15.2708825,76.9227951 Z" id="Path-242" fill="#7D1C1C" sketch:type="MSShapeGroup"></path>
            <path d="M85.6773391,144.030902 C85.4372406,143.851553 84.9043828,143.88705 84.9043828,143.88705 L84.3488528,144.210501 L83.6297096,144.538737 C83.6297096,144.538737 83.4988916,145.624889 83.6297096,145.718689 C83.7034847,145.771587 84.3488527,147.121957 84.3488527,147.121957 C84.3488527,147.121957 84.5253521,147.890048 84.663208,147.672363 C84.7090962,147.634303 84.8765815,148.637122 85.0273437,148.61499 C85.0995309,148.604394 85.1771151,149.558923 85.2273576,149.261597 L85.2179377,148.012044 C85.4089094,148.012044 85.2933111,147.479779 85.2997436,147.411133 L85.5701294,146.698303 C85.6304269,146.698303 84.8100051,146.53211 84.7995586,146.480827 C84.8063466,146.480253 84.8019553,146.465879 84.8031408,146.459321 C85.1279697,146.459321 84.7796681,145.692475 84.9043828,145.718689 C85.1800918,145.776639 85.2273576,145.503076 85.2273576,145.503076 L85.2997436,145.872953 C85.4957034,145.872953 85.5273452,145.749661 85.6773391,145.872953 C85.6773391,145.872953 86.7452733,145.689309 86.860367,145.503076 C87.0240727,145.238183 86.2519302,144.934311 86.2472244,144.856714 C86.2412822,144.758731 85.927287,144.65114 85.927287,144.65114 C85.927287,144.65114 85.7782087,144.10625 85.6773391,144.030902 Z" id="Path-256" fill-opacity="0.659844882" fill="#6F1313" sketch:type="MSShapeGroup"></path>
            <path d="M85.904695,147.083576 C85.6645966,146.904227 85.1317388,146.939723 85.1317388,146.939723 L84.5762087,147.263174 L83.8570655,147.591411 C83.8570655,147.591411 83.7262476,148.677562 83.8570655,148.771362 C83.9308407,148.824261 84.5762087,150.17463 84.5762087,150.17463 C84.5762087,150.17463 84.7527081,150.942722 84.890564,150.725037 C84.9364522,150.686976 85.1039375,151.689795 85.2546997,151.667664 C85.3268869,151.657067 85.404471,152.611597 85.4547136,152.31427 L85.4452936,151.064717 C85.6362653,151.064717 85.520667,150.532452 85.5270996,150.463806 L85.7974853,149.750976 C85.8577829,149.750976 85.037361,149.584783 85.0269145,149.5335 C85.0337026,149.532926 85.0293113,149.518552 85.0304967,149.511995 C85.3553256,149.511995 85.007024,148.745149 85.1317388,148.771362 C85.4074477,148.829312 85.4547136,148.555749 85.4547136,148.555749 L85.5270996,148.925627 C85.7230593,148.925627 85.7547012,148.802334 85.904695,148.925627 C85.904695,148.925627 86.9726293,148.741983 87.087723,148.555749 C87.2514287,148.290857 86.4792862,147.986985 86.4745803,147.909388 C86.4686382,147.811404 86.1546429,147.703814 86.1546429,147.703814 C86.1546429,147.703814 86.0055646,147.158924 85.904695,147.083576 Z" id="Path-256-Copy" fill-opacity="0.659844882" fill="#6F1313" sketch:type="MSShapeGroup" transform="translate(85.454714, 149.654283) rotate(-45.000000) translate(-85.454714, -149.654283) "></path>
        </g>
    </g>
</svg>