<?xml version="1.0" encoding="UTF-8" standalone="no"?>
<svg width="886px" height="351px" viewBox="0 0 886 351" version="1.1" xmlns="http://www.w3.org/2000/svg" xmlns:xlink="http://www.w3.org/1999/xlink" xmlns:sketch="http://www.bohemiancoding.com/sketch/ns">
    <!-- Generator: Sketch 3.3.2 (12043) - http://www.bohemiancoding.com/sketch -->
    <title>Slice 1</title>
    <desc>Created with Sketch.</desc>
    <defs></defs>
    <g id="Page-1" stroke="none" stroke-width="1" fill="none" fill-rule="evenodd" sketch:type="MSPage">
        <g id="Group" sketch:type="MSLayerGroup" transform="translate(77.000000, 60.000000)">
            <path d="M4.789,255.615755 L4.789,271.662367 C4.789,271.662367 64.14,276.665331 74.184,277.665518 C84.228,278.665705 114.817,283.668669 149.971,279.165799 C185.125,274.663942 232.946,271.122712 232.946,271.122712 L232.946,252.289576 L148.004,243.968547 C148.004,243.968547 127.413,241.02682 108.154,241.377799 C87.892,241.74805 71.006,245.818791 71.006,245.818791 C71.006,245.818791 4.314,255.09436 4.789,255.615755" id="Fill-57" fill="#227A94" sketch:type="MSShapeGroup"></path>
            <path d="M73.007,50.9456331 L64.439,58.870036 L64.439,43.0699209 C67.487,40.2093453 70.361,37.5110719 73.007,35.0268345 L73.007,50.9456331 L73.007,50.9456331 Z M73.007,77.5723165 L64.439,84.6 L64.439,68.8871223 C67.484,66.3501367 70.359,63.9551655 73.007,61.7498849 L73.007,77.5723165 L73.007,77.5723165 Z M73.007,104.165525 L64.439,110.300547 L64.439,94.678964 C67.481,92.464554 70.357,90.3708561 73.007,88.4425036 L73.007,104.165525 L73.007,104.165525 Z M73.007,130.726273 L64.439,135.972691 L64.439,120.44646 C67.478,118.552597 70.355,116.758144 73.007,115.105705 L73.007,130.726273 L73.007,130.726273 Z M73.007,157.255576 L64.439,161.616432 L64.439,146.190626 C67.475,144.613252 70.354,143.118043 73.007,141.739489 L73.007,157.255576 L73.007,157.255576 Z M73.007,183.753432 L64.439,187.230755 L64.439,171.910446 C67.472,170.647532 70.352,169.44954 73.007,168.343856 L73.007,183.753432 L73.007,183.753432 Z M73.007,210.218827 L64.439,212.817691 L64.439,197.605921 C67.47,196.656453 70.35,195.753647 73.007,194.920835 L73.007,210.218827 L73.007,210.218827 Z M73.007,236.653791 L64.439,238.376223 L64.439,223.279079 C67.468,222.637986 70.347,222.030367 73.007,221.468396 L73.007,236.653791 L73.007,236.653791 Z M61.253,61.8168345 L52.604,69.8173165 L52.604,54.1784892 C55.568,51.3960216 58.466,48.676446 61.253,46.0603381 L61.253,61.8168345 L61.253,61.8168345 Z M61.253,87.2140791 L52.604,94.3087122 L52.604,78.7449496 C55.568,76.2769424 58.465,73.8626978 61.253,71.5407626 L61.253,87.2140791 L61.253,87.2140791 Z M61.253,112.582921 L52.604,118.776777 L52.604,103.294165 C55.566,101.137576 58.464,99.0276475 61.253,96.9978561 L61.253,112.582921 L61.253,112.582921 Z M61.253,137.92336 L52.604,143.220496 L52.604,127.826137 C55.566,125.978935 58.463,124.172309 61.253,122.432633 L61.253,137.92336 L61.253,137.92336 Z M61.253,163.237424 L52.604,167.639871 L52.604,152.340863 C55.565,150.802036 58.463,149.295669 61.253,147.846108 L61.253,163.237424 L61.253,163.237424 Z M61.253,188.524101 L52.604,192.035914 L52.604,176.838345 C55.564,175.605863 58.462,174.398741 61.253,173.236252 L61.253,188.524101 L61.253,188.524101 Z M61.253,213.784403 L52.604,216.407612 L52.604,201.319597 C55.563,200.390417 58.461,199.481525 61.253,198.605094 L61.253,213.784403 L61.253,213.784403 Z M61.253,239.016302 L52.604,240.755978 L52.604,225.784619 C55.562,225.157727 58.461,224.544022 61.253,223.952633 L61.253,239.016302 L61.253,239.016302 Z M49.417,72.7641151 L40.768,80.7635827 L40.954,65.0567914 C40.954,65.0567914 46.564,59.8448633 49.417,57.1678921 L49.417,72.7641151 L49.417,72.7641151 Z M49.417,96.9227914 L40.768,104.017424 L40.79,89.0683813 C40.79,89.0683813 46.564,83.7742878 49.417,81.3985899 L49.417,96.9227914 L49.417,96.9227914 Z M49.417,121.058137 L40.768,127.251993 L40.768,111.908353 C43.667,109.79741 46.564,107.689511 49.417,105.613058 L49.417,121.058137 L49.417,121.058137 Z M49.417,145.171165 L40.768,150.467288 L40.768,135.205813 C43.667,133.397158 46.563,131.591547 49.417,129.812309 L49.417,145.171165 L49.417,145.171165 Z M49.417,169.260863 L40.768,173.663309 L40.768,158.493129 C43.667,156.985748 46.563,155.480396 49.417,153.996345 L49.417,169.260863 L49.417,169.260863 Z M49.417,193.328245 L40.768,196.840058 L40.768,181.770302 C43.667,180.562165 46.562,179.355043 49.417,178.165165 L49.417,193.328245 L49.417,193.328245 Z M49.417,217.373309 L40.768,219.997532 L40.768,205.037331 C43.666,204.12641 46.562,203.216504 49.417,202.319784 L49.417,217.373309 L49.417,217.373309 Z M49.417,241.396058 L40.768,243.135734 L40.768,228.296245 C43.666,227.679496 46.561,227.064777 49.417,226.460201 L49.417,241.396058 L49.417,241.396058 Z M37.582,83.7103813 L30.905,89.8859784 L30.905,74.5332086 C33.112,72.4638561 35.343,70.3711727 37.582,68.2713885 L37.582,83.7103813 L37.582,83.7103813 Z M37.582,106.631504 L30.905,112.108187 L30.905,96.8112086 C33.112,94.9751655 35.343,93.1168058 37.582,91.2533741 L37.582,106.631504 L37.582,106.631504 Z M37.582,129.534367 L30.905,134.31518 L30.905,119.086165 C33.112,117.479374 35.343,115.856353 37.582,114.22623 L37.582,129.534367 L37.582,129.534367 Z M37.582,152.417957 L30.905,156.506957 L30.905,141.35605 C33.111,139.979525 35.343,138.587784 37.582,137.191986 L37.582,152.417957 L37.582,152.417957 Z M37.582,175.284302 L30.905,178.682504 L30.905,163.621878 C33.112,162.47359 35.343,161.313129 37.582,160.149626 L37.582,175.284302 L37.582,175.284302 Z M37.582,198.133403 L30.905,200.842835 L30.905,185.883647 C33.111,184.962583 35.343,184.032388 37.582,183.098137 L37.582,198.133403 L37.582,198.133403 Z M37.582,220.96323 L30.905,222.98795 L30.905,208.14136 C33.111,207.446504 35.342,206.743532 37.582,206.039547 L37.582,220.96323 L37.582,220.96323 Z M37.582,243.775813 L30.905,245.117849 L30.905,230.395014 C33.111,229.924338 35.342,229.449604 37.582,228.972842 L37.582,243.775813 L37.582,243.775813 Z M27.719,92.832777 L22.07,98.0558633 L22.07,82.8146763 C23.918,81.0831151 25.806,79.3140216 27.719,77.5205827 L27.719,92.832777 L27.719,92.832777 Z M27.719,114.722266 L22.07,119.354978 L22.07,104.164511 C23.918,102.626698 25.806,101.05541 27.719,99.4638345 L27.719,114.722266 L27.719,114.722266 Z M27.719,136.59654 L22.07,140.641921 L22.07,125.514345 C23.918,124.169266 25.806,122.795784 27.719,121.404043 L27.719,136.59654 L27.719,136.59654 Z M27.719,158.457626 L22.07,161.915676 L22.07,146.865194 C23.918,145.712849 25.806,144.535144 27.719,143.342223 L27.719,158.457626 L27.719,158.457626 Z M27.719,180.304511 L22.07,183.178273 L22.07,168.217058 C23.918,167.255417 25.806,166.273489 27.719,165.278374 L27.719,180.304511 L27.719,180.304511 Z M27.719,202.13618 L22.07,204.428698 L22.07,189.57095 C23.918,188.799 25.806,188.01082 27.719,187.212496 L27.719,202.13618 L27.719,202.13618 Z M27.719,223.954662 L22.07,225.667964 L22.07,210.924842 C23.918,210.341568 25.806,209.747137 27.719,209.14459 L27.719,223.954662 L27.719,223.954662 Z M27.719,245.758942 L22.07,246.894043 L22.07,232.280763 C23.919,231.885151 25.806,231.482439 27.719,231.07364 L27.719,245.758942 L27.719,245.758942 Z M18.884,101.002662 L12.496,106.911475 L12.496,91.7859281 C14.54,89.8707626 16.678,87.8683597 18.884,85.801036 L18.884,101.002662 L18.884,101.002662 Z M18.884,121.968043 L12.496,127.209388 L12.496,112.129489 C14.541,110.42836 16.678,108.651151 18.884,106.815108 L18.884,121.968043 L18.884,121.968043 Z M18.884,142.923281 L12.496,147.498173 L12.496,132.480151 C14.541,130.992043 16.678,129.438 18.884,127.832223 L18.884,142.923281 L18.884,142.923281 Z M18.884,163.86736 L12.496,167.778842 L12.496,152.837914 C14.542,151.561813 16.678,150.228906 18.884,148.852381 L18.884,163.86736 L18.884,163.86736 Z M18.884,184.800281 L12.496,188.051396 L12.496,173.201763 C14.542,172.136655 16.678,171.023871 18.884,169.875583 L18.884,184.800281 L18.884,184.800281 Z M18.884,205.722043 L12.496,208.315835 L12.496,193.572712 C14.542,192.716568 16.679,191.822892 18.884,190.901827 L18.884,205.722043 L18.884,205.722043 Z M18.884,226.633662 L12.496,228.571144 L12.496,213.950763 C14.543,213.302568 16.679,212.626986 18.884,211.931115 L18.884,226.633662 L18.884,226.633662 Z M18.884,247.535137 L12.496,248.819353 L12.496,234.334899 C14.543,233.89364 16.679,233.435137 18.884,232.962432 L18.884,247.535137 L18.884,247.535137 Z M9.31,109.858273 L4.789,114.039583 L4.789,98.9982302 C6.215,97.6643094 7.731,96.2461942 9.31,94.7682302 L9.31,109.858273 L9.31,109.858273 Z M9.31,129.822453 L4.789,133.531058 L4.789,118.536367 C6.216,117.350547 7.732,116.090676 9.31,114.779072 L9.31,129.822453 L9.31,129.822453 Z M9.31,149.779532 L4.789,153.016446 L4.789,138.085662 C6.217,137.046928 7.732,135.945302 9.31,134.798029 L9.31,149.779532 L9.31,149.779532 Z M9.31,169.729511 L4.789,172.497777 L4.789,157.646115 C6.218,156.754468 7.732,155.810072 9.31,154.825101 L9.31,169.729511 L9.31,169.729511 Z M9.31,189.672388 L4.789,191.973022 L4.789,177.217727 C6.219,176.472151 7.732,175.683971 9.31,174.861302 L9.31,189.672388 L9.31,189.672388 Z M9.31,209.60918 L4.789,211.443194 L4.789,196.800496 C6.22,196.200993 7.732,195.567 9.31,194.906633 L9.31,209.60918 L9.31,209.60918 Z M9.31,229.537856 L4.789,230.909309 L4.789,216.394424 C6.22,215.939978 7.732,215.460173 9.31,214.960079 L9.31,229.537856 L9.31,229.537856 Z M9.31,249.459432 L4.789,250.368324 L4.789,235.999511 C6.221,235.689108 7.732,235.36146 9.31,235.02164 L9.31,249.459432 L9.31,249.459432 Z M0.844,99.3583381 L0.844,256.654489 L4.789,256.138165 L4.789,255.615755 C6.222,255.448381 7.732,255.272892 9.31,255.091317 L9.31,255.546777 L12.496,255.129863 L12.496,254.725122 C14.543,254.490799 16.68,254.247345 18.884,253.997806 L18.884,254.292993 L22.07,253.876079 L22.07,253.637698 C23.919,253.428734 25.806,253.215712 27.719,253.001676 L27.719,253.13659 L30.905,252.719676 L30.905,252.644612 C32.207,252.49854 33.529,252.351453 34.845,252.204367 L77.284,246.649576 L77.284,21.2078201 L0.844,99.3583381 L0.844,99.3583381 Z" id="Fill-58" fill="#67BEC2" sketch:type="MSShapeGroup"></path>
            <path d="M164.322,35.0268345 C166.968,37.5110719 169.842,40.2093453 172.89,43.0699209 L172.89,58.870036 L164.322,50.9456331 L164.322,35.0268345 L164.322,35.0268345 Z M164.322,61.7498849 C166.97,63.9551655 169.845,66.3501367 172.89,68.8871223 L172.89,84.6 L164.322,77.5723165 L164.322,61.7498849 L164.322,61.7498849 Z M164.322,88.4425036 C166.972,90.3708561 169.848,92.464554 172.89,94.678964 L172.89,110.300547 L164.322,104.165525 L164.322,88.4425036 L164.322,88.4425036 Z M164.322,115.105705 C166.974,116.758144 169.851,118.552597 172.89,120.44646 L172.89,135.972691 L164.322,130.726273 L164.322,115.105705 L164.322,115.105705 Z M164.322,141.739489 C166.976,143.118043 169.855,144.613252 172.89,146.190626 L172.89,161.616432 L164.322,157.255576 L164.322,141.739489 L164.322,141.739489 Z M164.322,168.343856 C166.978,169.44954 169.858,170.647532 172.89,171.910446 L172.89,187.230755 L164.322,183.753432 L164.322,168.343856 L164.322,168.343856 Z M164.322,194.920835 C166.98,195.753647 169.86,196.656453 172.89,197.605921 L172.89,212.817691 L164.322,210.218827 L164.322,194.920835 L164.322,194.920835 Z M164.322,221.468396 C166.983,222.030367 169.861,222.637986 172.89,223.279079 L172.89,238.376223 L164.322,236.653791 L164.322,221.468396 L164.322,221.468396 Z M176.076,46.0603381 C178.864,48.676446 181.761,51.3960216 184.726,54.1784892 L184.726,69.8173165 L176.076,61.8168345 L176.076,46.0603381 L176.076,46.0603381 Z M176.076,71.5407626 C178.864,73.8626978 181.762,76.2769424 184.726,78.7449496 L184.726,94.3087122 L176.076,87.2140791 L176.076,71.5407626 L176.076,71.5407626 Z M176.076,96.9978561 C178.865,99.0276475 181.763,101.137576 184.726,103.294165 L184.726,118.776777 L176.076,112.582921 L176.076,96.9978561 L176.076,96.9978561 Z M176.076,122.432633 C178.866,124.172309 181.764,125.978935 184.726,127.826137 L184.726,143.220496 L176.076,137.92336 L176.076,122.432633 L176.076,122.432633 Z M176.076,147.846108 C178.867,149.295669 181.765,150.802036 184.726,152.340863 L184.726,167.639871 L176.076,163.237424 L176.076,147.846108 L176.076,147.846108 Z M176.076,173.236252 C178.868,174.398741 181.766,175.605863 184.726,176.838345 L184.726,192.035914 L176.076,188.524101 L176.076,173.236252 L176.076,173.236252 Z M176.076,198.605094 C178.868,199.481525 181.767,200.390417 184.726,201.319597 L184.726,216.407612 L176.076,213.784403 L176.076,198.605094 L176.076,198.605094 Z M176.076,223.952633 C178.869,224.544022 181.768,225.157727 184.726,225.784619 L184.726,240.755978 L176.076,239.016302 L176.076,223.952633 L176.076,223.952633 Z M187.912,57.1678921 C190.765,59.8448633 196.375,65.0567914 196.375,65.0567914 L196.562,80.7635827 L187.912,72.7641151 L187.912,57.1678921 L187.912,57.1678921 Z M187.912,81.3985899 C190.765,83.7742878 196.54,89.0683813 196.54,89.0683813 L196.562,104.017424 L187.912,96.9227914 L187.912,81.3985899 L187.912,81.3985899 Z M187.912,105.613058 C190.766,107.689511 193.662,109.79741 196.562,111.908353 L196.562,127.251993 L187.912,121.058137 L187.912,105.613058 L187.912,105.613058 Z M187.912,129.812309 C190.766,131.591547 193.662,133.397158 196.562,135.205813 L196.562,150.467288 L187.912,145.171165 L187.912,129.812309 L187.912,129.812309 Z M187.912,153.996345 C190.767,155.480396 193.663,156.985748 196.562,158.493129 L196.562,173.663309 L187.912,169.260863 L187.912,153.996345 L187.912,153.996345 Z M187.912,178.165165 C190.767,179.355043 193.663,180.562165 196.562,181.770302 L196.562,196.840058 L187.912,193.328245 L187.912,178.165165 L187.912,178.165165 Z M187.912,202.319784 C190.768,203.216504 193.663,204.12641 196.562,205.037331 L196.562,219.997532 L187.912,217.373309 L187.912,202.319784 L187.912,202.319784 Z M187.912,226.460201 C190.768,227.064777 193.663,227.679496 196.562,228.296245 L196.562,243.135734 L187.912,241.396058 L187.912,226.460201 L187.912,226.460201 Z M199.748,68.2713885 C201.987,70.3711727 204.218,72.4638561 206.425,74.5332086 L206.425,89.8859784 L199.748,83.7103813 L199.748,68.2713885 L199.748,68.2713885 Z M199.748,91.2533741 C201.987,93.1168058 204.218,94.9751655 206.425,96.8112086 L206.425,112.108187 L199.748,106.631504 L199.748,91.2533741 L199.748,91.2533741 Z M199.748,114.22623 C201.987,115.856353 204.218,117.479374 206.425,119.086165 L206.425,134.31518 L199.748,129.534367 L199.748,114.22623 L199.748,114.22623 Z M199.748,137.191986 C201.987,138.587784 204.218,139.979525 206.425,141.35605 L206.425,156.506957 L199.748,152.417957 L199.748,137.191986 L199.748,137.191986 Z M199.748,160.149626 C201.987,161.313129 204.218,162.47359 206.425,163.621878 L206.425,178.682504 L199.748,175.284302 L199.748,160.149626 L199.748,160.149626 Z M199.748,183.098137 C201.987,184.032388 204.218,184.962583 206.425,185.883647 L206.425,200.842835 L199.748,198.133403 L199.748,183.098137 L199.748,183.098137 Z M199.748,206.039547 C201.987,206.743532 204.218,207.446504 206.425,208.14136 L206.425,222.98795 L199.748,220.96323 L199.748,206.039547 L199.748,206.039547 Z M199.748,228.972842 C201.987,229.449604 204.218,229.924338 206.425,230.395014 L206.425,245.117849 L199.748,243.775813 L199.748,228.972842 L199.748,228.972842 Z M209.611,77.5205827 C211.524,79.3140216 213.411,81.0831151 215.259,82.8146763 L215.259,98.0558633 L209.611,92.832777 L209.611,77.5205827 L209.611,77.5205827 Z M209.611,99.4638345 C211.524,101.05541 213.411,102.626698 215.259,104.164511 L215.259,119.354978 L209.611,114.722266 L209.611,99.4638345 L209.611,99.4638345 Z M209.611,121.404043 C211.524,122.795784 213.411,124.169266 215.259,125.514345 L215.259,140.641921 L209.611,136.59654 L209.611,121.404043 L209.611,121.404043 Z M209.611,143.342223 C211.523,144.535144 213.411,145.712849 215.259,146.865194 L215.259,161.915676 L209.611,158.457626 L209.611,143.342223 L209.611,143.342223 Z M209.611,165.278374 C211.523,166.273489 213.411,167.255417 215.259,168.217058 L215.259,183.178273 L209.611,180.304511 L209.611,165.278374 L209.611,165.278374 Z M209.611,187.212496 C211.523,188.01082 213.411,188.799 215.259,189.57095 L215.259,204.428698 L209.611,202.13618 L209.611,187.212496 L209.611,187.212496 Z M209.611,209.14459 C211.523,209.747137 213.411,210.341568 215.259,210.924842 L215.259,225.667964 L209.611,223.954662 L209.611,209.14459 L209.611,209.14459 Z M209.611,231.07364 C211.523,231.482439 213.411,231.885151 215.259,232.280763 L215.259,246.894043 L209.611,245.758942 L209.611,231.07364 L209.611,231.07364 Z M218.445,85.801036 C220.652,87.8683597 222.789,89.8707626 224.834,91.7859281 L224.834,106.911475 L218.445,101.002662 L218.445,85.801036 L218.445,85.801036 Z M218.445,106.815108 C220.652,108.651151 222.789,110.42836 224.834,112.129489 L224.834,127.209388 L218.445,121.968043 L218.445,106.815108 L218.445,106.815108 Z M218.445,127.832223 C220.652,129.438 222.788,130.992043 224.834,132.480151 L224.834,147.498173 L218.445,142.923281 L218.445,127.832223 L218.445,127.832223 Z M218.445,148.852381 C220.651,150.228906 222.788,151.561813 224.834,152.837914 L224.834,167.778842 L218.445,163.86736 L218.445,148.852381 L218.445,148.852381 Z M218.445,169.875583 C220.651,171.023871 222.788,172.136655 224.834,173.201763 L224.834,188.051396 L218.445,184.800281 L218.445,169.875583 L218.445,169.875583 Z M218.445,190.901827 C220.651,191.822892 222.787,192.716568 224.834,193.572712 L224.834,208.315835 L218.445,205.722043 L218.445,190.901827 L218.445,190.901827 Z M218.445,211.931115 C220.651,212.626986 222.787,213.302568 224.834,213.950763 L224.834,228.571144 L218.445,226.633662 L218.445,211.931115 L218.445,211.931115 Z M218.445,232.962432 C220.65,233.435137 222.786,233.89364 224.834,234.334899 L224.834,248.819353 L218.445,247.535137 L218.445,232.962432 L218.445,232.962432 Z M228.02,94.7682302 C229.598,96.2461942 231.114,97.6643094 232.541,98.9982302 L232.541,114.039583 L228.02,109.858273 L228.02,94.7682302 L228.02,94.7682302 Z M228.02,114.779072 C229.598,116.090676 231.113,117.350547 232.541,118.536367 L232.541,133.531058 L228.02,129.822453 L228.02,114.779072 L228.02,114.779072 Z M228.02,134.798029 C229.598,135.945302 231.112,137.046928 232.541,138.085662 L232.541,153.016446 L228.02,149.779532 L228.02,134.798029 L228.02,134.798029 Z M228.02,154.825101 C229.598,155.810072 231.112,156.754468 232.541,157.646115 L232.541,172.497777 L228.02,169.729511 L228.02,154.825101 L228.02,154.825101 Z M228.02,174.861302 C229.598,175.683971 231.111,176.472151 232.541,177.217727 L232.541,191.973022 L228.02,189.672388 L228.02,174.861302 L228.02,174.861302 Z M228.02,194.906633 C229.598,195.567 231.11,196.200993 232.541,196.800496 L232.541,211.443194 L228.02,209.60918 L228.02,194.906633 L228.02,194.906633 Z M228.02,214.960079 C229.598,215.460173 231.109,215.939978 232.541,216.394424 L232.541,230.909309 L228.02,229.537856 L228.02,214.960079 L228.02,214.960079 Z M228.02,235.02164 C229.598,235.36146 231.108,235.689108 232.541,235.999511 L232.541,250.368324 L228.02,249.459432 L228.02,235.02164 L228.02,235.02164 Z M159.3,19.7207266 L160.046,246.649576 L202.485,252.204367 C203.8,252.351453 205.123,252.49854 206.425,252.644612 L206.425,252.719676 L209.611,253.13659 L209.611,253.001676 C211.523,253.215712 213.411,253.428734 215.259,253.637698 L215.259,253.876079 L218.445,254.292993 L218.445,253.997806 C220.65,254.247345 222.786,254.490799 224.834,254.725122 L224.834,255.129863 L228.02,255.546777 L228.02,255.091317 C229.597,255.272892 231.108,255.448381 232.541,255.615755 L232.541,256.138165 L236.486,256.654489 L236.486,99.3583381 L159.3,19.7207266 L159.3,19.7207266 Z" id="Fill-59" fill="#67BEC2" sketch:type="MSShapeGroup"></path>
            <path d="M77.354,238.736331 L159.642,239.646237 L158.162,12.5297266 C158.162,12.5297266 151.258,0.52342446 119.696,0.52342446 C92.554,0.52342446 78.225,14.0624676 78.225,14.0624676 L77.354,238.736331" id="Fill-60" fill="#227A94" sketch:type="MSShapeGroup"></path>
            <path d="M119.765,10.0282446 C101.866,10.0282446 87.367,15.5627482 78.255,20.2796547 L78.227,34.0651942 C84.554,30.069518 99.76,22.0345468 119.765,22.0345468 C142.741,22.0345468 154.209,28.7741439 158.306,31.9136763 L158.204,17.8735252 C150.451,13.9539281 138.116,10.0282446 119.765,10.0282446" id="Fill-61" fill="#ACDBDD" sketch:type="MSShapeGroup"></path>
            <path d="M119.812,34.3735683 C101.849,34.3735683 87.293,39.5946259 78.207,43.9991007 L78.18,57.5655324 C84.602,53.8092518 99.832,46.3798705 119.812,46.3798705 C142.892,46.3798705 154.386,52.6183597 158.477,55.5113957 L158.376,41.6305036 C150.718,38.0000072 138.415,34.3735683 119.812,34.3735683" id="Fill-62" fill="#ACDBDD" sketch:type="MSShapeGroup"></path>
            <path d="M119.859,58.7199065 C101.826,58.7199065 87.215,63.6214317 78.159,67.711446 L78.132,81.0871727 C84.691,77.5753597 100.029,70.7262086 119.859,70.7262086 C143.015,70.7262086 154.542,76.4463453 158.647,79.1020144 L158.549,65.4828345 C150.95,62.1221655 138.628,58.7199065 119.859,58.7199065" id="Fill-63" fill="#ACDBDD" sketch:type="MSShapeGroup"></path>
            <path d="M119.906,83.0652302 C101.794,83.0652302 87.13,87.6411367 78.111,91.4146619 L78.084,104.577367 C84.708,101.313065 99.978,95.0715324 119.906,95.0715324 C143.106,95.0715324 154.674,100.258101 158.818,102.685532 L158.721,89.3148777 C151.191,86.2321511 138.855,83.0652302 119.906,83.0652302" id="Fill-64" fill="#ACDBDD" sketch:type="MSShapeGroup"></path>
            <path d="M119.953,107.411568 C101.758,107.411568 87.04,111.652727 78.063,115.107734 L78.037,128.088863 C84.771,125.075115 100.061,119.416856 119.953,119.416856 C143.164,119.416856 154.781,124.060727 158.989,126.263978 L158.894,113.125619 C151.443,110.32895 139.093,107.411568 119.953,107.411568" id="Fill-65" fill="#ACDBDD" sketch:type="MSShapeGroup"></path>
            <path d="M120,131.757906 C101.718,131.757906 86.944,135.655187 78.015,138.788633 L77.989,151.602388 C84.841,148.844266 100.153,143.764209 120,143.764209 C143.183,143.764209 154.859,147.853209 159.159,149.836338 L159.066,136.911 C151.709,134.411547 139.345,131.757906 120,131.757906" id="Fill-66" fill="#ACDBDD" sketch:type="MSShapeGroup"></path>
            <path d="M120.047,156.10323 C101.675,156.10323 86.842,159.648518 77.967,162.458374 L77.941,175.120986 C84.918,172.621532 100.253,168.109532 120.047,168.109532 C143.162,168.109532 154.907,171.643662 159.33,173.406669 L159.238,160.680151 C151.995,158.484 139.635,156.10323 120.047,156.10323" id="Fill-67" fill="#ACDBDD" sketch:type="MSShapeGroup"></path>
            <path d="M120.094,180.448554 C101.627,180.448554 86.732,183.631705 77.919,186.115942 L77.894,198.651755 C85.03,196.417058 100.455,192.454856 120.094,192.454856 C143.117,192.454856 154.933,195.435129 159.5,196.973957 L159.409,184.423942 C152.302,182.539209 139.95,180.448554 120.094,180.448554" id="Fill-68" fill="#ACDBDD" sketch:type="MSShapeGroup"></path>
            <path d="M120.141,204.794892 C101.567,204.794892 86.614,207.606777 77.871,209.765396 L77.846,222.177453 C85.111,220.213597 100.551,216.801194 120.141,216.801194 C143.055,216.801194 154.94,219.234712 159.671,220.541245 L159.581,208.142374 C152.633,206.578187 140.294,204.794892 120.141,204.794892" id="Fill-69" fill="#ACDBDD" sketch:type="MSShapeGroup"></path>
            <path d="M120.189,229.140216 C101.498,229.140216 86.488,231.570691 77.823,233.402676 L77.798,245.706194 C85.191,244.019266 99.465,242.32118 119.01,242.32118 C141.778,242.32118 154.589,245.315655 159.51,246.378734 L159.51,233.191683 C152.755,231.953115 140.698,229.140216 120.189,229.140216" id="Fill-70" fill="#ACDBDD" sketch:type="MSShapeGroup"></path>
        </g>
        <g id="Group" sketch:type="MSLayerGroup" transform="translate(0.000000, 2.000000)">
            <g transform="translate(316.579962, 40.000000)" sketch:type="MSShapeGroup">
                <path d="M204.837747,251.298977 L1.22143396,251.298977 L1.14291321,234.684798 L205.044955,224.798485 C204.936989,240.207547 204.837747,251.298977 204.837747,251.298977" id="Fill-98" fill="#227A94"></path>
                <path d="M205.308872,155.821539 C205.34377,173.384581 205.223808,197.54132 205.096211,217.170105 L204.934808,204.25589 L1.1014717,225.926243 L1.07202642,219.719345 L205.192181,195.128668 L204.934808,174.306853 L1.02949434,210.705745 L1.00550189,205.718469 L205.192181,164.894367 L205.308872,155.821539" id="Fill-99" fill="#227A94"></path>
                <path d="M288.538691,251.298977 L288.538691,193.31797 L204.837747,132.066103 L204.837747,251.298977 L288.538691,251.298977" id="Fill-101" fill="#86CBCE"></path>
                <path d="M101.086747,52.189917 L0.928071698,116.278705 L0.828830189,116.110689 L0.828830189,120.729298 L101.095472,54.9531045 L101.086747,52.189917" id="Fill-103" fill="#227A94"></path>
                <path d="M101.153272,73.4323748 L21.4677925,119.859003 L0.828830189,131.409755 L0.828830189,134.992471 L101.163087,76.4433548 L101.153272,73.4323748" id="Fill-104" fill="#227A94"></path>
                <path d="M100.927525,1.21841342 L0.828830189,81.1888816 L0.828830189,91.680775 L100.962423,12.4403878 L100.927525,1.21841342" id="Fill-105" fill="#227A94"></path>
                <path d="M101.021313,31.113057 L86.4546226,41.5553919 L0.920437736,102.514743 L0.828830189,102.356397 L0.828830189,106.52898 L101.031128,34.5422622 L101.021313,31.113057" id="Fill-106" fill="#227A94"></path>
                <path d="M101.368113,141.797697 L1.02404151,175.80086 L0.828830189,175.475708 L0.828830189,176.761811 L0.868090566,176.748514 L0.886630189,180.453313 L0.828830189,180.472653 L0.828830189,181.367123 L101.385562,147.544063 L101.368113,141.797697" id="Fill-107" fill="#227A94"></path>
                <path d="M204.837747,132.066103 L1.05675849,190.070076 L0.828830189,189.610754 L0.828830189,191.015314 L0.93570566,190.985095 L0.955335849,195.112954 L205.258706,144.974275 C205.192181,136.857562 205.061313,131.818311 204.837747,132.066103" id="Fill-108" fill="#227A94"></path>
                <path d="M101.300498,120.232505 L0.921528302,161.418021 L0.828830189,161.212535 L0.828830189,166.071683 L101.312494,124.174217 L101.300498,120.232505" id="Fill-109" fill="#227A94"></path>
                <path d="M101.224158,95.8992897 L27.942483,133.05969 L0.851732075,146.343781 L0.828830189,150.380984 L101.233974,99.1375135 L101.224158,95.8992897" id="Fill-110" fill="#227A94"></path>
                <path d="M151.334577,49.0000429 L100.888264,0.80018818 L100.888264,161.564279 L150.509019,147.930861 C150.509019,147.930861 151.720638,47.7163574 151.334577,49.0000429" id="Fill-111" fill="#86CBCE"></path>
            </g>
            <g transform="translate(453.739000, 11.707840)" sketch:type="MSShapeGroup">
                <path d="M84.684,288.903 L174.102,259.405 L174.102,214.235 L84.684,214.235 L84.684,288.903" id="Fill-92" fill="#227A94"></path>
                <path d="M84.684,214.235 L5.407,214.235 L5.407,263.092 L84.684,288.903 L84.684,214.235" id="Fill-93" fill="#77C5C8"></path>
                <path d="M0.961,213.313 L0.961,221.826 L84.563,227.997 L177.858,221.688 L177.858,213.313 L0.961,213.313" id="Fill-94" fill="#227A94"></path>
                <path d="M0.961,213.313 L0.961,216.097 L84.814,222.237 L177.858,215.692 L177.858,213.313 L0.961,213.313" id="Fill-95" fill="#67BEC2"></path>
                <path d="M164.921,34.609 L84.721,0.501 L84.721,218.64 L164.921,215.288 L164.921,35.123 C165.147,35.031 165.181,34.869 164.921,34.609 L164.921,34.609 Z M159.39,53.28 L91.137,26.312 L91.137,17.094 L159.39,44.062 L159.39,53.28 L159.39,53.28 Z M159.39,74.975 L91.137,51.86 L91.137,42.642 L159.39,65.757 L159.39,74.975 L159.39,74.975 Z M159.39,96.671 L91.137,77.408 L91.137,68.19 L159.39,87.453 L159.39,96.671 L159.39,96.671 Z M159.39,118.366 L91.137,102.956 L91.137,93.738 L159.39,109.148 L159.39,118.366 L159.39,118.366 Z M159.39,140.062 L91.137,128.504 L91.137,119.286 L159.39,130.844 L159.39,140.062 L159.39,140.062 Z M159.39,161.757 L91.137,154.052 L91.137,144.834 L159.39,152.539 L159.39,161.757 L159.39,161.757 Z M159.39,183.453 L91.137,179.6 L91.137,170.382 L159.39,174.235 L159.39,183.453 L159.39,183.453 Z M91.137,195.93 L159.39,195.93 L159.39,205.148 L91.137,205.148 L91.137,195.93 Z" id="Fill-96" fill="#77C5C8"></path>
                <path d="M15.584,34.609 L15.584,46.247 L79.19,17.094 L79.19,26.312 L15.584,55.465 L15.584,67.63 L79.19,42.642 L79.19,51.86 L15.584,76.848 L15.584,89.014 L79.19,68.19 L79.19,77.408 L15.584,98.232 L15.584,110.397 L79.19,93.738 L79.19,102.956 L15.584,119.615 L15.584,131.78 L79.19,119.286 L79.19,128.504 L15.584,140.998 L15.584,153.163 L79.19,144.834 L79.19,154.052 L15.584,162.381 L15.584,174.547 L79.19,170.382 L79.19,179.6 L15.584,183.765 L15.584,195.93 L79.19,195.93 L79.19,205.148 L15.584,205.148 L15.584,215.288 L84.721,218.64 L84.721,0.501 L15.584,34.609" id="Fill-97" fill="#227A94"></path>
            </g>
            <g id="Group-Copy" transform="translate(605.579962, 0.707840)" sketch:type="MSShapeGroup">
                <path d="M161.492,258.828283 L161.492,297.208081 L77.723,299.021212 L5.023,296.905051 L4.723,278.168687 L1.433,277.866667 C1.433,277.866667 -0.142,273.126263 1.992,268.69697 C4.125,264.267677 10.707,265.476768 10.707,265.476768 L80.116,254.294949 L161.492,258.828283" id="Fill-44" fill="#95D2D4"></path>
                <path d="M20.131,72.2212121 L79.368,6.94545455 C79.368,6.94545455 82.701,4.06666667 85.578,3.23434343 C88.575,2.36666667 93.055,3.9989899 93.055,3.9989899 L163.287,33.6909091 L169.57,42.7565657 L170.767,247.647475 L168.074,258.224242 L89.241,252.407071 C89.241,252.407071 80.041,251.046465 73.534,252.407071 C67.027,253.766667 19.682,261.472727 19.682,261.472727 L20.131,72.2212121" id="Fill-45" fill="#227A94"></path>
                <path d="M1.268,278.864646 L1.268,271.49697 C1.194,270.088889 1.992,268.69697 1.992,268.69697 C3.224,267.159596 4.097,266.491919 5.822,266.266667 L75.329,254.9 C75.329,254.9 80.415,253.690909 87.446,254.446465 C103.198,256.139394 135.3,258.008081 152.517,258.526263 C158.315,258.70101 164.634,259.545455 168.672,255.806061 C172.262,252.481818 171.365,247.271717 171.365,243.114141 L171.066,47.2888889 C171.066,47.2888889 172.113,42.6808081 168.971,37.9212121 C166.687,34.459596 163.586,31.8767677 163.586,31.8767677 L95.194,1.9979798 C95.194,1.9979798 89.995,0.00404040404 85.692,0.690909091 C81.428,1.37070707 78.06,5 78.06,5 L19.084,72.3717172 C16.391,75.0919192 18.008,77.9282828 20.014,77.7252525" id="Stroke-46" stroke="#B3DFE0" stroke-width="4.488"></path>
                <path d="M20.014,92.7929293 C16.259,92.6525253 19.682,88.9929293 19.682,88.9929293 L79.518,28.2505051 C79.518,28.2505051 81.804,25.8838384 85.559,25.3222222 C89.53,24.7272727 92.981,25.8333333 92.981,25.8333333 L170.168,56.6575758 M19.983,106.187879 C16.227,106.047475 19.682,102.389899 19.682,102.389899 L79.468,45.6777778 C79.468,45.6777778 81.754,43.459596 85.509,42.8969697 C89.48,42.3030303 92.949,43.3666667 92.949,43.3666667 L170.293,72.3717172 M19.951,119.582828 C16.195,119.441414 19.682,115.787879 19.682,115.787879 L79.418,63.1040404 C79.418,63.1040404 81.704,61.0353535 85.46,60.4727273 C89.431,59.8787879 92.917,60.8989899 92.917,60.8989899 L170.417,88.0858586 M19.919,132.976768 C16.163,132.836364 19.682,129.184848 19.682,129.184848 L79.368,80.5313131 C79.368,80.5313131 81.654,78.610101 85.41,78.0484848 C89.381,77.4545455 92.885,78.4323232 92.885,78.4323232 L170.542,103.80101 M19.887,146.371717 C16.132,146.231313 19.682,142.582828 19.682,142.582828 L79.318,97.9575758 C79.318,97.9575758 81.604,96.1858586 85.36,95.6242424 C89.331,95.0292929 92.853,95.9646465 92.853,95.9646465 L170.667,119.515152 M19.855,159.765657 C16.1,159.625253 19.682,155.979798 19.682,155.979798 L79.268,115.384848 C79.268,115.384848 81.555,113.761616 85.31,113.19899 C89.281,112.605051 92.821,113.49798 92.821,113.49798 L170.791,135.229293 M19.823,173.160606 C16.068,173.020202 19.682,169.377778 19.682,169.377778 L79.218,132.811111 C79.218,132.811111 81.505,131.337374 85.26,130.774747 C89.231,130.180808 92.789,131.030303 92.789,131.030303 L170.916,150.943434 M19.791,186.555556 C16.036,186.414141 19.682,182.774747 19.682,182.774747 L79.169,150.238384 C79.169,150.238384 81.455,148.912121 85.21,148.350505 C89.181,147.756566 92.757,148.563636 92.757,148.563636 L171.041,166.657576 M19.759,199.949495 C16.004,199.809091 19.682,196.172727 19.682,196.172727 L79.119,167.665657 C79.119,167.665657 81.405,166.487879 85.16,165.926263 C89.131,165.331313 92.725,166.09596 92.725,166.09596 L171.165,182.371717 M19.728,213.344444 C15.972,213.20404 19.682,209.569697 19.682,209.569697 L79.069,185.091919 C79.069,185.091919 81.355,184.063636 85.111,183.50101 C89.081,182.907071 92.693,183.629293 92.693,183.629293 L171.29,198.086869 M19.696,226.738384 C15.94,226.59798 19.682,222.967677 19.682,222.967677 L79.019,202.519192 C79.019,202.519192 81.305,201.639394 85.061,201.076768 C89.032,200.482828 92.661,201.162626 92.661,201.162626 L171.415,213.80101 M19.664,240.133333 C15.908,239.992929 19.682,236.364646 19.682,236.364646 L78.969,219.945455 C78.969,219.945455 81.255,219.214141 85.011,218.652525 C88.982,218.058586 92.629,218.694949 92.629,218.694949 L171.539,229.515152 M19.632,253.528283 C15.877,253.386869 19.682,249.762626 19.682,249.762626 L78.919,237.372727 C78.919,237.372727 81.206,236.789899 84.961,236.228283 C88.932,235.633333 92.597,236.228283 92.597,236.228283 L171.664,245.229293" id="Stroke-48" stroke="#B3DFE0" stroke-width="2.693" stroke-linejoin="round"></path>
                <path d="M13.699,267.289899 C9.211,268.19697 9.809,272.427273 9.809,272.427273 L10.408,296.905051 L60.071,297.208081 L60.67,297.2 L60.67,260.981818 C56.882,261.464646 17.967,266.427273 13.699,267.289899" id="Fill-50" fill="#64A2B4"></path>
                <path d="M82.21,263.059596 L60.969,260.943434 C60.969,260.943434 60.864,260.957576 60.67,260.981818 L60.67,297.2 L82.509,296.909091 L82.509,263.014141 L82.21,263.059596" id="Fill-51" fill="#227A94"></path>
                <path d="M82.509,263.014141 L82.509,296.909091 L82.809,296.905051 L111.23,296.905051 L112.128,258.526263 L82.509,263.014141" id="Fill-52" fill="#64A2B4"></path>
                <path d="M80.415,297.208081 L76.227,297.208081 L76.227,259.60404 C76.227,258.755556 76.908,258.066667 77.748,258.066667 L78.894,258.066667 C79.734,258.066667 80.415,258.755556 80.415,259.60404 L80.415,297.208081" id="Fill-53" fill="#B3DFE0"></path>
                <path d="M60.321,297.208081 L56.132,297.208081 L56.132,262.088889 C56.132,261.240404 56.813,260.552525 57.654,260.552525 L58.799,260.552525 C59.639,260.552525 60.321,261.240404 60.321,262.088889 L60.321,297.208081" id="Fill-54" fill="#B3DFE0"></path>
                <path d="M40.91,297.208081 L36.721,297.208081 L36.721,265.127273 C36.721,264.277778 37.402,263.589899 38.242,263.589899 L39.388,263.589899 C40.228,263.589899 40.91,264.277778 40.91,265.127273 L40.91,297.208081" id="Fill-55" fill="#B3DFE0"></path>
                <path d="M26.351,297.208081 L22.231,297.208081 L22.231,267.336364 C22.231,266.487879 22.912,265.79899 23.753,265.79899 L24.829,265.79899 C25.67,265.79899 26.351,266.487879 26.351,267.336364 L26.351,297.208081" id="Fill-56" fill="#B3DFE0"></path>
            </g>
            <g transform="translate(720.962371, 159.126482)" sketch:type="MSShapeGroup">
                <path d="M13.3353511,127.334554 L13.3353511,75.439987 L46.9038071,18.0283489 L120.47766,25.7825187 L151.133541,42.1855702 L151.133541,118.237997 L121.703869,120.623896 L121.397317,132.554026 L68.5160689,138.518772 L13.3353511,127.334554" id="Fill-32" fill="#227A94"></path>
                <path d="M148.987675,102.729658 L137.951795,103.62437 L137.867115,88.8772697 L148.987675,88.342103 L148.987675,102.729658 L148.987675,102.729658 Z M117.835534,82.6347224 L117.835534,92.5314749 L132.767976,91.9924764 C132.767976,91.9924764 132.693143,111.338306 132.433198,120.176859 L153.126459,118.237997 L153.126459,82.1506455 L117.835534,82.6347224 L117.835534,82.6347224 Z" id="Fill-33" fill="#67BEC2"></path>
                <path d="M151.133541,70.8169896 L164.315288,79.7647472 L164.315288,83.641832 L120.8085,84.1572014 L121.090764,70.220515 L151.133541,70.8169896" id="Fill-34" fill="#4E95A9"></path>
                <path d="M146.84181,64.1484802 L127.834914,64.1484802 L127.834914,46.1705825 L146.84181,47.7115817 L146.84181,64.1484802 L146.84181,64.1484802 Z M118.025242,39.5014345 L118.025242,70.8169896 L151.133541,70.8169896 L151.133541,42.1855702 L118.025242,39.5014345 L118.025242,39.5014345 Z" id="Fill-35" fill="#67BEC2"></path>
                <path d="M44.1448368,16.5371625 L44.1448368,3.11648398 L47.5169116,0.43234829 L47.2103593,14.4488627 L44.1448368,16.5371625" id="Fill-36" fill="#91BCC9"></path>
                <path d="M105.455943,77.0806115 L82.0536,77.2977435 L82.4645245,45.4668191 L105.762495,46.8085676 L105.455943,77.0806115 L105.455943,77.0806115 Z M68.5160689,34.2826011 L68.5160689,138.518772 L76.4457288,137.62406 L77.2531362,99.1501716 L111.281092,97.9572224 L110.450053,134.151863 L121.397317,132.554026 L122.010421,38.3084853 L68.5160689,34.2826011 L68.5160689,34.2826011 Z" id="Fill-37" fill="#86CBCE"></path>
                <path d="M0,85.7294931 L17.9336348,85.7294931 L64.070733,16.5371625 L39.5458966,14.1506254 L0,85.7294931" id="Fill-39" fill="#227A94"></path>
                <path d="M47.5169116,0.43234829 L53.0348521,0.43234829 L53.0348521,16.8353998 L47.2103593,16.2389252 L47.5169116,0.43234829" id="Fill-41" fill="#227A94"></path>
                <path d="M13.3353511,127.334554 L13.3353511,75.439987 L46.9038071,18.0283489 L68.5160689,34.2826011 L68.5160689,138.518772 L13.3353511,127.334554" id="Fill-42" fill="#B3DFE0"></path>
                <path d="M39.5458966,14.1506254 L70.3553824,36.9667368 L157.264586,44.2738699 L157.264586,41.142059 L119.558003,21.7623821 C119.558003,21.7623821 39.5458966,13.7035888 39.5458966,14.1506254" id="Fill-43" fill="#4E95A9"></path>
            </g>
            <g transform="translate(596.726000, 195.725202)" sketch:type="MSShapeGroup">
                <path d="M129.757594,20.9430278 L107.6622,0.59328148 L22.2732856,43.3504199 L0.605227354,66.8345317 L2.26271007,67.1065855 L23.5520089,43.9130475 L107.5447,1.60039116 L128.48084,21.5644087 L129.757594,20.9430278" id="Fill-71" fill="#227A94"></path>
                <path d="M119.289524,25.5570845 L102.612294,10.3693341 L41.746246,39.8169146 L41.9431746,48.2346145 L39.4415245,50.589859 L33.5881488,50.3842221 L34.4434756,102.838224 L110.792709,100.838693 L110.387036,59.1812645 L119.289524,25.5570845" id="Fill-72" fill="#86CBCE"></path>
                <path d="M174.52932,99.9471741 L174.057348,56.0545625 L171.223545,56.6663641 L171.153307,49.5022827 L143.373896,21.7732387 L113.933065,38.3065694 L113.774209,47.7307404 L102.849264,46.5071372 L102.818412,52.0867931 L129.387368,55.4236023 L129.539659,100.687978 L174.52932,99.9471741" id="Fill-73" fill="#86CBCE"></path>
                <path d="M178.995005,54.9663476 L171.223545,56.6663641 L171.153307,49.5022827 L143.241954,21.6269939 L150.36552,17.7805629 L178.338576,46.8309195 L178.995005,54.9663476" id="Fill-74" fill="#4E95A9"></path>
                <path d="M189.098757,55.8502029 L178.995005,54.9663476 L178.338576,46.8309195 L150.36552,17.7805629 L113.933065,38.3065694 L113.822128,47.7090272 L97.9398334,45.9017219 L98.1052535,42.034855 L150.022864,12.2475266 L189.076439,53.5709547 L189.098757,55.8502029" id="Fill-75" fill="#B3DFE0"></path>
                <path d="M150.022864,12.2475266 L128.48084,21.5644087 L125.61881,23.8704792 L119.289524,25.5570845 L77.130384,50.3695338 L98.1052535,42.034855 L150.022864,12.2475266" id="Fill-76" fill="#227A94"></path>
                <path d="M129.387368,55.4236023 L129.539659,100.687978 L110.792709,100.838693 L110.387036,59.1812645 L129.387368,55.4236023" id="Fill-77" fill="#4E95A9"></path>
                <path d="M129.387368,55.4236023 L110.387036,59.1812645 L84.5480295,57.9710725 L102.818412,52.0867931 L129.387368,55.4236023" id="Fill-78" fill="#227A94"></path>
                <path d="M102.818412,52.0867931 L102.849264,46.5071372 L84.2152201,53.4151305 L84.5480295,57.9710725 L102.818412,52.0867931" id="Fill-79" fill="#4E95A9"></path>
                <path d="M102.849264,46.5071372 L84.2152201,53.4151305 L77.1021576,53.4809088 L97.9398334,45.9017219 L102.849264,46.5071372" id="Fill-80" fill="#227A94"></path>
                <path d="M77.130384,50.3695338 L77.1021576,53.4809088 L97.9398334,45.9017219 L98.1052535,42.034855 L76.4995559,50.5068379" id="Fill-81" fill="#4E95A9"></path>
                <path d="M102.350379,54.1546568 L102.80594,100.912135 L107.968096,100.864876 L107.635287,54.8833266 L102.350379,54.1546568" id="Fill-82" fill="#86CBCE"></path>
                <path d="M99.9314384,64.9282398 L85.5779663,63.7653059 L85.9442535,101.326601 L100.169722,101.195684 L99.9314384,64.9282398" id="Fill-83" fill="#227A94"></path>
                <path d="M102.350379,54.1546568 L98.9211945,55.481717 L99.3642839,100.944066 L102.80594,100.912135 L102.350379,54.1546568" id="Fill-84" fill="#4E95A9"></path>
                <path d="M79.2670598,63.6937801 L46.5486791,61.6642337 L46.8414463,91.7133978 L79.4186948,91.0243228 L79.2670598,63.6937801" id="Fill-85" fill="#227A94"></path>
                <path d="M128.48084,21.5644087 L107.5447,1.60039116 L23.5520089,43.9130475 L23.8428069,47.6477193 L41.9431746,48.2346145 L41.746246,39.8169146 L108.365892,7.4859478 L125.61881,23.8704792 L128.48084,21.5644087" id="Fill-86" fill="#B3DFE0"></path>
                <path d="M125.61881,23.8704792 L119.289524,25.5570845 L102.612294,10.3693341 L108.365892,7.4859478 L125.61881,23.8704792" id="Fill-87" fill="#227A94"></path>
                <path d="M41.9431746,48.2346145 L39.4415245,50.589859 L33.5881488,50.3842221 L10.0433606,68.6156534 L2.40252941,68.39916 L23.8428069,47.6477193 L41.9431746,48.2346145" id="Fill-88" fill="#227A94"></path>
                <path d="M23.8428069,47.6477193 L23.6563811,43.7489212 L2.26271007,67.1065855 L2.40252941,68.39916 L23.8428069,47.6477193" id="Fill-89" fill="#4E95A9"></path>
                <path d="M33.5881488,50.3842221 L10.0433606,68.6156534 L10.3341586,98.509632 L34.4434756,102.838224 L33.5881488,50.3842221" id="Fill-90" fill="#4E95A9"></path>
                <path d="M164.810235,64.601903 L142.643948,63.0813399 L142.909801,90.3876149 L165.319624,90.7561008 L164.810235,64.601903" id="Fill-91" fill="#227A94"></path>
            </g>
            <g id="Group-Copy-3" transform="translate(417.239000, 120.654367)" sketch:type="MSShapeGroup">
                <path d="M20.315,199.389 L20.315,118.129 L71.453,28.23 L183.535,40.372 L230.236,66.057 L230.236,185.145 L185.403,188.881 L184.936,207.562 L104.377,216.902 L20.315,199.389" id="Fill-32" fill="#227A94"></path>
                <path d="M226.967,160.861 L210.155,162.262 L210.026,139.17 L226.967,138.332 L226.967,160.861 L226.967,160.861 Z M179.51,129.395 L179.51,144.892 L202.258,144.048 C202.258,144.048 202.144,174.341 201.748,188.181 L233.272,185.145 L233.272,128.637 L179.51,129.395 L179.51,129.395 Z" id="Fill-33" fill="#67BEC2"></path>
                <path d="M230.236,110.89 L250.317,124.901 L250.317,130.972 L184.039,131.779 L184.469,109.956 L230.236,110.89" id="Fill-34" fill="#4E95A9"></path>
                <path d="M223.698,100.448 L194.743,100.448 L194.743,72.297 L223.698,74.71 L223.698,100.448 L223.698,100.448 Z M179.799,61.854 L179.799,110.89 L230.236,110.89 L230.236,66.057 L179.799,61.854 L179.799,61.854 Z" id="Fill-35" fill="#67BEC2"></path>
                <path d="M67.25,25.895 L67.25,4.88 L72.387,0.677 L71.92,22.625 L67.25,25.895" id="Fill-36" fill="#91BCC9"></path>
                <path d="M160.651,120.698 L125,121.038 L125.626,71.195 L161.118,73.296 L160.651,120.698 L160.651,120.698 Z M104.377,53.682 L104.377,216.902 L116.457,215.501 L117.687,155.256 L169.525,153.388 L168.259,210.064 L184.936,207.562 L185.87,59.986 L104.377,53.682 L104.377,53.682 Z" id="Fill-37" fill="#86CBCE"></path>
                <path d="M0,134.241 L27.32,134.241 L97.605,25.895 L60.244,22.158 L0,134.241" id="Fill-39" fill="#227A94"></path>
                <path d="M72.387,0.677 L80.793,0.677 L80.793,26.362 L71.92,25.428 L72.387,0.677" id="Fill-41" fill="#227A94"></path>
                <path d="M20.315,199.389 L20.315,118.129 L71.453,28.23 L104.377,53.682 L104.377,216.902 L20.315,199.389" id="Fill-42" fill="#B3DFE0"></path>
                <path d="M60.244,22.158 L107.179,57.885 L239.576,69.327 L239.576,64.423 L182.134,34.077 C182.134,34.077 60.244,21.458 60.244,22.158" id="Fill-43" fill="#4E95A9"></path>
            </g>
            <g id="Group-Copy-2" transform="translate(227.978000, 177.963102)" sketch:type="MSShapeGroup">
                <path d="M197.672,32.794 L164.012,0.929 L33.931,67.881 L0.922,104.654 L3.447,105.08 L35.879,68.762 L163.833,2.506 L195.727,33.767 L197.672,32.794" id="Fill-71" fill="#227A94"></path>
                <path d="M181.725,40.019 L156.319,16.237 L63.596,62.348 L63.896,75.529 L60.085,79.217 L51.168,78.895 L52.471,161.031 L168.781,157.9 L168.163,92.67 L181.725,40.019" id="Fill-72" fill="#86CBCE"></path>
                <path d="M265.877,156.504 L265.158,87.774 L260.841,88.732 L260.734,77.514 L218.415,34.094 L173.565,59.983 L173.323,74.74 L156.68,72.824 L156.633,81.561 L197.108,86.786 L197.34,157.664 L265.877,156.504" id="Fill-73" fill="#86CBCE"></path>
                <path d="M272.68,86.07 L260.841,88.732 L260.734,77.514 L218.214,33.865 L229.066,27.842 L271.68,73.331 L272.68,86.07" id="Fill-74" fill="#4E95A9"></path>
                <path d="M288.072,87.454 L272.68,86.07 L271.68,73.331 L229.066,27.842 L173.565,59.983 L173.396,74.706 L149.201,71.876 L149.453,65.821 L228.544,19.178 L288.038,83.885 L288.072,87.454" id="Fill-75" fill="#B3DFE0"></path>
                <path d="M228.544,19.178 L195.727,33.767 L191.367,37.378 L181.725,40.019 L117.5,78.872 L149.453,65.821 L228.544,19.178" id="Fill-76" fill="#227A94"></path>
                <path d="M197.108,86.786 L197.34,157.664 L168.781,157.9 L168.163,92.67 L197.108,86.786" id="Fill-77" fill="#4E95A9"></path>
                <path d="M197.108,86.786 L168.163,92.67 L128.8,90.775 L156.633,81.561 L197.108,86.786" id="Fill-78" fill="#227A94"></path>
                <path d="M156.633,81.561 L156.68,72.824 L128.293,83.641 L128.8,90.775 L156.633,81.561" id="Fill-79" fill="#4E95A9"></path>
                <path d="M156.68,72.824 L128.293,83.641 L117.457,83.744 L149.201,71.876 L156.68,72.824" id="Fill-80" fill="#227A94"></path>
                <path d="M117.5,78.872 L117.457,83.744 L149.201,71.876 L149.453,65.821 L116.539,79.087" id="Fill-81" fill="#4E95A9"></path>
                <path d="M155.92,84.799 L156.614,158.015 L164.478,157.941 L163.971,85.94 L155.92,84.799" id="Fill-82" fill="#86CBCE"></path>
                <path d="M152.235,101.669 L130.369,99.848 L130.927,158.664 L152.598,158.459 L152.235,101.669" id="Fill-83" fill="#227A94"></path>
                <path d="M155.92,84.799 L150.696,86.877 L151.371,158.065 L156.614,158.015 L155.92,84.799" id="Fill-84" fill="#4E95A9"></path>
                <path d="M120.755,99.736 L70.912,96.558 L71.358,143.611 L120.986,142.532 L120.755,99.736" id="Fill-85" fill="#227A94"></path>
                <path d="M195.727,33.767 L163.833,2.506 L35.879,68.762 L36.322,74.61 L63.896,75.529 L63.596,62.348 L165.084,11.722 L191.367,37.378 L195.727,33.767" id="Fill-86" fill="#B3DFE0"></path>
                <path d="M191.367,37.378 L181.725,40.019 L156.319,16.237 L165.084,11.722 L191.367,37.378" id="Fill-87" fill="#227A94"></path>
                <path d="M63.896,75.529 L60.085,79.217 L51.168,78.895 L15.3,107.443 L3.66,107.104 L36.322,74.61 L63.896,75.529" id="Fill-88" fill="#227A94"></path>
                <path d="M36.322,74.61 L36.038,68.505 L3.447,105.08 L3.66,107.104 L36.322,74.61" id="Fill-89" fill="#4E95A9"></path>
                <path d="M51.168,78.895 L15.3,107.443 L15.743,154.253 L52.471,161.031 L51.168,78.895" id="Fill-90" fill="#4E95A9"></path>
                <path d="M251.071,101.158 L217.303,98.777 L217.708,141.535 L251.847,142.112 L251.071,101.158" id="Fill-91" fill="#227A94"></path>
            </g>
            <g id="Group-Copy-4" transform="translate(0.978000, 186.725202)" sketch:type="MSShapeGroup">
                <path d="M197.672,32.794 L164.012,0.929 L33.931,67.881 L0.922,104.654 L3.447,105.08 L35.879,68.762 L163.833,2.506 L195.727,33.767 L197.672,32.794" id="Fill-71" fill="#227A94"></path>
                <path d="M181.725,40.019 L156.319,16.237 L63.596,62.348 L63.896,75.529 L60.085,79.217 L51.168,78.895 L52.471,161.031 L168.781,157.9 L168.163,92.67 L181.725,40.019" id="Fill-72" fill="#86CBCE"></path>
                <path d="M265.877,156.504 L265.158,87.774 L260.841,88.732 L260.734,77.514 L218.415,34.094 L173.565,59.983 L173.323,74.74 L156.68,72.824 L156.633,81.561 L197.108,86.786 L197.34,157.664 L265.877,156.504" id="Fill-73" fill="#86CBCE"></path>
                <path d="M272.68,86.07 L260.841,88.732 L260.734,77.514 L218.214,33.865 L229.066,27.842 L271.68,73.331 L272.68,86.07" id="Fill-74" fill="#4E95A9"></path>
                <path d="M288.072,87.454 L272.68,86.07 L271.68,73.331 L229.066,27.842 L173.565,59.983 L173.396,74.706 L149.201,71.876 L149.453,65.821 L228.544,19.178 L288.038,83.885 L288.072,87.454" id="Fill-75" fill="#B3DFE0"></path>
                <path d="M228.544,19.178 L195.727,33.767 L191.367,37.378 L181.725,40.019 L117.5,78.872 L149.453,65.821 L228.544,19.178" id="Fill-76" fill="#227A94"></path>
                <path d="M197.108,86.786 L197.34,157.664 L168.781,157.9 L168.163,92.67 L197.108,86.786" id="Fill-77" fill="#4E95A9"></path>
                <path d="M197.108,86.786 L168.163,92.67 L128.8,90.775 L156.633,81.561 L197.108,86.786" id="Fill-78" fill="#227A94"></path>
                <path d="M156.633,81.561 L156.68,72.824 L128.293,83.641 L128.8,90.775 L156.633,81.561" id="Fill-79" fill="#4E95A9"></path>
                <path d="M156.68,72.824 L128.293,83.641 L117.457,83.744 L149.201,71.876 L156.68,72.824" id="Fill-80" fill="#227A94"></path>
                <path d="M117.5,78.872 L117.457,83.744 L149.201,71.876 L149.453,65.821 L116.539,79.087" id="Fill-81" fill="#4E95A9"></path>
                <path d="M155.92,84.799 L156.614,158.015 L164.478,157.941 L163.971,85.94 L155.92,84.799" id="Fill-82" fill="#86CBCE"></path>
                <path d="M152.235,101.669 L130.369,99.848 L130.927,158.664 L152.598,158.459 L152.235,101.669" id="Fill-83" fill="#227A94"></path>
                <path d="M155.92,84.799 L150.696,86.877 L151.371,158.065 L156.614,158.015 L155.92,84.799" id="Fill-84" fill="#4E95A9"></path>
                <path d="M120.755,99.736 L70.912,96.558 L71.358,143.611 L120.986,142.532 L120.755,99.736" id="Fill-85" fill="#227A94"></path>
                <path d="M195.727,33.767 L163.833,2.506 L35.879,68.762 L36.322,74.61 L63.896,75.529 L63.596,62.348 L165.084,11.722 L191.367,37.378 L195.727,33.767" id="Fill-86" fill="#B3DFE0"></path>
                <path d="M191.367,37.378 L181.725,40.019 L156.319,16.237 L165.084,11.722 L191.367,37.378" id="Fill-87" fill="#227A94"></path>
                <path d="M63.896,75.529 L60.085,79.217 L51.168,78.895 L15.3,107.443 L3.66,107.104 L36.322,74.61 L63.896,75.529" id="Fill-88" fill="#227A94"></path>
                <path d="M36.322,74.61 L36.038,68.505 L3.447,105.08 L3.66,107.104 L36.322,74.61" id="Fill-89" fill="#4E95A9"></path>
                <path d="M51.168,78.895 L15.3,107.443 L15.743,154.253 L52.471,161.031 L51.168,78.895" id="Fill-90" fill="#4E95A9"></path>
                <path d="M251.071,101.158 L217.303,98.777 L217.708,141.535 L251.847,142.112 L251.071,101.158" id="Fill-91" fill="#227A94"></path>
            </g>
            <path d="M749.434,83.884 C749.434,81.617 747.597,79.78 745.33,79.78 C743.064,79.78 741.226,81.617 741.226,83.884 C741.226,86.15 743.064,87.988 745.33,87.988 C747.597,87.988 749.434,86.15 749.434,83.884" id="Fill-113" fill="#FFFFFF" sketch:type="MSShapeGroup"></path>
        </g>
    </g>
</svg>