<?xml version="1.0" encoding="UTF-8" standalone="no"?>
<svg width="384px" height="368px" viewBox="0 0 384 368" version="1.1" xmlns="http://www.w3.org/2000/svg" xmlns:xlink="http://www.w3.org/1999/xlink">
    <!-- Generator: Sketch 3.7 (28169) - http://www.bohemiancoding.com/sketch -->
    <title>Slice 1</title>
    <desc>Created with Sketch.</desc>
    <defs></defs>
    <g id="Page-1" stroke="none" stroke-width="1" fill="none" fill-rule="evenodd">
        <path d="M79.2614421,192.483 C70.9004421,192.843 62.7454421,195.047 54.5224421,196.602 C46.2984421,198.157 37.7064421,199.051 29.6384421,196.825 C21.5704421,194.598 14.0874421,188.681 12.0534421,180.563 C11.0924421,176.726 11.7304421,172.52 13.5284421,169 C5.05844205,177.646 0.388442053,189.224 2.50844205,201.516 C5.34944205,217.978 19.0284421,232.018 35.4114421,235.286 C66.2374421,241.434 95.8224421,212.056 127.094442,215.238 C116.126442,200.496 97.6194421,191.692 79.2614421,192.483" id="Fill-142" fill="#9AD2C8"></path>
        <path d="M79.2614421,192.483 C70.9004421,192.843 62.7454421,195.047 54.5224421,196.602 C46.2984421,198.157 37.7064421,199.051 29.6384421,196.825 C21.5704421,194.598 14.0874421,188.681 12.0534421,180.563 C11.0924421,176.726 11.7304421,172.52 13.5284421,169 C5.05844205,177.646 0.388442053,189.224 2.50844205,201.516 C5.34944205,217.978 19.0284421,232.018 35.4114421,235.286 C66.2374421,241.434 95.8224421,212.056 127.094442,215.238 C116.126442,200.496 97.6194421,191.692 79.2614421,192.483 L79.2614421,192.483 Z" id="Stroke-143" stroke="#78317E" stroke-width="2.5" stroke-linecap="round" stroke-linejoin="round"></path>
        <path d="M286,37.8648493 C300.202,30.7778493 317.629,29.8358493 332.005,36.5658493 C346.38,43.2958493 357.054,57.9678493 357.782,73.8238493 C358.51,89.6798493 348.552,105.798849 333.605,111.140849 C337.786,95.1788493 335.278,77.6858493 326.134,63.9518493 C316.99,50.2178493 302.338,40.1638493 286,37.8648493" id="Fill-144" fill="#FFF2A1"></path>
        <path d="M286,37.8648493 C300.202,30.7778493 317.629,29.8358493 332.005,36.5658493 C346.38,43.2958493 357.054,57.9678493 357.782,73.8238493 C358.51,89.6798493 348.552,105.798849 333.605,111.140849 C337.786,95.1788493 335.278,77.6858493 326.134,63.9518493 C316.99,50.2178493 302.338,40.1638493 286,37.8648493 L286,37.8648493 Z" id="Stroke-145" stroke="#78317E" stroke-width="2.5" stroke-linecap="round" stroke-linejoin="round"></path>
        <path d="M210.639972,271.763 C248.185972,263.895 302.406972,237.633 292.729972,157.963 L228.706972,122 C224.762972,140.764 207.447972,153.608 190.149972,161.879 C172.850972,170.149 153.838972,175.999 139.697972,188.95 C126.156972,201.35 118.402972,219.825 119.035972,238.176 C119.669972,256.526 128.679972,274.422 143.042972,285.859 C143.753972,286.283 144.463972,286.705 145.174972,287.128 C143.207972,293.618 142.868972,301.605 140.902972,308.094 C155.403972,307.661 169.971972,307.659 184.543972,307.686 C192.106972,295.858 203.872972,286.731 217.205972,282.331 C213.103972,280.075 208.665972,278.567 204.311972,278.078 C206.549972,276.17 208.672972,274.046 210.639972,271.763" id="Fill-146" fill="#FFFFFF"></path>
        <path d="M292.729,157.650299 C292.682,153.219299 294.339,148.643299 297.147,144.879299 C299.543,141.668299 308.254,135.036299 311.851,134.758299 C323.011,133.894299 330.504,134.159299 342.345,135.653299 C349.677,134.492299 360.033,128.631299 362.03,121.481299 C364.026,114.331299 362.98,102.466299 355.768,100.707299 C347.808,98.7642989 347.408,91.4112989 344.02,83.9512989 C340.633,76.4902989 338.873,68.3462989 335.169,61.0372989 C326.414,43.7592989 306.283,32.9962989 287.052,35.3122989 C267.822,37.6272989 250.497,51.9562989 248.079,71.1742989 C246.154,86.4762989 242.98,102.016299 234.887,115.144299 C233.419,117.526299 231.779,120.165299 230,122.848299 C245.571,138.401299 270.845,154.613299 292.729,157.650299" id="Fill-147" fill="#FFFFFF"></path>
        <path d="M340.962531,120.651553 C336.633531,122.018553 331.670531,121.183553 328.026531,118.475553 C324.937531,116.178553 322.057531,112.412553 318.265531,113.077553 C314.327531,113.768553 312.945531,119.244553 314.839531,122.765553 C316.732531,126.286553 320.126531,128.691553 324.123531,128.642553 C335.032531,128.508553 340.962531,120.651553 340.962531,120.651553" id="Fill-148" fill="#F4C5CF"></path>
        <path d="M310.539045,83.4060465 C310.741045,88.8000465 306.533045,93.3360465 301.139045,93.5390465 C295.746045,93.7410465 291.209045,89.5330465 291.007045,84.1390465 C290.804045,78.7460465 295.013045,74.2090465 300.406045,74.0070465 C305.800045,73.8040465 310.336045,78.0120465 310.539045,83.4060465" id="Fill-149" fill="#78317E"></path>
        <path d="M293.013,85.105 C291.9,86.177 290.161,86.545 288.709,86.016 C287.257,85.487 286.162,84.086 286,82.549 C287.145,83.597 288.555,83.616 290.095,83.415 C291.635,83.215 293.069,82.307 293.908,81 C293.789,82.405 293.132,83.699 293.013,85.105" id="Fill-150" fill="#78317E"></path>
        <path d="M296.625144,77.189 C294.708144,78.18 292.132144,77.653 290.757144,75.989 C289.382144,74.325 289.349144,71.697 290.683144,70 C288.873144,70.571 287.224144,72.773 287.025144,74.662 C286.825144,76.55 287.834144,78.511 289.486144,79.448 C291.137144,80.385 295.107144,78.329 296.625144,77.189" id="Fill-151" fill="#78317E"></path>
        <path d="M298.208566,75.8 C296.470566,75.174 295.169566,73.478 295.015566,71.637 C294.861566,69.795 295.862566,67.907 297.472566,67 C297.029566,68.614 297.031566,70.313 297.203566,71.978 C297.279566,72.714 297.425566,73.469 297.840566,74.082 C298.256566,74.695 297.479566,75.93 298.208566,75.8" id="Fill-152" fill="#78317E"></path>
        <path d="M303.460864,86.1855652 C305.393864,86.4575652 307.425864,85.1395652 307.965864,83.2635652 C308.901864,80.0055652 304.745864,76.6575652 301.825864,78.5485652 C298.709864,80.5645652 299.796864,85.6685652 303.460864,86.1855652" id="Fill-153" fill="#FFFFFF"></path>
        <path d="M345.085533,109.625203 C345.007533,108.923203 344.930533,108.202203 345.108533,107.518203 C345.286533,106.835203 345.778533,106.186203 346.468533,106.033203 C347.433533,105.819203 348.373533,106.673203 348.621533,107.630203 C348.869533,108.586203 348.616533,109.594203 348.364533,110.549203" id="Stroke-154" stroke="#78317E" stroke-width="2.5" stroke-linecap="round" stroke-linejoin="round"></path>
        <path d="M275.499686,106.984213 C278.168686,106.854213 280.797686,105.973213 283.005686,104.469213 C284.265686,103.611213 285.410686,102.526213 286.099686,101.166213 C286.788686,99.8052127 286.973686,98.1412127 286.355686,96.7472127 C285.603686,95.0512127 283.640686,93.9832127 281.807686,94.2742127 C279.974686,94.5642127 278.438686,96.1862127 278.246686,98.0312127 C278.239686,96.1472127 277.585686,93.5562127 276.027686,92.4962127 C274.575686,91.5092127 272.445686,92.0852127 271.311686,93.4262127 C270.178686,94.7672127 269.887686,96.6462127 270.035686,98.3962127 C270.349686,102.111213 272.299686,105.070213 275.499686,106.984213" id="Fill-155" fill="#E9889F"></path>
        <path d="M257.497968,114.380299 C258.745968,120.132299 262.084968,125.406299 266.751968,128.993299 C271.417968,132.580299 277.372968,134.451299 283.251968,134.179299 M227.706968,123.299299 C223.762968,142.063299 206.448968,154.907299 189.149968,163.178299 C171.850968,171.448299 152.838968,177.299299 138.697968,190.249299 C125.157968,202.649299 117.402968,221.124299 118.035968,239.475299 C118.669968,257.825299 127.679968,275.721299 142.042968,287.158299 C142.753968,287.581299 143.463968,288.004299 144.174968,288.427299 C142.207968,294.918299 141.869968,302.904299 139.902968,309.394299 C171.161968,308.459299 202.729968,309.520299 233.989968,308.585299 C233.388968,293.954299 217.863968,281.014299 203.311968,279.377299 C214.505968,269.832299 223.054968,255.059299 221.529968,240.427299 C220.004968,225.796299 210.912968,212.160299 197.990968,205.129299 M291.013968,158.650299 C293.849968,140.512299 306.538968,136.036299 310.135968,135.758299 C321.295968,134.894299 328.788968,135.159299 340.629968,136.653299 C347.961968,135.492299 358.317968,129.631299 360.314968,122.481299 C362.310968,115.331299 361.264968,103.466299 354.052968,101.706299 C346.092968,99.7642989 345.692968,92.4112989 342.305968,84.9512989 C338.917968,77.4902989 337.157968,69.3462989 333.453968,62.0372989 C324.698968,44.7592989 304.567968,33.9962989 285.336968,36.3122989 C266.106968,38.6272989 248.781968,52.9562989 246.363968,72.1742989 C244.438968,87.4762989 241.264968,103.016299 233.171968,116.144299 M209.640968,273.063299 C247.186968,265.195299 301.406968,238.931299 291.729968,159.262299" id="Stroke-156" stroke="#78317E" stroke-width="2.5" stroke-linecap="round" stroke-linejoin="round"></path>
        <path d="M123.161754,209.852436 C113.120754,208.682436 106.496754,207.231436 96.3927536,207.016436 C64.3807536,206.335436 32.9517536,226.882436 20.7347536,256.479436 C8.5187536,286.076436 16.3037536,322.809436 39.4757536,344.906436 C62.6487536,367.003436 99.7097536,373.035436 128.693754,359.426436 C142.485754,352.950436 154.538754,342.189436 160.994754,328.387436 C167.449754,314.584436 167.813754,297.696436 160.469754,284.346436 C164.501754,299.052436 154.469754,312.601436 141.857754,321.172436 C129.245754,329.743436 112.301754,330.685436 98.0377536,325.293436 C73.7257536,316.103436 58.0407536,288.284436 62.7607536,262.725436 C67.6667536,236.165436 94.0257536,215.195436 121.119754,216.992436 C123.699754,217.163436 125.320754,210.104436 123.161754,209.852436" id="Fill-157" fill="#BFA0C0"></path>
        <path d="M120.422754,216.666436 C124.400754,216.017436 124.362754,210.289436 120.373754,209.716436 C112.394754,208.569436 104.441754,207.187436 96.3927536,207.016436 C64.3807536,206.335436 32.9517536,226.882436 20.7347536,256.479436 C8.5187536,286.076436 16.3037536,322.809436 39.4757536,344.906436 C62.6487536,367.003436 99.7097536,373.035436 128.693754,359.426436 C142.485754,352.950436 154.538754,342.189436 160.994754,328.387436 C167.449754,314.584436 167.813754,297.696436 160.469754,284.346436 C164.501754,299.052436 154.469754,312.601436 141.857754,321.172436 C129.245754,329.743436 112.301754,330.685436 98.0377536,325.293436 C73.7257536,316.103436 58.0407536,288.284436 62.7607536,262.725436 C67.4817536,237.167436 92.0687536,216.785436 118.058754,216.885436 C118.716754,216.887436 119.529754,216.812436 120.422754,216.666436 L120.422754,216.666436 Z" id="Stroke-158" stroke="#78317E" stroke-width="2.5" stroke-linecap="round" stroke-linejoin="round"></path>
        <path d="M123.964362,214.259896 C103.384362,212.613896 81.8653622,218.785896 66.6953622,232.788896 C51.5243622,246.792896 43.5813622,268.882896 48.4083622,288.955896 C53.2343622,309.029896 71.6573622,325.622896 92.2883622,326.393896 C112.919362,327.165896 133.288362,310.497896 134.826362,289.908896 C122.156362,295.219896 104.601362,291.060896 96.1143622,280.258896 C87.6263622,269.456896 86.5643622,253.664896 92.6153622,241.331896 C98.6663622,228.997896 110.429362,216.612896 123.964362,214.259896" id="Fill-159" fill="#FFF2A1"></path>
        <path d="M122.906362,214.259896 C102.326362,212.613896 81.8653622,218.785896 66.6953622,232.788896 C51.5243622,246.792896 43.5813622,268.882896 48.4083622,288.955896 C53.2343622,309.029896 71.6573622,325.622896 92.2883622,326.393896 C112.919362,327.165896 133.288362,310.497896 134.826362,289.908896 C122.156362,295.219896 104.601362,291.060896 96.1143622,280.258896 C87.6263622,269.456896 86.5643622,253.664896 92.6153622,241.331896 C98.6663622,228.997896 109.372362,216.612896 122.906362,214.259896 L122.906362,214.259896 Z" id="Stroke-160" stroke="#78317E" stroke-width="2.5" stroke-linecap="round" stroke-linejoin="round"></path>
        <path d="M253.904,57.5177257 C235.662,54.9497257 216.335,62.0707257 204.121,75.8617257 C191.906,89.6517257 187.171,109.697726 191.924,127.495726 C194.207,136.045726 198.471,143.918726 201.552,152.213726 C204.634,160.508726 206.515,169.731726 203.841,178.166726 C201.168,186.601726 192.742,193.682726 184,192.304726 C199.389,194.669726 213.867,187.925726 223.042,175.346726 C232.217,162.767726 235.956,147.028726 237.689,131.555726 C239.423,116.083726 239.367,100.411726 241.963,85.0607257 C243.694,74.8237257 244.836,62.5737257 253.904,57.5177257" id="Fill-161" fill="#E9889F"></path>
        <path d="M253.904,57.5177257 C235.662,54.9497257 216.335,62.0707257 204.121,75.8617257 C191.906,89.6517257 187.171,109.697726 191.924,127.495726 C194.207,136.045726 198.471,143.918726 201.552,152.213726 C204.634,160.508726 206.515,169.731726 203.841,178.166726 C201.168,186.601726 192.742,193.682726 184,192.304726 C199.389,194.669726 213.867,187.925726 223.042,175.346726 C232.217,162.767726 235.956,147.028726 237.689,131.555726 C239.423,116.083726 239.367,100.411726 241.963,85.0607257 C243.694,74.8237257 244.836,62.5737257 253.904,57.5177257 L253.904,57.5177257 Z" id="Stroke-162" stroke="#78317E" stroke-width="2.5" stroke-linecap="round" stroke-linejoin="round"></path>
        <path d="M287.156813,34.912458 C272.039813,24.5054358 250.903813,24.3498303 235.643813,34.5322034 C220.383813,44.7135461 211.872813,64.6516653 214.901813,83.1244131 C216.471813,92.7039436 220.786813,101.531209 223.978813,110.673807 C227.169813,119.815375 229.238813,129.967864 226.206813,139.16817 C224.315813,144.903935 219.829813,150.286238 213.974813,150.834464 C208.119813,151.38269 202.120813,144.859623 204.556813,139.345416 C205.051813,152.78417 214.940813,163.45294 227.972813,162.738803 C241.003813,162.025697 252.422813,152.160718 258.085813,140.045126 C263.749813,127.929534 264.425813,113.929158 263.085813,100.552234 C261.710813,86.8166955 258.340813,72.8606304 261.314813,59.3961139 C264.288813,45.9326279 274.125813,31.6983277 287.156813,34.912458" id="Fill-163" fill="#9AD2C8"></path>
        <path d="M287.156813,34.912458 C272.039813,24.5054358 250.903813,24.3498303 235.643813,34.5322034 C220.383813,44.7135461 211.872813,64.6516653 214.901813,83.1244131 C216.471813,92.7039436 220.786813,101.531209 223.978813,110.673807 C227.169813,119.815375 229.238813,129.967864 226.206813,139.16817 C224.315813,144.903935 219.829813,150.286238 213.974813,150.834464 C208.119813,151.38269 202.120813,144.859623 204.556813,139.345416 C205.051813,152.78417 214.940813,163.45294 227.972813,162.738803 C241.003813,162.025697 252.422813,152.160718 258.085813,140.045126 C263.749813,127.929534 264.425813,113.929158 263.085813,100.552234 C261.710813,86.8166955 258.340813,72.8606304 261.314813,59.3961139 C264.288813,45.9326279 274.125813,31.6983277 287.156813,34.912458 L287.156813,34.912458 Z" id="Stroke-164" stroke="#78317E" stroke-width="2.5" stroke-linecap="round" stroke-linejoin="round"></path>
        <path d="M185,307.355 C201.84,307.386 218.687,307.456 235.446,306.955 C235.025,296.702 227.271,287.284 217.662,282 C204.329,286.4 192.563,295.527 185,307.355" id="Fill-165" fill="#FFF2A1"></path>
        <path d="M185,307.355 C201.84,307.386 218.687,307.456 235.446,306.955 C235.025,296.702 227.271,287.284 217.662,282 C204.329,286.4 192.563,295.527 185,307.355 L185,307.355 Z" id="Stroke-166" stroke="#78317E" stroke-width="2.5" stroke-linecap="round" stroke-linejoin="round"></path>
        <path d="M288.959,266.889 C283.855,239.653 284.935,212.552 281.978,185 L249,201.711 C249.001,229.848 249.035,258.882 249.047,287.323 C249.048,289.538 249.449,291.654 250.15,293.628 C261.728,284.031 275.585,277.212 290.238,273.825 C289.797,271.403 289.368,269.07 288.959,266.889" id="Fill-167" fill="#FFFFFF"></path>
        <path d="M250,293.803 C252.618,301.18 259.666,306.455 267.94,306.38 C277.206,306.297 286.566,306.449 295.684,304.905 C293.979,295.808 291.927,284.106 290.088,274 C275.435,277.387 261.578,284.206 250,293.803" id="Fill-168" fill="#FFF2A1"></path>
        <path d="M249,201.711 C249.001,229.848 249.035,258.882 249.047,287.323 C249.051,297.813 257.601,306.3 268.09,306.205 C277.356,306.122 286.716,306.274 295.834,304.73 C293.72,293.452 291.073,278.167 288.959,266.889 C283.855,239.653 284.935,212.552 281.978,185 L249,201.711 Z M250.15,293.628 C252.768,301.005 259.816,306.28 268.09,306.205 C277.356,306.122 286.716,306.274 295.834,304.73 C294.129,295.633 292.077,283.931 290.238,273.825 C275.585,277.212 261.728,284.031 250.15,293.628 L250.15,293.628 Z" id="Stroke-169" stroke="#78317E" stroke-width="2.5" stroke-linecap="round" stroke-linejoin="round"></path>
        <path d="M321.384,29 C319.162,31.834 317.006,34.619 315,37.242 C320.374,43.386 328.558,47.011 336.719,46.949 C337.849,43.494 338.873,40.254 339.782,37.246 C333.943,36.579 328.276,34.396 323.549,30.901 C322.783,30.335 322.029,29.706 321.384,29" id="Fill-171" fill="#FFFFFF"></path>
        <path d="M314.914,37 C312.717,39.871 310.697,42.548 309,44.842 C310.704,50.133 327.353,59.329 332.776,58.106 C334.204,54.021 335.473,50.253 336.633,46.707 C328.472,46.769 320.288,43.144 314.914,37" id="Fill-172" fill="#FFFFFF"></path>
        <path d="M335.788,12.414 C335.591,12.285 335.395,12.145 335.203,12 C332.912,14.743 330.472,17.737 328,20.818 C329.942,22.828 332.333,24.406 334.965,25.346 C337.69,26.32 340.648,26.607 343.516,26.226 C344.566,22.312 345.42,18.8 346.144,15.56 C342.488,15.501 338.847,14.42 335.788,12.414" id="Fill-173" fill="#FFFFFF"></path>
        <path d="M334.743,25.528 C332.111,24.588 329.72,23.01 327.778,21 C325.847,23.408 323.903,25.859 322,28.287 C322.645,28.993 323.399,29.622 324.165,30.188 C328.892,33.683 334.559,35.866 340.398,36.533 C341.505,32.87 342.46,29.515 343.294,26.408 C340.426,26.789 337.468,26.502 334.743,25.528" id="Fill-174" fill="#FFFFFF"></path>
        <path d="M345.22,15.5061329 C346.06,11.7401329 346.727,8.33613289 347.298,5.14013289 C347.79,2.39213289 344.013,0.910132888 342.11,2.95113289 C339.938,5.28013289 337.234,8.40613289 334.279,11.9461329 C334.471,12.0911329 334.667,12.2311329 334.864,12.3601329 C337.923,14.3661329 341.564,15.4471329 345.22,15.5061329 L345.22,15.5061329 Z M321.298,28.0511329 C319.076,30.8851329 316.92,33.6701329 314.914,36.2931329 C320.288,42.4371329 328.472,46.0621329 336.633,46.0001329 C337.763,42.5451329 338.787,39.3051329 339.696,36.2971329 C333.857,35.6301329 328.19,33.4471329 323.463,29.9521329 C322.697,29.3861329 321.943,28.7571329 321.298,28.0511329 L321.298,28.0511329 Z M314.914,36.2931329 C312.717,39.1641329 310.697,41.8411329 309,44.1351329 C310.704,49.4261329 327.353,58.6221329 332.776,57.3991329 C334.204,53.3141329 335.473,49.5461329 336.633,46.0001329 C328.472,46.0621329 320.288,42.4371329 314.914,36.2931329 L314.914,36.2931329 Z M334.864,12.3601329 C334.667,12.2311329 334.471,12.0911329 334.279,11.9461329 C331.988,14.6891329 329.548,17.6831329 327.076,20.7641329 C329.018,22.7741329 331.409,24.3521329 334.041,25.2921329 C336.766,26.2661329 339.724,26.5531329 342.592,26.1721329 C343.642,22.2581329 344.496,18.7461329 345.22,15.5061329 C341.564,15.4471329 337.923,14.3661329 334.864,12.3601329 L334.864,12.3601329 Z M334.041,25.2921329 C331.409,24.3521329 329.018,22.7741329 327.076,20.7641329 C325.145,23.1721329 323.201,25.6231329 321.298,28.0511329 C321.943,28.7571329 322.697,29.3861329 323.463,29.9521329 C328.19,33.4471329 333.857,35.6301329 339.696,36.2971329 C340.803,32.6341329 341.758,29.2791329 342.592,26.1721329 C339.724,26.5531329 336.766,26.2661329 334.041,25.2921329 L334.041,25.2921329 Z" id="Stroke-175" stroke="#78317E" stroke-width="2.5" stroke-linecap="round" stroke-linejoin="round"></path>
        <path d="M273.25704,53.1276692 C269.22004,44.9916692 270.94804,33.6446692 275.67504,28.2296692 C280.40104,22.8136692 287.20304,22.2416692 293.62304,23.6666692 C300.04304,25.0926692 306.39704,28.2976692 312.81604,29.7826692 C319.23504,31.2676692 326.03904,30.8296692 330.84704,25.5626692 C323.32404,43.0846692 310.22604,53.0376692 295.22904,50.8556692 C290.76804,50.2066692 271.84004,46.6346692 273.25704,53.1276692" id="Fill-176" fill="#F4C5CF"></path>
        <path d="M273.25704,53.1276692 C269.22004,44.9916692 270.94804,33.6446692 275.67504,28.2296692 C280.40104,22.8136692 287.20304,22.2416692 293.62304,23.6666692 C300.04304,25.0926692 306.39704,28.2976692 312.81604,29.7826692 C319.23504,31.2676692 326.03904,30.8296692 330.84704,25.5626692 C323.32404,43.0846692 310.22604,53.0376692 295.22904,50.8556692 C290.76804,50.2066692 271.84004,46.6346692 273.25704,53.1276692 L273.25704,53.1276692 Z" id="Stroke-177" stroke="#78317E" stroke-width="2.5" stroke-linecap="round" stroke-linejoin="round"></path>
        <path d="M259.170148,80.5252193 C237.029148,66.4292193 240.071148,52.8772193 243.118148,39.4732193 C257.236148,38.4802193 268.619148,37.8532193 275.834148,50.5782193" id="Fill-178" fill="#FFFFFF"></path>
        <path d="M273.999529,59.0824548 C274.214529,58.8634548 274.428529,58.6444548 274.642529,58.4244548 C270.755529,51.3784548 261.689529,48.2604548 254.112529,50.9704548 C253.233529,59.0504548 257.574529,67.4584548 264.670529,71.4214548 C266.578529,66.3124548 270.190529,62.9854548 273.999529,59.0824548" id="Fill-179" fill="#F4C5CF"></path>
        <path d="M259.170148,80.5252193 C237.029148,66.4292193 240.071148,52.8772193 243.118148,39.4732193 C257.236148,38.4802193 268.619148,37.8532193 275.834148,50.5782193 L259.170148,80.5252193 Z M273.329148,58.7062193 C273.544148,58.4872193 273.758148,58.2682193 273.972148,58.0482193 C270.085148,51.0022193 261.019148,47.8842193 253.442148,50.5942193 C252.563148,58.6742193 256.904148,67.0822193 264.000148,71.0452193 C265.908148,65.9362193 269.520148,62.6092193 273.329148,58.7062193 L273.329148,58.7062193 Z" id="Stroke-180" stroke="#78317E" stroke-width="2.5" stroke-linecap="round" stroke-linejoin="round"></path>
        <path d="M147.211032,52.8196699 C143.199032,57.0476699 136.518032,57.2236699 132.290032,53.2116699 C128.061032,49.1986699 127.886032,42.5186699 131.898032,38.2896699 C135.910032,34.0616699 142.590032,33.8856699 146.819032,37.8976699 C151.048032,41.9106699 151.223032,48.5906699 147.211032,52.8196699" id="Fill-233" fill="#FFFFFF"></path>
        <path d="M364.730012,306 C361.885012,312.596 359.484012,318.59 357.329012,324.238 C355.476012,329.093 361.868012,333.116 366.059012,330.043 C370.840012,326.537 376.872012,321.759 383.506012,316.31 C383.204012,315.978 382.895012,315.654 382.579012,315.348 C377.680012,310.618 371.395012,307.377 364.730012,306" id="Fill-238" fill="#FFFFFF"></path>
    </g>
</svg>