<?xml version="1.0" encoding="utf-8"?>
<!-- Generator: Adobe Illustrator 16.0.0, SVG Export Plug-In . SVG Version: 6.00 Build 0)  -->
<!DOCTYPE svg PUBLIC "-//W3C//DTD SVG 1.1//EN" "http://www.w3.org/Graphics/SVG/1.1/DTD/svg11.dtd">
<svg version="1.1" id="Layer_1" xmlns="http://www.w3.org/2000/svg" xmlns:xlink="http://www.w3.org/1999/xlink" x="0px" y="0px"
	 width="934px" height="436.844px" viewBox="0 0 934 436.844" enable-background="new 0 0 934 436.844" xml:space="preserve">
<g>
	<rect x="449.89" y="258.356" fill="#052040" width="75.537" height="129.203"/>
	<polygon fill="#052040" points="622.227,110.456 622.227,121.898 612.349,121.898 612.349,110.456 600.905,110.456 
		600.905,121.898 591.028,121.898 591.028,110.456 579.585,110.456 579.585,121.898 569.707,121.898 569.707,110.456 
		558.265,110.456 558.265,121.898 548.387,121.898 548.387,110.456 536.943,110.456 536.943,121.898 527.066,121.898 
		527.066,110.456 515.623,110.456 515.623,387.559 633.67,387.559 633.67,110.456 	"/>
	<polygon fill="#052040" points="458.053,160.979 458.053,170.249 450.155,170.249 450.155,160.979 438.713,160.979 
		438.713,170.249 430.815,170.249 430.815,160.979 419.372,160.979 419.372,170.249 411.477,170.249 411.477,160.979 
		400.033,160.979 400.033,170.249 393.958,170.249 393.958,387.559 469.495,387.559 469.495,160.979 	"/>
	<g>
		<path fill="#052040" d="M551.664,182.282h-20.521v-17.846c0-5.667,4.594-10.26,10.261-10.26l0,0c5.667,0,10.26,4.594,10.26,10.26
			V182.282z"/>
		<path fill="#052040" d="M611.166,182.282h-20.521v-17.846c0-5.667,4.594-10.26,10.261-10.26l0,0
			c5.667,0,10.261,4.594,10.261,10.26V182.282z"/>
	</g>
	<polygon fill="#052040" points="744.091,213.512 744.091,202.868 732.647,202.868 732.647,213.512 722.613,213.512 
		722.613,202.868 711.171,202.868 711.171,213.512 701.135,213.512 701.135,202.868 689.693,202.868 689.693,213.512 
		679.66,213.512 679.66,202.868 668.217,202.868 668.217,213.512 658.182,213.512 658.182,202.868 646.738,202.868 646.738,213.512 
		622.227,213.512 622.227,387.559 760.675,387.559 760.675,213.512 	"/>
	<polygon fill="#052040" points="926.57,237.202 926.57,248.643 915.439,248.643 915.439,237.202 903.996,237.202 903.996,248.643 
		892.867,248.643 892.867,237.202 881.424,237.202 881.424,248.643 856.422,248.643 856.422,387.559 929.313,387.559 
		929.313,237.202 	"/>
	<g>
		<rect x="751.977" y="102.722" fill="#052040" width="117.807" height="284.837"/>
		<path fill="#052040" d="M734.991,116.106h151.775c4.196,0,6.028-5.302,2.727-7.893L813.606,48.65
			c-1.601-1.257-3.854-1.257-5.455,0l-75.887,59.563C728.965,110.805,730.797,116.106,734.991,116.106z"/>
		<g>
			<path fill="#052040" d="M790.314,155.156h-16.032v-13.942c0-4.427,3.589-8.016,8.017-8.016l0,0c4.427,0,8.016,3.589,8.016,8.016
				V155.156z"/>
			<path fill="#052040" d="M818.896,155.156h-16.033v-13.942c0-4.427,3.589-8.016,8.018-8.016l0,0c4.427,0,8.016,3.589,8.016,8.016
				V155.156z"/>
			<path fill="#052040" d="M847.477,155.156h-16.033v-13.942c0-4.427,3.589-8.016,8.018-8.016l0,0c4.427,0,8.016,3.589,8.016,8.016
				V155.156z"/>
			<path fill="#052040" d="M790.314,198.141h-16.032V184.2c0-4.428,3.589-8.016,8.017-8.016l0,0c4.427,0,8.016,3.588,8.016,8.016
				V198.141z"/>
			<path fill="#052040" d="M818.896,198.141h-16.033V184.2c0-4.428,3.589-8.016,8.018-8.016l0,0c4.427,0,8.016,3.588,8.016,8.016
				V198.141z"/>
			<path fill="#052040" d="M847.477,198.141h-16.033V184.2c0-4.428,3.589-8.016,8.018-8.016l0,0c4.427,0,8.016,3.588,8.016,8.016
				V198.141z"/>
		</g>
		<g>
			<polygon fill="#052040" points="811.86,8.931 811.86,32.561 848.456,20.746 			"/>
			<path fill="#052040" d="M810.88,0c-2.363,0-4.277,1.915-4.277,4.277c0,1.769,1.072,3.286,2.604,3.938v43.473h3.347V8.215
				c1.53-0.651,2.604-2.169,2.604-3.938C815.157,1.915,813.242,0,810.88,0z"/>
		</g>
	</g>
</g>
<path fill="#052040" d="M307.339,108.642c4.901-2.103,7.16-7.76,5.054-12.645c-2.109-4.894-7.778-7.152-12.674-5.035
	c-4.862,2.076-7.063,7.735-5.021,12.631C296.806,108.459,302.475,110.736,307.339,108.642 M86.042,59.403
	c3.729-3.788,3.729-9.857,0-13.625c-3.764-3.748-9.851-3.748-13.621,0c-3.755,3.768-3.755,9.837,0,13.625
	C76.191,63.135,82.278,63.135,86.042,59.403 M46.849,103.181c4.905,1.963,10.537-0.418,12.505-5.351
	c1.967-4.938-0.45-10.518-5.364-12.516c-4.933-1.968-10.549,0.437-12.517,5.375C39.505,95.634,41.9,101.212,46.849,103.181
	 M128.994,31.322c4.902-2.073,7.161-7.763,5.076-12.643c-2.123-4.865-7.743-7.127-12.646-5.036
	c-4.906,2.128-7.128,7.764-5.027,12.629C118.456,31.171,124.121,33.414,128.994,31.322 M173.512,23.134
	c5.296,0,9.619-4.289,9.619-9.604c0-5.298-4.323-9.638-9.619-9.638c-5.332,0-9.627,4.34-9.627,9.638
	C163.885,18.845,168.18,23.134,173.512,23.134 M280.125,60.575c3.786-3.787,3.786-9.857,0-13.625c-3.717-3.748-9.853-3.748-13.57,0
	c-3.722,3.768-3.722,9.838,0,13.625C270.272,64.307,276.408,64.307,280.125,60.575 M47.527,150.903c0-5.315-4.302-9.633-9.616-9.633
	c-5.329,0-9.632,4.301-9.632,9.633c0,5.296,4.303,9.604,9.618,9.604C43.211,160.508,47.527,156.199,47.527,150.903 M226.183,33.406
	c4.896,1.981,10.502-0.437,12.486-5.351c1.954-4.941-0.432-10.537-5.365-12.5c-4.951-1.992-10.56,0.432-12.543,5.358
	C218.806,25.842,221.223,31.448,226.183,33.406 M266.236,241.516c-3.722,3.754-3.722,9.83,0,13.578c3.717,3.781,9.854,3.781,13.57,0
	c3.786-3.748,3.786-9.824,0-13.578C276.09,237.745,269.953,237.745,266.236,241.516 M305.007,195.428
	c-4.926-1.984-10.54,0.416-12.487,5.346c-1.984,4.943,0.433,10.537,5.327,12.502c4.958,1.963,10.538-0.451,12.552-5.363
	C312.352,202.973,309.966,197.375,305.007,195.428 M221.521,269.981c-4.866,2.104-7.129,7.747-5.023,12.626
	c2.108,4.883,7.748,7.145,12.645,5.057c4.897-2.127,7.132-7.75,5.024-12.662C232.061,270.163,226.413,267.901,221.521,269.981
	 M171.711,279.306c-4.865,2.104-7.129,7.748-5.023,12.627c2.108,4.881,7.749,7.143,12.646,5.057
	c4.896-2.127,7.131-7.75,5.023-12.664C182.251,279.488,176.604,277.226,171.711,279.306 M313.134,140.682
	c-5.302,0-9.575,4.301-9.575,9.615c0,5.305,4.305,9.592,9.575,9.592c5.3,0,9.636-4.287,9.636-9.592
	C322.77,144.982,318.434,140.682,313.134,140.682 M82.148,239.09c-3.764-3.773-9.851-3.773-13.621,0
	c-3.755,3.752-3.755,9.828,0,13.576c3.771,3.781,9.857,3.781,13.621,0C85.891,248.918,85.891,242.842,82.148,239.09 M42.272,189.622
	c-4.895,2.074-7.151,7.727-5.042,12.58c2.096,4.926,7.744,7.189,12.642,5.08c4.872-2.09,7.128-7.748,5.034-12.629
	C52.794,189.774,47.13,187.526,42.272,189.622 M198.813,278.033c25.594-4.677,49.179-17.003,67.93-35.792
	c24.415-24.449,37.896-56.895,37.896-91.497c0-71.334-58.01-129.393-129.38-129.393C103.947,21.352,45.9,79.427,45.9,150.744
	c0,34.567,13.455,67.047,37.882,91.497c18.631,18.654,41.981,30.879,67.357,35.665l-2.789,17.613h-22.848v31.426h99.052v-32.367
	h-23.139L198.813,278.033z M183.725,157.855c0.304-0.308,0.491-0.649,0.769-0.989l89.187,40.068
	c-5.268,11.156-12.358,21.277-20.919,29.967L183.725,157.855z M250.748,228.918c-10.225,9.945-22.498,17.813-36.009,23.143
	l-34.072-89.744l-0.261-1.718c0.385-0.26,0.837-0.482,1.209-0.775L250.748,228.918z M185.766,154.293
	c0.185-0.624,0.338-1.268,0.401-1.923h97.773c-0.216,14.908-3.443,29.076-9.05,41.947L185.766,154.293z M186.198,149.488
	c-0.031-0.438-0.095-0.869-0.184-1.302l91.357-34.7c4.119,11.244,6.441,23.347,6.568,36.017h-97.742V149.488z M185.023,145.507
	c-0.338-0.566-0.714-1.129-1.146-1.659l69.073-69.042c10.036,10.264,18.063,22.454,23.429,35.979L185.023,145.507z M181.832,141.834
	c-0.376-0.245-0.744-0.464-1.071-0.681l40.024-89.105c11.187,5.188,21.345,12.225,30.091,20.714L181.832,141.834z M178.095,140.07
	c-0.618-0.138-1.237-0.251-1.901-0.313V42.065c14.9,0.126,29.062,3.273,41.957,8.803L178.095,140.07z M187.193,258.821
	c-3.661,0.367-7.284,0.584-10.989,0.646v-78.461L187.193,258.821z M187.967,264.551l1.301,9.033c-4.646,0.51-9.3,0.791-14.008,0.791
	c-4.944,0-9.854-0.309-14.686-0.867l1.301-9.064c4.367,0.506,8.828,0.791,13.385,0.791
	C179.582,265.268,183.781,265.004,187.967,264.551 M162.65,258.729l10.719-76.02v76.73
	C169.73,259.375,166.183,259.145,162.65,258.729 M173.369,139.885c-0.401,0.062-0.804,0.153-1.13,0.25l-34.688-91.311
	c11.184-4.169,23.24-6.527,35.817-6.724V139.885z M169.592,141.292c-0.5,0.297-0.961,0.617-1.44,0.975l-69.02-69.023
	c10.185-9.98,22.288-17.989,35.716-23.382L169.592,141.292z M166.242,144.41c-0.218,0.265-0.402,0.553-0.569,0.852l-89.088-40.035
	c5.124-11.111,12.118-21.231,20.516-29.921L166.242,144.41z M164.573,147.924c-0.144,0.513-0.232,1.04-0.282,1.564H66.569
	c0.191-14.764,3.283-28.821,8.824-41.633L164.573,147.924z M164.308,152.346c0.058,0.321,0.122,0.612,0.201,0.959l-91.386,34.702
	c-4.092-11.123-6.362-23.111-6.554-35.636L164.308,152.346z M165.544,155.965c0.264,0.468,0.512,0.901,0.808,1.338l-69.098,69.106
	c-9.853-10.23-17.757-22.301-23.055-35.705L165.544,155.965z M168.368,159.377c0.232,0.216,0.523,0.398,0.788,0.568l-40.092,89.208
	c-11.053-5.225-21.109-12.244-29.765-20.705L168.368,159.377z M168.041,169.444l-13.711,87.984
	c-7.887-1.555-15.449-3.938-22.644-7.082L168.041,169.444z M157.534,295.074l2.265-15.861c5.081,0.646,10.254,0.955,15.492,0.955
	c4.941,0,9.916-0.309,14.782-0.863l2.23,15.77H157.534z M182.853,176.17l29.193,76.902c-5.269,1.904-10.783,3.406-16.428,4.473
	L182.853,176.17z M196.55,263.282c52.959-10.014,93.184-56.65,93.184-112.503c0-63.11-51.376-114.492-114.474-114.492
	c-63.093,0-114.479,51.348-114.479,114.477c0,55.652,39.922,102.136,92.603,112.378l-1.361,9.047
	c-24.189-4.6-46.406-16.279-64.171-34.039c-23.328-23.348-36.228-54.42-36.228-87.421C51.624,82.571,107.111,27.1,175.26,27.1
	c68.144,0,123.613,55.472,123.613,123.628c0,33.021-12.857,64.074-36.19,87.421c-17.915,17.91-40.378,29.625-64.709,34.135
	L196.55,263.282z M127.263,279.384c1.972-4.925-0.404-10.536-5.359-12.47c-4.937-1.984-10.534,0.42-12.506,5.34
	c-1.966,4.933,0.419,10.528,5.371,12.507C119.681,286.763,125.282,284.345,127.263,279.384"/>
<g>
	<polygon fill="#9DD6C6" points="866.977,389.722 915.719,389.722 915.719,330.958 891.35,295.286 866.977,330.958 	"/>
	<polygon fill="#FFFFFF" points="799.638,389.722 848.38,389.722 848.38,330.958 824.007,295.286 799.638,330.958 	"/>
	<rect x="799.638" y="330.958" fill="#81CCB5" width="67.339" height="58.764"/>
	<polygon fill="#736458" points="824.007,295.286 891.35,295.286 866.977,330.958 799.638,330.958 	"/>
	<polygon fill="#544841" points="862.939,330.958 866.977,330.958 891.35,295.286 887.309,295.286 	"/>
	<rect x="803.123" y="327.01" fill="#544841" width="63.525" height="3.948"/>
	<polygon fill="#544841" points="799.638,330.958 803.675,330.958 828.048,295.286 824.007,295.286 	"/>
	<g>
		<path fill="#68857D" d="M819.903,374.177H806.68v-24.137c0-3.66,2.96-6.617,6.609-6.617l0,0c3.658,0,6.614,2.957,6.614,6.617
			V374.177z"/>
		<path fill="#68857D" d="M859.935,374.177h-13.224v-24.137c0-3.66,2.959-6.617,6.605-6.617l0,0c3.661,0,6.618,2.957,6.618,6.617
			V374.177z"/>
		<path fill="#68857D" d="M839.922,374.177h-13.224v-24.137c0-3.66,2.956-6.617,6.605-6.617l0,0c3.659,0,6.618,2.957,6.618,6.617
			V374.177z"/>
	</g>
</g>
<g>
	<rect x="208.804" y="222.141" fill="#FDC280" width="112.414" height="167.581"/>
	<rect x="215.288" y="170.602" fill="#765039" width="99.458" height="45.068"/>
	<polygon fill="#593D2C" points="208.817,215.67 208.817,165.418 215.288,165.418 215.288,215.67 314.746,215.67 314.746,165.418 
		321.218,165.418 321.218,215.67 321.205,215.67 321.205,222.141 208.793,222.141 208.793,215.67 	"/>
	<rect x="237.906" y="157.357" fill="#FDC280" width="12.189" height="33.183"/>
	<g>
		<path fill="#68857D" d="M293.16,271.372h14.654v-27.899c0-4.055-3.28-7.33-7.321-7.33l0,0c-4.055,0-7.333,3.275-7.333,7.33
			V271.372z"/>
		<path fill="#68857D" d="M269.511,271.372h14.654v-27.899c0-4.055-3.279-7.33-7.322-7.33l0,0c-4.056,0-7.332,3.275-7.332,7.33
			V271.372z"/>
		<path fill="#68857D" d="M245.859,271.372h14.653v-27.899c0-4.055-3.277-7.33-7.318-7.33l0,0c-4.059,0-7.335,3.275-7.335,7.33
			V271.372z"/>
		<path fill="#68857D" d="M222.207,271.372h14.657v-27.899c0-4.055-3.279-7.33-7.323-7.33l0,0c-4.056,0-7.334,3.275-7.334,7.33
			V271.372z"/>
	</g>
	<g>
		<path fill="#68857D" d="M293.16,322.681h14.654v-27.899c0-4.056-3.28-7.335-7.321-7.335l0,0c-4.055,0-7.333,3.279-7.333,7.335
			V322.681z"/>
		<path fill="#68857D" d="M269.511,322.681h14.654v-27.899c0-4.056-3.279-7.335-7.322-7.335l0,0c-4.056,0-7.332,3.279-7.332,7.335
			V322.681z"/>
		<path fill="#68857D" d="M245.859,322.681h14.653v-27.899c0-4.056-3.277-7.335-7.318-7.335l0,0c-4.059,0-7.335,3.279-7.335,7.335
			V322.681z"/>
		<path fill="#68857D" d="M222.207,322.681h14.657v-27.899c0-4.056-3.279-7.335-7.323-7.335l0,0c-4.056,0-7.334,3.279-7.334,7.335
			V322.681z"/>
	</g>
	<g>
		<path fill="#68857D" d="M293.16,374h14.654V346.1c0-4.055-3.28-7.334-7.321-7.334l0,0c-4.055,0-7.333,3.279-7.333,7.334V374z"/>
		<path fill="#68857D" d="M269.511,374h14.654V346.1c0-4.055-3.279-7.334-7.322-7.334l0,0c-4.056,0-7.332,3.279-7.332,7.334V374z"/>
		<path fill="#68857D" d="M245.859,374h14.653V346.1c0-4.055-3.277-7.334-7.318-7.334l0,0c-4.059,0-7.335,3.279-7.335,7.334V374z"/>
		<path fill="#68857D" d="M222.207,374h14.657V346.1c0-4.055-3.279-7.334-7.323-7.334l0,0c-4.056,0-7.334,3.279-7.334,7.334V374z"/>
	</g>
</g>
<g>
	<rect x="721.033" y="273.095" fill="#FFFFFF" width="112.414" height="116.627"/>
	<rect x="721.033" y="331.128" fill="#FDC280" width="112.414" height="58.594"/>
	<rect x="727.517" y="221.557" fill="#765039" width="99.459" height="45.067"/>
	<polygon fill="#593D2C" points="721.048,266.625 721.048,216.375 727.517,216.375 727.517,266.625 826.976,266.625 
		826.976,216.375 833.447,216.375 833.447,266.625 833.436,266.625 833.436,273.095 721.021,273.095 721.021,266.625 	"/>
	<rect x="790.773" y="208.312" fill="#FFFFFF" width="12.191" height="33.183"/>
	<g>
		<path fill="#68857D" d="M805.39,322.328h14.654v-27.9c0-4.056-3.282-7.332-7.322-7.332l0,0c-4.056,0-7.332,3.276-7.332,7.332
			V322.328z"/>
		<path fill="#68857D" d="M781.739,322.328h14.655v-27.9c0-4.056-3.279-7.332-7.323-7.332l0,0c-4.056,0-7.332,3.276-7.332,7.332
			V322.328z"/>
		<path fill="#68857D" d="M758.087,322.328h14.654v-27.9c0-4.056-3.276-7.332-7.317-7.332l0,0c-4.059,0-7.337,3.276-7.337,7.332
			V322.328z"/>
		<path fill="#68857D" d="M734.437,322.328h14.657v-27.9c0-4.056-3.278-7.332-7.322-7.332l0,0c-4.056,0-7.335,3.276-7.335,7.332
			V322.328z"/>
	</g>
	<g>
		<path fill="#68857D" d="M805.39,373.636h14.654v-27.899c0-4.058-3.282-7.336-7.322-7.336l0,0c-4.056,0-7.332,3.278-7.332,7.336
			V373.636z"/>
		<path fill="#68857D" d="M781.739,373.636h14.655v-27.899c0-4.058-3.279-7.336-7.323-7.336l0,0c-4.056,0-7.332,3.278-7.332,7.336
			V373.636z"/>
		<path fill="#68857D" d="M758.087,373.636h14.654v-27.899c0-4.058-3.276-7.336-7.317-7.336l0,0c-4.059,0-7.337,3.278-7.337,7.336
			V373.636z"/>
		<path fill="#68857D" d="M734.437,373.636h14.657v-27.899c0-4.058-3.278-7.336-7.322-7.336l0,0c-4.056,0-7.335,3.278-7.335,7.336
			V373.636z"/>
	</g>
</g>
<g>
	<rect x="18.584" y="308.874" fill="#FED991" width="112.415" height="80.849"/>
	<rect x="25.068" y="257.335" fill="#765039" width="99.459" height="45.067"/>
	<polygon fill="#593D2C" points="18.598,302.403 18.598,252.151 25.068,252.151 25.068,302.403 124.527,302.403 124.527,252.151 
		130.999,252.151 130.999,302.403 130.985,302.403 130.985,308.874 18.574,308.874 18.574,302.403 	"/>
	<rect x="47.688" y="244.088" fill="#FED991" width="12.189" height="33.184"/>
	<g>
		<path fill="#68857D" d="M102.94,358.915h14.655v-27.899c0-4.058-3.28-7.337-7.322-7.337l0,0c-4.055,0-7.333,3.279-7.333,7.337
			V358.915z"/>
		<path fill="#68857D" d="M79.291,358.915h14.654v-27.899c0-4.058-3.278-7.337-7.322-7.337l0,0c-4.056,0-7.332,3.279-7.332,7.337
			V358.915z"/>
		<path fill="#68857D" d="M55.64,358.915h14.654v-27.899c0-4.058-3.278-7.337-7.32-7.337l0,0c-4.057,0-7.334,3.279-7.334,7.337
			V358.915z"/>
		<path fill="#68857D" d="M31.987,358.915h14.658v-27.899c0-4.058-3.279-7.337-7.323-7.337l0,0c-4.056,0-7.335,3.279-7.335,7.337
			V358.915z"/>
	</g>
	<rect x="18.574" y="370.769" fill="#E6C382" width="112.425" height="18.953"/>
</g>
<g>
	<polygon fill="#9DD6C6" points="405.586,222.141 405.586,171.687 293.171,171.687 293.171,339.27 293.172,339.27 293.172,389.722 
		405.587,389.722 405.587,222.141 	"/>
	<path fill="#68857D" d="M321.23,322.681h-14.655v-27.899c0-4.056,3.281-7.335,7.323-7.335l0,0c4.054,0,7.332,3.279,7.332,7.335
		V322.681z"/>
	<path fill="#68857D" d="M344.879,322.681h-14.653v-27.899c0-4.056,3.279-7.335,7.322-7.335l0,0c4.056,0,7.331,3.279,7.331,7.335
		V322.681z"/>
	<path fill="#68857D" d="M368.531,322.681h-14.653v-27.899c0-4.056,3.277-7.335,7.318-7.335l0,0c4.059,0,7.335,3.279,7.335,7.335
		V322.681z"/>
	<path fill="#68857D" d="M392.184,322.681h-14.657v-27.899c0-4.056,3.279-7.335,7.322-7.335l0,0c4.056,0,7.335,3.279,7.335,7.335
		V322.681z"/>
	<rect x="306.575" y="338.766" fill="#68857D" width="14.655" height="27.9"/>
	<rect x="330.226" y="338.766" fill="#68857D" width="14.653" height="27.9"/>
	<rect x="353.878" y="338.766" fill="#68857D" width="14.653" height="27.9"/>
	<rect x="377.526" y="338.766" fill="#68857D" width="14.657" height="27.9"/>
	<rect x="289.932" y="373.659" fill="#544841" width="118.884" height="16.063"/>
	<rect x="299.654" y="120.15" fill="#544841" width="99.459" height="45.067"/>
	<polygon fill="#736458" points="293.184,165.217 293.184,114.965 299.654,114.965 299.654,165.217 399.113,165.217 
		399.113,114.965 405.586,114.965 405.586,165.217 405.571,165.217 405.571,171.687 293.16,171.687 293.16,165.217 	"/>
	<rect x="367.759" y="106.905" fill="#F58B6D" width="6.096" height="33.181"/>
	<rect x="378.76" y="106.905" fill="#F58B6D" width="6.095" height="33.181"/>
	<path fill="#68857D" d="M377.526,220.919h14.656V193.02c0-4.056-3.281-7.332-7.323-7.332l0,0c-4.054,0-7.333,3.276-7.333,7.332
		V220.919z"/>
	<path fill="#68857D" d="M353.878,220.919h14.653V193.02c0-4.056-3.279-7.332-7.322-7.332l0,0c-4.055,0-7.331,3.276-7.331,7.332
		V220.919z"/>
	<path fill="#68857D" d="M330.226,220.919h14.653V193.02c0-4.056-3.276-7.332-7.318-7.332l0,0c-4.058,0-7.335,3.276-7.335,7.332
		V220.919z"/>
	<path fill="#68857D" d="M306.574,220.919h14.656V193.02c0-4.056-3.278-7.332-7.321-7.332l0,0c-4.056,0-7.335,3.276-7.335,7.332
		V220.919z"/>
	<path fill="#68857D" d="M377.526,272.227h14.656v-27.899c0-4.054-3.281-7.333-7.323-7.333l0,0c-4.054,0-7.333,3.279-7.333,7.333
		V272.227z"/>
	<path fill="#68857D" d="M353.878,272.227h14.653v-27.899c0-4.054-3.279-7.333-7.322-7.333l0,0c-4.055,0-7.331,3.279-7.331,7.333
		V272.227z"/>
	<path fill="#68857D" d="M330.226,272.227h14.653v-27.899c0-4.054-3.276-7.333-7.318-7.333l0,0c-4.058,0-7.335,3.279-7.335,7.333
		V272.227z"/>
	<path fill="#68857D" d="M306.574,272.227h14.656v-27.899c0-4.054-3.278-7.333-7.321-7.333l0,0c-4.056,0-7.335,3.279-7.335,7.333
		V272.227z"/>
	<path fill="#68857D" d="M377.526,323.547h14.656v-27.898c0-4.057-3.281-7.336-7.323-7.336l0,0c-4.054,0-7.333,3.279-7.333,7.336
		V323.547z"/>
	<path fill="#68857D" d="M353.878,323.547h14.653v-27.898c0-4.057-3.279-7.336-7.322-7.336l0,0c-4.055,0-7.331,3.279-7.331,7.336
		V323.547z"/>
	<path fill="#68857D" d="M330.226,323.547h14.653v-27.898c0-4.057-3.276-7.336-7.318-7.336l0,0c-4.058,0-7.335,3.279-7.335,7.336
		V323.547z"/>
	<path fill="#68857D" d="M306.574,323.547h14.656v-27.898c0-4.057-3.278-7.336-7.321-7.336l0,0c-4.056,0-7.335,3.279-7.335,7.336
		V323.547z"/>
</g>
<g>
	<polygon fill="#FFFFFF" points="175.524,389.722 229.535,389.722 229.535,275.986 202.531,236.457 175.524,275.986 	"/>
	<polygon fill="#FFFFFF" points="100.904,389.722 154.915,389.722 154.915,275.986 127.911,236.457 100.904,275.986 	"/>
	<rect x="100.904" y="275.986" fill="#E6E6E5" width="74.62" height="113.736"/>
	<polygon fill="#544841" points="127.911,236.457 202.531,236.457 175.524,275.986 100.904,275.986 	"/>
	<rect x="175.524" y="381.583" fill="#998776" width="54.011" height="8.14"/>
	<rect x="100.904" y="381.583" fill="#736458" width="74.62" height="8.14"/>
	<rect x="134.15" y="228.602" fill="#E6E6E5" width="6.151" height="30.978"/>
	<rect x="145.865" y="228.602" fill="#E6E6E5" width="6.151" height="30.978"/>
	<g>
		<rect x="150.363" y="345.607" fill="#68857D" width="10.901" height="31.358"/>
		<rect x="132.774" y="345.607" fill="#68857D" width="10.88" height="31.358"/>
		<rect x="115.16" y="345.607" fill="#68857D" width="10.907" height="31.358"/>
	</g>
	<g>
		<rect x="150.363" y="288.74" fill="#68857D" width="10.901" height="31.359"/>
		<rect x="132.774" y="288.74" fill="#68857D" width="10.88" height="31.359"/>
		<rect x="115.16" y="288.74" fill="#68857D" width="10.907" height="31.359"/>
	</g>
	<polygon fill="#736458" points="171.049,275.986 175.524,275.986 202.531,236.457 198.055,236.457 	"/>
	<rect x="104.768" y="271.611" fill="#736458" width="70.391" height="4.375"/>
	<polygon fill="#736458" points="100.904,275.986 105.378,275.986 132.385,236.457 127.911,236.457 	"/>
	<circle fill="#68857D" cx="202.532" cy="270.246" r="5.74"/>
</g>
<g>
	<polygon fill="#F8AC9A" points="704.604,389.722 753.347,389.722 753.347,292.724 728.978,257.051 704.604,292.724 	"/>
	<polygon fill="#FFFFFF" points="637.266,389.722 686.005,389.722 686.005,292.724 661.635,257.051 637.266,292.724 	"/>
	<rect x="637.266" y="292.724" fill="#F68B67" width="67.339" height="96.998"/>
	<polygon fill="#736458" points="661.635,257.051 728.978,257.051 704.604,292.724 637.266,292.724 	"/>
	<rect x="667.268" y="249.961" fill="#F8AC9A" width="5.549" height="27.957"/>
	<rect x="677.84" y="249.961" fill="#F8AC9A" width="5.549" height="27.957"/>
	<polygon fill="#544841" points="700.563,292.724 704.604,292.724 728.978,257.051 724.937,257.051 	"/>
	<rect x="640.75" y="288.774" fill="#544841" width="63.523" height="3.95"/>
	<polygon fill="#544841" points="637.266,292.724 641.303,292.724 665.673,257.051 661.635,257.051 	"/>
	<g>
		<path fill="#68857D" d="M662.916,379.619h-13.227v-24.133c0-3.659,2.959-6.619,6.608-6.619l0,0c3.659,0,6.618,2.96,6.618,6.619
			V379.619z"/>
		<path fill="#68857D" d="M692.178,379.619h-13.225v-24.133c0-3.659,2.957-6.619,6.606-6.619l0,0c3.661,0,6.618,2.96,6.618,6.619
			V379.619z"/>
	</g>
	<g>
		<path fill="#68857D" d="M662.916,335.94h-13.227v-24.134c0-3.66,2.959-6.618,6.608-6.618l0,0c3.659,0,6.618,2.958,6.618,6.618
			V335.94z"/>
		<path fill="#68857D" d="M692.178,335.94h-13.225v-24.134c0-3.66,2.957-6.618,6.606-6.618l0,0c3.661,0,6.618,2.958,6.618,6.618
			V335.94z"/>
	</g>
</g>
<g>
	<rect x="540.055" y="222.141" fill="#9DD6C6" width="112.415" height="167.581"/>
	<rect x="546.527" y="170.602" fill="#765039" width="99.458" height="45.068"/>
	<polygon fill="#593D2C" points="652.454,215.67 652.454,165.418 645.985,165.418 645.985,215.67 546.527,215.67 546.527,165.418 
		540.055,165.418 540.055,215.67 540.07,215.67 540.07,222.141 652.479,222.141 652.479,215.67 	"/>
	<rect x="611.176" y="157.357" fill="#593D2C" width="12.19" height="33.183"/>
	<g>
		<path fill="#68857D" d="M568.113,271.372h-14.655v-27.899c0-4.055,3.279-7.33,7.32-7.33l0,0c4.056,0,7.335,3.275,7.335,7.33
			V271.372z"/>
		<path fill="#68857D" d="M591.763,271.372h-14.654v-27.899c0-4.055,3.279-7.33,7.323-7.33l0,0c4.056,0,7.331,3.275,7.331,7.33
			V271.372z"/>
		<path fill="#68857D" d="M615.413,271.372h-14.651v-27.899c0-4.055,3.276-7.33,7.316-7.33l0,0c4.059,0,7.335,3.275,7.335,7.33
			V271.372z"/>
		<path fill="#68857D" d="M639.066,271.372h-14.658v-27.899c0-4.055,3.279-7.33,7.323-7.33l0,0c4.056,0,7.335,3.275,7.335,7.33
			V271.372z"/>
	</g>
	<g>
		<path fill="#68857D" d="M568.113,322.681h-14.655v-27.899c0-4.056,3.279-7.335,7.32-7.335l0,0c4.056,0,7.335,3.279,7.335,7.335
			V322.681z"/>
		<path fill="#68857D" d="M591.763,322.681h-14.654v-27.899c0-4.056,3.279-7.335,7.323-7.335l0,0c4.056,0,7.331,3.279,7.331,7.335
			V322.681z"/>
		<path fill="#68857D" d="M615.413,322.681h-14.651v-27.899c0-4.056,3.276-7.335,7.316-7.335l0,0c4.059,0,7.335,3.279,7.335,7.335
			V322.681z"/>
		<path fill="#68857D" d="M639.066,322.681h-14.658v-27.899c0-4.056,3.279-7.335,7.323-7.335l0,0c4.056,0,7.335,3.279,7.335,7.335
			V322.681z"/>
	</g>
	<g>
		<rect x="553.458" y="338.766" fill="#68857D" width="14.655" height="27.9"/>
		<rect x="577.108" y="338.766" fill="#68857D" width="14.654" height="27.9"/>
		<rect x="600.762" y="338.766" fill="#68857D" width="14.651" height="27.9"/>
		<rect x="624.408" y="338.766" fill="#68857D" width="14.658" height="27.9"/>
	</g>
	<rect x="536.814" y="373.659" fill="#81CCB5" width="118.884" height="16.063"/>
</g>
<g>
	<rect x="435.594" y="223.073" fill="#FFEABF" width="111.789" height="166.649"/>
	<rect x="513.419" y="194.229" fill="#544841" width="12.12" height="28.844"/>
	<rect x="501.103" y="184.511" fill="#544841" width="7.926" height="38.562"/>
	<g>
		<path fill="#68857D" d="M463.495,270.476h-14.572v-27.745c0-4.033,3.262-7.293,7.281-7.293l0,0c4.032,0,7.291,3.26,7.291,7.293
			V270.476z"/>
		<path fill="#68857D" d="M487.014,270.476h-14.574v-27.745c0-4.033,3.262-7.293,7.282-7.293l0,0c4.034,0,7.292,3.26,7.292,7.293
			V270.476z"/>
		<path fill="#68857D" d="M510.532,270.476h-14.571v-27.745c0-4.033,3.262-7.293,7.28-7.293l0,0c4.036,0,7.291,3.26,7.291,7.293
			V270.476z"/>
		<path fill="#68857D" d="M534.057,270.476h-14.577v-27.745c0-4.033,3.262-7.293,7.28-7.293l0,0c4.036,0,7.297,3.26,7.297,7.293
			V270.476z"/>
	</g>
	<g>
		<path fill="#68857D" d="M463.495,324.609h-14.572v-27.744c0-4.033,3.262-7.295,7.281-7.295l0,0c4.032,0,7.291,3.262,7.291,7.295
			V324.609z"/>
		<path fill="#68857D" d="M487.014,324.609h-14.574v-27.744c0-4.033,3.262-7.295,7.282-7.295l0,0c4.034,0,7.292,3.262,7.292,7.295
			V324.609z"/>
		<path fill="#68857D" d="M510.532,324.609h-14.571v-27.744c0-4.033,3.262-7.295,7.28-7.295l0,0c4.036,0,7.291,3.262,7.291,7.295
			V324.609z"/>
		<path fill="#68857D" d="M534.057,324.609h-14.577v-27.744c0-4.033,3.262-7.295,7.28-7.295l0,0c4.036,0,7.297,3.262,7.297,7.295
			V324.609z"/>
	</g>
	<g>
		<rect x="448.923" y="339.05" fill="#68857D" width="85.134" height="27.744"/>
	</g>
	<rect x="432.371" y="371.381" fill="#998776" width="118.225" height="18.341"/>
	<rect x="432.371" y="277.23" fill="#998776" width="118.225" height="5.585"/>
	<rect x="432.371" y="220.279" fill="#998776" width="118.225" height="5.585"/>
	<rect x="430.146" y="211.393" fill="#736458" width="122.673" height="10.587"/>
	<g>
		<g>
			<circle fill="#FFFFFF" cx="537.568" cy="354.348" r="3.289"/>
			<circle fill="#FBAD18" cx="530.99" cy="354.348" r="3.29"/>
			<circle fill="#FFFFFF" cx="524.411" cy="354.348" r="3.289"/>
			<path fill="#FBAD18" d="M521.122,354.348c0,1.817-1.472,3.291-3.291,3.291c-1.814,0-3.286-1.474-3.286-3.291
				c0-1.815,1.472-3.289,3.286-3.289C519.65,351.059,521.122,352.533,521.122,354.348z"/>
			<circle fill="#FFFFFF" cx="511.255" cy="354.348" r="3.29"/>
			<circle fill="#FBAD18" cx="504.675" cy="354.348" r="3.291"/>
			<path fill="#FFFFFF" d="M501.385,354.348c0,1.817-1.471,3.291-3.291,3.291c-1.814,0-3.287-1.474-3.287-3.291
				c0-1.815,1.473-3.289,3.287-3.289C499.914,351.059,501.385,352.533,501.385,354.348z"/>
			<path fill="#FBAD18" d="M494.807,354.348c0,1.817-1.474,3.291-3.291,3.291c-1.814,0-3.291-1.474-3.291-3.291
				c0-1.815,1.477-3.289,3.291-3.289C493.333,351.059,494.807,352.533,494.807,354.348z"/>
			<circle fill="#FFFFFF" cx="484.936" cy="354.348" r="3.289"/>
			<circle fill="#FBAD18" cx="478.357" cy="354.348" r="3.29"/>
			<circle fill="#FFFFFF" cx="471.779" cy="354.348" r="3.289"/>
			<circle fill="#FBAD18" cx="465.2" cy="354.348" r="3.29"/>
			<circle fill="#FFFFFF" cx="458.621" cy="354.348" r="3.29"/>
			<circle fill="#FBAD18" cx="452.042" cy="354.348" r="3.289"/>
			<circle fill="#FFFFFF" cx="445.464" cy="354.348" r="3.289"/>
		</g>
		<rect x="442.175" y="333.319" fill="#FECC1C" width="98.683" height="21.029"/>
	</g>
</g>
<rect x="0.235" y="381.691" fill="#5B746F" width="933.765" height="10.096"/>
<g>
	<rect x="0.235" y="391.769" fill="#475A56" width="933.765" height="36"/>
	<g>
		<path fill="#FFFFFF" d="M830.98,409.77c0,0.873,0.917,1.58,2.05,1.58h12.573c1.129,0,2.047-0.707,2.047-1.58l0,0
			c0-0.874-0.918-1.582-2.047-1.582H833.03C831.897,408.188,830.98,408.896,830.98,409.77L830.98,409.77z"/>
		<path fill="#FFFFFF" d="M863.347,409.77c0,0.873,0.915,1.58,2.051,1.58h12.57c1.131,0,2.046-0.707,2.046-1.58l0,0
			c0-0.874-0.915-1.582-2.046-1.582h-12.57C864.262,408.188,863.347,408.896,863.347,409.77L863.347,409.77z"/>
		<path fill="#FFFFFF" d="M895.713,409.77c0,0.873,0.918,1.58,2.049,1.58h12.574c1.13,0,2.046-0.707,2.046-1.58l0,0
			c0-0.874-0.916-1.582-2.046-1.582h-12.574C896.631,408.188,895.713,408.896,895.713,409.77L895.713,409.77z"/>
		<path fill="#FFFFFF" d="M798.616,409.77c0,0.873,0.917,1.58,2.049,1.58h12.568c1.13,0,2.05-0.707,2.05-1.58l0,0
			c0-0.874-0.92-1.582-2.05-1.582h-12.568C799.533,408.188,798.616,408.896,798.616,409.77L798.616,409.77z"/>
		<path fill="#FFFFFF" d="M766.252,409.77c0,0.873,0.915,1.58,2.049,1.58h12.567c1.133,0,2.049-0.707,2.049-1.58l0,0
			c0-0.874-0.916-1.582-2.049-1.582h-12.567C767.167,408.188,766.252,408.896,766.252,409.77L766.252,409.77z"/>
		<path fill="#FFFFFF" d="M733.884,409.77c0,0.873,0.919,1.58,2.052,1.58h12.568c1.134,0,2.048-0.707,2.048-1.58l0,0
			c0-0.874-0.914-1.582-2.048-1.582h-12.568C734.803,408.188,733.884,408.896,733.884,409.77L733.884,409.77z"/>
		<path fill="#FFFFFF" d="M701.519,409.77c0,0.873,0.918,1.58,2.052,1.58h12.568c1.132,0,2.047-0.707,2.047-1.58l0,0
			c0-0.874-0.915-1.582-2.047-1.582H703.57C702.437,408.188,701.519,408.896,701.519,409.77L701.519,409.77z"/>
		<path fill="#FFFFFF" d="M669.151,409.77c0,0.873,0.917,1.58,2.049,1.58h12.573c1.129,0,2.048-0.707,2.048-1.58l0,0
			c0-0.874-0.919-1.582-2.048-1.582H671.2C670.068,408.188,669.151,408.896,669.151,409.77L669.151,409.77z"/>
		<path fill="#FFFFFF" d="M636.789,409.77c0,0.873,0.916,1.58,2.05,1.58h12.57c1.13,0,2.046-0.707,2.046-1.58l0,0
			c0-0.874-0.916-1.582-2.046-1.582h-12.57C637.705,408.188,636.789,408.896,636.789,409.77L636.789,409.77z"/>
		<path fill="#FFFFFF" d="M604.424,409.77c0,0.873,0.917,1.58,2.05,1.58h12.57c1.132,0,2.046-0.707,2.046-1.58l0,0
			c0-0.874-0.914-1.582-2.046-1.582h-12.57C605.341,408.188,604.424,408.896,604.424,409.77L604.424,409.77z"/>
		<path fill="#FFFFFF" d="M572.056,409.77c0,0.873,0.92,1.58,2.052,1.58h12.569c1.132,0,2.05-0.707,2.05-1.58l0,0
			c0-0.874-0.918-1.582-2.05-1.582h-12.569C572.976,408.188,572.056,408.896,572.056,409.77L572.056,409.77z"/>
		<path fill="#FFFFFF" d="M539.692,409.77c0,0.873,0.916,1.58,2.048,1.58h12.569c1.132,0,2.047-0.707,2.047-1.58l0,0
			c0-0.874-0.915-1.582-2.047-1.582H541.74C540.608,408.188,539.692,408.896,539.692,409.77L539.692,409.77z"/>
		<path fill="#FFFFFF" d="M507.324,409.77c0,0.873,0.919,1.58,2.053,1.58h12.569c1.133,0,2.048-0.707,2.048-1.58l0,0
			c0-0.874-0.915-1.582-2.048-1.582h-12.569C508.243,408.188,507.324,408.896,507.324,409.77L507.324,409.77z"/>
		<path fill="#FFFFFF" d="M474.961,409.77c0,0.873,0.918,1.58,2.052,1.58h12.568c1.13,0,2.047-0.707,2.047-1.58l0,0
			c0-0.874-0.917-1.582-2.047-1.582h-12.568C475.879,408.188,474.961,408.896,474.961,409.77L474.961,409.77z"/>
		<path fill="#FFFFFF" d="M442.595,409.77c0,0.873,0.917,1.58,2.05,1.58h12.569c1.132,0,2.046-0.707,2.046-1.58l0,0
			c0-0.874-0.915-1.582-2.046-1.582h-12.569C443.512,408.188,442.595,408.896,442.595,409.77L442.595,409.77z"/>
		<path fill="#FFFFFF" d="M410.229,409.77c0,0.873,0.918,1.58,2.05,1.58h12.57c1.132,0,2.046-0.707,2.046-1.58l0,0
			c0-0.874-0.915-1.582-2.046-1.582h-12.57C411.146,408.188,410.229,408.896,410.229,409.77L410.229,409.77z"/>
		<path fill="#FFFFFF" d="M377.864,409.77c0,0.873,0.917,1.58,2.051,1.58h12.569c1.132,0,2.047-0.707,2.047-1.58l0,0
			c0-0.874-0.916-1.582-2.047-1.582h-12.569C378.782,408.188,377.864,408.896,377.864,409.77L377.864,409.77z"/>
		<path fill="#FFFFFF" d="M345.5,409.77c0,0.873,0.917,1.58,2.051,1.58h12.568c1.133,0,2.048-0.707,2.048-1.58l0,0
			c0-0.874-0.915-1.582-2.048-1.582h-12.568C346.417,408.188,345.5,408.896,345.5,409.77L345.5,409.77z"/>
		<path fill="#FFFFFF" d="M313.135,409.77c0,0.873,0.918,1.58,2.051,1.58h12.568c1.133,0,2.047-0.707,2.047-1.58l0,0
			c0-0.874-0.914-1.582-2.047-1.582h-12.568C314.053,408.188,313.135,408.896,313.135,409.77L313.135,409.77z"/>
		<path fill="#FFFFFF" d="M280.77,409.77c0,0.873,0.918,1.58,2.051,1.58h12.569c1.132,0,2.048-0.707,2.048-1.58l0,0
			c0-0.874-0.916-1.582-2.048-1.582H282.82C281.688,408.188,280.77,408.896,280.77,409.77L280.77,409.77z"/>
		<path fill="#FFFFFF" d="M248.406,409.77c0,0.873,0.918,1.58,2.05,1.58h12.569c1.132,0,2.047-0.707,2.047-1.58l0,0
			c0-0.874-0.916-1.582-2.047-1.582h-12.569C249.324,408.188,248.406,408.896,248.406,409.77L248.406,409.77z"/>
		<path fill="#FFFFFF" d="M216.041,409.77c0,0.873,0.918,1.58,2.051,1.58h12.569c1.133,0,2.048-0.707,2.048-1.58l0,0
			c0-0.874-0.915-1.582-2.048-1.582h-12.569C216.959,408.188,216.041,408.896,216.041,409.77L216.041,409.77z"/>
		<path fill="#FFFFFF" d="M183.677,409.77c0,0.873,0.918,1.58,2.05,1.58h12.569c1.133,0,2.047-0.707,2.047-1.58l0,0
			c0-0.874-0.915-1.582-2.047-1.582h-12.569C184.595,408.188,183.677,408.896,183.677,409.77L183.677,409.77z"/>
		<path fill="#FFFFFF" d="M151.312,409.77c0,0.873,0.917,1.58,2.05,1.58h12.569c1.132,0,2.047-0.707,2.047-1.58l0,0
			c0-0.874-0.916-1.582-2.047-1.582h-12.569C152.229,408.188,151.312,408.896,151.312,409.77L151.312,409.77z"/>
		<path fill="#FFFFFF" d="M118.947,409.77c0,0.873,0.918,1.58,2.051,1.58h12.568c1.133,0,2.048-0.707,2.048-1.58l0,0
			c0-0.874-0.915-1.582-2.048-1.582h-12.568C119.865,408.188,118.947,408.896,118.947,409.77L118.947,409.77z"/>
		<path fill="#FFFFFF" d="M86.582,409.77c0,0.873,0.918,1.58,2.05,1.58h12.569c1.133,0,2.047-0.707,2.047-1.58l0,0
			c0-0.874-0.914-1.582-2.047-1.582H88.632C87.5,408.188,86.582,408.896,86.582,409.77L86.582,409.77z"/>
		<path fill="#FFFFFF" d="M54.218,409.77c0,0.873,0.917,1.58,2.05,1.58h12.568c1.132,0,2.048-0.707,2.048-1.58l0,0
			c0-0.874-0.916-1.582-2.048-1.582H56.269C55.135,408.188,54.218,408.896,54.218,409.77L54.218,409.77z"/>
		<path fill="#FFFFFF" d="M21.853,409.77c0,0.873,0.917,1.58,2.049,1.58h12.569c1.133,0,2.049-0.707,2.049-1.58l0,0
			c0-0.874-0.916-1.582-2.049-1.582H23.902C22.77,408.188,21.853,408.896,21.853,409.77L21.853,409.77z"/>
	</g>
</g>
<rect y="427.79" fill="#85BD41" width="934" height="9.055"/>
<g>
	<path fill="#85BD41" d="M123.016,382.228c-2.832,0-5.397,1.123-7.292,2.94c-2.522-3.979-6.953-6.63-12.014-6.63
		c-7.856,0-14.227,6.37-14.228,14.228h44.072C133.553,386.946,128.835,382.228,123.016,382.228z"/>
</g>
<g>
	<path fill="#85BD41" d="M625.947,383.933c2.373,0,4.523,0.94,6.111,2.464c2.115-3.335,5.83-5.558,10.07-5.558
		c6.588,0,11.928,5.34,11.928,11.927h-36.945C617.113,387.888,621.068,383.933,625.947,383.933z"/>
</g>
<g>
	<path fill="#85BD41" d="M875.813,382.869c2.373,0,4.523,0.94,6.111,2.464c2.115-3.335,5.83-5.558,10.07-5.558
		c6.588,0,11.928,5.34,11.928,11.927h-36.945C866.979,386.824,870.934,382.869,875.813,382.869z"/>
</g>
<g>
	<path fill="#C6D92D" d="M382.789,350.917c0,7.854-6.371,14.227-14.227,14.227c-7.857,0-14.228-6.373-14.228-14.227
		c0-7.855,6.371-14.227,14.228-14.227C376.418,336.69,382.789,343.061,382.789,350.917z"/>
	<g>
		<path fill="#85BD41" d="M368.561,365.143V336.69c-7.856,0-14.227,6.371-14.227,14.225
			C354.333,358.772,360.704,365.143,368.561,365.143z"/>
	</g>
	<rect x="366.673" y="357.118" fill="#754D25" width="3.777" height="25.043"/>
</g>
<g>
	<circle fill="#C6D92D" cx="351.611" cy="355.833" r="11.99"/>
	<g>
		<path fill="#85BD41" d="M351.611,367.819v-23.977c-6.622,0-11.99,5.369-11.99,11.988
			C339.621,362.452,344.99,367.819,351.611,367.819z"/>
	</g>
	<rect x="350.019" y="361.057" fill="#754D25" width="3.183" height="21.104"/>
</g>
<g>
	<path fill="#C1282D" d="M689.244,410.771c0.375-6.893,5.17-14.58,7.971-14.58h28.494c1.814,0,10.164,7.878,10.891,11.026h6.158
		c2.211,0,4,1.791,4,3.999v3.999c0,2.208-1.789,3.998-4,3.998h-49.543c-2.207,0-3.998-1.79-3.998-3.998v-3.999
		C689.217,411.066,689.227,410.917,689.244,410.771z"/>
	<circle fill="#33413E" cx="736.679" cy="418.239" r="5.108"/>
	<circle fill="#475A56" cx="736.68" cy="418.239" r="2.355"/>
	<circle fill="#33413E" cx="697.894" cy="418.239" r="5.108"/>
	<circle fill="#475A56" cx="697.895" cy="418.239" r="2.355"/>
	<path fill="#68857D" d="M726.211,398.809h-21.342v7.365h26.801C733.582,406.174,728.012,400.304,726.211,398.809z M692.785,406.174
		c0,0,4.641,0,10.717,0v-7.365h-6.832C695.51,400.085,693.881,402.942,692.785,406.174z"/>
	<path fill="#FFFFFF" d="M689.217,411.201h1.27c0.354,0,0.643,0.289,0.643,0.644v0.644c0,0.355-0.289,0.643-0.643,0.643h-1.27
		v-1.914C689.217,411.211,689.217,411.207,689.217,411.201z"/>
	<path fill="#FFFFFF" d="M745.766,409.553h0.627c0.232,0.507,0.365,1.069,0.365,1.663v1.241h-0.992
		c-0.533,0-0.967-0.434-0.967-0.968v-0.97C744.799,409.987,745.232,409.553,745.766,409.553z"/>
	<path fill="#33413E" d="M688.936,415.297c-0.463,0-0.838,0.374-0.838,0.84v0.837c0,0.463,0.375,0.839,0.838,0.839h1.354
		c0.463,0,0.84-0.376,0.84-0.839v-0.837c0-0.466-0.377-0.84-0.84-0.84H688.936z"/>
	<path fill="#33413E" d="M746.082,415.297c-0.463,0-0.838,0.374-0.838,0.84v0.837c0,0.463,0.375,0.839,0.838,0.839h1.354
		c0.463,0,0.838-0.376,0.838-0.839v-0.837c0-0.466-0.375-0.84-0.838-0.84H746.082z"/>
	<path fill="#A62227" d="M730.572,408.172c1.104,0,1.998-0.896,1.998-1.998s-0.895-1.997-1.998-1.997V408.172z"/>
</g>
<g>
	<path fill="#9DD6C6" d="M263.403,395.117c-0.375-6.894-5.172-14.58-7.972-14.58h-11.657c-1.813,0-10.163,7.879-10.892,11.025
		h-6.157c-2.208,0-3.999,1.792-3.999,4.001v3.997c0,2.209,1.791,4,3.999,4h32.706c2.209,0,3.997-1.791,3.997-4v-3.997
		C263.428,395.412,263.419,395.262,263.403,395.117z"/>
	<g>
		<circle fill="#33413E" cx="232.803" cy="402.584" r="5.108"/>
		<circle fill="#475A56" cx="232.804" cy="402.584" r="2.357"/>
	</g>
	<g>
		<circle fill="#33413E" cx="254.752" cy="402.584" r="5.109"/>
		<circle fill="#475A56" cx="254.752" cy="402.584" r="2.356"/>
	</g>
	<path fill="#68857D" d="M255.976,383.155h-12.704c-1.8,1.496-7.372,7.364-5.458,7.364c1.422,0,22.048,0,22.048,0
		C258.765,387.29,257.136,384.431,255.976,383.155z"/>
	<path fill="#FFFFFF" d="M263.428,395.546h-1.267c-0.355,0-0.644,0.288-0.644,0.644v0.644c0,0.354,0.288,0.642,0.644,0.642h1.267
		v-1.912C263.428,395.557,263.428,395.551,263.428,395.546z"/>
	<path fill="#FFFFFF" d="M223.718,393.899h-0.627c-0.231,0.507-0.365,1.067-0.365,1.664v1.241h0.992
		c0.533,0,0.969-0.434,0.969-0.969v-0.969C224.687,394.333,224.251,393.899,223.718,393.899z"/>
	<g>
		<path fill="#33413E" d="M263.71,399.642c0.463,0,0.838,0.375,0.838,0.839v0.838c0,0.464-0.375,0.839-0.838,0.839h-1.355
			c-0.461,0-0.837-0.375-0.837-0.839v-0.838c0-0.464,0.376-0.839,0.837-0.839H263.71z"/>
	</g>
	<g>
		<path fill="#33413E" d="M223.402,399.642c0.465,0,0.84,0.375,0.84,0.839v0.838c0,0.464-0.375,0.839-0.84,0.839h-1.352
			c-0.465,0-0.84-0.375-0.84-0.839v-0.838c0-0.464,0.375-0.839,0.84-0.839H223.402z"/>
	</g>
	<path fill="#81CCB5" d="M238.621,391.936c-0.781,0-1.418-0.634-1.418-1.417c0-0.78,0.637-1.415,1.418-1.415V391.936z"/>
</g>
</svg>
