<?xml version="1.0"?>
<svg width="346.708" height="346.708" xmlns="http://www.w3.org/2000/svg" xmlns:svg="http://www.w3.org/2000/svg" color='white'>
 <g>
  <title>Layer 1</title>
  <g id="svg_5"/>
  <g id="svg_6"/>
  <g id="svg_7"/>
  <g id="svg_8"/>
  <g id="svg_9"/>
  <g id="svg_10"/>
  <g id="svg_11"/>
  <g id="svg_12"/>
  <g id="svg_13"/>
  <g id="svg_14"/>
  <g id="svg_15"/>
  <g id="svg_16"/>
  <g id="svg_17"/>
  <g id="svg_18"/>
  <g id="svg_19"/>
  <path d="m103.354004,216.291992c-2.023331,0 -2.893326,0 -3.573334,0c-1.169495,0 -2.036499,0 -2.947495,0c-0.464508,0 -1.3965,0 -2.757675,0c-0.864334,0 -1.285492,0 -2.110825,0c-0.809341,0 -2.010727,-0.005829 -2.810669,0.004501c-0.80011,0.01033 -1.603806,0.016861 -2.800003,0.16217c-0.801926,0.097412 -1.599594,0.258026 -2.363998,0.515991c-0.762268,0.257248 -1.83194,0.836227 -2.474335,1.327164c-0.638367,0.487869 -1.198669,1.04335 -2.240494,2.06868c-0.472412,0.464935 -1.16748,1.130219 -1.690506,1.520157c-0.850266,0.633911 -1.542259,1.002853 -2.251503,1.422165c-0.732826,0.433258 -1.828064,1.126038 -2.4925,1.664505c-0.655937,0.53157 -1.248062,1.117722 -1.524994,1.419174c-1.071999,1.166885 -1.513962,1.78595 -1.920006,2.395493c-0.393745,0.59108 -0.894882,1.49118 -1.2845,2.395493c-0.249161,0.578323 -0.554848,1.419571 -0.955833,2.420502c-0.364433,0.909698 -0.667641,1.846802 -0.744164,2.641174c-0.081963,0.85083 -0.056496,1.444168 -0.057167,2.642838c-0.000504,0.899994 0,1.5 0,2.699829c0,0.889496 0,1.742996 0,2.778992c0,0.706512 -0.003571,1.431 0.000168,2.564178c0.00222,0.671341 0.003654,1.399658 0.056999,2.166c0.083054,1.19313 0.200226,1.994904 0.389496,2.769653c0.27314,1.118073 0.691612,2.104996 1.037338,2.650681c0.477997,0.754456 1.062492,1.346085 1.631996,2.170654c0.538956,0.780365 1.040184,1.608673 1.536667,2.200012c0.51136,0.60907 1.201477,1.386383 1.711334,2.189331c0.345848,0.544647 0.936005,1.448975 1.636002,2.043976l0.757164,0.21936l0.891006,0.299988l0.782494,0.363342" id="svg_27" stroke-linecap="null" stroke-linejoin="null" stroke-dasharray="null" stroke-width="5" stroke="#000000" fill="none"/>
  <path d="m97.354004,231.291992c-1.666168,0.718826 -2.278046,1.26265 -2.772003,1.688004c-0.862686,0.742859 -1.538177,1.263229 -2.227997,1.832825c-0.699646,0.577713 -1.067108,0.845734 -1.957336,1.77951c-0.560242,0.587631 -1.045105,1.239502 -1.548004,1.914001c-0.832047,1.115967 -1.133514,1.531113 -1.799988,2.38649c-0.343369,0.440704 -1.041245,1.314758 -1.389343,1.736664c-0.964386,1.168839 -1.534012,1.808426 -2.033325,2.365173c-0.450089,0.501862 -1.278275,1.459213 -1.671997,1.981339c-0.609818,0.808685 -0.983185,1.37645 -1.600006,2.149323c-0.579956,0.726685 -1.220688,1.354156 -1.833328,2.333344c-0.312683,0.499756 -0.634033,1.349503 -1.050674,2.149323c-0.406174,0.779724 -0.968346,1.438721 -1.463333,2.136673c-0.668869,0.943146 -0.882957,1.508057 -1.278,2.321991c-0.519165,1.069702 -1.007416,1.781128 -1.549332,2.378662c-0.635986,0.701263 -1.39904,1.09903 -1.739998,2.045349c-0.290924,0.807434 -0.085335,1.801331 -0.085335,2.558502c0,0.895508 0,1.75882 0,2.722015c0,0.920807 -0.079353,1.845398 0.166664,2.6875c0.202324,0.692535 0.624435,1.43985 1.133339,2.428833c0.294113,0.571533 0.877426,1.539368 1.399994,2.099976c0.672035,0.720947 1.656906,0.869385 2.214668,1.588501c0.501335,0.646393 0.743698,1.525879 1.685333,1.705322c0.884148,0.168518 1.799995,0.010681 2.704506,0.010681c0.862167,0 1.695496,0 2.673996,0c0.82016,0 1.657501,0 2.674164,0l0.694672,0" id="svg_28" stroke-linecap="null" stroke-linejoin="null" stroke-dasharray="null" stroke-width="5" stroke="#000000" fill="none"/>
  <path stroke="#000000" d="m128.353394,254.291992c0,2.999817 0.012054,4.499847 0,5.999695c-0.01178,1.465485 -0.681168,2.343933 -1.189758,3.507263c-0.565247,1.292938 -1.18631,2.321899 -1.861832,3.325653c-0.78212,1.16217 -1.042465,2.740448 -1.846024,3.555359c-0.773636,0.784637 -1.977875,0.418854 -2.679932,1.451874c-0.673767,0.991394 -1.378983,2.313843 -2.142334,3.098999c-0.829102,0.852783 -1.925095,0.600464 -2.940063,0.728821c-1.10289,0.139496 -1.851471,0.712341 -2.712524,1.333282c-0.906891,0.653961 -1.8349,1.331604 -2.710999,2.275421c-0.702087,0.756378 -1.270721,1.859375 -2.486298,2.650726c-0.837845,0.54541 -1.835571,0.712341 -2.700653,1.362396c-0.905594,0.680481 -1.928329,0.708832 -2.915955,0.708832c-0.962372,0 -2.044937,0 -2.919739,0c-1.022263,0 -2.089386,0 -3.213013,0c-0.84465,0 -1.986725,0 -2.967941,0c-0.992905,0 -2.010086,0 -2.86586,0c-1.0121,0 -1.987885,0.009338 -3.076447,0c-1.040787,-0.008881 -2.002808,-0.721375 -2.849091,-1.388763c-0.894501,-0.705475 -1.519241,-1.595184 -2.373459,-2.313507c-0.756226,-0.635925 -1.469269,-1.96405 -2.1474,-2.96402c-0.678131,-0.999939 -1.705124,-1.898407 -2.163986,-3.193146c-0.419441,-1.183502 -0.871986,-2.510468 -1.162056,-3.973114c-0.286072,-1.442505 -0.064606,-2.999847 -0.064606,-4.499756l0,-1.333252" id="svg_29" stroke-linecap="null" stroke-linejoin="null" stroke-dasharray="null" stroke-width="5" fill="none"/>
  <path d="m132.354004,253.291992c0,1.671997 0,2.769348 0,3.520844c0,0.796478 0,1.792511 0,2.632477c0,0.961365 0,1.84668 0,2.731995c0,0.950684 0,1.716003 0,2.710205c0,0.747314 -0.07605,1.802734 0.221497,2.725983c0.233337,0.72403 0.566696,1.28653 1.078506,2.274017c0.39006,0.752563 0.92511,1.501526 1.399994,2.157166c0.634521,0.875977 0.950027,1.629639 1.5,2.362c0.46022,0.612823 1.187164,1.298401 1.900009,1.985168c0.491318,0.473328 1.487442,0.824585 2.101334,1.469482c0.519821,0.546051 1.101227,1.435669 1.79866,1.909851c0.812668,0.55249 1.342972,0.965118 2.166672,1.520813c0.646393,0.436066 1.438019,0.793396 2.231995,1.199982c0.768631,0.393646 1.661072,1.092865 2.354004,1.442871c0.848083,0.428314 1.646576,0.28598 2.494659,0.714325c0.692932,0.349976 1.556091,1.083435 2.268677,1.357483c0.837372,0.322021 1.82431,0.467041 2.483994,0.806183c1.01152,0.519989 1.488434,1.036102 2.333328,1.479156c0.650146,0.340912 1.648087,0.698181 2.523666,0.87851c0.82486,0.16983 1.794479,0.10965 2.626999,0.405487c0.706085,0.250916 1.62941,0.673309 2.682678,0.716003c0.658127,0.026672 1.699539,-0.185547 2.528824,0.057159c0.881363,0.257935 1.602982,0.914246 2.40451,0.942841c0.899414,0.032104 1.699997,0 2.657166,0c0.895493,0 1.758835,0 2.722,0c0.825333,0 1.846436,0.057922 2.520828,-0.020844c0.992081,-0.115875 1.676468,-0.674866 2.520828,-0.979156c0.945038,-0.340576 1.704132,-0.536316 2.457504,-1.100006c0.714172,-0.534363 0.841736,-1.508514 1.37883,-2.195496c0.581604,-0.743896 1.58194,-0.919708 1.642838,-1.804504c0.061798,-0.897858 -0.011429,-1.714417 0.001328,-2.670654c0.010284,-0.77121 0.045547,-1.638702 0.220169,-2.529175c0.176071,-0.897888 0.356125,-1.476776 0.778503,-2.533478c0.381195,-0.953674 0.744324,-1.626953 1.321335,-2.588196c0.324173,-0.540009 0.702942,-1.085541 1.194672,-1.979828c0.486893,-0.885529 0.850006,-1.787201 1.073334,-2.362671c0.414413,-1.067871 0.745239,-1.758453 1.053497,-2.57431c0.381027,-1.008423 0.821014,-1.741302 1.190491,-2.494995c0.373093,-0.761078 0.143311,-1.713318 0.251999,-2.485352c0.141571,-1.005707 0.492905,-1.638214 0.748001,-2.681335c0.190048,-0.777161 0.166672,-1.833313 0.166672,-2.638336c0,-0.90332 0,-1.848328 0,-2.608337c0,-0.919998 0,-1.705994 0,-2.528c0,-1.058655 0,-2 0,-2.677994c0,-0.968506 0,-1.761993 0,-2.778c0,-0.955002 0,-1.869339 0,-2.769333c0,-0.800003 0.11528,-1.711594 -0.035995,-2.636002c-0.142746,-0.872284 -0.525467,-1.571335 -1.164001,-2.479996c-0.37236,-0.529892 -0.989227,-1.374344 -1.400009,-2.05867c-0.487167,-0.811569 -0.889572,-1.610825 -1.399994,-2.304504c-0.48555,-0.659882 -1.318054,-1.057846 -2.166672,-1.520828c-0.703461,-0.383789 -1.236298,-1.000244 -1.833328,-1.5c-0.625107,-0.52327 -1.384247,-0.646179 -2.052673,-1.147339c-0.661667,-0.496094 -1.334488,-0.667145 -2.113998,-1.185989c-0.707458,-0.470871 -1.606323,-0.461426 -2.117325,-1.084c-0.503418,-0.613342 -0.768677,-1.377335 -1.326675,-2.097336l-0.778656,-0.421341l-0.526672,-0.763992" id="svg_30" stroke-linecap="null" stroke-linejoin="null" stroke-dasharray="null" stroke-width="5" stroke="#000000" fill="none"/>
  <path d="m121.354004,213.291992c0,1.835999 0,2.601334 0,3.595505c0,0.919159 0.000092,1.883667 0,2.815155c-0.000092,0.910675 0.165222,1.646881 -0.221497,2.567841c-0.334702,0.797089 -1.298828,1.346237 -1.657166,2.121674c-0.340439,0.73671 -0.518326,1.747253 -0.922668,2.415833c-0.456146,0.754227 -1.198669,1.483994 -1.698669,1.983994c-0.699997,0.699997 -1.300003,1.300003 -1.899994,1.899994c-0.700012,0.700012 -1.347198,1.256592 -1.895508,1.900009c-0.64212,0.753494 -0.830124,1.732666 -1.31517,2.300003c-0.634277,0.741882 -1.343658,1.175598 -2.093826,1.457153c-0.845261,0.317245 -1.159988,1.251389 -1.296829,2.142838c-0.140579,0.915787 -0.446808,1.618195 -1.024002,2.363998c-0.484131,0.625549 -1.073608,1.227936 -1.549332,2c-0.439285,0.712936 -0.425339,1.634674 -0.425339,2.520004c0,0.916 0,1.716003 0,2.615997c0,0.900009 -0.002243,1.800003 0,2.699997c0.002258,0.900024 0.234238,1.855652 0.761673,2.300003c0.819595,0.690475 1.582932,0.951004 2.481155,1.24733c0.854645,0.281952 1.394562,0.827667 2.157166,1.442001c0.744461,0.599716 1.553436,0.737198 2.210678,1.185318c0.735092,0.501221 1.710663,0.425354 2.563995,0.425354c0.94133,0 1.709335,0 2.650665,0c1.007996,0 1.800003,0 2.658661,0c0.863342,0 1.910568,0.064453 2.837509,-0.221313c0.719391,-0.221802 1.67981,-0.605286 2.4785,-0.764008c0.601013,-0.119476 1.604034,-0.580338 2.220825,-1.035507c0.66745,-0.492538 1.657639,-1.103012 2.193832,-1.34317c0.769714,-0.344757 1.84697,-0.795898 2.476334,-1.335999c0.750412,-0.643997 1.49437,-1.02594 2.109009,-1.46933c0.742783,-0.535828 0.983932,-1.359467 1.599991,-2.205338c0.584961,-0.803177 1,-1.450668 1.400009,-2.141342l0.599991,-0.837326l0.699844,-0.52533" id="svg_31" stroke-linecap="null" stroke-linejoin="null" stroke-dasharray="null" stroke-width="5" stroke="#000000" fill="none"/>
  <path d="m169.354004,218.291992c0,2.972 0,3.682663 0,4.457336c0,0.830658 0,2.164169 0,3.099823c0,0.478836 0,1.453506 0,1.947342c0,1.495499 0,2.494171 0,2.990997c0,0.983673 0,1.947342 0,2.419174c0,1.363663 0,2.223663 0,3.043655c0,0.779999 0,1.875 0,2.884506c0,0.636337 0,1.555832 0,2.457001c0,0.889496 0,1.742996 0,2.778503c0,0.87999 0.001923,1.90033 0,2.674332c-0.002258,0.90451 0.02211,1.673386 -0.285339,2.647324c-0.259979,0.823563 -0.700928,1.607117 -1.114655,2.389343c-0.387268,0.732208 -0.979874,1.632965 -1.570679,2.009323c-0.752365,0.479263 -1.510605,0.74939 -2.695999,1.034668c-0.802567,0.193146 -1.654831,0.166672 -2.543991,0.166672c-0.989502,0 -1.810165,0 -2.47467,0c-0.99733,0 -1.793839,0 -2.981339,0c-0.8125,0 -1.654663,0 -2.507996,0c-0.940002,0 -1.825333,0 -2.625336,0l-0.914658,-0.085327" id="svg_32" stroke-linecap="null" stroke-linejoin="null" stroke-dasharray="null" stroke-width="5" stroke="#000000" fill="none"/>
  <path d="m138.354004,228.291992c2.009827,0.352661 2.775543,0.618195 3.833328,0.833328c0.704193,0.143219 1.576324,0.164673 2.568008,0.450668c0.630386,0.181793 1.761459,0.582321 2.555832,0.658844c0.85083,0.08197 1.444168,0.056488 2.641495,0.057159c0.880508,0.000488 1.716125,-0.014008 2.716003,0.001328c0.664719,0.010193 1.694077,0.140045 2.47467,0.424011c0.734314,0.267136 1.799957,0.569321 2.621323,0.574661c0.91066,0.005905 1.764008,0 2.70401,0c0.88533,0 1.77066,0 2.710663,0l0.690674,0" id="svg_33" stroke-linecap="null" stroke-linejoin="null" stroke-dasharray="null" stroke-width="5" stroke="#000000" fill="none"/>
  <path d="m188.354004,252.291992c0,1.757172 0.052826,2.663437 -0.057159,3.404495c-0.149704,1.008652 -0.63739,1.724838 -0.857513,2.71019c-0.193909,0.868042 0.4216,1.838654 -0.085327,2.599976c-0.41008,0.615845 -1.543335,0.285339 -2.293335,0.285339c-0.929993,0 -2.039993,0 -2.875992,0c-0.892014,0 -1.351501,0 -2.282501,0c-1.3815,0 -2.262833,0 -2.69101,0c-0.836334,0 -1.652664,0 -2.857162,0c-0.796005,0 -1.567993,0 -2.628494,0c-1.10701,0 -1.939499,0 -2.7715,0c-0.900009,0 -1.800003,0 -2.700012,0c-0.899994,0 -1.785324,0 -2.735992,0c-0.765335,0 -1.759506,0 -2.506836,0l-1.021164,0l-0.835999,0" id="svg_34" stroke-linecap="null" stroke-linejoin="null" stroke-dasharray="null" stroke-width="5" stroke="#000000" fill="none"/>
  <path d="m151.354004,271.291992c1.600006,0.574646 2.39946,0.981995 3.300003,1c0.899811,0.018005 1.80127,-0.047791 2.699997,0c0.803406,0.042725 1.570068,0.642853 2.199997,1.198669c0.765717,0.675629 1.499985,0.799072 2.400009,0.801331c0.899994,0.002258 1.799988,0 2.789322,0c0.896011,0 1.710678,-0.000183 2.610672,-0.166687l0.699997,-0.480652l0.800003,-0.352661l0.795502,-0.361664" id="svg_35" stroke-linecap="null" stroke-linejoin="null" stroke-dasharray="null" stroke-width="5" stroke="#000000" fill="none"/>
  <path d="m90.354004,229.291992c0,2.014328 0,2.821335 0,4c0,0.601334 0,1.520828 0,2.157166c0,1.364166 0,2.095505 0,2.842834c0,0.74733 0,1.833328 0,2.838333c0,0.619995 0,1.475006 0,2.709c0,0.677994 0,1.873993 0,2.677994c0,0.549347 0,1.853348 0,2.549347c0,0.909332 0,1.909332 0,2.725327c0,0.815994 -0.00058,1.813339 0,2.653336c0.000671,0.961334 0.12468,1.880142 0.610672,2.446671c0.641708,0.748077 1.254486,1.232605 2.046494,1.699982c0.730011,0.430817 1.542664,0.799866 2.322006,1.179199l0.999161,0.399323l0.854996,0.12149l0.813339,0" id="svg_36" stroke-linecap="null" stroke-linejoin="null" stroke-dasharray="null" stroke-width="5" stroke="#000000" fill="none"/>
  <path d="m110.354004,206.291992c0.285339,-2.338669 0.431656,-3.123566 0.610672,-3.970673c0.091599,-0.433472 0.373703,-1.700317 0.593323,-2.463989c0.212952,-0.740509 0.48291,-1.497314 0.852005,-2.304001c0.670319,-1.465073 0.996674,-2.001694 1.306503,-2.585495c0.323471,-0.609543 0.66037,-1.237274 0.997498,-1.882507c0.341232,-0.653091 0.708527,-1.297119 1.596832,-3.271332c0.28244,-0.627716 0.530075,-1.249115 0.760498,-1.854004c0.436249,-1.145233 0.6185,-1.69133 0.794662,-2.210663c0.471863,-1.391037 0.73085,-2.185822 1.077347,-3.225342c0.209335,-0.628006 0.516556,-1.529694 0.799988,-2.41066c0.259064,-0.805237 0.563354,-1.850296 0.606171,-2.626663c0.053223,-0.965225 -0.003052,-1.759598 0.089828,-2.682678c0.10437,-1.037186 0.264557,-1.770752 0.435501,-2.532837c0.176178,-0.78537 0.480103,-1.978928 0.679169,-2.780487c0.200943,-0.809097 0.401672,-1.634277 0.5,-2.055832c0.305161,-1.308304 0.500793,-2.226669 0.699997,-3.168167c0.100403,-0.474594 0.29454,-1.423203 0.600006,-2.808014c0.098251,-0.445374 0.295181,-1.306183 0.5,-2.125c0.195404,-0.781158 0.498978,-1.87529 0.795502,-2.87999c0.183044,-0.620193 0.453903,-1.468628 0.620499,-2.474991c0.138351,-0.835724 0.367996,-1.801346 0.800003,-2.485352l0.273331,-0.801331" id="svg_37" stroke-linecap="null" stroke-linejoin="null" stroke-dasharray="null" stroke-width="5" stroke="#000000" fill="none"/>
  <path d="m172.354004,145.291992c0,2.96933 0,3.661331 0,4.38533c0,1.448013 0,2.132004 0,2.800003c0,1.024506 0,2.14801 0,2.983994c0,0.892014 0,1.351517 0,2.282516c0,1.3815 0,2.26416 0,2.695496c0,0.852661 0,1.705322 0,3.019318c0,0.914673 0,1.377014 0,2.291687c0,0.874664 0,2.041656 0,2.979156c0,0.80249 0,1.895844 0,2.533173c0,0.701324 0,1.838333 0,3.029327c0,0.79599 0,1.567993 0,2.291992c0,0.652008 0,1.850006 0,2.76001c0,1.002655 0,1.64534 0,2.343994c0,1.437347 0,2.118668 0,3.08316c0,0.616333 -0.007874,1.821121 0.004501,2.425354c0.019089,0.931824 0.047806,1.585907 0.279495,2.979492c0.123779,0.744476 0.304199,1.488205 0.432007,2.231995c0.182007,1.059189 0.244919,2.038666 0.309326,2.637344c0.116516,1.082962 0.424683,2.002518 0.622009,2.642166c0.306046,0.992035 0.241455,1.954742 0.357162,2.847321c0.113632,0.876678 0.751038,1.615082 1.031494,2.367828c0.307281,0.824768 0.916214,1.587112 0.962677,2.274673c0.063385,0.937943 0.162842,1.950958 0.575989,2.668015c0.422745,0.733704 0.993332,1.362656 1.720001,1.499329l0.684006,0.557983" id="svg_38" stroke-linecap="null" stroke-linejoin="null" stroke-dasharray="null" stroke-width="5" stroke="#000000" fill="none"/>
  <path d="m107.354004,222.291992c0,-1.85733 0,-2.518829 0,-3.642838c0,-0.666992 -0.000061,-1.742493 0,-2.474503c0.000092,-1.061157 -0.010269,-2.047867 0.035995,-2.671997c0.090027,-1.214355 0.236252,-1.811035 0.464005,-2.668991c0.205444,-0.77388 0.481995,-1.869171 0.5,-2.846161c0.015884,-0.86203 0,-1.716354 0,-2.695511c0,-0.810669 0,-1.457169 0,-2.689331c0,-0.578674 -0.000229,-1.58667 0,-2.810669c0.000092,-0.463989 0.001328,-1.458038 0.010666,-1.975998c0.018906,-1.048141 0.049728,-2.074463 0.156006,-3.024002c0.095078,-0.849457 0.270004,-1.611099 0.40799,-2.339996c0.281906,-1.48912 0.31868,-1.901855 0.368179,-2.769836c0.05191,-0.910248 0.054016,-1.841995 0.055832,-2.307495c0.00531,-1.36116 0.001328,-2.225494 0.001328,-3.061829c0,-0.816345 -0.004059,-2.020859 0.001328,-2.819519c0.005325,-0.790695 0.005676,-1.567795 0.084,-2.315994c0.14711,-1.405411 0.304871,-2.060837 0.676346,-2.92366c0.352829,-0.819489 0.85762,-1.536331 1.44899,-2.115005c0.744644,-0.728668 1.64476,-1.113419 2.218674,-1.64534c0.653625,-0.605759 0.991974,-1.46019 1.449326,-2.301147c0.406525,-0.747498 0.906921,-1.342133 1.406677,-2.098846c0.402145,-0.608917 1.255127,-0.927994 1.77182,-1.448654c0.517746,-0.521729 1.758469,-0.349701 1.941513,-1.154007c0.193207,-0.848953 0.001328,-1.741837 0.001328,-2.481339c0,-0.883499 -0.009399,-1.884079 0.004501,-2.974503c0.009735,-0.763779 0.019287,-1.550842 0.16217,-2.742828c0.096252,-0.803009 0.261734,-1.601685 0.444,-2.400009c0.183044,-0.801758 0.392197,-1.599274 0.587997,-2.398666c0.193497,-0.789978 0.409576,-1.557892 0.634659,-3.034668c0.103012,-0.675873 0.100311,-1.614059 0.250671,-2.394653c0.187317,-0.972427 0.681259,-1.683578 0.97316,-2.476501c0.27684,-0.752029 0.982681,-1.440201 1.332169,-2.120834c0.503128,-0.979828 0.598007,-1.812347 0.894669,-2.660004c0.258118,-0.737534 0.569916,-1.71875 0.716003,-2.493835c0.18956,-1.005707 0.706482,-1.423538 1.479172,-2.020828c0.648193,-0.501053 1.062698,-1.358551 1.354156,-2.166672c0.28833,-0.799423 0.329239,-1.853653 0.777344,-2.422668c0.610611,-0.77536 1.304337,-1.398041 1.388,-2.210663c0.098038,-0.952133 -0.016556,-1.867722 0.037323,-2.482666c0.092407,-1.054718 0.314102,-2.028824 0.484833,-2.738167c0.176376,-0.732796 0.481049,-1.811951 0.677841,-2.495163c0.283203,-0.983231 0.485428,-1.629784 0.634659,-2.650673c0.157928,-1.080475 0.153885,-1.834335 0.219345,-2.580658c0.095398,-1.087791 0.299988,-2.082001 0.447327,-2.669334l0.333328,-1.083336" id="svg_39" stroke-linecap="null" stroke-linejoin="null" stroke-dasharray="null" stroke-width="5" stroke="#000000" fill="none"/>
  <path d="m127.354004,100.291992c2.686661,0.854668 3.244537,1.299919 3.846664,1.795998c0.637741,0.525421 1.666061,1.297081 2.415009,1.751335c0.771088,0.467682 1.185425,0.677208 2.024994,1.136665c0.880463,0.481842 1.797791,0.999207 2.266006,1.268669c0.948257,0.545723 1.419739,0.825958 2.363327,1.363335c0.915146,0.521179 1.796692,0.999863 2.637329,1.447998c0.404694,0.215736 1.193344,0.616608 2.279999,1.236c0.68541,0.390678 1.33551,0.777748 2.205002,1.400002c0.809952,0.579643 1.512283,1.191719 2.151001,1.799995c0.414444,0.394699 1.210663,1.200005 1.810669,1.800003c0.600006,0.599998 1.396225,1.405304 1.810669,1.800003c0.638718,0.608276 1.605042,1.407494 2.141998,1.795502c0.541779,0.391479 1.357956,0.928169 2.362,1.520493c0.661026,0.389961 1.310226,0.734543 2.085327,1.369339c0.622192,0.509552 1.188156,1.128098 2.001343,1.91333c0.610718,0.589722 1.261795,1.153244 2.019836,1.580002c0.772766,0.435043 1.651764,0.664413 2.435822,1.342667c0.68576,0.593224 1.113342,1.535721 1.542999,2.042664c0.656647,0.77478 1.242004,1.33638 1.600006,2.136002c0.356323,0.795883 1.233307,1.180389 1.916,1.783997c0.599625,0.530167 1.197266,1.149872 1.584,1.736832c0.621826,0.943756 1.136002,1.568497 1.821335,2.079178l0.678665,0.399994l0.833328,0.5l0.645844,0.5" id="svg_41" stroke-linecap="null" stroke-linejoin="null" stroke-dasharray="null" stroke-width="5" stroke="#000000" fill="none"/>
  <path d="m174.354004,121.291992c0,3.258667 0,3.680496 0,4.604172c0,1.023666 0,1.570496 0,2.729156c0,1.236008 0,1.876511 0,2.528c0,0.6595 0,1.990509 0,2.656006c0,1.315994 0,1.961334 0,2.598663c0,1.258667 0,1.884003 0,2.509338c0,1.258667 0,2.541336 0,3.195999c0,0.662659 0,1.331329 0,2.678665c0,0.674667 0,1.347336 0,2.015991c0,1.317352 0,2.598679 0,3.226837c0,0.62117 0,1.846497 0,2.452682c0,0.603165 0,2.40416 0,3.001816c0,0.593674 0,1.761002 0,2.330673c0,1.101334 0,2.138672 0,3.104004c0,0.917328 0,1.367996 0,2.273331c0,1.428009 0,1.937668 0,3.009003c0,0.557663 0,1.707001 0,2.294662c0,0.593674 0,2.390503 0,2.987c0,0.5905 0,1.741501 0,2.29599c0,1.052017 0,2.008011 0,2.854675c0,1.132492 0,1.854172 0,2.986679c0,0.839981 0,1.759979 0,2.25c0,1.039993 -0.000626,1.589981 0,2.75c0.000671,1.231995 0.00116,1.863022 0.010666,2.495987c0.018738,1.248123 0.035187,1.851654 0.074661,2.432007c0.105759,1.555008 0.258865,2.411728 0.414673,3.155319c0.139755,0.666977 0.384125,1.882431 0.47467,2.762009c0.083023,0.806503 0.2854,1.659653 0.672668,2.512329c0.369583,0.813736 0.3526,1.794342 0.352661,2.519669c0.000092,0.989334 -0.062515,1.805084 0.166672,2.789337c0.190674,0.818878 0.613144,1.586792 0.748001,2.398666c0.155273,0.934814 0.085327,1.844162 0.085327,2.802658c0,0.965332 0,1.624008 0,2.632019c0,0.791992 0,1.819321 0,2.513992c0,1.016663 0,1.952667 0,2.851334c0,0.88533 0,1.801331 0,2.601334c0,0.899994 0,1.800003 0,2.699997c0,0.899994 0,1.800003 0,2.698669l0,0.88533" id="svg_40" stroke-linecap="null" stroke-linejoin="null" stroke-dasharray="null" stroke-width="5" stroke="#000000" fill="none"/>
  <path d="m129.354004,100.291992c0.709839,-1.657166 1.23819,-2.170517 1.9785,-3.199997c0.416367,-0.57901 0.813797,-1.403229 1.221497,-2.198669c0.39389,-0.768501 0.872482,-1.603439 1.400009,-2.190666c0.666626,-0.742065 1.39975,-1.410904 1.899994,-1.910667c0.701004,-0.700333 1.23732,-1.230736 2.152664,-1.800003c0.680695,-0.42334 1.478287,-0.881683 2.042831,-1.399994c0.737167,-0.676788 1.467041,-1.306885 2.129837,-1.700005c0.686478,-0.407173 1.447708,-1.166862 2.274673,-1.4785c0.849823,-0.320251 1.677261,-0.249123 2.420822,-0.621498c0.937622,-0.469566 1.653793,-0.49456 2.722,-0.5c0.856995,-0.004364 1.546875,-0.376877 2.0905,-1c0.556168,-0.637497 1.391312,-1.147171 1.645844,-2c0.244293,-0.818489 0.607407,-1.601982 1.420822,-1.97467c0.77977,-0.357269 1.592163,-0.902618 2.400009,-1.023994c0.908554,-0.136513 1.178787,-0.937447 1.720825,-1.522171c0.652954,-0.704391 1.179199,-1.179123 1.879166,-1.879166c0.699875,-0.699959 1.089645,-1.390541 1.600006,-2.079163c0.514954,-0.694817 1.117752,-1.173889 2,-1.6875c0.62706,-0.365051 1.443192,-0.718285 2.300003,-1.186005c0.745316,-0.406853 1.5,-0.64666 2.399994,-0.647331c0.942841,-0.000702 1.820831,0 2.699997,0c0.900009,0 1.803772,-0.082123 2.700012,0.000168c0.911438,0.083679 1.567169,0.61026 1.815994,1.483833c0.239441,0.840652 0.580734,1.684708 0.917328,2.515999c0.306595,0.757195 0.166672,1.714668 0.166672,2.610664c0,0.889336 0,1.789337 0,2.693832c0,0.862167 -0.675858,1.986671 0.057159,2.686501c0.64389,0.614731 1.744247,0.020409 2.642838,0.009003c0.82103,-0.010422 1.791412,-0.272118 2.510666,-0.610664c0.796326,-0.374832 1.589096,-0.789818 2.189331,-1.089333c1.000946,-0.499474 1.819763,-0.928268 2.766678,-1.133339c0.771866,-0.16716 1.596527,-0.078575 2.5,-0.333328c0.826736,-0.233116 1.631973,-0.804741 2.533325,-0.833336c0.899551,-0.028542 1.800873,-0.037201 2.600006,0c0.917633,0.042717 1.197739,0.875992 1.199997,1.764503c0.002396,0.943497 0,1.667496 0,2.439499c0,1.195831 0,1.991501 0,2.775162c0,0.763672 0,1.854172 0,2.86367c0,0.63633 0.005295,1.555847 -0.000168,2.456833c-0.005325,0.879044 0.10347,1.734474 -0.285172,2.731003c-0.301926,0.77417 -1.033463,1.621735 -1.314667,2.215996c-0.429108,0.906784 -0.684753,1.714241 -1.035995,2.528c-0.236191,0.547195 -0.836685,1.548935 -1.363998,2.204498c-0.505325,0.628242 -1.139389,1.406677 -1.58934,2.220833c-0.434967,0.787048 -0.858749,1.565735 -1.12532,2.314667c-0.342102,0.961159 -0.084946,2.008148 -0.342499,2.775505c-0.269791,0.80378 -1.168762,1.265259 -1.542847,1.931168c-0.5383,0.958214 -0.76828,1.605377 -1.285324,2.378662c-0.554794,0.829735 -1.111618,1.382118 -1.630676,1.914665c-0.832458,0.854103 -1.272034,1.618576 -1.567993,2.285339c-0.380737,0.857773 -0.880005,1.589333 -0.920502,2.552666l-0.420837,0.622002" id="svg_42" stroke-linecap="null" stroke-linejoin="null" stroke-dasharray="null" stroke-width="5" stroke="#000000" fill="none"/>
  <path d="m138.354004,194.291992c0,-2.341339 0,-3.143997 0,-4.042664c0,-0.475342 -0.000992,-1.957336 0.000168,-2.457336c0.002335,-1 0.015915,-2.000168 0.035828,-2.5c0.039841,-1.000427 0.11438,-2.002075 0.249344,-2.998672c0.134476,-0.992996 0.225342,-1.482483 0.419159,-2.444168c0.280838,-1.393524 0.39679,-1.835175 0.591003,-2.695496c0.185043,-0.819687 0.380157,-1.594788 0.537827,-2.694992c0.144119,-1.005646 0.132614,-1.649597 0.250671,-2.565338c0.15538,-1.205261 0.34848,-1.778061 0.563339,-2.587006c0.27655,-1.041245 0.352661,-2.014328 0.352661,-2.7715c0,-0.895493 0,-1.758835 0,-2.742828c0,-0.821503 0,-1.710663 0,-2.699829l0,-0.779343l0,-0.999329l0,-0.82016" id="svg_43" stroke-linecap="null" stroke-linejoin="null" stroke-dasharray="null" stroke-width="5" stroke="#000000" fill="none"/>
  <path d="m138.354004,127.291992c0,2.009827 0,2.785339 0,3.833328c0,0.941345 0,1.619339 0,2.587845c0,0.793488 0,1.809494 0,2.764496c0,0.914337 0.066437,1.821732 -0.057159,2.628662c-0.149063,0.973129 -0.466141,1.747421 -0.647339,2.351837c-0.299591,0.999283 -0.496506,1.721924 -0.706161,2.491165c-0.224976,0.825439 -0.468658,1.716446 -0.756012,2.675995c-0.310837,1.037979 -0.487625,1.576004 -0.833328,2.6875c-0.175491,0.56424 -0.364929,1.126022 -0.833328,2.8125c-0.151031,0.543793 -0.414719,1.613831 -0.541336,2.141342c-0.252106,1.050323 -0.373032,1.579254 -0.509338,2.109329c-0.421982,1.641022 -0.59433,2.199066 -0.94133,3.320007c-0.17186,0.555191 -0.346832,1.099487 -0.690674,2.141327c-0.459152,1.391266 -0.598679,1.79866 -0.963165,2.892166c-0.216324,0.649002 -0.511948,1.565552 -0.825333,2.462494c-0.210373,0.602112 -0.558578,1.511124 -1.01683,2.400345c-0.480942,0.933243 -0.881058,1.558777 -1.194664,2.270325c-0.508209,1.153076 -0.613579,1.594635 -0.848,2.490677c-0.240715,0.920105 -0.326767,1.391541 -0.636002,2.771988c-0.196983,0.879364 -0.391617,1.711548 -0.599998,2.484009c-0.192291,0.712784 -0.582397,1.919495 -0.900002,2.640991c-0.284409,0.646103 -0.838371,1.618713 -1.14283,2.384506c-0.350479,0.881561 -0.197838,1.955048 -0.709839,2.604492c-0.484543,0.614609 -0.510788,1.409317 -0.931328,2.25267c-0.329933,0.661652 -0.770287,1.605942 -1.517334,1.798676c-0.87735,0.226364 -1.507339,0.717636 -1.955833,1.467499c-0.569489,0.952164 -0.901772,1.487183 -1.242836,2.054657c-0.525734,0.874725 -0.994247,1.772354 -1.363998,2.668503c-0.235435,0.570618 -0.636002,1.643997 -0.940498,2.348999l-0.452667,0.800003l-0.725502,0.776337l-0.655998,0.47467" id="svg_44" stroke-linecap="null" stroke-linejoin="null" stroke-dasharray="null" stroke-width="5" stroke="#000000" fill="none"/>
  <path d="m117.354004,208.291992c0,-1.699997 -0.029442,-2.658096 0.286667,-3.486664c0.299759,-0.785721 0.873962,-1.683762 1.197334,-2.195999c0.506615,-0.802505 0.991554,-1.580048 1.631996,-2.346664c0.480293,-0.574921 1.38089,-1.153305 2.094666,-1.606674c0.802872,-0.509964 1.411888,-0.994675 1.953339,-1.574661c0.70623,-0.7565 1.186394,-1.587051 1.531502,-2.132172c0.581924,-0.919189 1.105766,-1.540344 1.608994,-2.30983c0.453819,-0.693924 1.186287,-1.454361 1.695503,-1.847336c0.844864,-0.651993 1.32399,-1.365738 1.884003,-2.016006c0.553101,-0.642242 1.315048,-1.037262 2.230667,-1.682663c0.597641,-0.421265 1.598618,-0.658859 2.274658,-1.237335c0.626816,-0.536346 0.653839,-1.465454 1.046677,-2.399994c0.243637,-0.57959 0.744415,-1.578049 1.105667,-2.18483c0.404617,-0.679626 1.228485,-1.665115 1.719666,-2.225845c0.524887,-0.599213 1.085083,-1.219208 1.817169,-2.27449c0.246124,-0.354782 0.684418,-1.094147 1.110825,-1.817505c0.408295,-0.692612 0.994125,-1.631134 1.600006,-2.389328c0.539169,-0.674713 1.203583,-1.463165 1.585327,-2.082672c0.392883,-0.637573 0.937927,-1.616135 1.450668,-2.403992c0.343521,-0.527832 1.024643,-1.439392 1.538666,-2.134674c0.449478,-0.607986 0.939285,-1.659225 1.136002,-2.171494c0.305115,-0.794571 0.658478,-1.813583 1.100006,-2.632507c0.457916,-0.849304 1.065765,-1.437027 1.315994,-2.330658c0.235703,-0.841721 0.415497,-1.78035 0.88533,-2.314667c0.644073,-0.732468 1.108673,-1.524704 1.624008,-2.17601c0.527451,-0.666626 0.574661,-1.546158 0.574829,-2.346664l0.035828,-0.853333l0.248001,-0.940002l0.432007,-0.68399" id="svg_45" stroke-linecap="null" stroke-linejoin="null" stroke-dasharray="null" stroke-width="5" stroke="#000000" fill="none"/>
  <path d="m170.354004,144.291992c-0.574661,1.600006 -0.911652,2.43013 -1.221497,3.321503c-0.249756,0.718521 -0.778503,1.678497 -1.078506,2.278503c-0.399994,0.799988 -0.828384,1.586563 -1.179169,2.379166c-0.435699,0.984497 -0.531174,1.706024 -0.963821,2.563995c-0.384949,0.763367 -0.784561,1.31044 -1.159668,1.944839c-0.607483,1.02739 -0.997345,1.764664 -1.397339,2.511993c-0.399994,0.74733 -0.999496,1.833618 -1.398666,2.517334c-0.390167,0.668289 -0.79509,1.330017 -1.115997,2.052002c-0.512405,1.152832 -0.733261,2.031326 -0.860001,2.470657c-0.251846,0.873001 -0.423355,1.7453 -0.946671,2.795166c-0.435287,0.873276 -0.994934,1.482315 -1.791992,1.995514c-0.77507,0.499054 -1.440033,1.066345 -1.986847,1.833664c-0.409164,0.574173 -0.596817,1.427612 -1.221161,2.414001c-0.303192,0.479004 -0.835693,1.09256 -1.657166,1.899994c-0.598282,0.588058 -1.46283,0.905533 -2.221497,1.305664c-0.858383,0.452713 -1.562027,0.675964 -2.300003,1.236832c-0.77652,0.590164 -1.200043,1.179123 -1.899994,1.879166c-0.69989,0.699966 -1.089645,1.390549 -1.600006,2.079178c-0.514954,0.694824 -0.635635,1.432999 -1.057159,2.163666c-0.467926,0.811111 -1.154541,1.328903 -1.517502,1.957169c-0.488571,0.845673 -0.874695,1.538345 -1.509338,2.115997c-0.646652,0.588593 -1.306259,1.058746 -1.916,1.617325c-0.639313,0.585678 -0.986496,1.673721 -1.304504,2.266678c-0.434433,0.810028 -1.012909,1.602982 -1.510162,2.189331c-0.471954,0.556519 -1.004074,1.506622 -1.610672,2.185333c-0.518845,0.580521 -1.286926,0.993912 -1.874664,1.73967c-0.49617,0.629562 -0.77565,1.499039 -1.220825,2.28566c-0.345779,0.610992 -0.949829,1.410797 -1.479172,1.979172c-0.813278,0.87326 -1.376213,1.352005 -2.052666,2.073502c-0.540863,0.576874 -0.789551,1.446289 -1,2.294662c-0.2267,0.913895 -0.985573,1.386581 -1.747337,1.736664c-0.749733,0.344559 -1.398666,1.115997 -1.914665,1.716003l-0.28083,0.899994l-0.061668,0.942841" id="svg_46" stroke-linecap="null" stroke-linejoin="null" stroke-dasharray="null" stroke-width="5" stroke="#000000" fill="none"/>
  <path d="m158.354004,206.291992c1.800003,0 2.699997,0 3.520828,0c0.965836,0 1.725845,0 2.645844,0c0.785995,0 1.608002,0 2.666656,0c0.941345,0 1.619339,0 2.853333,0c0.560013,0 1.475006,-0.000931 2.480011,0c0.714661,0.000671 1.791656,0.020828 2.466324,0.057159l1.102509,0.164169l0.832489,0.353333l0.832001,0.389343" id="svg_47" stroke-linecap="null" stroke-linejoin="null" stroke-dasharray="null" stroke-width="5" stroke="#000000" fill="none"/>
  <path d="m170.354004,167.291992c0,1.800003 0,2.583328 0,3.666672c0,0.673325 0,1.46666 0,2.339996c0,0.91333 0,1.82666 0,2.710663c0,0.867996 0,1.744003 0,2.652008c0,0.963989 0,2 0,2.540497c0,1.110992 0,1.675491 0,2.807495c0,1.115997 0,1.660843 0,2.716507c0,1.003662 0,1.48349 0,2.394165c0,1.229004 0,1.957657 0,2.950668c0,0.618668 0,1.819992 0,2.7005c0,0.835495 0,1.840836 0,2.583328c0,0.877502 0,2.022995 0,2.952667c0,0.496826 0,1.519501 0,2.031326c0,1.453506 0,2.297501 0,3.045502c0,0.994507 -0.00972,1.908112 0.004501,2.8125c0.009705,0.61647 0.053024,1.584869 0.216995,2.616669c0.116074,0.730392 0.272507,1.46553 0.579834,2.509506c0.274857,0.93367 0.586884,1.702789 0.898666,2.360336c0.481949,1.016418 0.846054,1.808685 1.400009,2.587494c0.457535,0.643265 1.241852,1.29245 1.699997,1.90683c0.548279,0.735275 0.884521,1.508591 1.117325,2.513336c0.175797,0.758667 0.562546,1.541565 1.23201,2.226669c0.645721,0.660812 0.627014,1.677719 1.207825,2.264832c0.654663,0.661774 1.412369,0.943909 2.053497,1.509827c0.723602,0.638718 1.432281,0.971039 2.105347,1.400009c0.883362,0.562988 1.646545,1.206863 2.309326,1.599991c0.686478,0.407166 1.535385,1.003464 2.274841,1.700012c0.533478,0.502518 1.390182,1.089188 2.074493,1.5c0.811752,0.48732 1.425781,1.036606 2.146835,1.5c0.67775,0.435562 1.682251,0.892639 2.274002,1.199997c0.752228,0.390717 1.656616,0.989868 2.203156,1.5c0.713715,0.666153 1.773712,0.902832 2.165344,1.625336c0.395584,0.729797 -0.00708,1.652283 0.108002,2.406662c0.180496,1.183182 0.472336,1.779938 0.948822,2.647171c0.314758,0.572891 0.989899,1.582581 1.332504,2.284836c0.39856,0.81694 0.614182,1.83017 0.642166,2.578827c0.038528,1.031113 0.004501,1.9785 0.004501,2.657166c0,0.978668 0,1.75267 0,2.652664c0,0.863327 0,1.847336 0,2.832657c0,0.725342 0,1.714508 0,2.493835c0,0.999512 0,1.773499 0,2.678009c0,0.944153 0,1.942841 0,2.742828c0,0.998688 0,1.764008 0,2.714661l0,0.885345l-0.221497,0.87851" id="svg_48" stroke-linecap="null" stroke-linejoin="null" stroke-dasharray="null" stroke-width="5" stroke="#000000" fill="none"/>
  <path d="m185.354004,287.291992c1.757172,0 2.657166,0 3.404495,0c0.995499,0 1.795502,0 2.795334,0c0.779343,0 1.778671,0 2.800171,0c0.800003,0 1.813385,0.393372 2.563995,-0.036011c0.690628,-0.395081 0.502502,-1.492615 1.140503,-2.073822c0.622589,-0.567169 0.949402,-1.238525 1.259506,-2.2435c0.267059,-0.865448 0.795914,-1.373962 1.331497,-2.299347c0.389038,-0.67218 0.618011,-1.592377 0.705826,-2.548645c0.063019,-0.686279 0.424011,-1.624023 0.714676,-2.314667l0.283997,-0.984009l0.221329,-0.82132l0.353333,-0.853333" id="svg_49" stroke-linecap="null" stroke-linejoin="null" stroke-dasharray="null" stroke-width="5" stroke="#000000" fill="none"/>
  <path d="m131.354004,274.291992c0,1.799988 0,2.635986 0,3.485321c0,0.919189 0,1.913361 0,2.67868c0,0.951996 -0.096832,1.726166 0.010666,2.650665c0.111557,0.95932 1.127335,1.220764 1.632172,1.889832c0.566635,0.750977 1.070282,1.195343 1.877991,1.316345c0.988739,0.148102 1.667297,0.64035 2.679169,0.857666c0.78833,0.169312 1.800003,0.12149 2.600006,0.12149c0.800003,0 1.795502,0 2.542831,0c0.904495,0 1.823837,0 2.636337,0c1.035492,0 1.822159,0 2.720825,0c0.900009,0 1.800003,-0.002258 2.699997,0c0.895523,0.002258 1.495346,0.522522 2.210678,1.02533c0.723938,0.50885 1.487732,0.865753 2.389328,0.97467c0.798737,0.096497 1.537186,0.746948 2.399994,0.963989c0.87352,0.219757 1.897888,-0.123322 2.547333,0.388672c0.614624,0.484528 1.497208,0.55188 2.25267,0.931335c0.867218,0.435577 1.574234,0.722107 2.448166,1.068665c0.656647,0.260406 1.637177,0.647339 2.452011,0.647339c0.785156,0 1.725159,0 2.733154,0c0.792007,0 1.650665,0 2.514008,0c1.005997,0 1.938416,0.02594 2.752502,0c0.897034,-0.028595 1.121658,-0.878662 2.000168,-1.221344l0.599991,-0.425995l0.900009,-0.34198l0.879166,-0.031525" id="svg_50" stroke-linecap="null" stroke-linejoin="null" stroke-dasharray="null" stroke-width="5" stroke="#000000" fill="none"/>
  <path d="m99.354004,279.291992c-1.657166,0.709839 -2.168861,1.240509 -3.199837,1.978333c-0.568161,0.406616 -1.290337,0.849762 -2.279327,1.000824c-0.910812,0.13913 -1.628029,0.473816 -2.520836,0.854187c-0.751541,0.32019 -1.699997,0.165924 -2.636002,0.166656c-0.848,0.000671 -1.754539,-0.050873 -2.606834,0.352661c-0.810593,0.383789 -1.557167,0.646667 -2.457161,0.647339c-0.900002,0.000671 -1.806442,-0.097931 -2.71067,0.010681c-0.928047,0.11145 -1.564011,0.562714 -2.568001,0.867981c-0.759018,0.230774 -1.665642,0.508942 -2.425835,0.768677c-0.783768,0.267792 -1.759453,0.347321 -2.710167,0.352661c-0.885315,0.004974 -1.642494,0 -2.537994,0c-0.863335,0 -1.8265,0 -2.758003,0c-0.910667,0 -1.764,0 -2.704002,0c-0.88533,0 -1.828384,0.49115 -2.599998,0c-0.568611,-0.361938 -0.232433,-1.534729 -0.637997,-2.299988c-0.448307,-0.845917 -0.473793,-1.738251 -0.73267,-2.5c-0.301762,-0.887939 -0.896664,-1.610168 -0.914665,-2.521179c-0.016151,-0.817352 -0.430447,-1.32663 -0.914665,-1.964172c-0.557228,-0.733673 -0.085335,-1.685333 -0.085335,-2.486664c0,-0.790497 0,-1.716003 0,-2.749664c0,-0.73999 0,-1.519989 0,-2.339996c0,-1.304993 0,-2.223663 0,-2.695496c0,-0.963684 0,-1.947327 0,-2.444183c0,-1.498169 0,-1.994659 0,-2.966644c0,-0.924011 0,-1.776001 0,-2.86734c0,-0.846008 -0.012623,-1.675415 0,-2.754013c0.010418,-0.890015 0.774879,-1.347244 0.995499,-2.115158c0.259106,-0.901871 -0.030926,-1.870361 0.040501,-2.552841c0.122704,-1.17244 0.309395,-1.703415 0.574669,-2.553329c0.372856,-1.194595 0.602856,-1.783401 0.8685,-2.668503c0.249527,-0.831406 0.393414,-1.840973 0.546165,-2.674164c0.152939,-0.834213 0.420994,-1.661041 1,-2.41066c0.483528,-0.626007 0.96822,-1.220123 1.331837,-2.088669c0.299927,-0.716415 0.928589,-1.603317 1.442833,-2.145996c0.681572,-0.719254 1.299995,-1.301346 1.899994,-1.901337c0.700005,-0.699997 1.223846,-1.393997 1.900002,-1.863998c0.805794,-0.560104 1.425331,-1.010666 2.047333,-1.488678l0.519333,-0.780655" id="svg_51" stroke-linecap="null" stroke-linejoin="null" stroke-dasharray="null" stroke-width="5" stroke="#000000" fill="none"/>
  <path d="m64.354004,222.291992c-0.010666,1.835999 -0.014267,2.623459 -0.357166,3.600006c-0.28894,0.822876 -0.731533,1.60614 -1.163666,2.420822c-0.355148,0.669556 -0.96394,1.660522 -1.293835,2.193832c-0.478558,0.773636 -1.037048,1.621399 -1.176334,2.476334c-0.146351,0.898285 -0.447826,1.706329 -1.108997,2.40918c-0.502155,0.533813 -1.143673,1.361832 -1.464001,2.074493c-0.411507,0.915512 -0.646961,1.797501 -1.010666,2.425339c-0.445969,0.769852 -0.326862,1.732056 -0.646835,2.721329c-0.228268,0.70575 -0.819477,1.483521 -1.257668,2.157837c-0.513683,0.790497 -0.357128,1.778122 -0.742165,2.620834c-0.305801,0.669296 -0.686783,1.506226 -0.789333,2.310654c-0.118225,0.927383 -0.562923,1.588135 -0.822666,2.58934c-0.198734,0.766037 -0.598263,1.595139 -1,2.333328c-0.414043,0.760803 -0.166668,1.781326 -0.166668,2.666672c0,0.799988 0,1.757172 0,2.652679c0,0.694641 0,1.711334 0,2.647308c0,0.901337 0,1.866669 0,2.700012c0,0.833344 0,1.752655 0,2.661652c0,0.800018 0,1.759521 0,2.553009c0,0.775513 0,1.814667 0,2.785339c0,0.799988 0,1.700012 0,2.600006c0,0.899994 -0.13271,1.810486 0.004501,2.699982c0.143677,0.931396 0.644173,1.528137 1.048164,2.400024c0.385338,0.831635 0.918736,1.598602 0.947334,2.498657c0.027122,0.853577 0.459625,1.486206 0.878502,2.244171c0.363113,0.657074 -0.07864,1.787994 0.474163,2.504486c0.479187,0.621094 1.273472,0.881042 1.942837,1.409851c0.741039,0.585449 0.74332,1.776367 1.408997,2.285645c0.677517,0.518341 1.21497,1.032684 1.731503,1.757172c0.559967,0.7854 1.034176,1.35318 1.585331,2.02533c0.543854,0.663269 1.462151,0.46051 2.335835,0.927338c0.802715,0.428925 1.642834,0.647339 2.47617,0.647339c0.871162,0 1.567459,0.200226 2.250664,0.716003c0.615349,0.464539 1.443649,0.425415 1.973167,0.931335c0.595001,0.568481 1.64283,0.352661 2.542831,0.352661c0.879166,0 1.835999,0 2.700005,0c0.898666,0 1.783997,0 2.699997,0c0.814331,0 1.767998,0 2.5,0c0.732002,0 1.817337,0 2.785332,0c0.914665,0 1.814499,0 2.689339,0c0.82666,0 1.739998,0 2.566994,0c0.941002,0 1.748505,0 2.743668,0c0.914665,0 1.814667,0 2.714668,0c0.87867,0 1.704498,0 2.564003,0c0.935997,0 1.886894,0.078888 2.62133,-0.036011c0.950638,-0.148712 1.647072,-0.733765 2.214668,-1.374664c0.639893,-0.722534 0.822174,-1.562531 1.599998,-2.255981c0.595055,-0.530518 1.463058,-0.906982 2.300003,-1.28067c0.772156,-0.344757 1.515533,-0.731171 2.299995,-1.078003c0.818039,-0.361694 1.616753,-0.782013 2.499832,-0.974823c0.843002,-0.184052 0.986351,-1.083008 1.604668,-1.704346c0.591812,-0.594696 1.140518,-1.405243 1.379501,-2.180847c0.239845,-0.778381 0.7099,-1.635742 1.211502,-2.357483c0.530037,-0.762634 0.507881,-1.591705 0.761665,-2.457184c0.257294,-0.877441 0.786934,-1.643158 1.16433,-2.40033c0.384537,-0.771484 0.884712,-1.439728 1.178505,-2.15033c0.306496,-0.741333 0.88253,-1.728516 1.314667,-2.546661c0.42527,-0.805145 0.974037,-1.301361 1.369331,-2.003998c0.459602,-0.816956 0.897995,-1.598114 0.916,-2.494171c0.017555,-0.873657 -0.03511,-1.725983 0.000168,-2.683167c0.028587,-0.775543 0.383942,-1.661499 0.647163,-2.368652c0.372597,-1.001007 0.636665,-1.852692 1.186005,-2.652679l0.21933,-0.700012l0.447334,-0.779144" id="svg_52" stroke-linecap="null" stroke-linejoin="null" stroke-dasharray="null" stroke-width="5" stroke="#000000" fill="none"/>
  <path d="m204.354004,262.291992c0.035995,1.779999 0.163391,2.833832 0.285339,3.623993c0.069946,0.453156 0.233582,1.438843 0.325333,1.957336c0.186768,1.055359 0.383438,2.086578 0.589325,3.049347c0.194443,0.90921 0.40065,1.783844 0.5,2.217499c0.301956,1.318024 0.499268,2.238953 0.710663,3.198486c0.1091,0.495239 0.342468,1.516022 0.47467,2.040009c0.27301,1.082123 0.597992,2.197144 0.762833,2.765991c0.332352,1.146942 0.501678,1.719177 0.641998,2.294678c0.409225,1.678375 0.483017,2.228943 0.600006,3.286499c0.056198,0.508026 0.107239,1.484955 0.192505,2.394165c0.115494,1.231415 0.257187,1.962128 0.438156,2.630341c0.25618,0.945923 0.587723,1.838715 0.8685,2.730988c0.180283,0.572937 0.489731,1.638733 0.574677,2.574677c0.0755,0.83197 0.035995,1.831482 0.035995,2.578827c0,1.021179 0.017487,1.857361 0,2.756989c-0.018005,0.926025 -0.59848,1.499878 -1.399994,1.874847c-0.88739,0.415131 -1.401871,0.910767 -1.90451,1.678009c-0.454346,0.693542 -1.17099,1.474579 -1.870163,1.936646c-0.794434,0.524994 -1.505707,0.82431 -2.304504,1.410675c-0.639099,0.469147 -1.225311,0.997742 -2.120834,1c-0.899994,0.002258 -1.810654,0 -2.721329,0c-0.853333,0 -1.793335,0 -2.678665,0c-0.757172,0 -1.652664,0 -2.516006,0c-0.963165,0 -1.873322,0 -2.769333,0c-0.914658,0 -1.814667,0 -2.714661,0c-0.757172,0 -1.758881,0.322784 -2.666672,-0.166656c-0.654633,-0.352936 -1.393173,-0.705078 -2.311996,-1.054688c-0.688736,-0.262054 -1.502701,-0.729401 -2.368668,-0.77417c-0.898834,-0.046478 -1.816727,-0.177917 -2.673492,-0.504486c-0.578781,-0.220612 -1.573792,-0.460144 -2.493835,-0.498657c-0.963913,-0.040344 -1.725494,-0.494171 -2.652008,-0.834686c-0.63028,-0.231659 -1.666824,-0.149506 -2.528824,-0.166656c-0.905045,-0.018005 -1.66304,-0.54187 -2.471176,-0.833344c-0.799423,-0.28833 -1.826187,-0.365479 -2.458664,-0.777313c-0.712891,-0.464203 -1.547852,-0.957153 -2.352997,-1.268005c-0.898697,-0.346954 -1.365875,-0.911804 -2.121674,-1.342834c-0.669083,-0.381561 -1.312164,-1.166534 -2,-1.878662c-0.509155,-0.52713 -1.089172,-1.390228 -1.5,-2.074493c-0.487289,-0.811615 -0.954071,-1.463379 -1.699997,-2.12085c-0.662231,-0.58371 -1.469543,-0.722504 -2.352661,-1.057159c-0.705627,-0.267395 -1.738144,-0.574402 -2.322006,-1.072662c-0.645447,-0.550812 -1.084793,-1.210571 -1.82666,-1.658691c-0.705292,-0.426056 -1.322784,-1.219025 -1.998672,-1.630646c-0.842484,-0.513092 -1.482864,-0.966248 -2.115997,-1.569336c-0.574127,-0.546875 -1.44548,-0.561096 -2.184006,-0.9375c-0.686264,-0.349762 -1.299988,-1.178497 -2,-1.87851c-0.5,-0.5 -1.132965,-1.296387 -1.899994,-1.733337c-0.779846,-0.444244 -1.356339,-0.936584 -2.100006,-1.388336c-0.68988,-0.419067 -1.08519,-1.271118 -1.5,-1.952972c-0.57959,-0.952728 -1.04335,-1.583069 -1.799988,-2.214691c-0.655548,-0.547241 -1.437515,-0.953583 -1.952667,-1.557983c-0.55098,-0.646423 -0.551865,-1.497223 -0.931335,-2.252686c-0.435577,-0.867188 -0.76944,-1.499573 -1.216003,-2.299988c-0.443588,-0.795074 -0.5,-1.721832 -0.5,-2.471985c0,-1.037842 0,-1.813354 0,-2.861359l0,-0.704987l0,-0.800018l0,-1.025665" id="svg_53" stroke-linecap="null" stroke-linejoin="null" stroke-dasharray="null" stroke-width="5" stroke="#000000" fill="none"/>
  <path d="m136.354004,84.291992c0.17067,-1.714668 0.899551,-1.922821 1.688004,-2.169334c1.025589,-0.320656 1.542953,-0.701035 2.416504,-1.182495c0.890457,-0.490768 1.788712,-0.896698 2.374664,-1.127335c0.832352,-0.327621 1.828201,-0.745926 2.541656,-1c0.739212,-0.263245 1.946793,-0.441391 2.629837,-0.495506c0.698318,-0.055321 2.02916,-0.142365 2.835007,-0.3825c0.707169,-0.210732 1.507339,-0.657333 2.303665,-1.032166c0.719254,-0.338547 1.704468,-0.454826 2.610657,-0.62133c0.831482,-0.152779 1.587402,-0.904297 2.400009,-0.987999c0.895264,-0.092209 1.839844,0.034897 2.610657,-0.437332c0.804276,-0.492737 1.421783,-0.970894 2.190674,-1.364006c0.793716,-0.405807 1.549561,-0.801674 2.513336,-1.115997c0.874786,-0.285301 1.584564,-0.496178 2.364502,-1.084c0.654251,-0.493095 0.947662,-1.408821 1.620834,-2.099998c0.493362,-0.506554 1.199997,-1.200005 1.899994,-1.900002c0.5,-0.5 1.321381,-1.113281 1.714661,-1.800003c0.435654,-0.760696 0.049561,0.053825 -0.476334,0.5c-0.82103,0.696571 -1.642349,0.999527 -2.216827,1.62117c-0.561157,0.607231 -1.162552,1.355713 -2.0215,1.845497c-0.673798,0.384216 -1.295059,0.98661 -2.020828,1.3125c-0.94989,0.426521 -1.805817,0.350807 -2.8125,0.6875c-0.706879,0.23642 -1.483337,0.762253 -2.377335,0.82267c-0.987137,0.066711 -1.806961,-0.059761 -2.789337,0.17733c-0.810745,0.195671 -1.511917,0.638763 -2.24733,1.128838c-0.634323,0.422714 -1.616028,0.536385 -2.585999,0.871162c-0.687027,0.237122 -1.469971,0.804741 -2.488007,0.833336c-0.678391,0.019058 -1.657166,0 -2.477325,0c-0.958511,0 -1.854004,0 -2.717346,0c-0.858658,0 -1.805328,0 -2.658661,0c-0.940002,0 -1.979752,-0.323189 -2.703995,0.221336c-0.642853,0.483322 -1.10582,1.195175 -1.621338,1.778664c-0.563568,0.637871 -1.112823,1.342812 -1.721497,1.87867c-0.707825,0.623138 -1.540253,0.769638 -2.167831,1.521332c-0.547333,0.655586 -0.97493,1.331429 -1.76001,1.625328c-0.824432,0.308632 -0.714111,1.331306 -1.134659,2.174667c-0.329926,0.661652 -0.982727,1.299774 -1.549332,1.966667c-0.581131,0.683998 -0.813171,1.533699 -1.166672,2.333336c-0.351837,0.795868 -0.989578,1.499794 -1,2.301331c-0.011673,0.89859 0,1.798668 0,2.698669c0,0.889336 0,1.785332 0,2.699997l0,0.899834l0,0.900169" id="svg_54" stroke-linecap="null" stroke-linejoin="null" stroke-dasharray="null" stroke-width="5" stroke="#000000" fill="none"/>
  <path d="m170.354004,127.291992c1.800003,0 2.840836,0.40625 3.563995,-0.071999c0.734283,-0.485603 0.775345,-1.42569 1.314667,-2.149498c0.563416,-0.756142 0.752502,-1.485832 1.121338,-2.278503c0.417847,-0.89801 1.231415,-1.182533 1.916,-1.783997c0.595657,-0.523331 1.384003,-0.716003 2.282669,-0.716003c0.854004,0 1.659958,-0.22448 1.801498,-1.099998c0.146072,-0.903542 0.586365,-1.494484 0.999832,-2.400002c0.363144,-0.795296 0.833328,-1.5 0.998672,-2.300003l0.001328,-0.899994l0.035995,-0.900002l0.389343,-0.800003" id="svg_55" stroke-linecap="null" stroke-linejoin="null" stroke-dasharray="null" stroke-width="5" stroke="#000000" fill="none"/>
 </g>
</svg>