<?xml version="1.0" encoding="iso-8859-1"?>
<!-- Generator: Adobe Illustrator 19.0.0, SVG Export Plug-In . SVG Version: 6.00 Build 0)  -->
<svg xmlns="http://www.w3.org/2000/svg" xmlns:xlink="http://www.w3.org/1999/xlink" version="1.1" id="Capa_1" x="0px" y="0px" viewBox="0 0 400 400" style="enable-background:new 0 0 400 400;" xml:space="preserve" width="512px" height="512px">
<g id="XMLID_863_">
	<path id="XMLID_864_" d="M392.886,52.24c-4.422-2.734-9.945-2.981-14.594-0.656L330,75.731V65c0-8.284-6.716-15-15-15H85   c-8.284,0-15,6.716-15,15v120c0,8.284,6.716,15,15,15h47.58c2.666,7.516,7.275,14.115,13.222,19.199L124.645,275H90v-30   c0-8.284-6.716-15-15-15H15c-8.284,0-15,6.716-15,15v90c0,8.284,6.716,15,15,15h60c8.284,0,15-6.716,15-15v-30h45   c6.233,0,11.816-3.854,14.026-9.683l24.776-65.348c0.399,0.011,0.796,0.03,1.198,0.03c19.555,0,36.227-12.541,42.42-30H315   c8.284,0,15-6.716,15-15v-10.73l48.292,24.146c2.117,1.059,4.414,1.584,6.707,1.584c2.742,0,5.478-0.752,7.886-2.24   c4.422-2.733,7.114-7.562,7.114-12.76V65C400,59.802,397.308,54.974,392.886,52.24z M100,80h200v30H100V80z" fill="#FFFFFF"/>
</g>
<g>
</g>
<g>
</g>
<g>
</g>
<g>
</g>
<g>
</g>
<g>
</g>
<g>
</g>
<g>
</g>
<g>
</g>
<g>
</g>
<g>
</g>
<g>
</g>
<g>
</g>
<g>
</g>
<g>
</g>
</svg>
