<?xml version="1.0" encoding="iso-8859-1"?>
<!-- Generator: Adobe Illustrator 16.0.0, SVG Export Plug-In . SVG Version: 6.00 Build 0)  -->
<!DOCTYPE svg PUBLIC "-//W3C//DTD SVG 1.1//EN" "http://www.w3.org/Graphics/SVG/1.1/DTD/svg11.dtd">
<svg xmlns="http://www.w3.org/2000/svg" xmlns:xlink="http://www.w3.org/1999/xlink" version="1.1" id="Capa_1" x="0px" y="0px" width="512px" height="512px" viewBox="0 0 440.699 440.7" style="enable-background:new 0 0 440.699 440.7;" xml:space="preserve">
<g>
	<g>
		<path d="M109.6,357.7c-14.1,0-25.1-11.602-25.1-25.102c0-14.101,11.6-25.101,25.1-25.101c14.1,0,25.1,11,25.1,25.101    C134.7,346.7,123.7,357.7,109.6,357.7z M301.801,207.799c-6.701-14.1-12.899-17.1-27.5-17.1H164.1c-14.7,0-20.8,3.1-27.5,17.1    l-34.3,72.2h234.399L301.801,207.799z M421.1,152.099L265.7,29.699c-12.898-9.8-29.398-15.3-45.899-15.3c-16.5,0-33,4.9-45.9,15.3    L18.4,152.099c-15.9,11.6-18.4,23.3-18.4,41v206.899C0,414.7,11.6,426.3,26.3,426.3h31.8V311.799c0-9.802,1.2-17.101,6.1-27.5    l50.2-104.7c6.1-12.2,21.4-22,34.9-22h142.001c13.5,0,29.398,9.8,34.898,22l50.301,104.7c4.9,10.399,6.1,17.698,6.1,27.5v114.399    H414.4c14.698,0,26.299-11.602,26.299-26.301V193.099C439.5,174.699,437,163.699,421.1,152.099z M328.699,307.499    c-14.101,0-25.101,11-25.101,25.101c0,14.102,11,25.102,25.101,25.102c14.102,0,25.102-11.602,25.102-25.102    S342.801,307.499,328.699,307.499z M112.7,425.598h213v-37.299h-213V425.598L112.7,425.598z" fill="#FFFFFF"/>
	</g>
</g>
<g>
</g>
<g>
</g>
<g>
</g>
<g>
</g>
<g>
</g>
<g>
</g>
<g>
</g>
<g>
</g>
<g>
</g>
<g>
</g>
<g>
</g>
<g>
</g>
<g>
</g>
<g>
</g>
<g>
</g>
</svg>
